%TF.GenerationSoftware,KiCad,Pcbnew,(5.1.9-0-10_14)*%
%TF.CreationDate,2021-02-28T11:16:04+01:00*%
%TF.ProjectId,PmodUsbUlpi,506d6f64-5573-4625-956c-70692e6b6963,1*%
%TF.SameCoordinates,Original*%
%TF.FileFunction,Legend,Top*%
%TF.FilePolarity,Positive*%
%FSLAX46Y46*%
G04 Gerber Fmt 4.6, Leading zero omitted, Abs format (unit mm)*
G04 Created by KiCad (PCBNEW (5.1.9-0-10_14)) date 2021-02-28 11:16:04*
%MOMM*%
%LPD*%
G01*
G04 APERTURE LIST*
%ADD10C,0.120000*%
%ADD11C,0.150000*%
G04 APERTURE END LIST*
D10*
%TO.C,R4*%
X145727500Y-94762742D02*
X145727500Y-95237258D01*
X146772500Y-94762742D02*
X146772500Y-95237258D01*
%TO.C,R3*%
X147477500Y-105487258D02*
X147477500Y-105012742D01*
X148522500Y-105487258D02*
X148522500Y-105012742D01*
%TO.C,U2*%
X153385000Y-102610000D02*
X153860000Y-102610000D01*
X148640000Y-97390000D02*
X148640000Y-97865000D01*
X149115000Y-97390000D02*
X148640000Y-97390000D01*
X153860000Y-97390000D02*
X153860000Y-97865000D01*
X153385000Y-97390000D02*
X153860000Y-97390000D01*
X148640000Y-102610000D02*
X148640000Y-102135000D01*
X149115000Y-102610000D02*
X148640000Y-102610000D01*
%TO.C,U1*%
X149250000Y-107440000D02*
X147450000Y-107440000D01*
X149250000Y-107440000D02*
X150050000Y-107440000D01*
X149250000Y-110560000D02*
X148450000Y-110560000D01*
X149250000Y-110560000D02*
X150050000Y-110560000D01*
%TO.C,R5*%
X149227500Y-105012742D02*
X149227500Y-105487258D01*
X150272500Y-105012742D02*
X150272500Y-105487258D01*
%TO.C,C5*%
X152490000Y-105109420D02*
X152490000Y-105390580D01*
X153510000Y-105109420D02*
X153510000Y-105390580D01*
%TO.C,C4*%
X145990000Y-101859420D02*
X145990000Y-102140580D01*
X147010000Y-101859420D02*
X147010000Y-102140580D01*
%TO.C,C3*%
X155859420Y-102760000D02*
X156140580Y-102760000D01*
X155859420Y-101740000D02*
X156140580Y-101740000D01*
%TO.C,C2*%
X151740000Y-108859420D02*
X151740000Y-109140580D01*
X152760000Y-108859420D02*
X152760000Y-109140580D01*
%TO.C,C1*%
X145740000Y-108859420D02*
X145740000Y-109140580D01*
X146760000Y-108859420D02*
X146760000Y-109140580D01*
%TO.C,D1*%
X142700000Y-94235000D02*
X144985000Y-94235000D01*
X144985000Y-94235000D02*
X144985000Y-92765000D01*
X144985000Y-92765000D02*
X142700000Y-92765000D01*
%TO.C,J3*%
X160130000Y-80890000D02*
X160130000Y-96250000D01*
X160130000Y-96250000D02*
X162790000Y-96250000D01*
X162790000Y-96250000D02*
X162790000Y-80890000D01*
X162790000Y-80890000D02*
X160130000Y-80890000D01*
X162790000Y-81840000D02*
X168790000Y-81840000D01*
X168790000Y-81840000D02*
X168790000Y-82600000D01*
X168790000Y-82600000D02*
X162790000Y-82600000D01*
X162790000Y-81900000D02*
X168790000Y-81900000D01*
X162790000Y-82020000D02*
X168790000Y-82020000D01*
X162790000Y-82140000D02*
X168790000Y-82140000D01*
X162790000Y-82260000D02*
X168790000Y-82260000D01*
X162790000Y-82380000D02*
X168790000Y-82380000D01*
X162790000Y-82500000D02*
X168790000Y-82500000D01*
X159732929Y-81840000D02*
X160130000Y-81840000D01*
X159732929Y-82600000D02*
X160130000Y-82600000D01*
X157260000Y-81840000D02*
X157647071Y-81840000D01*
X157260000Y-82600000D02*
X157647071Y-82600000D01*
X160130000Y-83490000D02*
X162790000Y-83490000D01*
X162790000Y-84380000D02*
X168790000Y-84380000D01*
X168790000Y-84380000D02*
X168790000Y-85140000D01*
X168790000Y-85140000D02*
X162790000Y-85140000D01*
X159732929Y-84380000D02*
X160130000Y-84380000D01*
X159732929Y-85140000D02*
X160130000Y-85140000D01*
X157192929Y-84380000D02*
X157647071Y-84380000D01*
X157192929Y-85140000D02*
X157647071Y-85140000D01*
X160130000Y-86030000D02*
X162790000Y-86030000D01*
X162790000Y-86920000D02*
X168790000Y-86920000D01*
X168790000Y-86920000D02*
X168790000Y-87680000D01*
X168790000Y-87680000D02*
X162790000Y-87680000D01*
X159732929Y-86920000D02*
X160130000Y-86920000D01*
X159732929Y-87680000D02*
X160130000Y-87680000D01*
X157192929Y-86920000D02*
X157647071Y-86920000D01*
X157192929Y-87680000D02*
X157647071Y-87680000D01*
X160130000Y-88570000D02*
X162790000Y-88570000D01*
X162790000Y-89460000D02*
X168790000Y-89460000D01*
X168790000Y-89460000D02*
X168790000Y-90220000D01*
X168790000Y-90220000D02*
X162790000Y-90220000D01*
X159732929Y-89460000D02*
X160130000Y-89460000D01*
X159732929Y-90220000D02*
X160130000Y-90220000D01*
X157192929Y-89460000D02*
X157647071Y-89460000D01*
X157192929Y-90220000D02*
X157647071Y-90220000D01*
X160130000Y-91110000D02*
X162790000Y-91110000D01*
X162790000Y-92000000D02*
X168790000Y-92000000D01*
X168790000Y-92000000D02*
X168790000Y-92760000D01*
X168790000Y-92760000D02*
X162790000Y-92760000D01*
X159732929Y-92000000D02*
X160130000Y-92000000D01*
X159732929Y-92760000D02*
X160130000Y-92760000D01*
X157192929Y-92000000D02*
X157647071Y-92000000D01*
X157192929Y-92760000D02*
X157647071Y-92760000D01*
X160130000Y-93650000D02*
X162790000Y-93650000D01*
X162790000Y-94540000D02*
X168790000Y-94540000D01*
X168790000Y-94540000D02*
X168790000Y-95300000D01*
X168790000Y-95300000D02*
X162790000Y-95300000D01*
X159732929Y-94540000D02*
X160130000Y-94540000D01*
X159732929Y-95300000D02*
X160130000Y-95300000D01*
X157192929Y-94540000D02*
X157647071Y-94540000D01*
X157192929Y-95300000D02*
X157647071Y-95300000D01*
X154880000Y-82220000D02*
X154880000Y-80950000D01*
X154880000Y-80950000D02*
X156150000Y-80950000D01*
%TO.C,J2*%
X160130000Y-103750000D02*
X160130000Y-119110000D01*
X160130000Y-119110000D02*
X162790000Y-119110000D01*
X162790000Y-119110000D02*
X162790000Y-103750000D01*
X162790000Y-103750000D02*
X160130000Y-103750000D01*
X162790000Y-104700000D02*
X168790000Y-104700000D01*
X168790000Y-104700000D02*
X168790000Y-105460000D01*
X168790000Y-105460000D02*
X162790000Y-105460000D01*
X162790000Y-104760000D02*
X168790000Y-104760000D01*
X162790000Y-104880000D02*
X168790000Y-104880000D01*
X162790000Y-105000000D02*
X168790000Y-105000000D01*
X162790000Y-105120000D02*
X168790000Y-105120000D01*
X162790000Y-105240000D02*
X168790000Y-105240000D01*
X162790000Y-105360000D02*
X168790000Y-105360000D01*
X159732929Y-104700000D02*
X160130000Y-104700000D01*
X159732929Y-105460000D02*
X160130000Y-105460000D01*
X157260000Y-104700000D02*
X157647071Y-104700000D01*
X157260000Y-105460000D02*
X157647071Y-105460000D01*
X160130000Y-106350000D02*
X162790000Y-106350000D01*
X162790000Y-107240000D02*
X168790000Y-107240000D01*
X168790000Y-107240000D02*
X168790000Y-108000000D01*
X168790000Y-108000000D02*
X162790000Y-108000000D01*
X159732929Y-107240000D02*
X160130000Y-107240000D01*
X159732929Y-108000000D02*
X160130000Y-108000000D01*
X157192929Y-107240000D02*
X157647071Y-107240000D01*
X157192929Y-108000000D02*
X157647071Y-108000000D01*
X160130000Y-108890000D02*
X162790000Y-108890000D01*
X162790000Y-109780000D02*
X168790000Y-109780000D01*
X168790000Y-109780000D02*
X168790000Y-110540000D01*
X168790000Y-110540000D02*
X162790000Y-110540000D01*
X159732929Y-109780000D02*
X160130000Y-109780000D01*
X159732929Y-110540000D02*
X160130000Y-110540000D01*
X157192929Y-109780000D02*
X157647071Y-109780000D01*
X157192929Y-110540000D02*
X157647071Y-110540000D01*
X160130000Y-111430000D02*
X162790000Y-111430000D01*
X162790000Y-112320000D02*
X168790000Y-112320000D01*
X168790000Y-112320000D02*
X168790000Y-113080000D01*
X168790000Y-113080000D02*
X162790000Y-113080000D01*
X159732929Y-112320000D02*
X160130000Y-112320000D01*
X159732929Y-113080000D02*
X160130000Y-113080000D01*
X157192929Y-112320000D02*
X157647071Y-112320000D01*
X157192929Y-113080000D02*
X157647071Y-113080000D01*
X160130000Y-113970000D02*
X162790000Y-113970000D01*
X162790000Y-114860000D02*
X168790000Y-114860000D01*
X168790000Y-114860000D02*
X168790000Y-115620000D01*
X168790000Y-115620000D02*
X162790000Y-115620000D01*
X159732929Y-114860000D02*
X160130000Y-114860000D01*
X159732929Y-115620000D02*
X160130000Y-115620000D01*
X157192929Y-114860000D02*
X157647071Y-114860000D01*
X157192929Y-115620000D02*
X157647071Y-115620000D01*
X160130000Y-116510000D02*
X162790000Y-116510000D01*
X162790000Y-117400000D02*
X168790000Y-117400000D01*
X168790000Y-117400000D02*
X168790000Y-118160000D01*
X168790000Y-118160000D02*
X162790000Y-118160000D01*
X159732929Y-117400000D02*
X160130000Y-117400000D01*
X159732929Y-118160000D02*
X160130000Y-118160000D01*
X157192929Y-117400000D02*
X157647071Y-117400000D01*
X157192929Y-118160000D02*
X157647071Y-118160000D01*
X154880000Y-105080000D02*
X154880000Y-103810000D01*
X154880000Y-103810000D02*
X156150000Y-103810000D01*
%TO.C,C8*%
X145740000Y-105390580D02*
X145740000Y-105109420D01*
X146760000Y-105390580D02*
X146760000Y-105109420D01*
%TO.C,R7*%
X143737258Y-92272500D02*
X143262742Y-92272500D01*
X143737258Y-91227500D02*
X143262742Y-91227500D01*
%TO.C,R2*%
X147477500Y-95237258D02*
X147477500Y-94762742D01*
X148522500Y-95237258D02*
X148522500Y-94762742D01*
%TO.C,R1*%
X142887258Y-106872500D02*
X142412742Y-106872500D01*
X142887258Y-105827500D02*
X142412742Y-105827500D01*
%TO.C,J1*%
X136715000Y-104580000D02*
X136715000Y-95420000D01*
X136715000Y-95420000D02*
X138420000Y-95420000D01*
X138420000Y-104580000D02*
X136715000Y-104580000D01*
X140430000Y-104580000D02*
X142350000Y-104580000D01*
X142350000Y-95420000D02*
X140430000Y-95420000D01*
%TO.C,R4*%
D11*
X146702380Y-92592976D02*
X146226190Y-92926309D01*
X146702380Y-93164404D02*
X145702380Y-93164404D01*
X145702380Y-92783452D01*
X145750000Y-92688214D01*
X145797619Y-92640595D01*
X145892857Y-92592976D01*
X146035714Y-92592976D01*
X146130952Y-92640595D01*
X146178571Y-92688214D01*
X146226190Y-92783452D01*
X146226190Y-93164404D01*
X146035714Y-91735833D02*
X146702380Y-91735833D01*
X145654761Y-91973928D02*
X146369047Y-92212023D01*
X146369047Y-91592976D01*
%TO.C,R3*%
X148361904Y-103133333D02*
X147980952Y-103400000D01*
X148361904Y-103590476D02*
X147561904Y-103590476D01*
X147561904Y-103285714D01*
X147600000Y-103209523D01*
X147638095Y-103171428D01*
X147714285Y-103133333D01*
X147828571Y-103133333D01*
X147904761Y-103171428D01*
X147942857Y-103209523D01*
X147980952Y-103285714D01*
X147980952Y-103590476D01*
X147561904Y-102866666D02*
X147561904Y-102371428D01*
X147866666Y-102638095D01*
X147866666Y-102523809D01*
X147904761Y-102447619D01*
X147942857Y-102409523D01*
X148019047Y-102371428D01*
X148209523Y-102371428D01*
X148285714Y-102409523D01*
X148323809Y-102447619D01*
X148361904Y-102523809D01*
X148361904Y-102752380D01*
X148323809Y-102828571D01*
X148285714Y-102866666D01*
%TO.C,U2*%
X150640476Y-95811904D02*
X150640476Y-96459523D01*
X150678571Y-96535714D01*
X150716666Y-96573809D01*
X150792857Y-96611904D01*
X150945238Y-96611904D01*
X151021428Y-96573809D01*
X151059523Y-96535714D01*
X151097619Y-96459523D01*
X151097619Y-95811904D01*
X151440476Y-95888095D02*
X151478571Y-95850000D01*
X151554761Y-95811904D01*
X151745238Y-95811904D01*
X151821428Y-95850000D01*
X151859523Y-95888095D01*
X151897619Y-95964285D01*
X151897619Y-96040476D01*
X151859523Y-96154761D01*
X151402380Y-96611904D01*
X151897619Y-96611904D01*
%TO.C,U1*%
X148640476Y-110811904D02*
X148640476Y-111459523D01*
X148678571Y-111535714D01*
X148716666Y-111573809D01*
X148792857Y-111611904D01*
X148945238Y-111611904D01*
X149021428Y-111573809D01*
X149059523Y-111535714D01*
X149097619Y-111459523D01*
X149097619Y-110811904D01*
X149897619Y-111611904D02*
X149440476Y-111611904D01*
X149669047Y-111611904D02*
X149669047Y-110811904D01*
X149592857Y-110926190D01*
X149516666Y-111002380D01*
X149440476Y-111040476D01*
%TO.C,R5*%
X151361904Y-105383333D02*
X150980952Y-105650000D01*
X151361904Y-105840476D02*
X150561904Y-105840476D01*
X150561904Y-105535714D01*
X150600000Y-105459523D01*
X150638095Y-105421428D01*
X150714285Y-105383333D01*
X150828571Y-105383333D01*
X150904761Y-105421428D01*
X150942857Y-105459523D01*
X150980952Y-105535714D01*
X150980952Y-105840476D01*
X150561904Y-104659523D02*
X150561904Y-105040476D01*
X150942857Y-105078571D01*
X150904761Y-105040476D01*
X150866666Y-104964285D01*
X150866666Y-104773809D01*
X150904761Y-104697619D01*
X150942857Y-104659523D01*
X151019047Y-104621428D01*
X151209523Y-104621428D01*
X151285714Y-104659523D01*
X151323809Y-104697619D01*
X151361904Y-104773809D01*
X151361904Y-104964285D01*
X151323809Y-105040476D01*
X151285714Y-105078571D01*
%TO.C,C5*%
X154535714Y-105383333D02*
X154573809Y-105421428D01*
X154611904Y-105535714D01*
X154611904Y-105611904D01*
X154573809Y-105726190D01*
X154497619Y-105802380D01*
X154421428Y-105840476D01*
X154269047Y-105878571D01*
X154154761Y-105878571D01*
X154002380Y-105840476D01*
X153926190Y-105802380D01*
X153850000Y-105726190D01*
X153811904Y-105611904D01*
X153811904Y-105535714D01*
X153850000Y-105421428D01*
X153888095Y-105383333D01*
X153811904Y-104659523D02*
X153811904Y-105040476D01*
X154192857Y-105078571D01*
X154154761Y-105040476D01*
X154116666Y-104964285D01*
X154116666Y-104773809D01*
X154154761Y-104697619D01*
X154192857Y-104659523D01*
X154269047Y-104621428D01*
X154459523Y-104621428D01*
X154535714Y-104659523D01*
X154573809Y-104697619D01*
X154611904Y-104773809D01*
X154611904Y-104964285D01*
X154573809Y-105040476D01*
X154535714Y-105078571D01*
%TO.C,C4*%
X146785714Y-99633333D02*
X146823809Y-99671428D01*
X146861904Y-99785714D01*
X146861904Y-99861904D01*
X146823809Y-99976190D01*
X146747619Y-100052380D01*
X146671428Y-100090476D01*
X146519047Y-100128571D01*
X146404761Y-100128571D01*
X146252380Y-100090476D01*
X146176190Y-100052380D01*
X146100000Y-99976190D01*
X146061904Y-99861904D01*
X146061904Y-99785714D01*
X146100000Y-99671428D01*
X146138095Y-99633333D01*
X146328571Y-98947619D02*
X146861904Y-98947619D01*
X146023809Y-99138095D02*
X146595238Y-99328571D01*
X146595238Y-98833333D01*
%TO.C,C3*%
X155866666Y-101285714D02*
X155828571Y-101323809D01*
X155714285Y-101361904D01*
X155638095Y-101361904D01*
X155523809Y-101323809D01*
X155447619Y-101247619D01*
X155409523Y-101171428D01*
X155371428Y-101019047D01*
X155371428Y-100904761D01*
X155409523Y-100752380D01*
X155447619Y-100676190D01*
X155523809Y-100600000D01*
X155638095Y-100561904D01*
X155714285Y-100561904D01*
X155828571Y-100600000D01*
X155866666Y-100638095D01*
X156133333Y-100561904D02*
X156628571Y-100561904D01*
X156361904Y-100866666D01*
X156476190Y-100866666D01*
X156552380Y-100904761D01*
X156590476Y-100942857D01*
X156628571Y-101019047D01*
X156628571Y-101209523D01*
X156590476Y-101285714D01*
X156552380Y-101323809D01*
X156476190Y-101361904D01*
X156247619Y-101361904D01*
X156171428Y-101323809D01*
X156133333Y-101285714D01*
%TO.C,C2*%
X152116666Y-111535714D02*
X152078571Y-111573809D01*
X151964285Y-111611904D01*
X151888095Y-111611904D01*
X151773809Y-111573809D01*
X151697619Y-111497619D01*
X151659523Y-111421428D01*
X151621428Y-111269047D01*
X151621428Y-111154761D01*
X151659523Y-111002380D01*
X151697619Y-110926190D01*
X151773809Y-110850000D01*
X151888095Y-110811904D01*
X151964285Y-110811904D01*
X152078571Y-110850000D01*
X152116666Y-110888095D01*
X152421428Y-110888095D02*
X152459523Y-110850000D01*
X152535714Y-110811904D01*
X152726190Y-110811904D01*
X152802380Y-110850000D01*
X152840476Y-110888095D01*
X152878571Y-110964285D01*
X152878571Y-111040476D01*
X152840476Y-111154761D01*
X152383333Y-111611904D01*
X152878571Y-111611904D01*
%TO.C,C1*%
X146116666Y-111535714D02*
X146078571Y-111573809D01*
X145964285Y-111611904D01*
X145888095Y-111611904D01*
X145773809Y-111573809D01*
X145697619Y-111497619D01*
X145659523Y-111421428D01*
X145621428Y-111269047D01*
X145621428Y-111154761D01*
X145659523Y-111002380D01*
X145697619Y-110926190D01*
X145773809Y-110850000D01*
X145888095Y-110811904D01*
X145964285Y-110811904D01*
X146078571Y-110850000D01*
X146116666Y-110888095D01*
X146878571Y-111611904D02*
X146421428Y-111611904D01*
X146650000Y-111611904D02*
X146650000Y-110811904D01*
X146573809Y-110926190D01*
X146497619Y-111002380D01*
X146421428Y-111040476D01*
%TO.C,D1*%
X140909523Y-93861904D02*
X140909523Y-93061904D01*
X141100000Y-93061904D01*
X141214285Y-93100000D01*
X141290476Y-93176190D01*
X141328571Y-93252380D01*
X141366666Y-93404761D01*
X141366666Y-93519047D01*
X141328571Y-93671428D01*
X141290476Y-93747619D01*
X141214285Y-93823809D01*
X141100000Y-93861904D01*
X140909523Y-93861904D01*
X142128571Y-93861904D02*
X141671428Y-93861904D01*
X141900000Y-93861904D02*
X141900000Y-93061904D01*
X141823809Y-93176190D01*
X141747619Y-93252380D01*
X141671428Y-93290476D01*
%TO.C,J3*%
X160983333Y-96811904D02*
X160983333Y-97383333D01*
X160945238Y-97497619D01*
X160869047Y-97573809D01*
X160754761Y-97611904D01*
X160678571Y-97611904D01*
X161288095Y-96811904D02*
X161783333Y-96811904D01*
X161516666Y-97116666D01*
X161630952Y-97116666D01*
X161707142Y-97154761D01*
X161745238Y-97192857D01*
X161783333Y-97269047D01*
X161783333Y-97459523D01*
X161745238Y-97535714D01*
X161707142Y-97573809D01*
X161630952Y-97611904D01*
X161402380Y-97611904D01*
X161326190Y-97573809D01*
X161288095Y-97535714D01*
%TO.C,J2*%
X160983333Y-102311904D02*
X160983333Y-102883333D01*
X160945238Y-102997619D01*
X160869047Y-103073809D01*
X160754761Y-103111904D01*
X160678571Y-103111904D01*
X161326190Y-102388095D02*
X161364285Y-102350000D01*
X161440476Y-102311904D01*
X161630952Y-102311904D01*
X161707142Y-102350000D01*
X161745238Y-102388095D01*
X161783333Y-102464285D01*
X161783333Y-102540476D01*
X161745238Y-102654761D01*
X161288095Y-103111904D01*
X161783333Y-103111904D01*
%TO.C,C8*%
X145285714Y-106133333D02*
X145323809Y-106171428D01*
X145361904Y-106285714D01*
X145361904Y-106361904D01*
X145323809Y-106476190D01*
X145247619Y-106552380D01*
X145171428Y-106590476D01*
X145019047Y-106628571D01*
X144904761Y-106628571D01*
X144752380Y-106590476D01*
X144676190Y-106552380D01*
X144600000Y-106476190D01*
X144561904Y-106361904D01*
X144561904Y-106285714D01*
X144600000Y-106171428D01*
X144638095Y-106133333D01*
X144904761Y-105676190D02*
X144866666Y-105752380D01*
X144828571Y-105790476D01*
X144752380Y-105828571D01*
X144714285Y-105828571D01*
X144638095Y-105790476D01*
X144600000Y-105752380D01*
X144561904Y-105676190D01*
X144561904Y-105523809D01*
X144600000Y-105447619D01*
X144638095Y-105409523D01*
X144714285Y-105371428D01*
X144752380Y-105371428D01*
X144828571Y-105409523D01*
X144866666Y-105447619D01*
X144904761Y-105523809D01*
X144904761Y-105676190D01*
X144942857Y-105752380D01*
X144980952Y-105790476D01*
X145057142Y-105828571D01*
X145209523Y-105828571D01*
X145285714Y-105790476D01*
X145323809Y-105752380D01*
X145361904Y-105676190D01*
X145361904Y-105523809D01*
X145323809Y-105447619D01*
X145285714Y-105409523D01*
X145209523Y-105371428D01*
X145057142Y-105371428D01*
X144980952Y-105409523D01*
X144942857Y-105447619D01*
X144904761Y-105523809D01*
%TO.C,R7*%
X143366666Y-90861904D02*
X143100000Y-90480952D01*
X142909523Y-90861904D02*
X142909523Y-90061904D01*
X143214285Y-90061904D01*
X143290476Y-90100000D01*
X143328571Y-90138095D01*
X143366666Y-90214285D01*
X143366666Y-90328571D01*
X143328571Y-90404761D01*
X143290476Y-90442857D01*
X143214285Y-90480952D01*
X142909523Y-90480952D01*
X143633333Y-90061904D02*
X144166666Y-90061904D01*
X143823809Y-90861904D01*
%TO.C,R2*%
X148361904Y-92754880D02*
X147980952Y-93021547D01*
X148361904Y-93212023D02*
X147561904Y-93212023D01*
X147561904Y-92907261D01*
X147600000Y-92831071D01*
X147638095Y-92792976D01*
X147714285Y-92754880D01*
X147828571Y-92754880D01*
X147904761Y-92792976D01*
X147942857Y-92831071D01*
X147980952Y-92907261D01*
X147980952Y-93212023D01*
X147638095Y-92450119D02*
X147600000Y-92412023D01*
X147561904Y-92335833D01*
X147561904Y-92145357D01*
X147600000Y-92069166D01*
X147638095Y-92031071D01*
X147714285Y-91992976D01*
X147790476Y-91992976D01*
X147904761Y-92031071D01*
X148361904Y-92488214D01*
X148361904Y-91992976D01*
%TO.C,R1*%
X142616666Y-108111904D02*
X142350000Y-107730952D01*
X142159523Y-108111904D02*
X142159523Y-107311904D01*
X142464285Y-107311904D01*
X142540476Y-107350000D01*
X142578571Y-107388095D01*
X142616666Y-107464285D01*
X142616666Y-107578571D01*
X142578571Y-107654761D01*
X142540476Y-107692857D01*
X142464285Y-107730952D01*
X142159523Y-107730952D01*
X143378571Y-108111904D02*
X142921428Y-108111904D01*
X143150000Y-108111904D02*
X143150000Y-107311904D01*
X143073809Y-107426190D01*
X142997619Y-107502380D01*
X142921428Y-107540476D01*
%TO.C,J1*%
X138483333Y-105061904D02*
X138483333Y-105633333D01*
X138445238Y-105747619D01*
X138369047Y-105823809D01*
X138254761Y-105861904D01*
X138178571Y-105861904D01*
X139283333Y-105861904D02*
X138826190Y-105861904D01*
X139054761Y-105861904D02*
X139054761Y-105061904D01*
X138978571Y-105176190D01*
X138902380Y-105252380D01*
X138826190Y-105290476D01*
%TD*%
M02*
