%TF.GenerationSoftware,KiCad,Pcbnew,(5.1.9-0-10_14)*%
%TF.CreationDate,2021-02-28T11:16:04+01:00*%
%TF.ProjectId,PmodUsbUlpi,506d6f64-5573-4625-956c-70692e6b6963,1*%
%TF.SameCoordinates,Original*%
%TF.FileFunction,Soldermask,Top*%
%TF.FilePolarity,Negative*%
%FSLAX46Y46*%
G04 Gerber Fmt 4.6, Leading zero omitted, Abs format (unit mm)*
G04 Created by KiCad (PCBNEW (5.1.9-0-10_14)) date 2021-02-28 11:16:04*
%MOMM*%
%LPD*%
G01*
G04 APERTURE LIST*
%ADD10C,1.448000*%
%ADD11R,3.300000X3.300000*%
%ADD12O,1.700000X1.700000*%
%ADD13R,1.700000X1.700000*%
%ADD14R,1.150000X0.300000*%
%ADD15C,0.650000*%
%ADD16O,1.600000X1.000000*%
%ADD17O,2.100000X1.000000*%
G04 APERTURE END LIST*
D10*
%TO.C,REF\u002A\u002A*%
X140000000Y-106250000D03*
%TD*%
%TO.C,REF\u002A\u002A*%
X140000000Y-93750000D03*
%TD*%
%TO.C,REF\u002A\u002A*%
X161250000Y-118750000D03*
%TD*%
%TO.C,REF\u002A\u002A*%
X161250000Y-81250000D03*
%TD*%
%TO.C,R4*%
G36*
G01*
X145975000Y-95425000D02*
X146525000Y-95425000D01*
G75*
G02*
X146725000Y-95625000I0J-200000D01*
G01*
X146725000Y-96025000D01*
G75*
G02*
X146525000Y-96225000I-200000J0D01*
G01*
X145975000Y-96225000D01*
G75*
G02*
X145775000Y-96025000I0J200000D01*
G01*
X145775000Y-95625000D01*
G75*
G02*
X145975000Y-95425000I200000J0D01*
G01*
G37*
G36*
G01*
X145975000Y-93775000D02*
X146525000Y-93775000D01*
G75*
G02*
X146725000Y-93975000I0J-200000D01*
G01*
X146725000Y-94375000D01*
G75*
G02*
X146525000Y-94575000I-200000J0D01*
G01*
X145975000Y-94575000D01*
G75*
G02*
X145775000Y-94375000I0J200000D01*
G01*
X145775000Y-93975000D01*
G75*
G02*
X145975000Y-93775000I200000J0D01*
G01*
G37*
%TD*%
%TO.C,R3*%
G36*
G01*
X148275000Y-104825000D02*
X147725000Y-104825000D01*
G75*
G02*
X147525000Y-104625000I0J200000D01*
G01*
X147525000Y-104225000D01*
G75*
G02*
X147725000Y-104025000I200000J0D01*
G01*
X148275000Y-104025000D01*
G75*
G02*
X148475000Y-104225000I0J-200000D01*
G01*
X148475000Y-104625000D01*
G75*
G02*
X148275000Y-104825000I-200000J0D01*
G01*
G37*
G36*
G01*
X148275000Y-106475000D02*
X147725000Y-106475000D01*
G75*
G02*
X147525000Y-106275000I0J200000D01*
G01*
X147525000Y-105875000D01*
G75*
G02*
X147725000Y-105675000I200000J0D01*
G01*
X148275000Y-105675000D01*
G75*
G02*
X148475000Y-105875000I0J-200000D01*
G01*
X148475000Y-106275000D01*
G75*
G02*
X148275000Y-106475000I-200000J0D01*
G01*
G37*
%TD*%
D11*
%TO.C,U2*%
X151250000Y-100000000D03*
G36*
G01*
X153125000Y-102062500D02*
X153125000Y-102812500D01*
G75*
G02*
X153062500Y-102875000I-62500J0D01*
G01*
X152937500Y-102875000D01*
G75*
G02*
X152875000Y-102812500I0J62500D01*
G01*
X152875000Y-102062500D01*
G75*
G02*
X152937500Y-102000000I62500J0D01*
G01*
X153062500Y-102000000D01*
G75*
G02*
X153125000Y-102062500I0J-62500D01*
G01*
G37*
G36*
G01*
X152625000Y-102062500D02*
X152625000Y-102812500D01*
G75*
G02*
X152562500Y-102875000I-62500J0D01*
G01*
X152437500Y-102875000D01*
G75*
G02*
X152375000Y-102812500I0J62500D01*
G01*
X152375000Y-102062500D01*
G75*
G02*
X152437500Y-102000000I62500J0D01*
G01*
X152562500Y-102000000D01*
G75*
G02*
X152625000Y-102062500I0J-62500D01*
G01*
G37*
G36*
G01*
X152125000Y-102062500D02*
X152125000Y-102812500D01*
G75*
G02*
X152062500Y-102875000I-62500J0D01*
G01*
X151937500Y-102875000D01*
G75*
G02*
X151875000Y-102812500I0J62500D01*
G01*
X151875000Y-102062500D01*
G75*
G02*
X151937500Y-102000000I62500J0D01*
G01*
X152062500Y-102000000D01*
G75*
G02*
X152125000Y-102062500I0J-62500D01*
G01*
G37*
G36*
G01*
X151625000Y-102062500D02*
X151625000Y-102812500D01*
G75*
G02*
X151562500Y-102875000I-62500J0D01*
G01*
X151437500Y-102875000D01*
G75*
G02*
X151375000Y-102812500I0J62500D01*
G01*
X151375000Y-102062500D01*
G75*
G02*
X151437500Y-102000000I62500J0D01*
G01*
X151562500Y-102000000D01*
G75*
G02*
X151625000Y-102062500I0J-62500D01*
G01*
G37*
G36*
G01*
X151125000Y-102062500D02*
X151125000Y-102812500D01*
G75*
G02*
X151062500Y-102875000I-62500J0D01*
G01*
X150937500Y-102875000D01*
G75*
G02*
X150875000Y-102812500I0J62500D01*
G01*
X150875000Y-102062500D01*
G75*
G02*
X150937500Y-102000000I62500J0D01*
G01*
X151062500Y-102000000D01*
G75*
G02*
X151125000Y-102062500I0J-62500D01*
G01*
G37*
G36*
G01*
X150625000Y-102062500D02*
X150625000Y-102812500D01*
G75*
G02*
X150562500Y-102875000I-62500J0D01*
G01*
X150437500Y-102875000D01*
G75*
G02*
X150375000Y-102812500I0J62500D01*
G01*
X150375000Y-102062500D01*
G75*
G02*
X150437500Y-102000000I62500J0D01*
G01*
X150562500Y-102000000D01*
G75*
G02*
X150625000Y-102062500I0J-62500D01*
G01*
G37*
G36*
G01*
X150125000Y-102062500D02*
X150125000Y-102812500D01*
G75*
G02*
X150062500Y-102875000I-62500J0D01*
G01*
X149937500Y-102875000D01*
G75*
G02*
X149875000Y-102812500I0J62500D01*
G01*
X149875000Y-102062500D01*
G75*
G02*
X149937500Y-102000000I62500J0D01*
G01*
X150062500Y-102000000D01*
G75*
G02*
X150125000Y-102062500I0J-62500D01*
G01*
G37*
G36*
G01*
X149625000Y-102062500D02*
X149625000Y-102812500D01*
G75*
G02*
X149562500Y-102875000I-62500J0D01*
G01*
X149437500Y-102875000D01*
G75*
G02*
X149375000Y-102812500I0J62500D01*
G01*
X149375000Y-102062500D01*
G75*
G02*
X149437500Y-102000000I62500J0D01*
G01*
X149562500Y-102000000D01*
G75*
G02*
X149625000Y-102062500I0J-62500D01*
G01*
G37*
G36*
G01*
X149250000Y-101687500D02*
X149250000Y-101812500D01*
G75*
G02*
X149187500Y-101875000I-62500J0D01*
G01*
X148437500Y-101875000D01*
G75*
G02*
X148375000Y-101812500I0J62500D01*
G01*
X148375000Y-101687500D01*
G75*
G02*
X148437500Y-101625000I62500J0D01*
G01*
X149187500Y-101625000D01*
G75*
G02*
X149250000Y-101687500I0J-62500D01*
G01*
G37*
G36*
G01*
X149250000Y-101187500D02*
X149250000Y-101312500D01*
G75*
G02*
X149187500Y-101375000I-62500J0D01*
G01*
X148437500Y-101375000D01*
G75*
G02*
X148375000Y-101312500I0J62500D01*
G01*
X148375000Y-101187500D01*
G75*
G02*
X148437500Y-101125000I62500J0D01*
G01*
X149187500Y-101125000D01*
G75*
G02*
X149250000Y-101187500I0J-62500D01*
G01*
G37*
G36*
G01*
X149250000Y-100687500D02*
X149250000Y-100812500D01*
G75*
G02*
X149187500Y-100875000I-62500J0D01*
G01*
X148437500Y-100875000D01*
G75*
G02*
X148375000Y-100812500I0J62500D01*
G01*
X148375000Y-100687500D01*
G75*
G02*
X148437500Y-100625000I62500J0D01*
G01*
X149187500Y-100625000D01*
G75*
G02*
X149250000Y-100687500I0J-62500D01*
G01*
G37*
G36*
G01*
X149250000Y-100187500D02*
X149250000Y-100312500D01*
G75*
G02*
X149187500Y-100375000I-62500J0D01*
G01*
X148437500Y-100375000D01*
G75*
G02*
X148375000Y-100312500I0J62500D01*
G01*
X148375000Y-100187500D01*
G75*
G02*
X148437500Y-100125000I62500J0D01*
G01*
X149187500Y-100125000D01*
G75*
G02*
X149250000Y-100187500I0J-62500D01*
G01*
G37*
G36*
G01*
X149250000Y-99687500D02*
X149250000Y-99812500D01*
G75*
G02*
X149187500Y-99875000I-62500J0D01*
G01*
X148437500Y-99875000D01*
G75*
G02*
X148375000Y-99812500I0J62500D01*
G01*
X148375000Y-99687500D01*
G75*
G02*
X148437500Y-99625000I62500J0D01*
G01*
X149187500Y-99625000D01*
G75*
G02*
X149250000Y-99687500I0J-62500D01*
G01*
G37*
G36*
G01*
X149250000Y-99187500D02*
X149250000Y-99312500D01*
G75*
G02*
X149187500Y-99375000I-62500J0D01*
G01*
X148437500Y-99375000D01*
G75*
G02*
X148375000Y-99312500I0J62500D01*
G01*
X148375000Y-99187500D01*
G75*
G02*
X148437500Y-99125000I62500J0D01*
G01*
X149187500Y-99125000D01*
G75*
G02*
X149250000Y-99187500I0J-62500D01*
G01*
G37*
G36*
G01*
X149250000Y-98687500D02*
X149250000Y-98812500D01*
G75*
G02*
X149187500Y-98875000I-62500J0D01*
G01*
X148437500Y-98875000D01*
G75*
G02*
X148375000Y-98812500I0J62500D01*
G01*
X148375000Y-98687500D01*
G75*
G02*
X148437500Y-98625000I62500J0D01*
G01*
X149187500Y-98625000D01*
G75*
G02*
X149250000Y-98687500I0J-62500D01*
G01*
G37*
G36*
G01*
X149250000Y-98187500D02*
X149250000Y-98312500D01*
G75*
G02*
X149187500Y-98375000I-62500J0D01*
G01*
X148437500Y-98375000D01*
G75*
G02*
X148375000Y-98312500I0J62500D01*
G01*
X148375000Y-98187500D01*
G75*
G02*
X148437500Y-98125000I62500J0D01*
G01*
X149187500Y-98125000D01*
G75*
G02*
X149250000Y-98187500I0J-62500D01*
G01*
G37*
G36*
G01*
X149625000Y-97187500D02*
X149625000Y-97937500D01*
G75*
G02*
X149562500Y-98000000I-62500J0D01*
G01*
X149437500Y-98000000D01*
G75*
G02*
X149375000Y-97937500I0J62500D01*
G01*
X149375000Y-97187500D01*
G75*
G02*
X149437500Y-97125000I62500J0D01*
G01*
X149562500Y-97125000D01*
G75*
G02*
X149625000Y-97187500I0J-62500D01*
G01*
G37*
G36*
G01*
X150125000Y-97187500D02*
X150125000Y-97937500D01*
G75*
G02*
X150062500Y-98000000I-62500J0D01*
G01*
X149937500Y-98000000D01*
G75*
G02*
X149875000Y-97937500I0J62500D01*
G01*
X149875000Y-97187500D01*
G75*
G02*
X149937500Y-97125000I62500J0D01*
G01*
X150062500Y-97125000D01*
G75*
G02*
X150125000Y-97187500I0J-62500D01*
G01*
G37*
G36*
G01*
X150625000Y-97187500D02*
X150625000Y-97937500D01*
G75*
G02*
X150562500Y-98000000I-62500J0D01*
G01*
X150437500Y-98000000D01*
G75*
G02*
X150375000Y-97937500I0J62500D01*
G01*
X150375000Y-97187500D01*
G75*
G02*
X150437500Y-97125000I62500J0D01*
G01*
X150562500Y-97125000D01*
G75*
G02*
X150625000Y-97187500I0J-62500D01*
G01*
G37*
G36*
G01*
X151125000Y-97187500D02*
X151125000Y-97937500D01*
G75*
G02*
X151062500Y-98000000I-62500J0D01*
G01*
X150937500Y-98000000D01*
G75*
G02*
X150875000Y-97937500I0J62500D01*
G01*
X150875000Y-97187500D01*
G75*
G02*
X150937500Y-97125000I62500J0D01*
G01*
X151062500Y-97125000D01*
G75*
G02*
X151125000Y-97187500I0J-62500D01*
G01*
G37*
G36*
G01*
X151625000Y-97187500D02*
X151625000Y-97937500D01*
G75*
G02*
X151562500Y-98000000I-62500J0D01*
G01*
X151437500Y-98000000D01*
G75*
G02*
X151375000Y-97937500I0J62500D01*
G01*
X151375000Y-97187500D01*
G75*
G02*
X151437500Y-97125000I62500J0D01*
G01*
X151562500Y-97125000D01*
G75*
G02*
X151625000Y-97187500I0J-62500D01*
G01*
G37*
G36*
G01*
X152125000Y-97187500D02*
X152125000Y-97937500D01*
G75*
G02*
X152062500Y-98000000I-62500J0D01*
G01*
X151937500Y-98000000D01*
G75*
G02*
X151875000Y-97937500I0J62500D01*
G01*
X151875000Y-97187500D01*
G75*
G02*
X151937500Y-97125000I62500J0D01*
G01*
X152062500Y-97125000D01*
G75*
G02*
X152125000Y-97187500I0J-62500D01*
G01*
G37*
G36*
G01*
X152625000Y-97187500D02*
X152625000Y-97937500D01*
G75*
G02*
X152562500Y-98000000I-62500J0D01*
G01*
X152437500Y-98000000D01*
G75*
G02*
X152375000Y-97937500I0J62500D01*
G01*
X152375000Y-97187500D01*
G75*
G02*
X152437500Y-97125000I62500J0D01*
G01*
X152562500Y-97125000D01*
G75*
G02*
X152625000Y-97187500I0J-62500D01*
G01*
G37*
G36*
G01*
X153125000Y-97187500D02*
X153125000Y-97937500D01*
G75*
G02*
X153062500Y-98000000I-62500J0D01*
G01*
X152937500Y-98000000D01*
G75*
G02*
X152875000Y-97937500I0J62500D01*
G01*
X152875000Y-97187500D01*
G75*
G02*
X152937500Y-97125000I62500J0D01*
G01*
X153062500Y-97125000D01*
G75*
G02*
X153125000Y-97187500I0J-62500D01*
G01*
G37*
G36*
G01*
X154125000Y-98187500D02*
X154125000Y-98312500D01*
G75*
G02*
X154062500Y-98375000I-62500J0D01*
G01*
X153312500Y-98375000D01*
G75*
G02*
X153250000Y-98312500I0J62500D01*
G01*
X153250000Y-98187500D01*
G75*
G02*
X153312500Y-98125000I62500J0D01*
G01*
X154062500Y-98125000D01*
G75*
G02*
X154125000Y-98187500I0J-62500D01*
G01*
G37*
G36*
G01*
X154125000Y-98687500D02*
X154125000Y-98812500D01*
G75*
G02*
X154062500Y-98875000I-62500J0D01*
G01*
X153312500Y-98875000D01*
G75*
G02*
X153250000Y-98812500I0J62500D01*
G01*
X153250000Y-98687500D01*
G75*
G02*
X153312500Y-98625000I62500J0D01*
G01*
X154062500Y-98625000D01*
G75*
G02*
X154125000Y-98687500I0J-62500D01*
G01*
G37*
G36*
G01*
X154125000Y-99187500D02*
X154125000Y-99312500D01*
G75*
G02*
X154062500Y-99375000I-62500J0D01*
G01*
X153312500Y-99375000D01*
G75*
G02*
X153250000Y-99312500I0J62500D01*
G01*
X153250000Y-99187500D01*
G75*
G02*
X153312500Y-99125000I62500J0D01*
G01*
X154062500Y-99125000D01*
G75*
G02*
X154125000Y-99187500I0J-62500D01*
G01*
G37*
G36*
G01*
X154125000Y-99687500D02*
X154125000Y-99812500D01*
G75*
G02*
X154062500Y-99875000I-62500J0D01*
G01*
X153312500Y-99875000D01*
G75*
G02*
X153250000Y-99812500I0J62500D01*
G01*
X153250000Y-99687500D01*
G75*
G02*
X153312500Y-99625000I62500J0D01*
G01*
X154062500Y-99625000D01*
G75*
G02*
X154125000Y-99687500I0J-62500D01*
G01*
G37*
G36*
G01*
X154125000Y-100187500D02*
X154125000Y-100312500D01*
G75*
G02*
X154062500Y-100375000I-62500J0D01*
G01*
X153312500Y-100375000D01*
G75*
G02*
X153250000Y-100312500I0J62500D01*
G01*
X153250000Y-100187500D01*
G75*
G02*
X153312500Y-100125000I62500J0D01*
G01*
X154062500Y-100125000D01*
G75*
G02*
X154125000Y-100187500I0J-62500D01*
G01*
G37*
G36*
G01*
X154125000Y-100687500D02*
X154125000Y-100812500D01*
G75*
G02*
X154062500Y-100875000I-62500J0D01*
G01*
X153312500Y-100875000D01*
G75*
G02*
X153250000Y-100812500I0J62500D01*
G01*
X153250000Y-100687500D01*
G75*
G02*
X153312500Y-100625000I62500J0D01*
G01*
X154062500Y-100625000D01*
G75*
G02*
X154125000Y-100687500I0J-62500D01*
G01*
G37*
G36*
G01*
X154125000Y-101187500D02*
X154125000Y-101312500D01*
G75*
G02*
X154062500Y-101375000I-62500J0D01*
G01*
X153312500Y-101375000D01*
G75*
G02*
X153250000Y-101312500I0J62500D01*
G01*
X153250000Y-101187500D01*
G75*
G02*
X153312500Y-101125000I62500J0D01*
G01*
X154062500Y-101125000D01*
G75*
G02*
X154125000Y-101187500I0J-62500D01*
G01*
G37*
G36*
G01*
X154125000Y-101687500D02*
X154125000Y-101812500D01*
G75*
G02*
X154062500Y-101875000I-62500J0D01*
G01*
X153312500Y-101875000D01*
G75*
G02*
X153250000Y-101812500I0J62500D01*
G01*
X153250000Y-101687500D01*
G75*
G02*
X153312500Y-101625000I62500J0D01*
G01*
X154062500Y-101625000D01*
G75*
G02*
X154125000Y-101687500I0J-62500D01*
G01*
G37*
%TD*%
%TO.C,U1*%
G36*
G01*
X149725000Y-108200000D02*
X149725000Y-107900000D01*
G75*
G02*
X149875000Y-107750000I150000J0D01*
G01*
X150900000Y-107750000D01*
G75*
G02*
X151050000Y-107900000I0J-150000D01*
G01*
X151050000Y-108200000D01*
G75*
G02*
X150900000Y-108350000I-150000J0D01*
G01*
X149875000Y-108350000D01*
G75*
G02*
X149725000Y-108200000I0J150000D01*
G01*
G37*
G36*
G01*
X149725000Y-110100000D02*
X149725000Y-109800000D01*
G75*
G02*
X149875000Y-109650000I150000J0D01*
G01*
X150900000Y-109650000D01*
G75*
G02*
X151050000Y-109800000I0J-150000D01*
G01*
X151050000Y-110100000D01*
G75*
G02*
X150900000Y-110250000I-150000J0D01*
G01*
X149875000Y-110250000D01*
G75*
G02*
X149725000Y-110100000I0J150000D01*
G01*
G37*
G36*
G01*
X147450000Y-110100000D02*
X147450000Y-109800000D01*
G75*
G02*
X147600000Y-109650000I150000J0D01*
G01*
X148625000Y-109650000D01*
G75*
G02*
X148775000Y-109800000I0J-150000D01*
G01*
X148775000Y-110100000D01*
G75*
G02*
X148625000Y-110250000I-150000J0D01*
G01*
X147600000Y-110250000D01*
G75*
G02*
X147450000Y-110100000I0J150000D01*
G01*
G37*
G36*
G01*
X147450000Y-109150000D02*
X147450000Y-108850000D01*
G75*
G02*
X147600000Y-108700000I150000J0D01*
G01*
X148625000Y-108700000D01*
G75*
G02*
X148775000Y-108850000I0J-150000D01*
G01*
X148775000Y-109150000D01*
G75*
G02*
X148625000Y-109300000I-150000J0D01*
G01*
X147600000Y-109300000D01*
G75*
G02*
X147450000Y-109150000I0J150000D01*
G01*
G37*
G36*
G01*
X147450000Y-108200000D02*
X147450000Y-107900000D01*
G75*
G02*
X147600000Y-107750000I150000J0D01*
G01*
X148625000Y-107750000D01*
G75*
G02*
X148775000Y-107900000I0J-150000D01*
G01*
X148775000Y-108200000D01*
G75*
G02*
X148625000Y-108350000I-150000J0D01*
G01*
X147600000Y-108350000D01*
G75*
G02*
X147450000Y-108200000I0J150000D01*
G01*
G37*
%TD*%
%TO.C,R5*%
G36*
G01*
X149475000Y-105675000D02*
X150025000Y-105675000D01*
G75*
G02*
X150225000Y-105875000I0J-200000D01*
G01*
X150225000Y-106275000D01*
G75*
G02*
X150025000Y-106475000I-200000J0D01*
G01*
X149475000Y-106475000D01*
G75*
G02*
X149275000Y-106275000I0J200000D01*
G01*
X149275000Y-105875000D01*
G75*
G02*
X149475000Y-105675000I200000J0D01*
G01*
G37*
G36*
G01*
X149475000Y-104025000D02*
X150025000Y-104025000D01*
G75*
G02*
X150225000Y-104225000I0J-200000D01*
G01*
X150225000Y-104625000D01*
G75*
G02*
X150025000Y-104825000I-200000J0D01*
G01*
X149475000Y-104825000D01*
G75*
G02*
X149275000Y-104625000I0J200000D01*
G01*
X149275000Y-104225000D01*
G75*
G02*
X149475000Y-104025000I200000J0D01*
G01*
G37*
%TD*%
%TO.C,C5*%
G36*
G01*
X152750000Y-105575000D02*
X153250000Y-105575000D01*
G75*
G02*
X153475000Y-105800000I0J-225000D01*
G01*
X153475000Y-106250000D01*
G75*
G02*
X153250000Y-106475000I-225000J0D01*
G01*
X152750000Y-106475000D01*
G75*
G02*
X152525000Y-106250000I0J225000D01*
G01*
X152525000Y-105800000D01*
G75*
G02*
X152750000Y-105575000I225000J0D01*
G01*
G37*
G36*
G01*
X152750000Y-104025000D02*
X153250000Y-104025000D01*
G75*
G02*
X153475000Y-104250000I0J-225000D01*
G01*
X153475000Y-104700000D01*
G75*
G02*
X153250000Y-104925000I-225000J0D01*
G01*
X152750000Y-104925000D01*
G75*
G02*
X152525000Y-104700000I0J225000D01*
G01*
X152525000Y-104250000D01*
G75*
G02*
X152750000Y-104025000I225000J0D01*
G01*
G37*
%TD*%
%TO.C,C4*%
G36*
G01*
X146250000Y-102325000D02*
X146750000Y-102325000D01*
G75*
G02*
X146975000Y-102550000I0J-225000D01*
G01*
X146975000Y-103000000D01*
G75*
G02*
X146750000Y-103225000I-225000J0D01*
G01*
X146250000Y-103225000D01*
G75*
G02*
X146025000Y-103000000I0J225000D01*
G01*
X146025000Y-102550000D01*
G75*
G02*
X146250000Y-102325000I225000J0D01*
G01*
G37*
G36*
G01*
X146250000Y-100775000D02*
X146750000Y-100775000D01*
G75*
G02*
X146975000Y-101000000I0J-225000D01*
G01*
X146975000Y-101450000D01*
G75*
G02*
X146750000Y-101675000I-225000J0D01*
G01*
X146250000Y-101675000D01*
G75*
G02*
X146025000Y-101450000I0J225000D01*
G01*
X146025000Y-101000000D01*
G75*
G02*
X146250000Y-100775000I225000J0D01*
G01*
G37*
%TD*%
%TO.C,C3*%
G36*
G01*
X156325000Y-102500000D02*
X156325000Y-102000000D01*
G75*
G02*
X156550000Y-101775000I225000J0D01*
G01*
X157000000Y-101775000D01*
G75*
G02*
X157225000Y-102000000I0J-225000D01*
G01*
X157225000Y-102500000D01*
G75*
G02*
X157000000Y-102725000I-225000J0D01*
G01*
X156550000Y-102725000D01*
G75*
G02*
X156325000Y-102500000I0J225000D01*
G01*
G37*
G36*
G01*
X154775000Y-102500000D02*
X154775000Y-102000000D01*
G75*
G02*
X155000000Y-101775000I225000J0D01*
G01*
X155450000Y-101775000D01*
G75*
G02*
X155675000Y-102000000I0J-225000D01*
G01*
X155675000Y-102500000D01*
G75*
G02*
X155450000Y-102725000I-225000J0D01*
G01*
X155000000Y-102725000D01*
G75*
G02*
X154775000Y-102500000I0J225000D01*
G01*
G37*
%TD*%
%TO.C,C2*%
G36*
G01*
X152000000Y-109325000D02*
X152500000Y-109325000D01*
G75*
G02*
X152725000Y-109550000I0J-225000D01*
G01*
X152725000Y-110000000D01*
G75*
G02*
X152500000Y-110225000I-225000J0D01*
G01*
X152000000Y-110225000D01*
G75*
G02*
X151775000Y-110000000I0J225000D01*
G01*
X151775000Y-109550000D01*
G75*
G02*
X152000000Y-109325000I225000J0D01*
G01*
G37*
G36*
G01*
X152000000Y-107775000D02*
X152500000Y-107775000D01*
G75*
G02*
X152725000Y-108000000I0J-225000D01*
G01*
X152725000Y-108450000D01*
G75*
G02*
X152500000Y-108675000I-225000J0D01*
G01*
X152000000Y-108675000D01*
G75*
G02*
X151775000Y-108450000I0J225000D01*
G01*
X151775000Y-108000000D01*
G75*
G02*
X152000000Y-107775000I225000J0D01*
G01*
G37*
%TD*%
%TO.C,C1*%
G36*
G01*
X146000000Y-109325000D02*
X146500000Y-109325000D01*
G75*
G02*
X146725000Y-109550000I0J-225000D01*
G01*
X146725000Y-110000000D01*
G75*
G02*
X146500000Y-110225000I-225000J0D01*
G01*
X146000000Y-110225000D01*
G75*
G02*
X145775000Y-110000000I0J225000D01*
G01*
X145775000Y-109550000D01*
G75*
G02*
X146000000Y-109325000I225000J0D01*
G01*
G37*
G36*
G01*
X146000000Y-107775000D02*
X146500000Y-107775000D01*
G75*
G02*
X146725000Y-108000000I0J-225000D01*
G01*
X146725000Y-108450000D01*
G75*
G02*
X146500000Y-108675000I-225000J0D01*
G01*
X146000000Y-108675000D01*
G75*
G02*
X145775000Y-108450000I0J225000D01*
G01*
X145775000Y-108000000D01*
G75*
G02*
X146000000Y-107775000I225000J0D01*
G01*
G37*
%TD*%
%TO.C,D1*%
G36*
G01*
X143150000Y-93243750D02*
X143150000Y-93756250D01*
G75*
G02*
X142931250Y-93975000I-218750J0D01*
G01*
X142493750Y-93975000D01*
G75*
G02*
X142275000Y-93756250I0J218750D01*
G01*
X142275000Y-93243750D01*
G75*
G02*
X142493750Y-93025000I218750J0D01*
G01*
X142931250Y-93025000D01*
G75*
G02*
X143150000Y-93243750I0J-218750D01*
G01*
G37*
G36*
G01*
X144725000Y-93243750D02*
X144725000Y-93756250D01*
G75*
G02*
X144506250Y-93975000I-218750J0D01*
G01*
X144068750Y-93975000D01*
G75*
G02*
X143850000Y-93756250I0J218750D01*
G01*
X143850000Y-93243750D01*
G75*
G02*
X144068750Y-93025000I218750J0D01*
G01*
X144506250Y-93025000D01*
G75*
G02*
X144725000Y-93243750I0J-218750D01*
G01*
G37*
%TD*%
D12*
%TO.C,J3*%
X158690000Y-94920000D03*
X156150000Y-94920000D03*
X158690000Y-92380000D03*
X156150000Y-92380000D03*
X158690000Y-89840000D03*
X156150000Y-89840000D03*
X158690000Y-87300000D03*
X156150000Y-87300000D03*
X158690000Y-84760000D03*
X156150000Y-84760000D03*
X158690000Y-82220000D03*
D13*
X156150000Y-82220000D03*
%TD*%
D12*
%TO.C,J2*%
X158690000Y-117780000D03*
X156150000Y-117780000D03*
X158690000Y-115240000D03*
X156150000Y-115240000D03*
X158690000Y-112700000D03*
X156150000Y-112700000D03*
X158690000Y-110160000D03*
X156150000Y-110160000D03*
X158690000Y-107620000D03*
X156150000Y-107620000D03*
X158690000Y-105080000D03*
D13*
X156150000Y-105080000D03*
%TD*%
%TO.C,C8*%
G36*
G01*
X146500000Y-104925000D02*
X146000000Y-104925000D01*
G75*
G02*
X145775000Y-104700000I0J225000D01*
G01*
X145775000Y-104250000D01*
G75*
G02*
X146000000Y-104025000I225000J0D01*
G01*
X146500000Y-104025000D01*
G75*
G02*
X146725000Y-104250000I0J-225000D01*
G01*
X146725000Y-104700000D01*
G75*
G02*
X146500000Y-104925000I-225000J0D01*
G01*
G37*
G36*
G01*
X146500000Y-106475000D02*
X146000000Y-106475000D01*
G75*
G02*
X145775000Y-106250000I0J225000D01*
G01*
X145775000Y-105800000D01*
G75*
G02*
X146000000Y-105575000I225000J0D01*
G01*
X146500000Y-105575000D01*
G75*
G02*
X146725000Y-105800000I0J-225000D01*
G01*
X146725000Y-106250000D01*
G75*
G02*
X146500000Y-106475000I-225000J0D01*
G01*
G37*
%TD*%
%TO.C,R7*%
G36*
G01*
X143075000Y-91475000D02*
X143075000Y-92025000D01*
G75*
G02*
X142875000Y-92225000I-200000J0D01*
G01*
X142475000Y-92225000D01*
G75*
G02*
X142275000Y-92025000I0J200000D01*
G01*
X142275000Y-91475000D01*
G75*
G02*
X142475000Y-91275000I200000J0D01*
G01*
X142875000Y-91275000D01*
G75*
G02*
X143075000Y-91475000I0J-200000D01*
G01*
G37*
G36*
G01*
X144725000Y-91475000D02*
X144725000Y-92025000D01*
G75*
G02*
X144525000Y-92225000I-200000J0D01*
G01*
X144125000Y-92225000D01*
G75*
G02*
X143925000Y-92025000I0J200000D01*
G01*
X143925000Y-91475000D01*
G75*
G02*
X144125000Y-91275000I200000J0D01*
G01*
X144525000Y-91275000D01*
G75*
G02*
X144725000Y-91475000I0J-200000D01*
G01*
G37*
%TD*%
%TO.C,R2*%
G36*
G01*
X148275000Y-94575000D02*
X147725000Y-94575000D01*
G75*
G02*
X147525000Y-94375000I0J200000D01*
G01*
X147525000Y-93975000D01*
G75*
G02*
X147725000Y-93775000I200000J0D01*
G01*
X148275000Y-93775000D01*
G75*
G02*
X148475000Y-93975000I0J-200000D01*
G01*
X148475000Y-94375000D01*
G75*
G02*
X148275000Y-94575000I-200000J0D01*
G01*
G37*
G36*
G01*
X148275000Y-96225000D02*
X147725000Y-96225000D01*
G75*
G02*
X147525000Y-96025000I0J200000D01*
G01*
X147525000Y-95625000D01*
G75*
G02*
X147725000Y-95425000I200000J0D01*
G01*
X148275000Y-95425000D01*
G75*
G02*
X148475000Y-95625000I0J-200000D01*
G01*
X148475000Y-96025000D01*
G75*
G02*
X148275000Y-96225000I-200000J0D01*
G01*
G37*
%TD*%
%TO.C,R1*%
G36*
G01*
X142225000Y-106075000D02*
X142225000Y-106625000D01*
G75*
G02*
X142025000Y-106825000I-200000J0D01*
G01*
X141625000Y-106825000D01*
G75*
G02*
X141425000Y-106625000I0J200000D01*
G01*
X141425000Y-106075000D01*
G75*
G02*
X141625000Y-105875000I200000J0D01*
G01*
X142025000Y-105875000D01*
G75*
G02*
X142225000Y-106075000I0J-200000D01*
G01*
G37*
G36*
G01*
X143875000Y-106075000D02*
X143875000Y-106625000D01*
G75*
G02*
X143675000Y-106825000I-200000J0D01*
G01*
X143275000Y-106825000D01*
G75*
G02*
X143075000Y-106625000I0J200000D01*
G01*
X143075000Y-106075000D01*
G75*
G02*
X143275000Y-105875000I200000J0D01*
G01*
X143675000Y-105875000D01*
G75*
G02*
X143875000Y-106075000I0J-200000D01*
G01*
G37*
%TD*%
D14*
%TO.C,J1*%
X144170000Y-103350000D03*
X144170000Y-102550000D03*
X144170000Y-97750000D03*
X144170000Y-96950000D03*
X144170000Y-96650000D03*
X144170000Y-97450000D03*
X144170000Y-98250000D03*
X144170000Y-98750000D03*
X144170000Y-99250000D03*
X144170000Y-99750000D03*
X144170000Y-100250000D03*
X144170000Y-100750000D03*
X144170000Y-101250000D03*
X144170000Y-101750000D03*
X144170000Y-102250000D03*
X144170000Y-103050000D03*
D15*
X143105000Y-97110000D03*
X143105000Y-102890000D03*
D16*
X139425000Y-104320000D03*
X139425000Y-95680000D03*
D17*
X143605000Y-104320000D03*
X143605000Y-95680000D03*
%TD*%
M02*
