%TF.GenerationSoftware,KiCad,Pcbnew,(5.1.9-0-10_14)*%
%TF.CreationDate,2021-02-28T11:16:04+01:00*%
%TF.ProjectId,PmodUsbUlpi,506d6f64-5573-4625-956c-70692e6b6963,1*%
%TF.SameCoordinates,Original*%
%TF.FileFunction,Legend,Bot*%
%TF.FilePolarity,Positive*%
%FSLAX46Y46*%
G04 Gerber Fmt 4.6, Leading zero omitted, Abs format (unit mm)*
G04 Created by KiCad (PCBNEW (5.1.9-0-10_14)) date 2021-02-28 11:16:04*
%MOMM*%
%LPD*%
G01*
G04 APERTURE LIST*
%ADD10C,0.150000*%
G04 APERTURE END LIST*
D10*
X154992023Y-115644761D02*
X154849166Y-115692380D01*
X154611071Y-115692380D01*
X154515833Y-115644761D01*
X154468214Y-115597142D01*
X154420595Y-115501904D01*
X154420595Y-115406666D01*
X154468214Y-115311428D01*
X154515833Y-115263809D01*
X154611071Y-115216190D01*
X154801547Y-115168571D01*
X154896785Y-115120952D01*
X154944404Y-115073333D01*
X154992023Y-114978095D01*
X154992023Y-114882857D01*
X154944404Y-114787619D01*
X154896785Y-114740000D01*
X154801547Y-114692380D01*
X154563452Y-114692380D01*
X154420595Y-114740000D01*
X154134880Y-114692380D02*
X153563452Y-114692380D01*
X153849166Y-115692380D02*
X153849166Y-114692380D01*
X153230119Y-115692380D02*
X153230119Y-114692380D01*
X152849166Y-114692380D01*
X152753928Y-114740000D01*
X152706309Y-114787619D01*
X152658690Y-114882857D01*
X152658690Y-115025714D01*
X152706309Y-115120952D01*
X152753928Y-115168571D01*
X152849166Y-115216190D01*
X153230119Y-115216190D01*
X154420595Y-107120000D02*
X154515833Y-107072380D01*
X154658690Y-107072380D01*
X154801547Y-107120000D01*
X154896785Y-107215238D01*
X154944404Y-107310476D01*
X154992023Y-107500952D01*
X154992023Y-107643809D01*
X154944404Y-107834285D01*
X154896785Y-107929523D01*
X154801547Y-108024761D01*
X154658690Y-108072380D01*
X154563452Y-108072380D01*
X154420595Y-108024761D01*
X154372976Y-107977142D01*
X154372976Y-107643809D01*
X154563452Y-107643809D01*
X153944404Y-108072380D02*
X153944404Y-107072380D01*
X153372976Y-108072380D01*
X153372976Y-107072380D01*
X152896785Y-108072380D02*
X152896785Y-107072380D01*
X152658690Y-107072380D01*
X152515833Y-107120000D01*
X152420595Y-107215238D01*
X152372976Y-107310476D01*
X152325357Y-107500952D01*
X152325357Y-107643809D01*
X152372976Y-107834285D01*
X152420595Y-107929523D01*
X152515833Y-108024761D01*
X152658690Y-108072380D01*
X152896785Y-108072380D01*
X154372976Y-118137142D02*
X154420595Y-118184761D01*
X154563452Y-118232380D01*
X154658690Y-118232380D01*
X154801547Y-118184761D01*
X154896785Y-118089523D01*
X154944404Y-117994285D01*
X154992023Y-117803809D01*
X154992023Y-117660952D01*
X154944404Y-117470476D01*
X154896785Y-117375238D01*
X154801547Y-117280000D01*
X154658690Y-117232380D01*
X154563452Y-117232380D01*
X154420595Y-117280000D01*
X154372976Y-117327619D01*
X153468214Y-118232380D02*
X153944404Y-118232380D01*
X153944404Y-117232380D01*
X153134880Y-118232380D02*
X153134880Y-117232380D01*
X152563452Y-118232380D02*
X152992023Y-117660952D01*
X152563452Y-117232380D02*
X153134880Y-117803809D01*
X154944404Y-113152380D02*
X154944404Y-112152380D01*
X154706309Y-112152380D01*
X154563452Y-112200000D01*
X154468214Y-112295238D01*
X154420595Y-112390476D01*
X154372976Y-112580952D01*
X154372976Y-112723809D01*
X154420595Y-112914285D01*
X154468214Y-113009523D01*
X154563452Y-113104761D01*
X154706309Y-113152380D01*
X154944404Y-113152380D01*
X153944404Y-113152380D02*
X153944404Y-112152380D01*
X152896785Y-113152380D02*
X153230119Y-112676190D01*
X153468214Y-113152380D02*
X153468214Y-112152380D01*
X153087261Y-112152380D01*
X152992023Y-112200000D01*
X152944404Y-112247619D01*
X152896785Y-112342857D01*
X152896785Y-112485714D01*
X152944404Y-112580952D01*
X152992023Y-112628571D01*
X153087261Y-112676190D01*
X153468214Y-112676190D01*
X162441547Y-104532380D02*
X161822500Y-104532380D01*
X162155833Y-104913333D01*
X162012976Y-104913333D01*
X161917738Y-104960952D01*
X161870119Y-105008571D01*
X161822500Y-105103809D01*
X161822500Y-105341904D01*
X161870119Y-105437142D01*
X161917738Y-105484761D01*
X162012976Y-105532380D01*
X162298690Y-105532380D01*
X162393928Y-105484761D01*
X162441547Y-105437142D01*
X161536785Y-104532380D02*
X161203452Y-105532380D01*
X160870119Y-104532380D01*
X160632023Y-104532380D02*
X160012976Y-104532380D01*
X160346309Y-104913333D01*
X160203452Y-104913333D01*
X160108214Y-104960952D01*
X160060595Y-105008571D01*
X160012976Y-105103809D01*
X160012976Y-105341904D01*
X160060595Y-105437142D01*
X160108214Y-105484761D01*
X160203452Y-105532380D01*
X160489166Y-105532380D01*
X160584404Y-105484761D01*
X160632023Y-105437142D01*
X154944404Y-110612380D02*
X154944404Y-109612380D01*
X154372976Y-110612380D01*
X154372976Y-109612380D01*
X153992023Y-109612380D02*
X153325357Y-110612380D01*
X153325357Y-109612380D02*
X153992023Y-110612380D01*
X153087261Y-109612380D02*
X152515833Y-109612380D01*
X152801547Y-110612380D02*
X152801547Y-109612380D01*
X161727261Y-117952380D02*
X162060595Y-117476190D01*
X162298690Y-117952380D02*
X162298690Y-116952380D01*
X161917738Y-116952380D01*
X161822500Y-117000000D01*
X161774880Y-117047619D01*
X161727261Y-117142857D01*
X161727261Y-117285714D01*
X161774880Y-117380952D01*
X161822500Y-117428571D01*
X161917738Y-117476190D01*
X162298690Y-117476190D01*
X161346309Y-117904761D02*
X161203452Y-117952380D01*
X160965357Y-117952380D01*
X160870119Y-117904761D01*
X160822500Y-117857142D01*
X160774880Y-117761904D01*
X160774880Y-117666666D01*
X160822500Y-117571428D01*
X160870119Y-117523809D01*
X160965357Y-117476190D01*
X161155833Y-117428571D01*
X161251071Y-117380952D01*
X161298690Y-117333333D01*
X161346309Y-117238095D01*
X161346309Y-117142857D01*
X161298690Y-117047619D01*
X161251071Y-117000000D01*
X161155833Y-116952380D01*
X160917738Y-116952380D01*
X160774880Y-117000000D01*
X160489166Y-116952380D02*
X159917738Y-116952380D01*
X160203452Y-117952380D02*
X160203452Y-116952380D01*
X162108214Y-107120000D02*
X162203452Y-107072380D01*
X162346309Y-107072380D01*
X162489166Y-107120000D01*
X162584404Y-107215238D01*
X162632023Y-107310476D01*
X162679642Y-107500952D01*
X162679642Y-107643809D01*
X162632023Y-107834285D01*
X162584404Y-107929523D01*
X162489166Y-108024761D01*
X162346309Y-108072380D01*
X162251071Y-108072380D01*
X162108214Y-108024761D01*
X162060595Y-107977142D01*
X162060595Y-107643809D01*
X162251071Y-107643809D01*
X161632023Y-108072380D02*
X161632023Y-107072380D01*
X161060595Y-108072380D01*
X161060595Y-107072380D01*
X160584404Y-108072380D02*
X160584404Y-107072380D01*
X160346309Y-107072380D01*
X160203452Y-107120000D01*
X160108214Y-107215238D01*
X160060595Y-107310476D01*
X160012976Y-107500952D01*
X160012976Y-107643809D01*
X160060595Y-107834285D01*
X160108214Y-107929523D01*
X160203452Y-108024761D01*
X160346309Y-108072380D01*
X160584404Y-108072380D01*
X155039642Y-104532380D02*
X154420595Y-104532380D01*
X154753928Y-104913333D01*
X154611071Y-104913333D01*
X154515833Y-104960952D01*
X154468214Y-105008571D01*
X154420595Y-105103809D01*
X154420595Y-105341904D01*
X154468214Y-105437142D01*
X154515833Y-105484761D01*
X154611071Y-105532380D01*
X154896785Y-105532380D01*
X154992023Y-105484761D01*
X155039642Y-105437142D01*
X154134880Y-104532380D02*
X153801547Y-105532380D01*
X153468214Y-104532380D01*
X153230119Y-104532380D02*
X152611071Y-104532380D01*
X152944404Y-104913333D01*
X152801547Y-104913333D01*
X152706309Y-104960952D01*
X152658690Y-105008571D01*
X152611071Y-105103809D01*
X152611071Y-105341904D01*
X152658690Y-105437142D01*
X152706309Y-105484761D01*
X152801547Y-105532380D01*
X153087261Y-105532380D01*
X153182500Y-105484761D01*
X153230119Y-105437142D01*
X154744404Y-87752380D02*
X154744404Y-86752380D01*
X154506309Y-86752380D01*
X154363452Y-86800000D01*
X154268214Y-86895238D01*
X154220595Y-86990476D01*
X154172976Y-87180952D01*
X154172976Y-87323809D01*
X154220595Y-87514285D01*
X154268214Y-87609523D01*
X154363452Y-87704761D01*
X154506309Y-87752380D01*
X154744404Y-87752380D01*
X153839642Y-86752380D02*
X153220595Y-86752380D01*
X153553928Y-87133333D01*
X153411071Y-87133333D01*
X153315833Y-87180952D01*
X153268214Y-87228571D01*
X153220595Y-87323809D01*
X153220595Y-87561904D01*
X153268214Y-87657142D01*
X153315833Y-87704761D01*
X153411071Y-87752380D01*
X153696785Y-87752380D01*
X153792023Y-87704761D01*
X153839642Y-87657142D01*
X154744404Y-90292380D02*
X154744404Y-89292380D01*
X154506309Y-89292380D01*
X154363452Y-89340000D01*
X154268214Y-89435238D01*
X154220595Y-89530476D01*
X154172976Y-89720952D01*
X154172976Y-89863809D01*
X154220595Y-90054285D01*
X154268214Y-90149523D01*
X154363452Y-90244761D01*
X154506309Y-90292380D01*
X154744404Y-90292380D01*
X153792023Y-89387619D02*
X153744404Y-89340000D01*
X153649166Y-89292380D01*
X153411071Y-89292380D01*
X153315833Y-89340000D01*
X153268214Y-89387619D01*
X153220595Y-89482857D01*
X153220595Y-89578095D01*
X153268214Y-89720952D01*
X153839642Y-90292380D01*
X153220595Y-90292380D01*
X154744404Y-92832380D02*
X154744404Y-91832380D01*
X154506309Y-91832380D01*
X154363452Y-91880000D01*
X154268214Y-91975238D01*
X154220595Y-92070476D01*
X154172976Y-92260952D01*
X154172976Y-92403809D01*
X154220595Y-92594285D01*
X154268214Y-92689523D01*
X154363452Y-92784761D01*
X154506309Y-92832380D01*
X154744404Y-92832380D01*
X153220595Y-92832380D02*
X153792023Y-92832380D01*
X153506309Y-92832380D02*
X153506309Y-91832380D01*
X153601547Y-91975238D01*
X153696785Y-92070476D01*
X153792023Y-92118095D01*
X154744404Y-95372380D02*
X154744404Y-94372380D01*
X154506309Y-94372380D01*
X154363452Y-94420000D01*
X154268214Y-94515238D01*
X154220595Y-94610476D01*
X154172976Y-94800952D01*
X154172976Y-94943809D01*
X154220595Y-95134285D01*
X154268214Y-95229523D01*
X154363452Y-95324761D01*
X154506309Y-95372380D01*
X154744404Y-95372380D01*
X153553928Y-94372380D02*
X153458690Y-94372380D01*
X153363452Y-94420000D01*
X153315833Y-94467619D01*
X153268214Y-94562857D01*
X153220595Y-94753333D01*
X153220595Y-94991428D01*
X153268214Y-95181904D01*
X153315833Y-95277142D01*
X153363452Y-95324761D01*
X153458690Y-95372380D01*
X153553928Y-95372380D01*
X153649166Y-95324761D01*
X153696785Y-95277142D01*
X153744404Y-95181904D01*
X153792023Y-94991428D01*
X153792023Y-94753333D01*
X153744404Y-94562857D01*
X153696785Y-94467619D01*
X153649166Y-94420000D01*
X153553928Y-94372380D01*
X154220595Y-84260000D02*
X154315833Y-84212380D01*
X154458690Y-84212380D01*
X154601547Y-84260000D01*
X154696785Y-84355238D01*
X154744404Y-84450476D01*
X154792023Y-84640952D01*
X154792023Y-84783809D01*
X154744404Y-84974285D01*
X154696785Y-85069523D01*
X154601547Y-85164761D01*
X154458690Y-85212380D01*
X154363452Y-85212380D01*
X154220595Y-85164761D01*
X154172976Y-85117142D01*
X154172976Y-84783809D01*
X154363452Y-84783809D01*
X153744404Y-85212380D02*
X153744404Y-84212380D01*
X153172976Y-85212380D01*
X153172976Y-84212380D01*
X152696785Y-85212380D02*
X152696785Y-84212380D01*
X152458690Y-84212380D01*
X152315833Y-84260000D01*
X152220595Y-84355238D01*
X152172976Y-84450476D01*
X152125357Y-84640952D01*
X152125357Y-84783809D01*
X152172976Y-84974285D01*
X152220595Y-85069523D01*
X152315833Y-85164761D01*
X152458690Y-85212380D01*
X152696785Y-85212380D01*
X154839642Y-81672380D02*
X154220595Y-81672380D01*
X154553928Y-82053333D01*
X154411071Y-82053333D01*
X154315833Y-82100952D01*
X154268214Y-82148571D01*
X154220595Y-82243809D01*
X154220595Y-82481904D01*
X154268214Y-82577142D01*
X154315833Y-82624761D01*
X154411071Y-82672380D01*
X154696785Y-82672380D01*
X154792023Y-82624761D01*
X154839642Y-82577142D01*
X153934880Y-81672380D02*
X153601547Y-82672380D01*
X153268214Y-81672380D01*
X153030119Y-81672380D02*
X152411071Y-81672380D01*
X152744404Y-82053333D01*
X152601547Y-82053333D01*
X152506309Y-82100952D01*
X152458690Y-82148571D01*
X152411071Y-82243809D01*
X152411071Y-82481904D01*
X152458690Y-82577142D01*
X152506309Y-82624761D01*
X152601547Y-82672380D01*
X152887261Y-82672380D01*
X152982500Y-82624761D01*
X153030119Y-82577142D01*
X161336785Y-95372380D02*
X161336785Y-94372380D01*
X161098690Y-94372380D01*
X160955833Y-94420000D01*
X160860595Y-94515238D01*
X160812976Y-94610476D01*
X160765357Y-94800952D01*
X160765357Y-94943809D01*
X160812976Y-95134285D01*
X160860595Y-95229523D01*
X160955833Y-95324761D01*
X161098690Y-95372380D01*
X161336785Y-95372380D01*
X159908214Y-94705714D02*
X159908214Y-95372380D01*
X160146309Y-94324761D02*
X160384404Y-95039047D01*
X159765357Y-95039047D01*
X161336785Y-92832380D02*
X161336785Y-91832380D01*
X161098690Y-91832380D01*
X160955833Y-91880000D01*
X160860595Y-91975238D01*
X160812976Y-92070476D01*
X160765357Y-92260952D01*
X160765357Y-92403809D01*
X160812976Y-92594285D01*
X160860595Y-92689523D01*
X160955833Y-92784761D01*
X161098690Y-92832380D01*
X161336785Y-92832380D01*
X159860595Y-91832380D02*
X160336785Y-91832380D01*
X160384404Y-92308571D01*
X160336785Y-92260952D01*
X160241547Y-92213333D01*
X160003452Y-92213333D01*
X159908214Y-92260952D01*
X159860595Y-92308571D01*
X159812976Y-92403809D01*
X159812976Y-92641904D01*
X159860595Y-92737142D01*
X159908214Y-92784761D01*
X160003452Y-92832380D01*
X160241547Y-92832380D01*
X160336785Y-92784761D01*
X160384404Y-92737142D01*
X161336785Y-90292380D02*
X161336785Y-89292380D01*
X161098690Y-89292380D01*
X160955833Y-89340000D01*
X160860595Y-89435238D01*
X160812976Y-89530476D01*
X160765357Y-89720952D01*
X160765357Y-89863809D01*
X160812976Y-90054285D01*
X160860595Y-90149523D01*
X160955833Y-90244761D01*
X161098690Y-90292380D01*
X161336785Y-90292380D01*
X159908214Y-89292380D02*
X160098690Y-89292380D01*
X160193928Y-89340000D01*
X160241547Y-89387619D01*
X160336785Y-89530476D01*
X160384404Y-89720952D01*
X160384404Y-90101904D01*
X160336785Y-90197142D01*
X160289166Y-90244761D01*
X160193928Y-90292380D01*
X160003452Y-90292380D01*
X159908214Y-90244761D01*
X159860595Y-90197142D01*
X159812976Y-90101904D01*
X159812976Y-89863809D01*
X159860595Y-89768571D01*
X159908214Y-89720952D01*
X160003452Y-89673333D01*
X160193928Y-89673333D01*
X160289166Y-89720952D01*
X160336785Y-89768571D01*
X160384404Y-89863809D01*
X162241547Y-82202380D02*
X161622500Y-82202380D01*
X161955833Y-82583333D01*
X161812976Y-82583333D01*
X161717738Y-82630952D01*
X161670119Y-82678571D01*
X161622500Y-82773809D01*
X161622500Y-83011904D01*
X161670119Y-83107142D01*
X161717738Y-83154761D01*
X161812976Y-83202380D01*
X162098690Y-83202380D01*
X162193928Y-83154761D01*
X162241547Y-83107142D01*
X161336785Y-82202380D02*
X161003452Y-83202380D01*
X160670119Y-82202380D01*
X160432023Y-82202380D02*
X159812976Y-82202380D01*
X160146309Y-82583333D01*
X160003452Y-82583333D01*
X159908214Y-82630952D01*
X159860595Y-82678571D01*
X159812976Y-82773809D01*
X159812976Y-83011904D01*
X159860595Y-83107142D01*
X159908214Y-83154761D01*
X160003452Y-83202380D01*
X160289166Y-83202380D01*
X160384404Y-83154761D01*
X160432023Y-83107142D01*
X161336785Y-87752380D02*
X161336785Y-86752380D01*
X161098690Y-86752380D01*
X160955833Y-86800000D01*
X160860595Y-86895238D01*
X160812976Y-86990476D01*
X160765357Y-87180952D01*
X160765357Y-87323809D01*
X160812976Y-87514285D01*
X160860595Y-87609523D01*
X160955833Y-87704761D01*
X161098690Y-87752380D01*
X161336785Y-87752380D01*
X160432023Y-86752380D02*
X159765357Y-86752380D01*
X160193928Y-87752380D01*
X161908214Y-84387000D02*
X162003452Y-84339380D01*
X162146309Y-84339380D01*
X162289166Y-84387000D01*
X162384404Y-84482238D01*
X162432023Y-84577476D01*
X162479642Y-84767952D01*
X162479642Y-84910809D01*
X162432023Y-85101285D01*
X162384404Y-85196523D01*
X162289166Y-85291761D01*
X162146309Y-85339380D01*
X162051071Y-85339380D01*
X161908214Y-85291761D01*
X161860595Y-85244142D01*
X161860595Y-84910809D01*
X162051071Y-84910809D01*
X161432023Y-85339380D02*
X161432023Y-84339380D01*
X160860595Y-85339380D01*
X160860595Y-84339380D01*
X160384404Y-85339380D02*
X160384404Y-84339380D01*
X160146309Y-84339380D01*
X160003452Y-84387000D01*
X159908214Y-84482238D01*
X159860595Y-84577476D01*
X159812976Y-84767952D01*
X159812976Y-84910809D01*
X159860595Y-85101285D01*
X159908214Y-85196523D01*
X160003452Y-85291761D01*
X160146309Y-85339380D01*
X160384404Y-85339380D01*
X148788095Y-104628571D02*
X148140476Y-104628571D01*
X148064285Y-104590476D01*
X148026190Y-104552380D01*
X147988095Y-104476190D01*
X147988095Y-104323809D01*
X148026190Y-104247619D01*
X148064285Y-104209523D01*
X148140476Y-104171428D01*
X148788095Y-104171428D01*
X148026190Y-103828571D02*
X147988095Y-103714285D01*
X147988095Y-103523809D01*
X148026190Y-103447619D01*
X148064285Y-103409523D01*
X148140476Y-103371428D01*
X148216666Y-103371428D01*
X148292857Y-103409523D01*
X148330952Y-103447619D01*
X148369047Y-103523809D01*
X148407142Y-103676190D01*
X148445238Y-103752380D01*
X148483333Y-103790476D01*
X148559523Y-103828571D01*
X148635714Y-103828571D01*
X148711904Y-103790476D01*
X148750000Y-103752380D01*
X148788095Y-103676190D01*
X148788095Y-103485714D01*
X148750000Y-103371428D01*
X148407142Y-102761904D02*
X148369047Y-102647619D01*
X148330952Y-102609523D01*
X148254761Y-102571428D01*
X148140476Y-102571428D01*
X148064285Y-102609523D01*
X148026190Y-102647619D01*
X147988095Y-102723809D01*
X147988095Y-103028571D01*
X148788095Y-103028571D01*
X148788095Y-102761904D01*
X148750000Y-102685714D01*
X148711904Y-102647619D01*
X148635714Y-102609523D01*
X148559523Y-102609523D01*
X148483333Y-102647619D01*
X148445238Y-102685714D01*
X148407142Y-102761904D01*
X148407142Y-103028571D01*
X147988095Y-101619047D02*
X148788095Y-101619047D01*
X148788095Y-101314285D01*
X148750000Y-101238095D01*
X148711904Y-101200000D01*
X148635714Y-101161904D01*
X148521428Y-101161904D01*
X148445238Y-101200000D01*
X148407142Y-101238095D01*
X148369047Y-101314285D01*
X148369047Y-101619047D01*
X147988095Y-100819047D02*
X148788095Y-100819047D01*
X148216666Y-100552380D01*
X148788095Y-100285714D01*
X147988095Y-100285714D01*
X148788095Y-99752380D02*
X148788095Y-99600000D01*
X148750000Y-99523809D01*
X148673809Y-99447619D01*
X148521428Y-99409523D01*
X148254761Y-99409523D01*
X148102380Y-99447619D01*
X148026190Y-99523809D01*
X147988095Y-99600000D01*
X147988095Y-99752380D01*
X148026190Y-99828571D01*
X148102380Y-99904761D01*
X148254761Y-99942857D01*
X148521428Y-99942857D01*
X148673809Y-99904761D01*
X148750000Y-99828571D01*
X148788095Y-99752380D01*
X147988095Y-99066666D02*
X148788095Y-99066666D01*
X148788095Y-98876190D01*
X148750000Y-98761904D01*
X148673809Y-98685714D01*
X148597619Y-98647619D01*
X148445238Y-98609523D01*
X148330952Y-98609523D01*
X148178571Y-98647619D01*
X148102380Y-98685714D01*
X148026190Y-98761904D01*
X147988095Y-98876190D01*
X147988095Y-99066666D01*
X148788095Y-97657142D02*
X148140476Y-97657142D01*
X148064285Y-97619047D01*
X148026190Y-97580952D01*
X147988095Y-97504761D01*
X147988095Y-97352380D01*
X148026190Y-97276190D01*
X148064285Y-97238095D01*
X148140476Y-97200000D01*
X148788095Y-97200000D01*
X147988095Y-96438095D02*
X147988095Y-96819047D01*
X148788095Y-96819047D01*
X147988095Y-96171428D02*
X148788095Y-96171428D01*
X148788095Y-95866666D01*
X148750000Y-95790476D01*
X148711904Y-95752380D01*
X148635714Y-95714285D01*
X148521428Y-95714285D01*
X148445238Y-95752380D01*
X148407142Y-95790476D01*
X148369047Y-95866666D01*
X148369047Y-96171428D01*
X147988095Y-95371428D02*
X148788095Y-95371428D01*
X146638095Y-105809523D02*
X147019047Y-106076190D01*
X146638095Y-106266666D02*
X147438095Y-106266666D01*
X147438095Y-105961904D01*
X147400000Y-105885714D01*
X147361904Y-105847619D01*
X147285714Y-105809523D01*
X147171428Y-105809523D01*
X147095238Y-105847619D01*
X147057142Y-105885714D01*
X147019047Y-105961904D01*
X147019047Y-106266666D01*
X146676190Y-105161904D02*
X146638095Y-105238095D01*
X146638095Y-105390476D01*
X146676190Y-105466666D01*
X146752380Y-105504761D01*
X147057142Y-105504761D01*
X147133333Y-105466666D01*
X147171428Y-105390476D01*
X147171428Y-105238095D01*
X147133333Y-105161904D01*
X147057142Y-105123809D01*
X146980952Y-105123809D01*
X146904761Y-105504761D01*
X147171428Y-104857142D02*
X146638095Y-104666666D01*
X147171428Y-104476190D01*
X146714285Y-104171428D02*
X146676190Y-104133333D01*
X146638095Y-104171428D01*
X146676190Y-104209523D01*
X146714285Y-104171428D01*
X146638095Y-104171428D01*
X147361904Y-103219047D02*
X147400000Y-103180952D01*
X147438095Y-103104761D01*
X147438095Y-102914285D01*
X147400000Y-102838095D01*
X147361904Y-102800000D01*
X147285714Y-102761904D01*
X147209523Y-102761904D01*
X147095238Y-102800000D01*
X146638095Y-103257142D01*
X146638095Y-102761904D01*
X146676190Y-102380952D02*
X146638095Y-102380952D01*
X146561904Y-102419047D01*
X146523809Y-102457142D01*
X147361904Y-101466666D02*
X147400000Y-101428571D01*
X147438095Y-101352380D01*
X147438095Y-101161904D01*
X147400000Y-101085714D01*
X147361904Y-101047619D01*
X147285714Y-101009523D01*
X147209523Y-101009523D01*
X147095238Y-101047619D01*
X146638095Y-101504761D01*
X146638095Y-101009523D01*
X147438095Y-100514285D02*
X147438095Y-100438095D01*
X147400000Y-100361904D01*
X147361904Y-100323809D01*
X147285714Y-100285714D01*
X147133333Y-100247619D01*
X146942857Y-100247619D01*
X146790476Y-100285714D01*
X146714285Y-100323809D01*
X146676190Y-100361904D01*
X146638095Y-100438095D01*
X146638095Y-100514285D01*
X146676190Y-100590476D01*
X146714285Y-100628571D01*
X146790476Y-100666666D01*
X146942857Y-100704761D01*
X147133333Y-100704761D01*
X147285714Y-100666666D01*
X147361904Y-100628571D01*
X147400000Y-100590476D01*
X147438095Y-100514285D01*
X147361904Y-99942857D02*
X147400000Y-99904761D01*
X147438095Y-99828571D01*
X147438095Y-99638095D01*
X147400000Y-99561904D01*
X147361904Y-99523809D01*
X147285714Y-99485714D01*
X147209523Y-99485714D01*
X147095238Y-99523809D01*
X146638095Y-99980952D01*
X146638095Y-99485714D01*
X146638095Y-98723809D02*
X146638095Y-99180952D01*
X146638095Y-98952380D02*
X147438095Y-98952380D01*
X147323809Y-99028571D01*
X147247619Y-99104761D01*
X147209523Y-99180952D01*
X146942857Y-98380952D02*
X146942857Y-97771428D01*
X147438095Y-97238095D02*
X147438095Y-97161904D01*
X147400000Y-97085714D01*
X147361904Y-97047619D01*
X147285714Y-97009523D01*
X147133333Y-96971428D01*
X146942857Y-96971428D01*
X146790476Y-97009523D01*
X146714285Y-97047619D01*
X146676190Y-97085714D01*
X146638095Y-97161904D01*
X146638095Y-97238095D01*
X146676190Y-97314285D01*
X146714285Y-97352380D01*
X146790476Y-97390476D01*
X146942857Y-97428571D01*
X147133333Y-97428571D01*
X147285714Y-97390476D01*
X147361904Y-97352380D01*
X147400000Y-97314285D01*
X147438095Y-97238095D01*
X147361904Y-96666666D02*
X147400000Y-96628571D01*
X147438095Y-96552380D01*
X147438095Y-96361904D01*
X147400000Y-96285714D01*
X147361904Y-96247619D01*
X147285714Y-96209523D01*
X147209523Y-96209523D01*
X147095238Y-96247619D01*
X146638095Y-96704761D01*
X146638095Y-96209523D01*
X146942857Y-95866666D02*
X146942857Y-95257142D01*
X147361904Y-94914285D02*
X147400000Y-94876190D01*
X147438095Y-94800000D01*
X147438095Y-94609523D01*
X147400000Y-94533333D01*
X147361904Y-94495238D01*
X147285714Y-94457142D01*
X147209523Y-94457142D01*
X147095238Y-94495238D01*
X146638095Y-94952380D01*
X146638095Y-94457142D01*
X147438095Y-93771428D02*
X147438095Y-93923809D01*
X147400000Y-94000000D01*
X147361904Y-94038095D01*
X147247619Y-94114285D01*
X147095238Y-94152380D01*
X146790476Y-94152380D01*
X146714285Y-94114285D01*
X146676190Y-94076190D01*
X146638095Y-94000000D01*
X146638095Y-93847619D01*
X146676190Y-93771428D01*
X146714285Y-93733333D01*
X146790476Y-93695238D01*
X146980952Y-93695238D01*
X147057142Y-93733333D01*
X147095238Y-93771428D01*
X147133333Y-93847619D01*
X147133333Y-94000000D01*
X147095238Y-94076190D01*
X147057142Y-94114285D01*
X146980952Y-94152380D01*
X146088095Y-107333333D02*
X146088095Y-106876190D01*
X145288095Y-107104761D02*
X146088095Y-107104761D01*
X145288095Y-106495238D02*
X145326190Y-106571428D01*
X145364285Y-106609523D01*
X145440476Y-106647619D01*
X145669047Y-106647619D01*
X145745238Y-106609523D01*
X145783333Y-106571428D01*
X145821428Y-106495238D01*
X145821428Y-106380952D01*
X145783333Y-106304761D01*
X145745238Y-106266666D01*
X145669047Y-106228571D01*
X145440476Y-106228571D01*
X145364285Y-106266666D01*
X145326190Y-106304761D01*
X145288095Y-106380952D01*
X145288095Y-106495238D01*
X145288095Y-105885714D02*
X146088095Y-105885714D01*
X145783333Y-105885714D02*
X145821428Y-105809523D01*
X145821428Y-105657142D01*
X145783333Y-105580952D01*
X145745238Y-105542857D01*
X145669047Y-105504761D01*
X145440476Y-105504761D01*
X145364285Y-105542857D01*
X145326190Y-105580952D01*
X145288095Y-105657142D01*
X145288095Y-105809523D01*
X145326190Y-105885714D01*
X145288095Y-105161904D02*
X145821428Y-105161904D01*
X146088095Y-105161904D02*
X146050000Y-105200000D01*
X146011904Y-105161904D01*
X146050000Y-105123809D01*
X146088095Y-105161904D01*
X146011904Y-105161904D01*
X145288095Y-104438095D02*
X145707142Y-104438095D01*
X145783333Y-104476190D01*
X145821428Y-104552380D01*
X145821428Y-104704761D01*
X145783333Y-104780952D01*
X145326190Y-104438095D02*
X145288095Y-104514285D01*
X145288095Y-104704761D01*
X145326190Y-104780952D01*
X145402380Y-104819047D01*
X145478571Y-104819047D01*
X145554761Y-104780952D01*
X145592857Y-104704761D01*
X145592857Y-104514285D01*
X145630952Y-104438095D01*
X145326190Y-104095238D02*
X145288095Y-104019047D01*
X145288095Y-103866666D01*
X145326190Y-103790476D01*
X145402380Y-103752380D01*
X145440476Y-103752380D01*
X145516666Y-103790476D01*
X145554761Y-103866666D01*
X145554761Y-103980952D01*
X145592857Y-104057142D01*
X145669047Y-104095238D01*
X145707142Y-104095238D01*
X145783333Y-104057142D01*
X145821428Y-103980952D01*
X145821428Y-103866666D01*
X145783333Y-103790476D01*
X145288095Y-102800000D02*
X146088095Y-102800000D01*
X145516666Y-102533333D01*
X146088095Y-102266666D01*
X145288095Y-102266666D01*
X145821428Y-101542857D02*
X145288095Y-101542857D01*
X145821428Y-101885714D02*
X145402380Y-101885714D01*
X145326190Y-101847619D01*
X145288095Y-101771428D01*
X145288095Y-101657142D01*
X145326190Y-101580952D01*
X145364285Y-101542857D01*
X146088095Y-101847619D02*
X146050000Y-101809523D01*
X146011904Y-101847619D01*
X146050000Y-101885714D01*
X146088095Y-101847619D01*
X146011904Y-101847619D01*
X146088095Y-101542857D02*
X146050000Y-101504761D01*
X146011904Y-101542857D01*
X146050000Y-101580952D01*
X146088095Y-101542857D01*
X146011904Y-101542857D01*
X145288095Y-101047619D02*
X145326190Y-101123809D01*
X145402380Y-101161904D01*
X146088095Y-101161904D01*
X145288095Y-100628571D02*
X145326190Y-100704761D01*
X145402380Y-100742857D01*
X146088095Y-100742857D01*
X145326190Y-100019047D02*
X145288095Y-100095238D01*
X145288095Y-100247619D01*
X145326190Y-100323809D01*
X145402380Y-100361904D01*
X145707142Y-100361904D01*
X145783333Y-100323809D01*
X145821428Y-100247619D01*
X145821428Y-100095238D01*
X145783333Y-100019047D01*
X145707142Y-99980952D01*
X145630952Y-99980952D01*
X145554761Y-100361904D01*
X145288095Y-99638095D02*
X145821428Y-99638095D01*
X145669047Y-99638095D02*
X145745238Y-99600000D01*
X145783333Y-99561904D01*
X145821428Y-99485714D01*
X145821428Y-99409523D01*
X145326190Y-99104761D02*
X145288095Y-99104761D01*
X145211904Y-99142857D01*
X145173809Y-99180952D01*
X145821428Y-98266666D02*
X145821428Y-97961904D01*
X146088095Y-98152380D02*
X145402380Y-98152380D01*
X145326190Y-98114285D01*
X145288095Y-98038095D01*
X145288095Y-97961904D01*
X145821428Y-97771428D02*
X145288095Y-97619047D01*
X145669047Y-97466666D01*
X145288095Y-97314285D01*
X145821428Y-97161904D01*
X145288095Y-96514285D02*
X145707142Y-96514285D01*
X145783333Y-96552380D01*
X145821428Y-96628571D01*
X145821428Y-96780952D01*
X145783333Y-96857142D01*
X145326190Y-96514285D02*
X145288095Y-96590476D01*
X145288095Y-96780952D01*
X145326190Y-96857142D01*
X145402380Y-96895238D01*
X145478571Y-96895238D01*
X145554761Y-96857142D01*
X145592857Y-96780952D01*
X145592857Y-96590476D01*
X145630952Y-96514285D01*
X145288095Y-96133333D02*
X145821428Y-96133333D01*
X145745238Y-96133333D02*
X145783333Y-96095238D01*
X145821428Y-96019047D01*
X145821428Y-95904761D01*
X145783333Y-95828571D01*
X145707142Y-95790476D01*
X145288095Y-95790476D01*
X145707142Y-95790476D02*
X145783333Y-95752380D01*
X145821428Y-95676190D01*
X145821428Y-95561904D01*
X145783333Y-95485714D01*
X145707142Y-95447619D01*
X145288095Y-95447619D01*
X145364285Y-95066666D02*
X145326190Y-95028571D01*
X145288095Y-95066666D01*
X145326190Y-95104761D01*
X145364285Y-95066666D01*
X145288095Y-95066666D01*
X145288095Y-94685714D02*
X145821428Y-94685714D01*
X146088095Y-94685714D02*
X146050000Y-94723809D01*
X146011904Y-94685714D01*
X146050000Y-94647619D01*
X146088095Y-94685714D01*
X146011904Y-94685714D01*
X145821428Y-94304761D02*
X145288095Y-94304761D01*
X145745238Y-94304761D02*
X145783333Y-94266666D01*
X145821428Y-94190476D01*
X145821428Y-94076190D01*
X145783333Y-94000000D01*
X145707142Y-93961904D01*
X145288095Y-93961904D01*
X145821428Y-93695238D02*
X145821428Y-93390476D01*
X145288095Y-93580952D02*
X145973809Y-93580952D01*
X146050000Y-93542857D01*
X146088095Y-93466666D01*
X146088095Y-93390476D01*
X145288095Y-93009523D02*
X145326190Y-93085714D01*
X145364285Y-93123809D01*
X145440476Y-93161904D01*
X145669047Y-93161904D01*
X145745238Y-93123809D01*
X145783333Y-93085714D01*
X145821428Y-93009523D01*
X145821428Y-92895238D01*
X145783333Y-92819047D01*
X145745238Y-92780952D01*
X145669047Y-92742857D01*
X145440476Y-92742857D01*
X145364285Y-92780952D01*
X145326190Y-92819047D01*
X145288095Y-92895238D01*
X145288095Y-93009523D01*
X137811904Y-103695238D02*
X138383333Y-103695238D01*
X138497619Y-103733333D01*
X138573809Y-103809523D01*
X138611904Y-103923809D01*
X138611904Y-104000000D01*
X138611904Y-102933333D02*
X138611904Y-103314285D01*
X137811904Y-103314285D01*
X138535714Y-102209523D02*
X138573809Y-102247619D01*
X138611904Y-102361904D01*
X138611904Y-102438095D01*
X138573809Y-102552380D01*
X138497619Y-102628571D01*
X138421428Y-102666666D01*
X138269047Y-102704761D01*
X138154761Y-102704761D01*
X138002380Y-102666666D01*
X137926190Y-102628571D01*
X137850000Y-102552380D01*
X137811904Y-102438095D01*
X137811904Y-102361904D01*
X137850000Y-102247619D01*
X137888095Y-102209523D01*
X137811904Y-101638095D02*
X138383333Y-101638095D01*
X138497619Y-101676190D01*
X138573809Y-101752380D01*
X138611904Y-101866666D01*
X138611904Y-101942857D01*
X138611904Y-100876190D02*
X138611904Y-101257142D01*
X137811904Y-101257142D01*
X138535714Y-100152380D02*
X138573809Y-100190476D01*
X138611904Y-100304761D01*
X138611904Y-100380952D01*
X138573809Y-100495238D01*
X138497619Y-100571428D01*
X138421428Y-100609523D01*
X138269047Y-100647619D01*
X138154761Y-100647619D01*
X138002380Y-100609523D01*
X137926190Y-100571428D01*
X137850000Y-100495238D01*
X137811904Y-100380952D01*
X137811904Y-100304761D01*
X137850000Y-100190476D01*
X137888095Y-100152380D01*
X137811904Y-99580952D02*
X138383333Y-99580952D01*
X138497619Y-99619047D01*
X138573809Y-99695238D01*
X138611904Y-99809523D01*
X138611904Y-99885714D01*
X138611904Y-98819047D02*
X138611904Y-99200000D01*
X137811904Y-99200000D01*
X138535714Y-98095238D02*
X138573809Y-98133333D01*
X138611904Y-98247619D01*
X138611904Y-98323809D01*
X138573809Y-98438095D01*
X138497619Y-98514285D01*
X138421428Y-98552380D01*
X138269047Y-98590476D01*
X138154761Y-98590476D01*
X138002380Y-98552380D01*
X137926190Y-98514285D01*
X137850000Y-98438095D01*
X137811904Y-98323809D01*
X137811904Y-98247619D01*
X137850000Y-98133333D01*
X137888095Y-98095238D01*
X137811904Y-97523809D02*
X138383333Y-97523809D01*
X138497619Y-97561904D01*
X138573809Y-97638095D01*
X138611904Y-97752380D01*
X138611904Y-97828571D01*
X138611904Y-96761904D02*
X138611904Y-97142857D01*
X137811904Y-97142857D01*
X138535714Y-96038095D02*
X138573809Y-96076190D01*
X138611904Y-96190476D01*
X138611904Y-96266666D01*
X138573809Y-96380952D01*
X138497619Y-96457142D01*
X138421428Y-96495238D01*
X138269047Y-96533333D01*
X138154761Y-96533333D01*
X138002380Y-96495238D01*
X137926190Y-96457142D01*
X137850000Y-96380952D01*
X137811904Y-96266666D01*
X137811904Y-96190476D01*
X137850000Y-96076190D01*
X137888095Y-96038095D01*
M02*
