%TF.GenerationSoftware,KiCad,Pcbnew,(5.1.9-0-10_14)*%
%TF.CreationDate,2021-02-28T11:16:04+01:00*%
%TF.ProjectId,PmodUsbUlpi,506d6f64-5573-4625-956c-70692e6b6963,1*%
%TF.SameCoordinates,Original*%
%TF.FileFunction,Copper,L1,Top*%
%TF.FilePolarity,Positive*%
%FSLAX46Y46*%
G04 Gerber Fmt 4.6, Leading zero omitted, Abs format (unit mm)*
G04 Created by KiCad (PCBNEW (5.1.9-0-10_14)) date 2021-02-28 11:16:04*
%MOMM*%
%LPD*%
G01*
G04 APERTURE LIST*
%TA.AperFunction,SMDPad,CuDef*%
%ADD10R,3.300000X3.300000*%
%TD*%
%TA.AperFunction,ComponentPad*%
%ADD11O,1.700000X1.700000*%
%TD*%
%TA.AperFunction,ComponentPad*%
%ADD12R,1.700000X1.700000*%
%TD*%
%TA.AperFunction,SMDPad,CuDef*%
%ADD13R,1.150000X0.300000*%
%TD*%
%TA.AperFunction,ComponentPad*%
%ADD14O,1.600000X1.000000*%
%TD*%
%TA.AperFunction,ComponentPad*%
%ADD15O,2.100000X1.000000*%
%TD*%
%TA.AperFunction,ViaPad*%
%ADD16C,0.600000*%
%TD*%
%TA.AperFunction,Conductor*%
%ADD17C,0.200000*%
%TD*%
%TA.AperFunction,Conductor*%
%ADD18C,0.600000*%
%TD*%
%TA.AperFunction,Conductor*%
%ADD19C,0.400000*%
%TD*%
%TA.AperFunction,Conductor*%
%ADD20C,0.254000*%
%TD*%
%TA.AperFunction,Conductor*%
%ADD21C,0.100000*%
%TD*%
G04 APERTURE END LIST*
%TO.P,R4,2*%
%TO.N,/CC2*%
%TA.AperFunction,SMDPad,CuDef*%
G36*
G01*
X145975000Y-95425000D02*
X146525000Y-95425000D01*
G75*
G02*
X146725000Y-95625000I0J-200000D01*
G01*
X146725000Y-96025000D01*
G75*
G02*
X146525000Y-96225000I-200000J0D01*
G01*
X145975000Y-96225000D01*
G75*
G02*
X145775000Y-96025000I0J200000D01*
G01*
X145775000Y-95625000D01*
G75*
G02*
X145975000Y-95425000I200000J0D01*
G01*
G37*
%TD.AperFunction*%
%TO.P,R4,1*%
%TO.N,GND*%
%TA.AperFunction,SMDPad,CuDef*%
G36*
G01*
X145975000Y-93775000D02*
X146525000Y-93775000D01*
G75*
G02*
X146725000Y-93975000I0J-200000D01*
G01*
X146725000Y-94375000D01*
G75*
G02*
X146525000Y-94575000I-200000J0D01*
G01*
X145975000Y-94575000D01*
G75*
G02*
X145775000Y-94375000I0J200000D01*
G01*
X145775000Y-93975000D01*
G75*
G02*
X145975000Y-93775000I200000J0D01*
G01*
G37*
%TD.AperFunction*%
%TD*%
%TO.P,R3,2*%
%TO.N,Net-(R3-Pad2)*%
%TA.AperFunction,SMDPad,CuDef*%
G36*
G01*
X148275000Y-104825000D02*
X147725000Y-104825000D01*
G75*
G02*
X147525000Y-104625000I0J200000D01*
G01*
X147525000Y-104225000D01*
G75*
G02*
X147725000Y-104025000I200000J0D01*
G01*
X148275000Y-104025000D01*
G75*
G02*
X148475000Y-104225000I0J-200000D01*
G01*
X148475000Y-104625000D01*
G75*
G02*
X148275000Y-104825000I-200000J0D01*
G01*
G37*
%TD.AperFunction*%
%TO.P,R3,1*%
%TO.N,VBUS*%
%TA.AperFunction,SMDPad,CuDef*%
G36*
G01*
X148275000Y-106475000D02*
X147725000Y-106475000D01*
G75*
G02*
X147525000Y-106275000I0J200000D01*
G01*
X147525000Y-105875000D01*
G75*
G02*
X147725000Y-105675000I200000J0D01*
G01*
X148275000Y-105675000D01*
G75*
G02*
X148475000Y-105875000I0J-200000D01*
G01*
X148475000Y-106275000D01*
G75*
G02*
X148275000Y-106475000I-200000J0D01*
G01*
G37*
%TD.AperFunction*%
%TD*%
D10*
%TO.P,U2,33*%
%TO.N,GND*%
X151250000Y-100000000D03*
%TO.P,U2,32*%
%TO.N,+3V3*%
%TA.AperFunction,SMDPad,CuDef*%
G36*
G01*
X153125000Y-102062500D02*
X153125000Y-102812500D01*
G75*
G02*
X153062500Y-102875000I-62500J0D01*
G01*
X152937500Y-102875000D01*
G75*
G02*
X152875000Y-102812500I0J62500D01*
G01*
X152875000Y-102062500D01*
G75*
G02*
X152937500Y-102000000I62500J0D01*
G01*
X153062500Y-102000000D01*
G75*
G02*
X153125000Y-102062500I0J-62500D01*
G01*
G37*
%TD.AperFunction*%
%TO.P,U2,31*%
%TO.N,/DIR*%
%TA.AperFunction,SMDPad,CuDef*%
G36*
G01*
X152625000Y-102062500D02*
X152625000Y-102812500D01*
G75*
G02*
X152562500Y-102875000I-62500J0D01*
G01*
X152437500Y-102875000D01*
G75*
G02*
X152375000Y-102812500I0J62500D01*
G01*
X152375000Y-102062500D01*
G75*
G02*
X152437500Y-102000000I62500J0D01*
G01*
X152562500Y-102000000D01*
G75*
G02*
X152625000Y-102062500I0J-62500D01*
G01*
G37*
%TD.AperFunction*%
%TO.P,U2,30*%
%TO.N,+1V8*%
%TA.AperFunction,SMDPad,CuDef*%
G36*
G01*
X152125000Y-102062500D02*
X152125000Y-102812500D01*
G75*
G02*
X152062500Y-102875000I-62500J0D01*
G01*
X151937500Y-102875000D01*
G75*
G02*
X151875000Y-102812500I0J62500D01*
G01*
X151875000Y-102062500D01*
G75*
G02*
X151937500Y-102000000I62500J0D01*
G01*
X152062500Y-102000000D01*
G75*
G02*
X152125000Y-102062500I0J-62500D01*
G01*
G37*
%TD.AperFunction*%
%TO.P,U2,29*%
%TO.N,/STP*%
%TA.AperFunction,SMDPad,CuDef*%
G36*
G01*
X151625000Y-102062500D02*
X151625000Y-102812500D01*
G75*
G02*
X151562500Y-102875000I-62500J0D01*
G01*
X151437500Y-102875000D01*
G75*
G02*
X151375000Y-102812500I0J62500D01*
G01*
X151375000Y-102062500D01*
G75*
G02*
X151437500Y-102000000I62500J0D01*
G01*
X151562500Y-102000000D01*
G75*
G02*
X151625000Y-102062500I0J-62500D01*
G01*
G37*
%TD.AperFunction*%
%TO.P,U2,28*%
%TO.N,+1V8*%
%TA.AperFunction,SMDPad,CuDef*%
G36*
G01*
X151125000Y-102062500D02*
X151125000Y-102812500D01*
G75*
G02*
X151062500Y-102875000I-62500J0D01*
G01*
X150937500Y-102875000D01*
G75*
G02*
X150875000Y-102812500I0J62500D01*
G01*
X150875000Y-102062500D01*
G75*
G02*
X150937500Y-102000000I62500J0D01*
G01*
X151062500Y-102000000D01*
G75*
G02*
X151125000Y-102062500I0J-62500D01*
G01*
G37*
%TD.AperFunction*%
%TO.P,U2,27*%
%TO.N,/RESET*%
%TA.AperFunction,SMDPad,CuDef*%
G36*
G01*
X150625000Y-102062500D02*
X150625000Y-102812500D01*
G75*
G02*
X150562500Y-102875000I-62500J0D01*
G01*
X150437500Y-102875000D01*
G75*
G02*
X150375000Y-102812500I0J62500D01*
G01*
X150375000Y-102062500D01*
G75*
G02*
X150437500Y-102000000I62500J0D01*
G01*
X150562500Y-102000000D01*
G75*
G02*
X150625000Y-102062500I0J-62500D01*
G01*
G37*
%TD.AperFunction*%
%TO.P,U2,26*%
%TO.N,/CLK*%
%TA.AperFunction,SMDPad,CuDef*%
G36*
G01*
X150125000Y-102062500D02*
X150125000Y-102812500D01*
G75*
G02*
X150062500Y-102875000I-62500J0D01*
G01*
X149937500Y-102875000D01*
G75*
G02*
X149875000Y-102812500I0J62500D01*
G01*
X149875000Y-102062500D01*
G75*
G02*
X149937500Y-102000000I62500J0D01*
G01*
X150062500Y-102000000D01*
G75*
G02*
X150125000Y-102062500I0J-62500D01*
G01*
G37*
%TD.AperFunction*%
%TO.P,U2,25*%
%TO.N,Net-(U2-Pad25)*%
%TA.AperFunction,SMDPad,CuDef*%
G36*
G01*
X149625000Y-102062500D02*
X149625000Y-102812500D01*
G75*
G02*
X149562500Y-102875000I-62500J0D01*
G01*
X149437500Y-102875000D01*
G75*
G02*
X149375000Y-102812500I0J62500D01*
G01*
X149375000Y-102062500D01*
G75*
G02*
X149437500Y-102000000I62500J0D01*
G01*
X149562500Y-102000000D01*
G75*
G02*
X149625000Y-102062500I0J-62500D01*
G01*
G37*
%TD.AperFunction*%
%TO.P,U2,24*%
%TO.N,Net-(R5-Pad1)*%
%TA.AperFunction,SMDPad,CuDef*%
G36*
G01*
X149250000Y-101687500D02*
X149250000Y-101812500D01*
G75*
G02*
X149187500Y-101875000I-62500J0D01*
G01*
X148437500Y-101875000D01*
G75*
G02*
X148375000Y-101812500I0J62500D01*
G01*
X148375000Y-101687500D01*
G75*
G02*
X148437500Y-101625000I62500J0D01*
G01*
X149187500Y-101625000D01*
G75*
G02*
X149250000Y-101687500I0J-62500D01*
G01*
G37*
%TD.AperFunction*%
%TO.P,U2,23*%
%TO.N,+3V3*%
%TA.AperFunction,SMDPad,CuDef*%
G36*
G01*
X149250000Y-101187500D02*
X149250000Y-101312500D01*
G75*
G02*
X149187500Y-101375000I-62500J0D01*
G01*
X148437500Y-101375000D01*
G75*
G02*
X148375000Y-101312500I0J62500D01*
G01*
X148375000Y-101187500D01*
G75*
G02*
X148437500Y-101125000I62500J0D01*
G01*
X149187500Y-101125000D01*
G75*
G02*
X149250000Y-101187500I0J-62500D01*
G01*
G37*
%TD.AperFunction*%
%TO.P,U2,22*%
%TO.N,Net-(R3-Pad2)*%
%TA.AperFunction,SMDPad,CuDef*%
G36*
G01*
X149250000Y-100687500D02*
X149250000Y-100812500D01*
G75*
G02*
X149187500Y-100875000I-62500J0D01*
G01*
X148437500Y-100875000D01*
G75*
G02*
X148375000Y-100812500I0J62500D01*
G01*
X148375000Y-100687500D01*
G75*
G02*
X148437500Y-100625000I62500J0D01*
G01*
X149187500Y-100625000D01*
G75*
G02*
X149250000Y-100687500I0J-62500D01*
G01*
G37*
%TD.AperFunction*%
%TO.P,U2,21*%
%TO.N,+3V3*%
%TA.AperFunction,SMDPad,CuDef*%
G36*
G01*
X149250000Y-100187500D02*
X149250000Y-100312500D01*
G75*
G02*
X149187500Y-100375000I-62500J0D01*
G01*
X148437500Y-100375000D01*
G75*
G02*
X148375000Y-100312500I0J62500D01*
G01*
X148375000Y-100187500D01*
G75*
G02*
X148437500Y-100125000I62500J0D01*
G01*
X149187500Y-100125000D01*
G75*
G02*
X149250000Y-100187500I0J-62500D01*
G01*
G37*
%TD.AperFunction*%
%TO.P,U2,20*%
%TA.AperFunction,SMDPad,CuDef*%
G36*
G01*
X149250000Y-99687500D02*
X149250000Y-99812500D01*
G75*
G02*
X149187500Y-99875000I-62500J0D01*
G01*
X148437500Y-99875000D01*
G75*
G02*
X148375000Y-99812500I0J62500D01*
G01*
X148375000Y-99687500D01*
G75*
G02*
X148437500Y-99625000I62500J0D01*
G01*
X149187500Y-99625000D01*
G75*
G02*
X149250000Y-99687500I0J-62500D01*
G01*
G37*
%TD.AperFunction*%
%TO.P,U2,19*%
%TO.N,/D-*%
%TA.AperFunction,SMDPad,CuDef*%
G36*
G01*
X149250000Y-99187500D02*
X149250000Y-99312500D01*
G75*
G02*
X149187500Y-99375000I-62500J0D01*
G01*
X148437500Y-99375000D01*
G75*
G02*
X148375000Y-99312500I0J62500D01*
G01*
X148375000Y-99187500D01*
G75*
G02*
X148437500Y-99125000I62500J0D01*
G01*
X149187500Y-99125000D01*
G75*
G02*
X149250000Y-99187500I0J-62500D01*
G01*
G37*
%TD.AperFunction*%
%TO.P,U2,18*%
%TO.N,/D+*%
%TA.AperFunction,SMDPad,CuDef*%
G36*
G01*
X149250000Y-98687500D02*
X149250000Y-98812500D01*
G75*
G02*
X149187500Y-98875000I-62500J0D01*
G01*
X148437500Y-98875000D01*
G75*
G02*
X148375000Y-98812500I0J62500D01*
G01*
X148375000Y-98687500D01*
G75*
G02*
X148437500Y-98625000I62500J0D01*
G01*
X149187500Y-98625000D01*
G75*
G02*
X149250000Y-98687500I0J-62500D01*
G01*
G37*
%TD.AperFunction*%
%TO.P,U2,17*%
%TO.N,Net-(U2-Pad17)*%
%TA.AperFunction,SMDPad,CuDef*%
G36*
G01*
X149250000Y-98187500D02*
X149250000Y-98312500D01*
G75*
G02*
X149187500Y-98375000I-62500J0D01*
G01*
X148437500Y-98375000D01*
G75*
G02*
X148375000Y-98312500I0J62500D01*
G01*
X148375000Y-98187500D01*
G75*
G02*
X148437500Y-98125000I62500J0D01*
G01*
X149187500Y-98125000D01*
G75*
G02*
X149250000Y-98187500I0J-62500D01*
G01*
G37*
%TD.AperFunction*%
%TO.P,U2,16*%
%TO.N,Net-(U2-Pad16)*%
%TA.AperFunction,SMDPad,CuDef*%
G36*
G01*
X149625000Y-97187500D02*
X149625000Y-97937500D01*
G75*
G02*
X149562500Y-98000000I-62500J0D01*
G01*
X149437500Y-98000000D01*
G75*
G02*
X149375000Y-97937500I0J62500D01*
G01*
X149375000Y-97187500D01*
G75*
G02*
X149437500Y-97125000I62500J0D01*
G01*
X149562500Y-97125000D01*
G75*
G02*
X149625000Y-97187500I0J-62500D01*
G01*
G37*
%TD.AperFunction*%
%TO.P,U2,15*%
%TO.N,Net-(U2-Pad15)*%
%TA.AperFunction,SMDPad,CuDef*%
G36*
G01*
X150125000Y-97187500D02*
X150125000Y-97937500D01*
G75*
G02*
X150062500Y-98000000I-62500J0D01*
G01*
X149937500Y-98000000D01*
G75*
G02*
X149875000Y-97937500I0J62500D01*
G01*
X149875000Y-97187500D01*
G75*
G02*
X149937500Y-97125000I62500J0D01*
G01*
X150062500Y-97125000D01*
G75*
G02*
X150125000Y-97187500I0J-62500D01*
G01*
G37*
%TD.AperFunction*%
%TO.P,U2,14*%
%TO.N,+3V3*%
%TA.AperFunction,SMDPad,CuDef*%
G36*
G01*
X150625000Y-97187500D02*
X150625000Y-97937500D01*
G75*
G02*
X150562500Y-98000000I-62500J0D01*
G01*
X150437500Y-98000000D01*
G75*
G02*
X150375000Y-97937500I0J62500D01*
G01*
X150375000Y-97187500D01*
G75*
G02*
X150437500Y-97125000I62500J0D01*
G01*
X150562500Y-97125000D01*
G75*
G02*
X150625000Y-97187500I0J-62500D01*
G01*
G37*
%TD.AperFunction*%
%TO.P,U2,13*%
%TO.N,/DATA7*%
%TA.AperFunction,SMDPad,CuDef*%
G36*
G01*
X151125000Y-97187500D02*
X151125000Y-97937500D01*
G75*
G02*
X151062500Y-98000000I-62500J0D01*
G01*
X150937500Y-98000000D01*
G75*
G02*
X150875000Y-97937500I0J62500D01*
G01*
X150875000Y-97187500D01*
G75*
G02*
X150937500Y-97125000I62500J0D01*
G01*
X151062500Y-97125000D01*
G75*
G02*
X151125000Y-97187500I0J-62500D01*
G01*
G37*
%TD.AperFunction*%
%TO.P,U2,12*%
%TO.N,Net-(U2-Pad12)*%
%TA.AperFunction,SMDPad,CuDef*%
G36*
G01*
X151625000Y-97187500D02*
X151625000Y-97937500D01*
G75*
G02*
X151562500Y-98000000I-62500J0D01*
G01*
X151437500Y-98000000D01*
G75*
G02*
X151375000Y-97937500I0J62500D01*
G01*
X151375000Y-97187500D01*
G75*
G02*
X151437500Y-97125000I62500J0D01*
G01*
X151562500Y-97125000D01*
G75*
G02*
X151625000Y-97187500I0J-62500D01*
G01*
G37*
%TD.AperFunction*%
%TO.P,U2,11*%
%TO.N,+3V3*%
%TA.AperFunction,SMDPad,CuDef*%
G36*
G01*
X152125000Y-97187500D02*
X152125000Y-97937500D01*
G75*
G02*
X152062500Y-98000000I-62500J0D01*
G01*
X151937500Y-98000000D01*
G75*
G02*
X151875000Y-97937500I0J62500D01*
G01*
X151875000Y-97187500D01*
G75*
G02*
X151937500Y-97125000I62500J0D01*
G01*
X152062500Y-97125000D01*
G75*
G02*
X152125000Y-97187500I0J-62500D01*
G01*
G37*
%TD.AperFunction*%
%TO.P,U2,10*%
%TO.N,/DATA6*%
%TA.AperFunction,SMDPad,CuDef*%
G36*
G01*
X152625000Y-97187500D02*
X152625000Y-97937500D01*
G75*
G02*
X152562500Y-98000000I-62500J0D01*
G01*
X152437500Y-98000000D01*
G75*
G02*
X152375000Y-97937500I0J62500D01*
G01*
X152375000Y-97187500D01*
G75*
G02*
X152437500Y-97125000I62500J0D01*
G01*
X152562500Y-97125000D01*
G75*
G02*
X152625000Y-97187500I0J-62500D01*
G01*
G37*
%TD.AperFunction*%
%TO.P,U2,9*%
%TO.N,/DATA5*%
%TA.AperFunction,SMDPad,CuDef*%
G36*
G01*
X153125000Y-97187500D02*
X153125000Y-97937500D01*
G75*
G02*
X153062500Y-98000000I-62500J0D01*
G01*
X152937500Y-98000000D01*
G75*
G02*
X152875000Y-97937500I0J62500D01*
G01*
X152875000Y-97187500D01*
G75*
G02*
X152937500Y-97125000I62500J0D01*
G01*
X153062500Y-97125000D01*
G75*
G02*
X153125000Y-97187500I0J-62500D01*
G01*
G37*
%TD.AperFunction*%
%TO.P,U2,8*%
%TO.N,+3V3*%
%TA.AperFunction,SMDPad,CuDef*%
G36*
G01*
X154125000Y-98187500D02*
X154125000Y-98312500D01*
G75*
G02*
X154062500Y-98375000I-62500J0D01*
G01*
X153312500Y-98375000D01*
G75*
G02*
X153250000Y-98312500I0J62500D01*
G01*
X153250000Y-98187500D01*
G75*
G02*
X153312500Y-98125000I62500J0D01*
G01*
X154062500Y-98125000D01*
G75*
G02*
X154125000Y-98187500I0J-62500D01*
G01*
G37*
%TD.AperFunction*%
%TO.P,U2,7*%
%TO.N,/DATA4*%
%TA.AperFunction,SMDPad,CuDef*%
G36*
G01*
X154125000Y-98687500D02*
X154125000Y-98812500D01*
G75*
G02*
X154062500Y-98875000I-62500J0D01*
G01*
X153312500Y-98875000D01*
G75*
G02*
X153250000Y-98812500I0J62500D01*
G01*
X153250000Y-98687500D01*
G75*
G02*
X153312500Y-98625000I62500J0D01*
G01*
X154062500Y-98625000D01*
G75*
G02*
X154125000Y-98687500I0J-62500D01*
G01*
G37*
%TD.AperFunction*%
%TO.P,U2,6*%
%TO.N,/DATA3*%
%TA.AperFunction,SMDPad,CuDef*%
G36*
G01*
X154125000Y-99187500D02*
X154125000Y-99312500D01*
G75*
G02*
X154062500Y-99375000I-62500J0D01*
G01*
X153312500Y-99375000D01*
G75*
G02*
X153250000Y-99312500I0J62500D01*
G01*
X153250000Y-99187500D01*
G75*
G02*
X153312500Y-99125000I62500J0D01*
G01*
X154062500Y-99125000D01*
G75*
G02*
X154125000Y-99187500I0J-62500D01*
G01*
G37*
%TD.AperFunction*%
%TO.P,U2,5*%
%TO.N,/DATA2*%
%TA.AperFunction,SMDPad,CuDef*%
G36*
G01*
X154125000Y-99687500D02*
X154125000Y-99812500D01*
G75*
G02*
X154062500Y-99875000I-62500J0D01*
G01*
X153312500Y-99875000D01*
G75*
G02*
X153250000Y-99812500I0J62500D01*
G01*
X153250000Y-99687500D01*
G75*
G02*
X153312500Y-99625000I62500J0D01*
G01*
X154062500Y-99625000D01*
G75*
G02*
X154125000Y-99687500I0J-62500D01*
G01*
G37*
%TD.AperFunction*%
%TO.P,U2,4*%
%TO.N,/DATA1*%
%TA.AperFunction,SMDPad,CuDef*%
G36*
G01*
X154125000Y-100187500D02*
X154125000Y-100312500D01*
G75*
G02*
X154062500Y-100375000I-62500J0D01*
G01*
X153312500Y-100375000D01*
G75*
G02*
X153250000Y-100312500I0J62500D01*
G01*
X153250000Y-100187500D01*
G75*
G02*
X153312500Y-100125000I62500J0D01*
G01*
X154062500Y-100125000D01*
G75*
G02*
X154125000Y-100187500I0J-62500D01*
G01*
G37*
%TD.AperFunction*%
%TO.P,U2,3*%
%TO.N,/DATA0*%
%TA.AperFunction,SMDPad,CuDef*%
G36*
G01*
X154125000Y-100687500D02*
X154125000Y-100812500D01*
G75*
G02*
X154062500Y-100875000I-62500J0D01*
G01*
X153312500Y-100875000D01*
G75*
G02*
X153250000Y-100812500I0J62500D01*
G01*
X153250000Y-100687500D01*
G75*
G02*
X153312500Y-100625000I62500J0D01*
G01*
X154062500Y-100625000D01*
G75*
G02*
X154125000Y-100687500I0J-62500D01*
G01*
G37*
%TD.AperFunction*%
%TO.P,U2,2*%
%TO.N,/NXT*%
%TA.AperFunction,SMDPad,CuDef*%
G36*
G01*
X154125000Y-101187500D02*
X154125000Y-101312500D01*
G75*
G02*
X154062500Y-101375000I-62500J0D01*
G01*
X153312500Y-101375000D01*
G75*
G02*
X153250000Y-101312500I0J62500D01*
G01*
X153250000Y-101187500D01*
G75*
G02*
X153312500Y-101125000I62500J0D01*
G01*
X154062500Y-101125000D01*
G75*
G02*
X154125000Y-101187500I0J-62500D01*
G01*
G37*
%TD.AperFunction*%
%TO.P,U2,1*%
%TO.N,+3V3*%
%TA.AperFunction,SMDPad,CuDef*%
G36*
G01*
X154125000Y-101687500D02*
X154125000Y-101812500D01*
G75*
G02*
X154062500Y-101875000I-62500J0D01*
G01*
X153312500Y-101875000D01*
G75*
G02*
X153250000Y-101812500I0J62500D01*
G01*
X153250000Y-101687500D01*
G75*
G02*
X153312500Y-101625000I62500J0D01*
G01*
X154062500Y-101625000D01*
G75*
G02*
X154125000Y-101687500I0J-62500D01*
G01*
G37*
%TD.AperFunction*%
%TD*%
%TO.P,U1,5*%
%TO.N,+1V8*%
%TA.AperFunction,SMDPad,CuDef*%
G36*
G01*
X149725000Y-108200000D02*
X149725000Y-107900000D01*
G75*
G02*
X149875000Y-107750000I150000J0D01*
G01*
X150900000Y-107750000D01*
G75*
G02*
X151050000Y-107900000I0J-150000D01*
G01*
X151050000Y-108200000D01*
G75*
G02*
X150900000Y-108350000I-150000J0D01*
G01*
X149875000Y-108350000D01*
G75*
G02*
X149725000Y-108200000I0J150000D01*
G01*
G37*
%TD.AperFunction*%
%TO.P,U1,4*%
%TO.N,Net-(U1-Pad4)*%
%TA.AperFunction,SMDPad,CuDef*%
G36*
G01*
X149725000Y-110100000D02*
X149725000Y-109800000D01*
G75*
G02*
X149875000Y-109650000I150000J0D01*
G01*
X150900000Y-109650000D01*
G75*
G02*
X151050000Y-109800000I0J-150000D01*
G01*
X151050000Y-110100000D01*
G75*
G02*
X150900000Y-110250000I-150000J0D01*
G01*
X149875000Y-110250000D01*
G75*
G02*
X149725000Y-110100000I0J150000D01*
G01*
G37*
%TD.AperFunction*%
%TO.P,U1,3*%
%TO.N,+3V3*%
%TA.AperFunction,SMDPad,CuDef*%
G36*
G01*
X147450000Y-110100000D02*
X147450000Y-109800000D01*
G75*
G02*
X147600000Y-109650000I150000J0D01*
G01*
X148625000Y-109650000D01*
G75*
G02*
X148775000Y-109800000I0J-150000D01*
G01*
X148775000Y-110100000D01*
G75*
G02*
X148625000Y-110250000I-150000J0D01*
G01*
X147600000Y-110250000D01*
G75*
G02*
X147450000Y-110100000I0J150000D01*
G01*
G37*
%TD.AperFunction*%
%TO.P,U1,2*%
%TO.N,GND*%
%TA.AperFunction,SMDPad,CuDef*%
G36*
G01*
X147450000Y-109150000D02*
X147450000Y-108850000D01*
G75*
G02*
X147600000Y-108700000I150000J0D01*
G01*
X148625000Y-108700000D01*
G75*
G02*
X148775000Y-108850000I0J-150000D01*
G01*
X148775000Y-109150000D01*
G75*
G02*
X148625000Y-109300000I-150000J0D01*
G01*
X147600000Y-109300000D01*
G75*
G02*
X147450000Y-109150000I0J150000D01*
G01*
G37*
%TD.AperFunction*%
%TO.P,U1,1*%
%TO.N,+3V3*%
%TA.AperFunction,SMDPad,CuDef*%
G36*
G01*
X147450000Y-108200000D02*
X147450000Y-107900000D01*
G75*
G02*
X147600000Y-107750000I150000J0D01*
G01*
X148625000Y-107750000D01*
G75*
G02*
X148775000Y-107900000I0J-150000D01*
G01*
X148775000Y-108200000D01*
G75*
G02*
X148625000Y-108350000I-150000J0D01*
G01*
X147600000Y-108350000D01*
G75*
G02*
X147450000Y-108200000I0J150000D01*
G01*
G37*
%TD.AperFunction*%
%TD*%
%TO.P,R5,2*%
%TO.N,GND*%
%TA.AperFunction,SMDPad,CuDef*%
G36*
G01*
X149475000Y-105675000D02*
X150025000Y-105675000D01*
G75*
G02*
X150225000Y-105875000I0J-200000D01*
G01*
X150225000Y-106275000D01*
G75*
G02*
X150025000Y-106475000I-200000J0D01*
G01*
X149475000Y-106475000D01*
G75*
G02*
X149275000Y-106275000I0J200000D01*
G01*
X149275000Y-105875000D01*
G75*
G02*
X149475000Y-105675000I200000J0D01*
G01*
G37*
%TD.AperFunction*%
%TO.P,R5,1*%
%TO.N,Net-(R5-Pad1)*%
%TA.AperFunction,SMDPad,CuDef*%
G36*
G01*
X149475000Y-104025000D02*
X150025000Y-104025000D01*
G75*
G02*
X150225000Y-104225000I0J-200000D01*
G01*
X150225000Y-104625000D01*
G75*
G02*
X150025000Y-104825000I-200000J0D01*
G01*
X149475000Y-104825000D01*
G75*
G02*
X149275000Y-104625000I0J200000D01*
G01*
X149275000Y-104225000D01*
G75*
G02*
X149475000Y-104025000I200000J0D01*
G01*
G37*
%TD.AperFunction*%
%TD*%
%TO.P,C5,2*%
%TO.N,GND*%
%TA.AperFunction,SMDPad,CuDef*%
G36*
G01*
X152750000Y-105575000D02*
X153250000Y-105575000D01*
G75*
G02*
X153475000Y-105800000I0J-225000D01*
G01*
X153475000Y-106250000D01*
G75*
G02*
X153250000Y-106475000I-225000J0D01*
G01*
X152750000Y-106475000D01*
G75*
G02*
X152525000Y-106250000I0J225000D01*
G01*
X152525000Y-105800000D01*
G75*
G02*
X152750000Y-105575000I225000J0D01*
G01*
G37*
%TD.AperFunction*%
%TO.P,C5,1*%
%TO.N,+1V8*%
%TA.AperFunction,SMDPad,CuDef*%
G36*
G01*
X152750000Y-104025000D02*
X153250000Y-104025000D01*
G75*
G02*
X153475000Y-104250000I0J-225000D01*
G01*
X153475000Y-104700000D01*
G75*
G02*
X153250000Y-104925000I-225000J0D01*
G01*
X152750000Y-104925000D01*
G75*
G02*
X152525000Y-104700000I0J225000D01*
G01*
X152525000Y-104250000D01*
G75*
G02*
X152750000Y-104025000I225000J0D01*
G01*
G37*
%TD.AperFunction*%
%TD*%
%TO.P,C4,2*%
%TO.N,GND*%
%TA.AperFunction,SMDPad,CuDef*%
G36*
G01*
X146250000Y-102325000D02*
X146750000Y-102325000D01*
G75*
G02*
X146975000Y-102550000I0J-225000D01*
G01*
X146975000Y-103000000D01*
G75*
G02*
X146750000Y-103225000I-225000J0D01*
G01*
X146250000Y-103225000D01*
G75*
G02*
X146025000Y-103000000I0J225000D01*
G01*
X146025000Y-102550000D01*
G75*
G02*
X146250000Y-102325000I225000J0D01*
G01*
G37*
%TD.AperFunction*%
%TO.P,C4,1*%
%TO.N,+3V3*%
%TA.AperFunction,SMDPad,CuDef*%
G36*
G01*
X146250000Y-100775000D02*
X146750000Y-100775000D01*
G75*
G02*
X146975000Y-101000000I0J-225000D01*
G01*
X146975000Y-101450000D01*
G75*
G02*
X146750000Y-101675000I-225000J0D01*
G01*
X146250000Y-101675000D01*
G75*
G02*
X146025000Y-101450000I0J225000D01*
G01*
X146025000Y-101000000D01*
G75*
G02*
X146250000Y-100775000I225000J0D01*
G01*
G37*
%TD.AperFunction*%
%TD*%
%TO.P,C3,2*%
%TO.N,GND*%
%TA.AperFunction,SMDPad,CuDef*%
G36*
G01*
X156325000Y-102500000D02*
X156325000Y-102000000D01*
G75*
G02*
X156550000Y-101775000I225000J0D01*
G01*
X157000000Y-101775000D01*
G75*
G02*
X157225000Y-102000000I0J-225000D01*
G01*
X157225000Y-102500000D01*
G75*
G02*
X157000000Y-102725000I-225000J0D01*
G01*
X156550000Y-102725000D01*
G75*
G02*
X156325000Y-102500000I0J225000D01*
G01*
G37*
%TD.AperFunction*%
%TO.P,C3,1*%
%TO.N,+3V3*%
%TA.AperFunction,SMDPad,CuDef*%
G36*
G01*
X154775000Y-102500000D02*
X154775000Y-102000000D01*
G75*
G02*
X155000000Y-101775000I225000J0D01*
G01*
X155450000Y-101775000D01*
G75*
G02*
X155675000Y-102000000I0J-225000D01*
G01*
X155675000Y-102500000D01*
G75*
G02*
X155450000Y-102725000I-225000J0D01*
G01*
X155000000Y-102725000D01*
G75*
G02*
X154775000Y-102500000I0J225000D01*
G01*
G37*
%TD.AperFunction*%
%TD*%
%TO.P,C2,2*%
%TO.N,GND*%
%TA.AperFunction,SMDPad,CuDef*%
G36*
G01*
X152000000Y-109325000D02*
X152500000Y-109325000D01*
G75*
G02*
X152725000Y-109550000I0J-225000D01*
G01*
X152725000Y-110000000D01*
G75*
G02*
X152500000Y-110225000I-225000J0D01*
G01*
X152000000Y-110225000D01*
G75*
G02*
X151775000Y-110000000I0J225000D01*
G01*
X151775000Y-109550000D01*
G75*
G02*
X152000000Y-109325000I225000J0D01*
G01*
G37*
%TD.AperFunction*%
%TO.P,C2,1*%
%TO.N,+1V8*%
%TA.AperFunction,SMDPad,CuDef*%
G36*
G01*
X152000000Y-107775000D02*
X152500000Y-107775000D01*
G75*
G02*
X152725000Y-108000000I0J-225000D01*
G01*
X152725000Y-108450000D01*
G75*
G02*
X152500000Y-108675000I-225000J0D01*
G01*
X152000000Y-108675000D01*
G75*
G02*
X151775000Y-108450000I0J225000D01*
G01*
X151775000Y-108000000D01*
G75*
G02*
X152000000Y-107775000I225000J0D01*
G01*
G37*
%TD.AperFunction*%
%TD*%
%TO.P,C1,2*%
%TO.N,GND*%
%TA.AperFunction,SMDPad,CuDef*%
G36*
G01*
X146000000Y-109325000D02*
X146500000Y-109325000D01*
G75*
G02*
X146725000Y-109550000I0J-225000D01*
G01*
X146725000Y-110000000D01*
G75*
G02*
X146500000Y-110225000I-225000J0D01*
G01*
X146000000Y-110225000D01*
G75*
G02*
X145775000Y-110000000I0J225000D01*
G01*
X145775000Y-109550000D01*
G75*
G02*
X146000000Y-109325000I225000J0D01*
G01*
G37*
%TD.AperFunction*%
%TO.P,C1,1*%
%TO.N,+3V3*%
%TA.AperFunction,SMDPad,CuDef*%
G36*
G01*
X146000000Y-107775000D02*
X146500000Y-107775000D01*
G75*
G02*
X146725000Y-108000000I0J-225000D01*
G01*
X146725000Y-108450000D01*
G75*
G02*
X146500000Y-108675000I-225000J0D01*
G01*
X146000000Y-108675000D01*
G75*
G02*
X145775000Y-108450000I0J225000D01*
G01*
X145775000Y-108000000D01*
G75*
G02*
X146000000Y-107775000I225000J0D01*
G01*
G37*
%TD.AperFunction*%
%TD*%
%TO.P,D1,2*%
%TO.N,Net-(D1-Pad2)*%
%TA.AperFunction,SMDPad,CuDef*%
G36*
G01*
X143150000Y-93243750D02*
X143150000Y-93756250D01*
G75*
G02*
X142931250Y-93975000I-218750J0D01*
G01*
X142493750Y-93975000D01*
G75*
G02*
X142275000Y-93756250I0J218750D01*
G01*
X142275000Y-93243750D01*
G75*
G02*
X142493750Y-93025000I218750J0D01*
G01*
X142931250Y-93025000D01*
G75*
G02*
X143150000Y-93243750I0J-218750D01*
G01*
G37*
%TD.AperFunction*%
%TO.P,D1,1*%
%TO.N,GND*%
%TA.AperFunction,SMDPad,CuDef*%
G36*
G01*
X144725000Y-93243750D02*
X144725000Y-93756250D01*
G75*
G02*
X144506250Y-93975000I-218750J0D01*
G01*
X144068750Y-93975000D01*
G75*
G02*
X143850000Y-93756250I0J218750D01*
G01*
X143850000Y-93243750D01*
G75*
G02*
X144068750Y-93025000I218750J0D01*
G01*
X144506250Y-93025000D01*
G75*
G02*
X144725000Y-93243750I0J-218750D01*
G01*
G37*
%TD.AperFunction*%
%TD*%
D11*
%TO.P,J3,12*%
%TO.N,/DATA4*%
X158690000Y-94920000D03*
%TO.P,J3,11*%
%TO.N,/DATA0*%
X156150000Y-94920000D03*
%TO.P,J3,10*%
%TO.N,/DATA5*%
X158690000Y-92380000D03*
%TO.P,J3,9*%
%TO.N,/DATA1*%
X156150000Y-92380000D03*
%TO.P,J3,8*%
%TO.N,/DATA6*%
X158690000Y-89840000D03*
%TO.P,J3,7*%
%TO.N,/DATA2*%
X156150000Y-89840000D03*
%TO.P,J3,6*%
%TO.N,/DATA7*%
X158690000Y-87300000D03*
%TO.P,J3,5*%
%TO.N,/DATA3*%
X156150000Y-87300000D03*
%TO.P,J3,4*%
%TO.N,GND*%
X158690000Y-84760000D03*
%TO.P,J3,3*%
X156150000Y-84760000D03*
%TO.P,J3,2*%
%TO.N,+3V3*%
X158690000Y-82220000D03*
D12*
%TO.P,J3,1*%
X156150000Y-82220000D03*
%TD*%
D11*
%TO.P,J2,12*%
%TO.N,/RESET*%
X158690000Y-117780000D03*
%TO.P,J2,11*%
%TO.N,/CLK*%
X156150000Y-117780000D03*
%TO.P,J2,10*%
%TO.N,Net-(J2-Pad10)*%
X158690000Y-115240000D03*
%TO.P,J2,9*%
%TO.N,/STP*%
X156150000Y-115240000D03*
%TO.P,J2,8*%
%TO.N,Net-(J2-Pad8)*%
X158690000Y-112700000D03*
%TO.P,J2,7*%
%TO.N,/DIR*%
X156150000Y-112700000D03*
%TO.P,J2,6*%
%TO.N,Net-(J2-Pad6)*%
X158690000Y-110160000D03*
%TO.P,J2,5*%
%TO.N,/NXT*%
X156150000Y-110160000D03*
%TO.P,J2,4*%
%TO.N,GND*%
X158690000Y-107620000D03*
%TO.P,J2,3*%
X156150000Y-107620000D03*
%TO.P,J2,2*%
%TO.N,+3V3*%
X158690000Y-105080000D03*
D12*
%TO.P,J2,1*%
X156150000Y-105080000D03*
%TD*%
%TO.P,C8,2*%
%TO.N,GND*%
%TA.AperFunction,SMDPad,CuDef*%
G36*
G01*
X146500000Y-104925000D02*
X146000000Y-104925000D01*
G75*
G02*
X145775000Y-104700000I0J225000D01*
G01*
X145775000Y-104250000D01*
G75*
G02*
X146000000Y-104025000I225000J0D01*
G01*
X146500000Y-104025000D01*
G75*
G02*
X146725000Y-104250000I0J-225000D01*
G01*
X146725000Y-104700000D01*
G75*
G02*
X146500000Y-104925000I-225000J0D01*
G01*
G37*
%TD.AperFunction*%
%TO.P,C8,1*%
%TO.N,VBUS*%
%TA.AperFunction,SMDPad,CuDef*%
G36*
G01*
X146500000Y-106475000D02*
X146000000Y-106475000D01*
G75*
G02*
X145775000Y-106250000I0J225000D01*
G01*
X145775000Y-105800000D01*
G75*
G02*
X146000000Y-105575000I225000J0D01*
G01*
X146500000Y-105575000D01*
G75*
G02*
X146725000Y-105800000I0J-225000D01*
G01*
X146725000Y-106250000D01*
G75*
G02*
X146500000Y-106475000I-225000J0D01*
G01*
G37*
%TD.AperFunction*%
%TD*%
%TO.P,R7,2*%
%TO.N,Net-(D1-Pad2)*%
%TA.AperFunction,SMDPad,CuDef*%
G36*
G01*
X143075000Y-91475000D02*
X143075000Y-92025000D01*
G75*
G02*
X142875000Y-92225000I-200000J0D01*
G01*
X142475000Y-92225000D01*
G75*
G02*
X142275000Y-92025000I0J200000D01*
G01*
X142275000Y-91475000D01*
G75*
G02*
X142475000Y-91275000I200000J0D01*
G01*
X142875000Y-91275000D01*
G75*
G02*
X143075000Y-91475000I0J-200000D01*
G01*
G37*
%TD.AperFunction*%
%TO.P,R7,1*%
%TO.N,VBUS*%
%TA.AperFunction,SMDPad,CuDef*%
G36*
G01*
X144725000Y-91475000D02*
X144725000Y-92025000D01*
G75*
G02*
X144525000Y-92225000I-200000J0D01*
G01*
X144125000Y-92225000D01*
G75*
G02*
X143925000Y-92025000I0J200000D01*
G01*
X143925000Y-91475000D01*
G75*
G02*
X144125000Y-91275000I200000J0D01*
G01*
X144525000Y-91275000D01*
G75*
G02*
X144725000Y-91475000I0J-200000D01*
G01*
G37*
%TD.AperFunction*%
%TD*%
%TO.P,R2,2*%
%TO.N,GND*%
%TA.AperFunction,SMDPad,CuDef*%
G36*
G01*
X148275000Y-94575000D02*
X147725000Y-94575000D01*
G75*
G02*
X147525000Y-94375000I0J200000D01*
G01*
X147525000Y-93975000D01*
G75*
G02*
X147725000Y-93775000I200000J0D01*
G01*
X148275000Y-93775000D01*
G75*
G02*
X148475000Y-93975000I0J-200000D01*
G01*
X148475000Y-94375000D01*
G75*
G02*
X148275000Y-94575000I-200000J0D01*
G01*
G37*
%TD.AperFunction*%
%TO.P,R2,1*%
%TO.N,/CC1*%
%TA.AperFunction,SMDPad,CuDef*%
G36*
G01*
X148275000Y-96225000D02*
X147725000Y-96225000D01*
G75*
G02*
X147525000Y-96025000I0J200000D01*
G01*
X147525000Y-95625000D01*
G75*
G02*
X147725000Y-95425000I200000J0D01*
G01*
X148275000Y-95425000D01*
G75*
G02*
X148475000Y-95625000I0J-200000D01*
G01*
X148475000Y-96025000D01*
G75*
G02*
X148275000Y-96225000I-200000J0D01*
G01*
G37*
%TD.AperFunction*%
%TD*%
%TO.P,R1,2*%
%TO.N,Net-(J1-PadS1)*%
%TA.AperFunction,SMDPad,CuDef*%
G36*
G01*
X142225000Y-106075000D02*
X142225000Y-106625000D01*
G75*
G02*
X142025000Y-106825000I-200000J0D01*
G01*
X141625000Y-106825000D01*
G75*
G02*
X141425000Y-106625000I0J200000D01*
G01*
X141425000Y-106075000D01*
G75*
G02*
X141625000Y-105875000I200000J0D01*
G01*
X142025000Y-105875000D01*
G75*
G02*
X142225000Y-106075000I0J-200000D01*
G01*
G37*
%TD.AperFunction*%
%TO.P,R1,1*%
%TO.N,GND*%
%TA.AperFunction,SMDPad,CuDef*%
G36*
G01*
X143875000Y-106075000D02*
X143875000Y-106625000D01*
G75*
G02*
X143675000Y-106825000I-200000J0D01*
G01*
X143275000Y-106825000D01*
G75*
G02*
X143075000Y-106625000I0J200000D01*
G01*
X143075000Y-106075000D01*
G75*
G02*
X143275000Y-105875000I200000J0D01*
G01*
X143675000Y-105875000D01*
G75*
G02*
X143875000Y-106075000I0J-200000D01*
G01*
G37*
%TD.AperFunction*%
%TD*%
D13*
%TO.P,J1,A12*%
%TO.N,GND*%
X144170000Y-103350000D03*
%TO.P,J1,A9*%
%TO.N,VBUS*%
X144170000Y-102550000D03*
%TO.P,J1,B9*%
X144170000Y-97750000D03*
%TO.P,J1,B12*%
%TO.N,GND*%
X144170000Y-96950000D03*
%TO.P,J1,A1*%
X144170000Y-96650000D03*
%TO.P,J1,A4*%
%TO.N,VBUS*%
X144170000Y-97450000D03*
%TO.P,J1,B8*%
%TO.N,/SBU2*%
X144170000Y-98250000D03*
%TO.P,J1,A5*%
%TO.N,/CC1*%
X144170000Y-98750000D03*
%TO.P,J1,B7*%
%TO.N,/D-*%
X144170000Y-99250000D03*
%TO.P,J1,A6*%
%TO.N,/D+*%
X144170000Y-99750000D03*
%TO.P,J1,A7*%
%TO.N,/D-*%
X144170000Y-100250000D03*
%TO.P,J1,B6*%
%TO.N,/D+*%
X144170000Y-100750000D03*
%TO.P,J1,A8*%
%TO.N,/SBU1*%
X144170000Y-101250000D03*
%TO.P,J1,B5*%
%TO.N,/CC2*%
X144170000Y-101750000D03*
%TO.P,J1,B4*%
%TO.N,VBUS*%
X144170000Y-102250000D03*
%TO.P,J1,B1*%
%TO.N,GND*%
X144170000Y-103050000D03*
D14*
%TO.P,J1,S1*%
%TO.N,Net-(J1-PadS1)*%
X139425000Y-104320000D03*
X139425000Y-95680000D03*
D15*
X143605000Y-104320000D03*
X143605000Y-95680000D03*
%TD*%
D16*
%TO.N,GND*%
X150250000Y-101000000D03*
X151250000Y-101000000D03*
X152250000Y-101000000D03*
X152250000Y-100000000D03*
X151250000Y-100000000D03*
X150250000Y-100000000D03*
X152250000Y-99000000D03*
X151250000Y-99000000D03*
X150250000Y-99000000D03*
X142777000Y-106350000D03*
X144174000Y-106350000D03*
X145087000Y-103175000D03*
X145000000Y-96250000D03*
X144287500Y-94462500D03*
X146250000Y-93250000D03*
X148000000Y-93250000D03*
X149750000Y-107000000D03*
X157750000Y-102250000D03*
X153000000Y-107000000D03*
X152250000Y-110750000D03*
X146250000Y-110750000D03*
X149250000Y-109000000D03*
X146375000Y-103625000D03*
%TO.N,/CC2*%
X143000000Y-101500000D03*
X145500000Y-98000000D03*
%TO.N,/D+*%
X145250000Y-99500000D03*
X145250000Y-100777000D03*
%TO.N,+3V3*%
X148027000Y-101277000D03*
X147500000Y-100250000D03*
X151750000Y-96500000D03*
X150250000Y-96500000D03*
X153687500Y-97562500D03*
X147500000Y-98000000D03*
X154500000Y-102250000D03*
X157000000Y-97562500D03*
%TO.N,/CLK*%
X149973000Y-103250000D03*
X155277000Y-106500000D03*
%TO.N,/DATA6*%
X153473000Y-91250000D03*
%TO.N,/DATA5*%
X153250000Y-93750000D03*
%TO.N,/DATA4*%
X154000000Y-96500000D03*
%TO.N,+1V8*%
X151500000Y-105000000D03*
X152262500Y-103737500D03*
X151250000Y-107250000D03*
%TD*%
D17*
%TO.N,Net-(D1-Pad2)*%
X142712500Y-91787500D02*
X142675000Y-91750000D01*
X142712500Y-93500000D02*
X142712500Y-91787500D01*
%TO.N,GND*%
X144170000Y-96950000D02*
X144170000Y-96650000D01*
X144170000Y-103350000D02*
X144170000Y-103050000D01*
D18*
X142777000Y-106350000D02*
X143475000Y-106350000D01*
X143475000Y-106350000D02*
X144174000Y-106350000D01*
D17*
X144170000Y-103050000D02*
X144962000Y-103050000D01*
X144962000Y-103050000D02*
X145087000Y-103175000D01*
X144912000Y-103350000D02*
X145087000Y-103175000D01*
X144170000Y-103350000D02*
X144912000Y-103350000D01*
X144287500Y-93500000D02*
X144287500Y-94462500D01*
X144600000Y-96650000D02*
X145000000Y-96250000D01*
X144170000Y-96650000D02*
X144600000Y-96650000D01*
X144170000Y-96950000D02*
X144800000Y-96950000D01*
X145000000Y-96750000D02*
X145000000Y-96250000D01*
X144800000Y-96950000D02*
X145000000Y-96750000D01*
X146250000Y-94175000D02*
X146250000Y-93250000D01*
X148000000Y-94175000D02*
X148000000Y-93250000D01*
X149750000Y-106075000D02*
X149750000Y-107000000D01*
X156775000Y-102250000D02*
X157750000Y-102250000D01*
X153000000Y-106025000D02*
X153000000Y-107000000D01*
X152250000Y-109775000D02*
X152250000Y-110750000D01*
X146250000Y-109775000D02*
X146250000Y-110750000D01*
X148112500Y-109000000D02*
X149250000Y-109000000D01*
D19*
X146250000Y-103750000D02*
X146375000Y-103625000D01*
X146250000Y-104475000D02*
X146250000Y-103750000D01*
X146500000Y-102775000D02*
X146500000Y-103500000D01*
X146375000Y-103625000D02*
X146500000Y-103500000D01*
D17*
%TO.N,VBUS*%
X144170000Y-97750000D02*
X144170000Y-97450000D01*
X144170000Y-102550000D02*
X144170000Y-102250000D01*
X142500000Y-102250000D02*
X143000000Y-102250000D01*
X144170000Y-97750000D02*
X142500000Y-97750000D01*
X142250000Y-102000000D02*
X142500000Y-102250000D01*
X142250000Y-98000000D02*
X142250000Y-102000000D01*
X143000000Y-102250000D02*
X144170000Y-102250000D01*
X142500000Y-97750000D02*
X142250000Y-98000000D01*
X146300000Y-106075000D02*
X146250000Y-106025000D01*
X148000000Y-106075000D02*
X146300000Y-106075000D01*
X146250000Y-106025000D02*
X145547990Y-105322990D01*
X145614001Y-103427961D02*
X145614001Y-102614001D01*
X145547990Y-103493972D02*
X145614001Y-103427961D01*
X145547990Y-105322990D02*
X145547990Y-103493972D01*
X145250000Y-102250000D02*
X144170000Y-102250000D01*
X145614001Y-102614001D02*
X145250000Y-102250000D01*
X145527001Y-97167999D02*
X145527001Y-92027001D01*
X144945000Y-97750000D02*
X145527001Y-97167999D01*
X144170000Y-97750000D02*
X144945000Y-97750000D01*
X145250000Y-91750000D02*
X144325000Y-91750000D01*
X145527001Y-92027001D02*
X145250000Y-91750000D01*
%TO.N,/CC1*%
X144170000Y-98750000D02*
X146000000Y-98750000D01*
X148000000Y-96750000D02*
X148000000Y-95825000D01*
X146000000Y-98750000D02*
X148000000Y-96750000D01*
%TO.N,/CC2*%
X144170000Y-101750000D02*
X143250000Y-101750000D01*
X143250000Y-101750000D02*
X143000000Y-101500000D01*
X146250000Y-97250000D02*
X145500000Y-98000000D01*
X146250000Y-95825000D02*
X146250000Y-97250000D01*
D18*
%TO.N,Net-(J1-PadS1)*%
X143605000Y-95680000D02*
X139425000Y-95680000D01*
X141825000Y-106350000D02*
X141825000Y-104382000D01*
X143605000Y-104320000D02*
X140263000Y-104320000D01*
X140263000Y-104320000D02*
X139425000Y-104320000D01*
D17*
%TO.N,/D-*%
X147750000Y-99250000D02*
X148812500Y-99250000D01*
X146750000Y-100250000D02*
X147750000Y-99250000D01*
X144170000Y-100250000D02*
X146750000Y-100250000D01*
X144170000Y-100250000D02*
X143500000Y-100250000D01*
X143500000Y-100250000D02*
X143250000Y-100000000D01*
X144170000Y-99250000D02*
X143500000Y-99250000D01*
X143500000Y-99250000D02*
X143250000Y-99500000D01*
X143250000Y-100000000D02*
X143250000Y-99500000D01*
%TO.N,/D+*%
X147500000Y-98750000D02*
X148812500Y-98750000D01*
X146500000Y-99750000D02*
X147500000Y-98750000D01*
X145250000Y-99750000D02*
X145250000Y-99500000D01*
X144170000Y-99750000D02*
X145250000Y-99750000D01*
X145250000Y-99750000D02*
X146500000Y-99750000D01*
X144170000Y-100750000D02*
X145250000Y-100750000D01*
X145250000Y-100750000D02*
X145250000Y-100777000D01*
%TO.N,+3V3*%
X148812500Y-99750000D02*
X147975000Y-99750000D01*
X148812500Y-100250000D02*
X147500000Y-100250000D01*
X147500000Y-100250000D02*
X147487500Y-100237500D01*
X147487500Y-100237500D02*
X146500000Y-101225000D01*
X147975000Y-99750000D02*
X147487500Y-100237500D01*
X148000000Y-101250000D02*
X148027000Y-101277000D01*
X148812500Y-101250000D02*
X148000000Y-101250000D01*
X153750000Y-101812500D02*
X153687500Y-101750000D01*
X153750000Y-102250000D02*
X153750000Y-101812500D01*
X153562500Y-102437500D02*
X153750000Y-102250000D01*
X153000000Y-102437500D02*
X153562500Y-102437500D01*
X146425000Y-108050000D02*
X146250000Y-108225000D01*
X148112500Y-108050000D02*
X146425000Y-108050000D01*
X152000000Y-96750000D02*
X151750000Y-96500000D01*
X152000000Y-97562500D02*
X152000000Y-96750000D01*
X150500000Y-96750000D02*
X150250000Y-96500000D01*
X150500000Y-97562500D02*
X150500000Y-96750000D01*
X153687500Y-98250000D02*
X153687500Y-97562500D01*
X150250000Y-96500000D02*
X149000000Y-96500000D01*
X149000000Y-96500000D02*
X147500000Y-98000000D01*
X155225000Y-102250000D02*
X154500000Y-102250000D01*
X154500000Y-102250000D02*
X153750000Y-102250000D01*
%TO.N,/STP*%
X153750000Y-112840000D02*
X153750000Y-105500000D01*
X153750000Y-105500000D02*
X153500000Y-105250000D01*
X156150000Y-115240000D02*
X153750000Y-112840000D01*
X151500000Y-104250000D02*
X152500000Y-105250000D01*
X151500000Y-102437500D02*
X151500000Y-104250000D01*
X153500000Y-105250000D02*
X152500000Y-105250000D01*
%TO.N,/DIR*%
X154250000Y-110800000D02*
X156150000Y-112700000D01*
X154250000Y-103500000D02*
X154250000Y-110800000D01*
X154000000Y-103250000D02*
X154250000Y-103500000D01*
X152750000Y-103250000D02*
X154000000Y-103250000D01*
X152500000Y-103000000D02*
X152750000Y-103250000D01*
X152500000Y-102437500D02*
X152500000Y-103000000D01*
%TO.N,/NXT*%
X155160000Y-110160000D02*
X156150000Y-110160000D01*
X154750000Y-109750000D02*
X155160000Y-110160000D01*
X155750000Y-101250000D02*
X156044620Y-101544620D01*
X156044620Y-103044620D02*
X154750000Y-104339240D01*
X154750000Y-104339240D02*
X154750000Y-109750000D01*
X156044620Y-101544620D02*
X156044620Y-103044620D01*
X153687500Y-101250000D02*
X155750000Y-101250000D01*
%TO.N,/CLK*%
X150000000Y-102437500D02*
X150000000Y-103250000D01*
X150000000Y-103250000D02*
X149973000Y-103250000D01*
X157500000Y-116430000D02*
X156150000Y-117780000D01*
X157250000Y-106500000D02*
X157500000Y-106750000D01*
X155277000Y-106500000D02*
X157250000Y-106500000D01*
X157500000Y-106750000D02*
X157500000Y-116430000D01*
%TO.N,/RESET*%
X150500000Y-105279962D02*
X150500000Y-102437500D01*
X153250000Y-108029962D02*
X150500000Y-105279962D01*
X153250000Y-116750000D02*
X153250000Y-108029962D01*
X155500000Y-119000000D02*
X153250000Y-116750000D01*
X157470000Y-119000000D02*
X155500000Y-119000000D01*
X158690000Y-117780000D02*
X157470000Y-119000000D01*
%TO.N,/DATA3*%
X154672990Y-99250000D02*
X153687500Y-99250000D01*
X154750000Y-99172990D02*
X154672990Y-99250000D01*
X154750000Y-96250000D02*
X154750000Y-99172990D01*
X154000000Y-95500000D02*
X154750000Y-96250000D01*
X154000000Y-87500000D02*
X154000000Y-95500000D01*
X154250000Y-87250000D02*
X154000000Y-87500000D01*
X156100000Y-87250000D02*
X154250000Y-87250000D01*
X156150000Y-87300000D02*
X156100000Y-87250000D01*
%TO.N,/DATA7*%
X157390000Y-86000000D02*
X158690000Y-87300000D01*
X154537539Y-86000000D02*
X157390000Y-86000000D01*
X151000000Y-89537539D02*
X154537539Y-86000000D01*
X151000000Y-97562500D02*
X151000000Y-89537539D01*
%TO.N,/DATA2*%
X155250000Y-99500000D02*
X155250000Y-96212460D01*
X155000000Y-99750000D02*
X155250000Y-99500000D01*
X153687500Y-99750000D02*
X155000000Y-99750000D01*
X155250000Y-96212460D02*
X154518770Y-95481230D01*
X154518770Y-95481230D02*
X154518770Y-89981230D01*
X154660000Y-89840000D02*
X156150000Y-89840000D01*
X154518770Y-89981230D02*
X154660000Y-89840000D01*
%TO.N,/DATA6*%
X152500000Y-92223000D02*
X153473000Y-91250000D01*
X152500000Y-97562500D02*
X152500000Y-92223000D01*
%TO.N,/DATA1*%
X155000000Y-92500000D02*
X155120000Y-92380000D01*
X155750000Y-100000000D02*
X155750000Y-96250000D01*
X155000000Y-95500000D02*
X155000000Y-92500000D01*
X155750000Y-96250000D02*
X155000000Y-95500000D01*
X155120000Y-92380000D02*
X156150000Y-92380000D01*
X155500000Y-100250000D02*
X155750000Y-100000000D01*
X153687500Y-100250000D02*
X155500000Y-100250000D01*
%TO.N,/DATA5*%
X153000000Y-94000000D02*
X153250000Y-93750000D01*
X153000000Y-97562500D02*
X153000000Y-94000000D01*
%TO.N,/DATA0*%
X153687500Y-100750000D02*
X155750000Y-100750000D01*
X155750000Y-100750000D02*
X156150000Y-100350000D01*
X156150000Y-100350000D02*
X156150000Y-98400000D01*
X156150000Y-98400000D02*
X156150000Y-94920000D01*
%TO.N,/DATA4*%
X153687500Y-98750000D02*
X154422990Y-98750000D01*
X154422990Y-98750000D02*
X154422990Y-96922990D01*
X154422990Y-96922990D02*
X154000000Y-96500000D01*
%TO.N,Net-(R5-Pad1)*%
X148750000Y-101812500D02*
X148812500Y-101750000D01*
X149750000Y-104000000D02*
X148750000Y-103000000D01*
X149750000Y-104425000D02*
X149750000Y-104000000D01*
X148750000Y-103000000D02*
X148750000Y-101812500D01*
%TO.N,+1V8*%
X151000000Y-102437500D02*
X151000000Y-104500000D01*
X151000000Y-104500000D02*
X151500000Y-105000000D01*
X152000000Y-102437500D02*
X152000000Y-103475000D01*
X152000000Y-103475000D02*
X152262500Y-103737500D01*
X152262500Y-103737500D02*
X153000000Y-104475000D01*
X152075000Y-108050000D02*
X152250000Y-108225000D01*
X151300000Y-108050000D02*
X151300000Y-107300000D01*
X150387500Y-108050000D02*
X151300000Y-108050000D01*
X151300000Y-108050000D02*
X152075000Y-108050000D01*
X151300000Y-107300000D02*
X151250000Y-107250000D01*
%TO.N,Net-(R3-Pad2)*%
X147750000Y-100750000D02*
X148812500Y-100750000D01*
X147500000Y-101000000D02*
X147750000Y-100750000D01*
X148000000Y-103750000D02*
X147500000Y-103250000D01*
X148000000Y-104425000D02*
X148000000Y-103750000D01*
X147500000Y-103250000D02*
X147500000Y-101000000D01*
%TD*%
D20*
%TO.N,+3V3*%
X160639948Y-80506649D02*
X160506649Y-80639948D01*
X160401917Y-80796690D01*
X160329777Y-80970853D01*
X160293000Y-81155744D01*
X160293000Y-81344256D01*
X160329777Y-81529147D01*
X160401917Y-81703310D01*
X160506649Y-81860052D01*
X160639948Y-81993351D01*
X160796690Y-82098083D01*
X160970853Y-82170223D01*
X161155744Y-82207000D01*
X161344256Y-82207000D01*
X161529147Y-82170223D01*
X161703310Y-82098083D01*
X161860052Y-81993351D01*
X161993351Y-81860052D01*
X162094001Y-81709419D01*
X162094000Y-118290579D01*
X161993351Y-118139948D01*
X161860052Y-118006649D01*
X161703310Y-117901917D01*
X161529147Y-117829777D01*
X161344256Y-117793000D01*
X161155744Y-117793000D01*
X160970853Y-117829777D01*
X160796690Y-117901917D01*
X160639948Y-118006649D01*
X160506649Y-118139948D01*
X160401917Y-118296690D01*
X160329777Y-118470853D01*
X160293000Y-118655744D01*
X160293000Y-118844256D01*
X160329777Y-119029147D01*
X160401917Y-119203310D01*
X160506649Y-119360052D01*
X160639948Y-119493351D01*
X160790579Y-119594000D01*
X156512224Y-119594000D01*
X155227363Y-119516540D01*
X153973151Y-119287480D01*
X152755548Y-118909404D01*
X151592179Y-118387785D01*
X150499914Y-117730188D01*
X149488670Y-116941540D01*
X149127652Y-116607817D01*
X140440065Y-107775000D01*
X145136928Y-107775000D01*
X145140000Y-107939250D01*
X145298750Y-108098000D01*
X146123000Y-108098000D01*
X146123000Y-107298750D01*
X145964250Y-107140000D01*
X145775000Y-107136928D01*
X145650518Y-107149188D01*
X145530820Y-107185498D01*
X145420506Y-107244463D01*
X145323815Y-107323815D01*
X145244463Y-107420506D01*
X145185498Y-107530820D01*
X145149188Y-107650518D01*
X145136928Y-107775000D01*
X140440065Y-107775000D01*
X139875484Y-107200981D01*
X139905744Y-107207000D01*
X140094256Y-107207000D01*
X140279147Y-107170223D01*
X140453310Y-107098083D01*
X140610052Y-106993351D01*
X140743351Y-106860052D01*
X140848083Y-106703310D01*
X140920223Y-106529147D01*
X140957000Y-106344256D01*
X140957000Y-106155744D01*
X140920223Y-105970853D01*
X140848083Y-105796690D01*
X140743351Y-105639948D01*
X140610052Y-105506649D01*
X140453310Y-105401917D01*
X140279147Y-105329777D01*
X140094256Y-105293000D01*
X139905744Y-105293000D01*
X139720853Y-105329777D01*
X139546690Y-105401917D01*
X139389948Y-105506649D01*
X139256649Y-105639948D01*
X139151917Y-105796690D01*
X139079777Y-105970853D01*
X139043000Y-106155744D01*
X139043000Y-106344256D01*
X139045574Y-106357197D01*
X138731823Y-106038201D01*
X138394767Y-105679449D01*
X138152451Y-105291874D01*
X137990032Y-104864618D01*
X137911552Y-104401308D01*
X137906000Y-104242886D01*
X137906000Y-95769853D01*
X137914810Y-95680000D01*
X138239738Y-95680000D01*
X138256748Y-95852706D01*
X138307125Y-96018775D01*
X138388932Y-96171825D01*
X138499025Y-96305975D01*
X138633175Y-96416068D01*
X138786225Y-96497875D01*
X138952294Y-96548252D01*
X139081727Y-96561000D01*
X139768273Y-96561000D01*
X139897706Y-96548252D01*
X140063775Y-96497875D01*
X140216825Y-96416068D01*
X140283926Y-96361000D01*
X142496074Y-96361000D01*
X142563175Y-96416068D01*
X142716225Y-96497875D01*
X142739690Y-96504993D01*
X142654951Y-96561614D01*
X142556614Y-96659951D01*
X142479351Y-96775584D01*
X142426131Y-96904067D01*
X142399000Y-97040465D01*
X142399000Y-97179535D01*
X142417940Y-97274755D01*
X142405708Y-97275960D01*
X142315039Y-97303464D01*
X142231478Y-97348128D01*
X142158236Y-97408236D01*
X142143170Y-97426594D01*
X141926594Y-97643170D01*
X141908236Y-97658236D01*
X141848128Y-97731478D01*
X141803464Y-97815040D01*
X141786005Y-97872595D01*
X141775960Y-97905708D01*
X141766673Y-98000000D01*
X141769000Y-98023626D01*
X141769001Y-101976364D01*
X141766673Y-102000000D01*
X141775960Y-102094292D01*
X141799142Y-102170711D01*
X141803465Y-102184961D01*
X141848129Y-102268522D01*
X141908237Y-102341764D01*
X141926589Y-102356825D01*
X142143170Y-102573406D01*
X142158236Y-102591764D01*
X142231478Y-102651872D01*
X142315039Y-102696536D01*
X142405708Y-102724040D01*
X142417940Y-102725245D01*
X142399000Y-102820465D01*
X142399000Y-102959535D01*
X142426131Y-103095933D01*
X142479351Y-103224416D01*
X142556614Y-103340049D01*
X142654951Y-103438386D01*
X142739690Y-103495007D01*
X142716225Y-103502125D01*
X142563175Y-103583932D01*
X142496074Y-103639000D01*
X140283926Y-103639000D01*
X140216825Y-103583932D01*
X140063775Y-103502125D01*
X139897706Y-103451748D01*
X139768273Y-103439000D01*
X139081727Y-103439000D01*
X138952294Y-103451748D01*
X138786225Y-103502125D01*
X138633175Y-103583932D01*
X138499025Y-103694025D01*
X138388932Y-103828175D01*
X138307125Y-103981225D01*
X138256748Y-104147294D01*
X138239738Y-104320000D01*
X138256748Y-104492706D01*
X138307125Y-104658775D01*
X138388932Y-104811825D01*
X138499025Y-104945975D01*
X138633175Y-105056068D01*
X138786225Y-105137875D01*
X138952294Y-105188252D01*
X139081727Y-105201000D01*
X139768273Y-105201000D01*
X139897706Y-105188252D01*
X140063775Y-105137875D01*
X140216825Y-105056068D01*
X140283926Y-105001000D01*
X141144001Y-105001000D01*
X141144000Y-105746784D01*
X141140384Y-105751190D01*
X141086523Y-105851956D01*
X141053356Y-105961293D01*
X141042157Y-106075000D01*
X141042157Y-106625000D01*
X141053356Y-106738707D01*
X141086523Y-106848044D01*
X141140384Y-106948810D01*
X141212868Y-107037132D01*
X141301190Y-107109616D01*
X141401956Y-107163477D01*
X141511293Y-107196644D01*
X141625000Y-107207843D01*
X142025000Y-107207843D01*
X142138707Y-107196644D01*
X142248044Y-107163477D01*
X142348810Y-107109616D01*
X142437132Y-107037132D01*
X142492247Y-106969974D01*
X142515132Y-106982206D01*
X142547304Y-106991965D01*
X142578360Y-107004829D01*
X142611332Y-107011388D01*
X142643501Y-107021146D01*
X142676953Y-107024441D01*
X142709927Y-107031000D01*
X142857836Y-107031000D01*
X142862868Y-107037132D01*
X142951190Y-107109616D01*
X143051956Y-107163477D01*
X143161293Y-107196644D01*
X143275000Y-107207843D01*
X143675000Y-107207843D01*
X143788707Y-107196644D01*
X143898044Y-107163477D01*
X143998810Y-107109616D01*
X144087132Y-107037132D01*
X144092164Y-107031000D01*
X144241073Y-107031000D01*
X144274047Y-107024441D01*
X144307499Y-107021146D01*
X144339668Y-107011388D01*
X144372640Y-107004829D01*
X144403696Y-106991965D01*
X144435868Y-106982206D01*
X144465517Y-106966358D01*
X144496574Y-106953494D01*
X144524525Y-106934817D01*
X144554174Y-106918970D01*
X144580162Y-106897643D01*
X144608112Y-106878967D01*
X144631879Y-106855200D01*
X144657870Y-106833870D01*
X144679200Y-106807879D01*
X144702967Y-106784112D01*
X144721643Y-106756162D01*
X144742970Y-106730174D01*
X144758817Y-106700525D01*
X144777494Y-106672574D01*
X144790358Y-106641517D01*
X144806206Y-106611868D01*
X144815965Y-106579696D01*
X144828829Y-106548640D01*
X144835388Y-106515668D01*
X144845146Y-106483499D01*
X144848441Y-106450047D01*
X144855000Y-106417073D01*
X144855000Y-106383452D01*
X144858295Y-106350000D01*
X144855000Y-106316547D01*
X144855000Y-106282927D01*
X144848441Y-106249953D01*
X144845146Y-106216501D01*
X144835388Y-106184332D01*
X144828829Y-106151360D01*
X144815965Y-106120304D01*
X144806206Y-106088132D01*
X144790358Y-106058483D01*
X144777494Y-106027426D01*
X144758817Y-105999475D01*
X144742970Y-105969826D01*
X144721643Y-105943838D01*
X144702967Y-105915888D01*
X144679200Y-105892121D01*
X144657870Y-105866130D01*
X144631879Y-105844800D01*
X144608112Y-105821033D01*
X144580162Y-105802357D01*
X144554174Y-105781030D01*
X144524525Y-105765183D01*
X144496574Y-105746506D01*
X144465517Y-105733642D01*
X144435868Y-105717794D01*
X144403696Y-105708035D01*
X144372640Y-105695171D01*
X144339668Y-105688612D01*
X144307499Y-105678854D01*
X144274047Y-105675559D01*
X144241073Y-105669000D01*
X144092164Y-105669000D01*
X144087132Y-105662868D01*
X143998810Y-105590384D01*
X143898044Y-105536523D01*
X143788707Y-105503356D01*
X143675000Y-105492157D01*
X143275000Y-105492157D01*
X143161293Y-105503356D01*
X143051956Y-105536523D01*
X142951190Y-105590384D01*
X142862868Y-105662868D01*
X142857836Y-105669000D01*
X142709927Y-105669000D01*
X142676953Y-105675559D01*
X142643501Y-105678854D01*
X142611332Y-105688612D01*
X142578360Y-105695171D01*
X142547304Y-105708035D01*
X142515132Y-105717794D01*
X142506000Y-105722675D01*
X142506000Y-105009146D01*
X142563175Y-105056068D01*
X142716225Y-105137875D01*
X142882294Y-105188252D01*
X143011727Y-105201000D01*
X144198273Y-105201000D01*
X144327706Y-105188252D01*
X144493775Y-105137875D01*
X144646825Y-105056068D01*
X144780975Y-104945975D01*
X144891068Y-104811825D01*
X144972875Y-104658775D01*
X145023252Y-104492706D01*
X145040262Y-104320000D01*
X145023252Y-104147294D01*
X144972875Y-103981225D01*
X144901778Y-103848212D01*
X144923202Y-103836760D01*
X145019927Y-103856000D01*
X145066991Y-103856000D01*
X145066990Y-105299363D01*
X145064663Y-105322990D01*
X145073950Y-105417282D01*
X145079313Y-105434961D01*
X145101454Y-105507950D01*
X145146118Y-105591512D01*
X145206226Y-105664754D01*
X145224584Y-105679820D01*
X145392157Y-105847393D01*
X145392157Y-106250000D01*
X145403837Y-106368584D01*
X145438426Y-106482611D01*
X145494597Y-106587699D01*
X145570190Y-106679810D01*
X145662301Y-106755403D01*
X145767389Y-106811574D01*
X145881416Y-106846163D01*
X146000000Y-106857843D01*
X146500000Y-106857843D01*
X146618584Y-106846163D01*
X146732611Y-106811574D01*
X146837699Y-106755403D01*
X146929810Y-106679810D01*
X147005403Y-106587699D01*
X147022347Y-106556000D01*
X147217501Y-106556000D01*
X147240384Y-106598810D01*
X147312868Y-106687132D01*
X147401190Y-106759616D01*
X147501956Y-106813477D01*
X147611293Y-106846644D01*
X147725000Y-106857843D01*
X148275000Y-106857843D01*
X148388707Y-106846644D01*
X148498044Y-106813477D01*
X148598810Y-106759616D01*
X148687132Y-106687132D01*
X148759616Y-106598810D01*
X148813477Y-106498044D01*
X148846644Y-106388707D01*
X148857843Y-106275000D01*
X148857843Y-105875000D01*
X148846644Y-105761293D01*
X148813477Y-105651956D01*
X148759616Y-105551190D01*
X148687132Y-105462868D01*
X148598810Y-105390384D01*
X148498044Y-105336523D01*
X148388707Y-105303356D01*
X148275000Y-105292157D01*
X147725000Y-105292157D01*
X147611293Y-105303356D01*
X147501956Y-105336523D01*
X147401190Y-105390384D01*
X147312868Y-105462868D01*
X147240384Y-105551190D01*
X147217501Y-105594000D01*
X147069646Y-105594000D01*
X147061574Y-105567389D01*
X147005403Y-105462301D01*
X146929810Y-105370190D01*
X146837699Y-105294597D01*
X146754264Y-105250000D01*
X146837699Y-105205403D01*
X146929810Y-105129810D01*
X147005403Y-105037699D01*
X147061574Y-104932611D01*
X147096163Y-104818584D01*
X147107843Y-104700000D01*
X147107843Y-104250000D01*
X147096163Y-104131416D01*
X147061574Y-104017389D01*
X147005403Y-103912301D01*
X146997230Y-103902342D01*
X147029829Y-103823640D01*
X147056000Y-103692073D01*
X147056000Y-103668596D01*
X147072593Y-103613896D01*
X147081000Y-103528540D01*
X147083033Y-103507897D01*
X147087699Y-103505403D01*
X147090074Y-103503454D01*
X147098128Y-103518522D01*
X147158236Y-103591764D01*
X147176594Y-103606830D01*
X147351185Y-103781422D01*
X147312868Y-103812868D01*
X147240384Y-103901190D01*
X147186523Y-104001956D01*
X147153356Y-104111293D01*
X147142157Y-104225000D01*
X147142157Y-104625000D01*
X147153356Y-104738707D01*
X147186523Y-104848044D01*
X147240384Y-104948810D01*
X147312868Y-105037132D01*
X147401190Y-105109616D01*
X147501956Y-105163477D01*
X147611293Y-105196644D01*
X147725000Y-105207843D01*
X148275000Y-105207843D01*
X148388707Y-105196644D01*
X148498044Y-105163477D01*
X148598810Y-105109616D01*
X148687132Y-105037132D01*
X148759616Y-104948810D01*
X148813477Y-104848044D01*
X148846644Y-104738707D01*
X148857843Y-104625000D01*
X148857843Y-104225000D01*
X148846644Y-104111293D01*
X148813477Y-104001956D01*
X148759616Y-103901190D01*
X148687132Y-103812868D01*
X148598810Y-103740384D01*
X148498044Y-103686523D01*
X148476429Y-103679966D01*
X148474040Y-103655707D01*
X148462760Y-103618522D01*
X148446536Y-103565039D01*
X148401872Y-103481478D01*
X148341764Y-103408236D01*
X148323411Y-103393174D01*
X147981000Y-103050764D01*
X147981000Y-101872992D01*
X147999547Y-101887532D01*
X148000714Y-101899382D01*
X148026057Y-101982925D01*
X148067211Y-102059919D01*
X148122595Y-102127405D01*
X148190081Y-102182789D01*
X148267075Y-102223943D01*
X148269001Y-102224527D01*
X148269000Y-102976373D01*
X148266673Y-103000000D01*
X148274832Y-103082843D01*
X148275960Y-103094291D01*
X148303464Y-103184960D01*
X148348128Y-103268522D01*
X148408236Y-103341764D01*
X148426594Y-103356830D01*
X148983616Y-103913852D01*
X148936523Y-104001956D01*
X148903356Y-104111293D01*
X148892157Y-104225000D01*
X148892157Y-104625000D01*
X148903356Y-104738707D01*
X148936523Y-104848044D01*
X148990384Y-104948810D01*
X149062868Y-105037132D01*
X149151190Y-105109616D01*
X149251956Y-105163477D01*
X149361293Y-105196644D01*
X149475000Y-105207843D01*
X150019000Y-105207843D01*
X150019000Y-105256336D01*
X150016673Y-105279962D01*
X150017874Y-105292157D01*
X149475000Y-105292157D01*
X149361293Y-105303356D01*
X149251956Y-105336523D01*
X149151190Y-105390384D01*
X149062868Y-105462868D01*
X148990384Y-105551190D01*
X148936523Y-105651956D01*
X148903356Y-105761293D01*
X148892157Y-105875000D01*
X148892157Y-106275000D01*
X148903356Y-106388707D01*
X148936523Y-106498044D01*
X148990384Y-106598810D01*
X149062868Y-106687132D01*
X149122287Y-106735896D01*
X149095171Y-106801360D01*
X149069000Y-106932927D01*
X149069000Y-107067073D01*
X149095171Y-107198640D01*
X149096489Y-107201821D01*
X149019180Y-107160498D01*
X148899482Y-107124188D01*
X148775000Y-107111928D01*
X148398250Y-107115000D01*
X148239500Y-107273750D01*
X148239500Y-107923000D01*
X148259500Y-107923000D01*
X148259500Y-108177000D01*
X148239500Y-108177000D01*
X148239500Y-108197000D01*
X147985500Y-108197000D01*
X147985500Y-108177000D01*
X147965500Y-108177000D01*
X147965500Y-107923000D01*
X147985500Y-107923000D01*
X147985500Y-107273750D01*
X147826750Y-107115000D01*
X147450000Y-107111928D01*
X147325518Y-107124188D01*
X147205820Y-107160498D01*
X147095506Y-107219463D01*
X147070743Y-107239785D01*
X146969180Y-107185498D01*
X146849482Y-107149188D01*
X146725000Y-107136928D01*
X146535750Y-107140000D01*
X146377000Y-107298750D01*
X146377000Y-108098000D01*
X146397000Y-108098000D01*
X146397000Y-108352000D01*
X146377000Y-108352000D01*
X146377000Y-108372000D01*
X146123000Y-108372000D01*
X146123000Y-108352000D01*
X145298750Y-108352000D01*
X145140000Y-108510750D01*
X145136928Y-108675000D01*
X145149188Y-108799482D01*
X145185498Y-108919180D01*
X145244463Y-109029494D01*
X145323815Y-109126185D01*
X145420506Y-109205537D01*
X145480945Y-109237843D01*
X145438426Y-109317389D01*
X145403837Y-109431416D01*
X145392157Y-109550000D01*
X145392157Y-110000000D01*
X145403837Y-110118584D01*
X145438426Y-110232611D01*
X145494597Y-110337699D01*
X145570190Y-110429810D01*
X145626408Y-110475947D01*
X145595171Y-110551360D01*
X145569000Y-110682927D01*
X145569000Y-110817073D01*
X145595171Y-110948640D01*
X145646506Y-111072574D01*
X145721033Y-111184112D01*
X145815888Y-111278967D01*
X145927426Y-111353494D01*
X146051360Y-111404829D01*
X146182927Y-111431000D01*
X146317073Y-111431000D01*
X146448640Y-111404829D01*
X146572574Y-111353494D01*
X146684112Y-111278967D01*
X146778967Y-111184112D01*
X146853494Y-111072574D01*
X146904829Y-110948640D01*
X146931000Y-110817073D01*
X146931000Y-110682927D01*
X146912989Y-110592382D01*
X146919463Y-110604494D01*
X146998815Y-110701185D01*
X147095506Y-110780537D01*
X147205820Y-110839502D01*
X147325518Y-110875812D01*
X147450000Y-110888072D01*
X147826750Y-110885000D01*
X147985500Y-110726250D01*
X147985500Y-110077000D01*
X147965500Y-110077000D01*
X147965500Y-109823000D01*
X147985500Y-109823000D01*
X147985500Y-109803000D01*
X148239500Y-109803000D01*
X148239500Y-109823000D01*
X148259500Y-109823000D01*
X148259500Y-110077000D01*
X148239500Y-110077000D01*
X148239500Y-110726250D01*
X148398250Y-110885000D01*
X148775000Y-110888072D01*
X148899482Y-110875812D01*
X149019180Y-110839502D01*
X149129494Y-110780537D01*
X149226185Y-110701185D01*
X149305537Y-110604494D01*
X149364502Y-110494180D01*
X149400812Y-110374482D01*
X149403866Y-110343477D01*
X149431957Y-110396032D01*
X149498223Y-110476777D01*
X149578968Y-110543043D01*
X149671090Y-110592283D01*
X149771047Y-110622605D01*
X149875000Y-110632843D01*
X150900000Y-110632843D01*
X151003953Y-110622605D01*
X151103910Y-110592283D01*
X151196032Y-110543043D01*
X151276777Y-110476777D01*
X151343043Y-110396032D01*
X151392283Y-110303910D01*
X151422605Y-110203953D01*
X151424352Y-110186214D01*
X151438426Y-110232611D01*
X151494597Y-110337699D01*
X151570190Y-110429810D01*
X151626408Y-110475947D01*
X151595171Y-110551360D01*
X151569000Y-110682927D01*
X151569000Y-110817073D01*
X151595171Y-110948640D01*
X151646506Y-111072574D01*
X151721033Y-111184112D01*
X151815888Y-111278967D01*
X151927426Y-111353494D01*
X152051360Y-111404829D01*
X152182927Y-111431000D01*
X152317073Y-111431000D01*
X152448640Y-111404829D01*
X152572574Y-111353494D01*
X152684112Y-111278967D01*
X152769001Y-111194078D01*
X152769000Y-116726374D01*
X152766673Y-116750000D01*
X152775960Y-116844292D01*
X152778246Y-116851828D01*
X152803464Y-116934960D01*
X152848128Y-117018522D01*
X152908236Y-117091764D01*
X152926594Y-117106830D01*
X155143170Y-119323406D01*
X155158236Y-119341764D01*
X155231478Y-119401872D01*
X155266682Y-119420689D01*
X155315038Y-119446536D01*
X155405707Y-119474040D01*
X155500000Y-119483327D01*
X155523627Y-119481000D01*
X157446374Y-119481000D01*
X157470000Y-119483327D01*
X157493626Y-119481000D01*
X157564292Y-119474040D01*
X157654961Y-119446536D01*
X157738522Y-119401872D01*
X157811764Y-119341764D01*
X157826830Y-119323406D01*
X158228833Y-118921403D01*
X158330931Y-118963693D01*
X158568757Y-119011000D01*
X158811243Y-119011000D01*
X159049069Y-118963693D01*
X159273097Y-118870898D01*
X159474717Y-118736180D01*
X159646180Y-118564717D01*
X159780898Y-118363097D01*
X159873693Y-118139069D01*
X159921000Y-117901243D01*
X159921000Y-117658757D01*
X159873693Y-117420931D01*
X159780898Y-117196903D01*
X159646180Y-116995283D01*
X159474717Y-116823820D01*
X159273097Y-116689102D01*
X159049069Y-116596307D01*
X158811243Y-116549000D01*
X158568757Y-116549000D01*
X158330931Y-116596307D01*
X158106903Y-116689102D01*
X157905283Y-116823820D01*
X157733820Y-116995283D01*
X157599102Y-117196903D01*
X157506307Y-117420931D01*
X157459000Y-117658757D01*
X157459000Y-117901243D01*
X157506307Y-118139069D01*
X157548597Y-118241167D01*
X157270764Y-118519000D01*
X157136727Y-118519000D01*
X157240898Y-118363097D01*
X157333693Y-118139069D01*
X157381000Y-117901243D01*
X157381000Y-117658757D01*
X157333693Y-117420931D01*
X157291403Y-117318834D01*
X157823412Y-116786825D01*
X157841764Y-116771764D01*
X157901872Y-116698522D01*
X157946536Y-116614961D01*
X157974040Y-116524292D01*
X157981000Y-116453626D01*
X157981000Y-116453625D01*
X157983327Y-116430001D01*
X157981000Y-116406377D01*
X157981000Y-116246772D01*
X158106903Y-116330898D01*
X158330931Y-116423693D01*
X158568757Y-116471000D01*
X158811243Y-116471000D01*
X159049069Y-116423693D01*
X159273097Y-116330898D01*
X159474717Y-116196180D01*
X159646180Y-116024717D01*
X159780898Y-115823097D01*
X159873693Y-115599069D01*
X159921000Y-115361243D01*
X159921000Y-115118757D01*
X159873693Y-114880931D01*
X159780898Y-114656903D01*
X159646180Y-114455283D01*
X159474717Y-114283820D01*
X159273097Y-114149102D01*
X159049069Y-114056307D01*
X158811243Y-114009000D01*
X158568757Y-114009000D01*
X158330931Y-114056307D01*
X158106903Y-114149102D01*
X157981000Y-114233228D01*
X157981000Y-113706772D01*
X158106903Y-113790898D01*
X158330931Y-113883693D01*
X158568757Y-113931000D01*
X158811243Y-113931000D01*
X159049069Y-113883693D01*
X159273097Y-113790898D01*
X159474717Y-113656180D01*
X159646180Y-113484717D01*
X159780898Y-113283097D01*
X159873693Y-113059069D01*
X159921000Y-112821243D01*
X159921000Y-112578757D01*
X159873693Y-112340931D01*
X159780898Y-112116903D01*
X159646180Y-111915283D01*
X159474717Y-111743820D01*
X159273097Y-111609102D01*
X159049069Y-111516307D01*
X158811243Y-111469000D01*
X158568757Y-111469000D01*
X158330931Y-111516307D01*
X158106903Y-111609102D01*
X157981000Y-111693228D01*
X157981000Y-111166772D01*
X158106903Y-111250898D01*
X158330931Y-111343693D01*
X158568757Y-111391000D01*
X158811243Y-111391000D01*
X159049069Y-111343693D01*
X159273097Y-111250898D01*
X159474717Y-111116180D01*
X159646180Y-110944717D01*
X159780898Y-110743097D01*
X159873693Y-110519069D01*
X159921000Y-110281243D01*
X159921000Y-110038757D01*
X159873693Y-109800931D01*
X159780898Y-109576903D01*
X159646180Y-109375283D01*
X159474717Y-109203820D01*
X159273097Y-109069102D01*
X159049069Y-108976307D01*
X158811243Y-108929000D01*
X158568757Y-108929000D01*
X158330931Y-108976307D01*
X158106903Y-109069102D01*
X157981000Y-109153228D01*
X157981000Y-108626772D01*
X158106903Y-108710898D01*
X158330931Y-108803693D01*
X158568757Y-108851000D01*
X158811243Y-108851000D01*
X159049069Y-108803693D01*
X159273097Y-108710898D01*
X159474717Y-108576180D01*
X159646180Y-108404717D01*
X159780898Y-108203097D01*
X159873693Y-107979069D01*
X159921000Y-107741243D01*
X159921000Y-107498757D01*
X159873693Y-107260931D01*
X159780898Y-107036903D01*
X159646180Y-106835283D01*
X159474717Y-106663820D01*
X159273097Y-106529102D01*
X159158832Y-106481772D01*
X159321252Y-106424157D01*
X159571355Y-106275178D01*
X159787588Y-106080269D01*
X159961641Y-105846920D01*
X160086825Y-105584099D01*
X160131476Y-105436890D01*
X160010155Y-105207000D01*
X158817000Y-105207000D01*
X158817000Y-105227000D01*
X158563000Y-105227000D01*
X158563000Y-105207000D01*
X156277000Y-105207000D01*
X156277000Y-105227000D01*
X156023000Y-105227000D01*
X156023000Y-105207000D01*
X156003000Y-105207000D01*
X156003000Y-104953000D01*
X156023000Y-104953000D01*
X156023000Y-104933000D01*
X156277000Y-104933000D01*
X156277000Y-104953000D01*
X158563000Y-104953000D01*
X158563000Y-103759186D01*
X158817000Y-103759186D01*
X158817000Y-104953000D01*
X160010155Y-104953000D01*
X160131476Y-104723110D01*
X160086825Y-104575901D01*
X159961641Y-104313080D01*
X159787588Y-104079731D01*
X159571355Y-103884822D01*
X159321252Y-103735843D01*
X159046891Y-103638519D01*
X158817000Y-103759186D01*
X158563000Y-103759186D01*
X158333109Y-103638519D01*
X158058748Y-103735843D01*
X157808645Y-103884822D01*
X157612498Y-104061626D01*
X157589502Y-103985820D01*
X157530537Y-103875506D01*
X157451185Y-103778815D01*
X157354494Y-103699463D01*
X157244180Y-103640498D01*
X157124482Y-103604188D01*
X157000000Y-103591928D01*
X156435750Y-103595000D01*
X156277002Y-103753748D01*
X156277002Y-103595000D01*
X156174476Y-103595000D01*
X156368032Y-103401445D01*
X156386384Y-103386384D01*
X156446492Y-103313142D01*
X156491156Y-103229581D01*
X156518660Y-103138912D01*
X156521992Y-103105084D01*
X156550000Y-103107843D01*
X157000000Y-103107843D01*
X157118584Y-103096163D01*
X157232611Y-103061574D01*
X157337699Y-103005403D01*
X157429810Y-102929810D01*
X157475947Y-102873592D01*
X157551360Y-102904829D01*
X157682927Y-102931000D01*
X157817073Y-102931000D01*
X157948640Y-102904829D01*
X158072574Y-102853494D01*
X158184112Y-102778967D01*
X158278967Y-102684112D01*
X158353494Y-102572574D01*
X158404829Y-102448640D01*
X158431000Y-102317073D01*
X158431000Y-102182927D01*
X158404829Y-102051360D01*
X158353494Y-101927426D01*
X158278967Y-101815888D01*
X158184112Y-101721033D01*
X158072574Y-101646506D01*
X157948640Y-101595171D01*
X157817073Y-101569000D01*
X157682927Y-101569000D01*
X157551360Y-101595171D01*
X157475947Y-101626408D01*
X157429810Y-101570190D01*
X157337699Y-101494597D01*
X157232611Y-101438426D01*
X157118584Y-101403837D01*
X157000000Y-101392157D01*
X156550000Y-101392157D01*
X156502436Y-101396842D01*
X156491156Y-101359658D01*
X156459995Y-101301360D01*
X156446492Y-101276098D01*
X156386384Y-101202856D01*
X156368021Y-101187786D01*
X156180236Y-101000000D01*
X156473411Y-100706826D01*
X156491764Y-100691764D01*
X156551872Y-100618522D01*
X156596536Y-100534961D01*
X156624040Y-100444292D01*
X156631000Y-100373626D01*
X156631000Y-100373617D01*
X156633326Y-100350001D01*
X156631000Y-100326385D01*
X156631000Y-96053188D01*
X156733097Y-96010898D01*
X156934717Y-95876180D01*
X157106180Y-95704717D01*
X157240898Y-95503097D01*
X157333693Y-95279069D01*
X157381000Y-95041243D01*
X157381000Y-94798757D01*
X157459000Y-94798757D01*
X157459000Y-95041243D01*
X157506307Y-95279069D01*
X157599102Y-95503097D01*
X157733820Y-95704717D01*
X157905283Y-95876180D01*
X158106903Y-96010898D01*
X158330931Y-96103693D01*
X158568757Y-96151000D01*
X158811243Y-96151000D01*
X159049069Y-96103693D01*
X159273097Y-96010898D01*
X159474717Y-95876180D01*
X159646180Y-95704717D01*
X159780898Y-95503097D01*
X159873693Y-95279069D01*
X159921000Y-95041243D01*
X159921000Y-94798757D01*
X159873693Y-94560931D01*
X159780898Y-94336903D01*
X159646180Y-94135283D01*
X159474717Y-93963820D01*
X159273097Y-93829102D01*
X159049069Y-93736307D01*
X158811243Y-93689000D01*
X158568757Y-93689000D01*
X158330931Y-93736307D01*
X158106903Y-93829102D01*
X157905283Y-93963820D01*
X157733820Y-94135283D01*
X157599102Y-94336903D01*
X157506307Y-94560931D01*
X157459000Y-94798757D01*
X157381000Y-94798757D01*
X157333693Y-94560931D01*
X157240898Y-94336903D01*
X157106180Y-94135283D01*
X156934717Y-93963820D01*
X156733097Y-93829102D01*
X156509069Y-93736307D01*
X156271243Y-93689000D01*
X156028757Y-93689000D01*
X155790931Y-93736307D01*
X155566903Y-93829102D01*
X155481000Y-93886500D01*
X155481000Y-93413500D01*
X155566903Y-93470898D01*
X155790931Y-93563693D01*
X156028757Y-93611000D01*
X156271243Y-93611000D01*
X156509069Y-93563693D01*
X156733097Y-93470898D01*
X156934717Y-93336180D01*
X157106180Y-93164717D01*
X157240898Y-92963097D01*
X157333693Y-92739069D01*
X157381000Y-92501243D01*
X157381000Y-92258757D01*
X157459000Y-92258757D01*
X157459000Y-92501243D01*
X157506307Y-92739069D01*
X157599102Y-92963097D01*
X157733820Y-93164717D01*
X157905283Y-93336180D01*
X158106903Y-93470898D01*
X158330931Y-93563693D01*
X158568757Y-93611000D01*
X158811243Y-93611000D01*
X159049069Y-93563693D01*
X159273097Y-93470898D01*
X159474717Y-93336180D01*
X159646180Y-93164717D01*
X159780898Y-92963097D01*
X159873693Y-92739069D01*
X159921000Y-92501243D01*
X159921000Y-92258757D01*
X159873693Y-92020931D01*
X159780898Y-91796903D01*
X159646180Y-91595283D01*
X159474717Y-91423820D01*
X159273097Y-91289102D01*
X159049069Y-91196307D01*
X158811243Y-91149000D01*
X158568757Y-91149000D01*
X158330931Y-91196307D01*
X158106903Y-91289102D01*
X157905283Y-91423820D01*
X157733820Y-91595283D01*
X157599102Y-91796903D01*
X157506307Y-92020931D01*
X157459000Y-92258757D01*
X157381000Y-92258757D01*
X157333693Y-92020931D01*
X157240898Y-91796903D01*
X157106180Y-91595283D01*
X156934717Y-91423820D01*
X156733097Y-91289102D01*
X156509069Y-91196307D01*
X156271243Y-91149000D01*
X156028757Y-91149000D01*
X155790931Y-91196307D01*
X155566903Y-91289102D01*
X155365283Y-91423820D01*
X155193820Y-91595283D01*
X155059102Y-91796903D01*
X155012237Y-91910046D01*
X154999770Y-91913828D01*
X154999770Y-90321000D01*
X155016812Y-90321000D01*
X155059102Y-90423097D01*
X155193820Y-90624717D01*
X155365283Y-90796180D01*
X155566903Y-90930898D01*
X155790931Y-91023693D01*
X156028757Y-91071000D01*
X156271243Y-91071000D01*
X156509069Y-91023693D01*
X156733097Y-90930898D01*
X156934717Y-90796180D01*
X157106180Y-90624717D01*
X157240898Y-90423097D01*
X157333693Y-90199069D01*
X157381000Y-89961243D01*
X157381000Y-89718757D01*
X157459000Y-89718757D01*
X157459000Y-89961243D01*
X157506307Y-90199069D01*
X157599102Y-90423097D01*
X157733820Y-90624717D01*
X157905283Y-90796180D01*
X158106903Y-90930898D01*
X158330931Y-91023693D01*
X158568757Y-91071000D01*
X158811243Y-91071000D01*
X159049069Y-91023693D01*
X159273097Y-90930898D01*
X159474717Y-90796180D01*
X159646180Y-90624717D01*
X159780898Y-90423097D01*
X159873693Y-90199069D01*
X159921000Y-89961243D01*
X159921000Y-89718757D01*
X159873693Y-89480931D01*
X159780898Y-89256903D01*
X159646180Y-89055283D01*
X159474717Y-88883820D01*
X159273097Y-88749102D01*
X159049069Y-88656307D01*
X158811243Y-88609000D01*
X158568757Y-88609000D01*
X158330931Y-88656307D01*
X158106903Y-88749102D01*
X157905283Y-88883820D01*
X157733820Y-89055283D01*
X157599102Y-89256903D01*
X157506307Y-89480931D01*
X157459000Y-89718757D01*
X157381000Y-89718757D01*
X157333693Y-89480931D01*
X157240898Y-89256903D01*
X157106180Y-89055283D01*
X156934717Y-88883820D01*
X156733097Y-88749102D01*
X156509069Y-88656307D01*
X156271243Y-88609000D01*
X156028757Y-88609000D01*
X155790931Y-88656307D01*
X155566903Y-88749102D01*
X155365283Y-88883820D01*
X155193820Y-89055283D01*
X155059102Y-89256903D01*
X155016812Y-89359000D01*
X154683623Y-89359000D01*
X154659999Y-89356673D01*
X154636375Y-89359000D01*
X154636374Y-89359000D01*
X154565708Y-89365960D01*
X154481000Y-89391656D01*
X154481000Y-87731000D01*
X154996102Y-87731000D01*
X155059102Y-87883097D01*
X155193820Y-88084717D01*
X155365283Y-88256180D01*
X155566903Y-88390898D01*
X155790931Y-88483693D01*
X156028757Y-88531000D01*
X156271243Y-88531000D01*
X156509069Y-88483693D01*
X156733097Y-88390898D01*
X156934717Y-88256180D01*
X157106180Y-88084717D01*
X157240898Y-87883097D01*
X157333693Y-87659069D01*
X157381000Y-87421243D01*
X157381000Y-87178757D01*
X157333693Y-86940931D01*
X157240898Y-86716903D01*
X157106180Y-86515283D01*
X157071897Y-86481000D01*
X157190764Y-86481000D01*
X157548597Y-86838833D01*
X157506307Y-86940931D01*
X157459000Y-87178757D01*
X157459000Y-87421243D01*
X157506307Y-87659069D01*
X157599102Y-87883097D01*
X157733820Y-88084717D01*
X157905283Y-88256180D01*
X158106903Y-88390898D01*
X158330931Y-88483693D01*
X158568757Y-88531000D01*
X158811243Y-88531000D01*
X159049069Y-88483693D01*
X159273097Y-88390898D01*
X159474717Y-88256180D01*
X159646180Y-88084717D01*
X159780898Y-87883097D01*
X159873693Y-87659069D01*
X159921000Y-87421243D01*
X159921000Y-87178757D01*
X159873693Y-86940931D01*
X159780898Y-86716903D01*
X159646180Y-86515283D01*
X159474717Y-86343820D01*
X159273097Y-86209102D01*
X159049069Y-86116307D01*
X158811243Y-86069000D01*
X158568757Y-86069000D01*
X158330931Y-86116307D01*
X158228833Y-86158597D01*
X157746830Y-85676594D01*
X157731764Y-85658236D01*
X157658522Y-85598128D01*
X157574961Y-85553464D01*
X157484292Y-85525960D01*
X157413626Y-85519000D01*
X157390000Y-85516673D01*
X157366374Y-85519000D01*
X157123364Y-85519000D01*
X157240898Y-85343097D01*
X157333693Y-85119069D01*
X157381000Y-84881243D01*
X157381000Y-84638757D01*
X157333693Y-84400931D01*
X157240898Y-84176903D01*
X157106180Y-83975283D01*
X156934717Y-83803820D01*
X156789706Y-83706927D01*
X157000000Y-83708072D01*
X157124482Y-83695812D01*
X157244180Y-83659502D01*
X157354494Y-83600537D01*
X157451185Y-83521185D01*
X157530537Y-83424494D01*
X157589502Y-83314180D01*
X157612498Y-83238374D01*
X157808645Y-83415178D01*
X158058748Y-83564157D01*
X158221168Y-83621772D01*
X158106903Y-83669102D01*
X157905283Y-83803820D01*
X157733820Y-83975283D01*
X157599102Y-84176903D01*
X157506307Y-84400931D01*
X157459000Y-84638757D01*
X157459000Y-84881243D01*
X157506307Y-85119069D01*
X157599102Y-85343097D01*
X157733820Y-85544717D01*
X157905283Y-85716180D01*
X158106903Y-85850898D01*
X158330931Y-85943693D01*
X158568757Y-85991000D01*
X158811243Y-85991000D01*
X159049069Y-85943693D01*
X159273097Y-85850898D01*
X159474717Y-85716180D01*
X159646180Y-85544717D01*
X159780898Y-85343097D01*
X159873693Y-85119069D01*
X159921000Y-84881243D01*
X159921000Y-84638757D01*
X159873693Y-84400931D01*
X159780898Y-84176903D01*
X159646180Y-83975283D01*
X159474717Y-83803820D01*
X159273097Y-83669102D01*
X159158832Y-83621772D01*
X159321252Y-83564157D01*
X159571355Y-83415178D01*
X159787588Y-83220269D01*
X159961641Y-82986920D01*
X160086825Y-82724099D01*
X160131476Y-82576890D01*
X160010155Y-82347000D01*
X158817000Y-82347000D01*
X158817000Y-82367000D01*
X158563000Y-82367000D01*
X158563000Y-82347000D01*
X156277000Y-82347000D01*
X156277000Y-82367000D01*
X156023000Y-82367000D01*
X156023000Y-82347000D01*
X154823750Y-82347000D01*
X154665000Y-82505750D01*
X154661928Y-83070000D01*
X154674188Y-83194482D01*
X154710498Y-83314180D01*
X154769463Y-83424494D01*
X154848815Y-83521185D01*
X154945506Y-83600537D01*
X155055820Y-83659502D01*
X155175518Y-83695812D01*
X155300000Y-83708072D01*
X155510294Y-83706927D01*
X155365283Y-83803820D01*
X155193820Y-83975283D01*
X155059102Y-84176903D01*
X154966307Y-84400931D01*
X154919000Y-84638757D01*
X154919000Y-84881243D01*
X154966307Y-85119069D01*
X155059102Y-85343097D01*
X155176636Y-85519000D01*
X154561165Y-85519000D01*
X154537539Y-85516673D01*
X154443246Y-85525960D01*
X154352577Y-85553464D01*
X154307913Y-85577338D01*
X154269017Y-85598128D01*
X154195775Y-85658236D01*
X154180709Y-85676594D01*
X150676589Y-89180714D01*
X150658237Y-89195775D01*
X150643176Y-89214127D01*
X150598129Y-89269017D01*
X150553465Y-89352578D01*
X150525960Y-89443247D01*
X150516673Y-89537539D01*
X150519001Y-89561175D01*
X150519000Y-96629750D01*
X150500000Y-96648750D01*
X150341250Y-96490000D01*
X150236565Y-96502126D01*
X150117709Y-96541102D01*
X150008740Y-96602516D01*
X149913846Y-96684010D01*
X149862468Y-96749547D01*
X149850618Y-96750714D01*
X149767075Y-96776057D01*
X149750000Y-96785184D01*
X149732925Y-96776057D01*
X149649382Y-96750714D01*
X149562500Y-96742157D01*
X149437500Y-96742157D01*
X149350618Y-96750714D01*
X149267075Y-96776057D01*
X149190081Y-96817211D01*
X149122595Y-96872595D01*
X149067211Y-96940081D01*
X149026057Y-97017075D01*
X149000714Y-97100618D01*
X148992157Y-97187500D01*
X148992157Y-97742157D01*
X148437500Y-97742157D01*
X148350618Y-97750714D01*
X148267075Y-97776057D01*
X148190081Y-97817211D01*
X148122595Y-97872595D01*
X148067211Y-97940081D01*
X148026057Y-98017075D01*
X148000714Y-98100618D01*
X147992157Y-98187500D01*
X147992157Y-98269000D01*
X147523626Y-98269000D01*
X147500000Y-98266673D01*
X147405707Y-98275960D01*
X147315038Y-98303464D01*
X147289320Y-98317211D01*
X147231478Y-98348128D01*
X147158236Y-98408236D01*
X147143170Y-98426594D01*
X146300764Y-99269000D01*
X145891425Y-99269000D01*
X145875685Y-99231000D01*
X145976374Y-99231000D01*
X146000000Y-99233327D01*
X146023626Y-99231000D01*
X146094292Y-99224040D01*
X146184961Y-99196536D01*
X146268522Y-99151872D01*
X146341764Y-99091764D01*
X146356830Y-99073406D01*
X148323412Y-97106825D01*
X148341764Y-97091764D01*
X148401872Y-97018522D01*
X148446536Y-96934961D01*
X148474040Y-96844292D01*
X148475576Y-96828697D01*
X148483327Y-96750001D01*
X148481000Y-96726374D01*
X148481000Y-96568647D01*
X148498044Y-96563477D01*
X148598810Y-96509616D01*
X148687132Y-96437132D01*
X148759616Y-96348810D01*
X148813477Y-96248044D01*
X148846644Y-96138707D01*
X148857843Y-96025000D01*
X148857843Y-95625000D01*
X148846644Y-95511293D01*
X148813477Y-95401956D01*
X148759616Y-95301190D01*
X148687132Y-95212868D01*
X148598810Y-95140384D01*
X148498044Y-95086523D01*
X148388707Y-95053356D01*
X148275000Y-95042157D01*
X147725000Y-95042157D01*
X147611293Y-95053356D01*
X147501956Y-95086523D01*
X147401190Y-95140384D01*
X147312868Y-95212868D01*
X147240384Y-95301190D01*
X147186523Y-95401956D01*
X147153356Y-95511293D01*
X147142157Y-95625000D01*
X147142157Y-96025000D01*
X147153356Y-96138707D01*
X147186523Y-96248044D01*
X147240384Y-96348810D01*
X147312868Y-96437132D01*
X147401190Y-96509616D01*
X147501956Y-96563477D01*
X147505278Y-96564485D01*
X146723417Y-97346346D01*
X146724040Y-97344293D01*
X146733327Y-97250001D01*
X146731000Y-97226374D01*
X146731000Y-96568647D01*
X146748044Y-96563477D01*
X146848810Y-96509616D01*
X146937132Y-96437132D01*
X147009616Y-96348810D01*
X147063477Y-96248044D01*
X147096644Y-96138707D01*
X147107843Y-96025000D01*
X147107843Y-95625000D01*
X147096644Y-95511293D01*
X147063477Y-95401956D01*
X147009616Y-95301190D01*
X146937132Y-95212868D01*
X146848810Y-95140384D01*
X146748044Y-95086523D01*
X146638707Y-95053356D01*
X146525000Y-95042157D01*
X146008001Y-95042157D01*
X146008001Y-94957843D01*
X146525000Y-94957843D01*
X146638707Y-94946644D01*
X146748044Y-94913477D01*
X146848810Y-94859616D01*
X146937132Y-94787132D01*
X147009616Y-94698810D01*
X147063477Y-94598044D01*
X147096644Y-94488707D01*
X147107843Y-94375000D01*
X147107843Y-93975000D01*
X147142157Y-93975000D01*
X147142157Y-94375000D01*
X147153356Y-94488707D01*
X147186523Y-94598044D01*
X147240384Y-94698810D01*
X147312868Y-94787132D01*
X147401190Y-94859616D01*
X147501956Y-94913477D01*
X147611293Y-94946644D01*
X147725000Y-94957843D01*
X148275000Y-94957843D01*
X148388707Y-94946644D01*
X148498044Y-94913477D01*
X148598810Y-94859616D01*
X148687132Y-94787132D01*
X148759616Y-94698810D01*
X148813477Y-94598044D01*
X148846644Y-94488707D01*
X148857843Y-94375000D01*
X148857843Y-93975000D01*
X148846644Y-93861293D01*
X148813477Y-93751956D01*
X148759616Y-93651190D01*
X148687132Y-93562868D01*
X148627713Y-93514104D01*
X148654829Y-93448640D01*
X148681000Y-93317073D01*
X148681000Y-93182927D01*
X148654829Y-93051360D01*
X148603494Y-92927426D01*
X148528967Y-92815888D01*
X148434112Y-92721033D01*
X148322574Y-92646506D01*
X148198640Y-92595171D01*
X148067073Y-92569000D01*
X147932927Y-92569000D01*
X147801360Y-92595171D01*
X147677426Y-92646506D01*
X147565888Y-92721033D01*
X147471033Y-92815888D01*
X147396506Y-92927426D01*
X147345171Y-93051360D01*
X147319000Y-93182927D01*
X147319000Y-93317073D01*
X147345171Y-93448640D01*
X147372287Y-93514104D01*
X147312868Y-93562868D01*
X147240384Y-93651190D01*
X147186523Y-93751956D01*
X147153356Y-93861293D01*
X147142157Y-93975000D01*
X147107843Y-93975000D01*
X147096644Y-93861293D01*
X147063477Y-93751956D01*
X147009616Y-93651190D01*
X146937132Y-93562868D01*
X146877713Y-93514104D01*
X146904829Y-93448640D01*
X146931000Y-93317073D01*
X146931000Y-93182927D01*
X146904829Y-93051360D01*
X146853494Y-92927426D01*
X146778967Y-92815888D01*
X146684112Y-92721033D01*
X146572574Y-92646506D01*
X146448640Y-92595171D01*
X146317073Y-92569000D01*
X146182927Y-92569000D01*
X146051360Y-92595171D01*
X146008001Y-92613131D01*
X146008001Y-92050627D01*
X146010328Y-92027001D01*
X146001041Y-91932708D01*
X145973537Y-91842039D01*
X145938486Y-91776464D01*
X145928873Y-91758479D01*
X145868765Y-91685237D01*
X145850402Y-91670167D01*
X145606830Y-91426595D01*
X145591764Y-91408236D01*
X145518522Y-91348128D01*
X145434961Y-91303464D01*
X145344292Y-91275960D01*
X145273626Y-91269000D01*
X145250000Y-91266673D01*
X145226374Y-91269000D01*
X145068647Y-91269000D01*
X145063477Y-91251956D01*
X145009616Y-91151190D01*
X144937132Y-91062868D01*
X144848810Y-90990384D01*
X144748044Y-90936523D01*
X144638707Y-90903356D01*
X144525000Y-90892157D01*
X144125000Y-90892157D01*
X144011293Y-90903356D01*
X143901956Y-90936523D01*
X143801190Y-90990384D01*
X143712868Y-91062868D01*
X143640384Y-91151190D01*
X143586523Y-91251956D01*
X143553356Y-91361293D01*
X143542157Y-91475000D01*
X143542157Y-92025000D01*
X143553356Y-92138707D01*
X143586523Y-92248044D01*
X143640384Y-92348810D01*
X143712868Y-92437132D01*
X143801190Y-92509616D01*
X143901956Y-92563477D01*
X144011293Y-92596644D01*
X144125000Y-92607843D01*
X144525000Y-92607843D01*
X144638707Y-92596644D01*
X144748044Y-92563477D01*
X144848810Y-92509616D01*
X144937132Y-92437132D01*
X145009616Y-92348810D01*
X145046002Y-92280737D01*
X145046002Y-92983508D01*
X145006456Y-92909523D01*
X144931640Y-92818360D01*
X144840477Y-92743544D01*
X144736470Y-92687951D01*
X144623615Y-92653716D01*
X144506250Y-92642157D01*
X144068750Y-92642157D01*
X143951385Y-92653716D01*
X143838530Y-92687951D01*
X143734523Y-92743544D01*
X143643360Y-92818360D01*
X143568544Y-92909523D01*
X143512951Y-93013530D01*
X143500000Y-93056223D01*
X143487049Y-93013530D01*
X143431456Y-92909523D01*
X143356640Y-92818360D01*
X143265477Y-92743544D01*
X143193500Y-92705071D01*
X143193500Y-92512454D01*
X143198810Y-92509616D01*
X143287132Y-92437132D01*
X143359616Y-92348810D01*
X143413477Y-92248044D01*
X143446644Y-92138707D01*
X143457843Y-92025000D01*
X143457843Y-91475000D01*
X143446644Y-91361293D01*
X143413477Y-91251956D01*
X143359616Y-91151190D01*
X143287132Y-91062868D01*
X143198810Y-90990384D01*
X143098044Y-90936523D01*
X142988707Y-90903356D01*
X142875000Y-90892157D01*
X142475000Y-90892157D01*
X142361293Y-90903356D01*
X142251956Y-90936523D01*
X142151190Y-90990384D01*
X142062868Y-91062868D01*
X141990384Y-91151190D01*
X141936523Y-91251956D01*
X141903356Y-91361293D01*
X141892157Y-91475000D01*
X141892157Y-92025000D01*
X141903356Y-92138707D01*
X141936523Y-92248044D01*
X141990384Y-92348810D01*
X142062868Y-92437132D01*
X142151190Y-92509616D01*
X142231501Y-92552543D01*
X142231500Y-92705071D01*
X142159523Y-92743544D01*
X142068360Y-92818360D01*
X141993544Y-92909523D01*
X141937951Y-93013530D01*
X141903716Y-93126385D01*
X141892157Y-93243750D01*
X141892157Y-93756250D01*
X141903716Y-93873615D01*
X141937951Y-93986470D01*
X141993544Y-94090477D01*
X142068360Y-94181640D01*
X142159523Y-94256456D01*
X142263530Y-94312049D01*
X142376385Y-94346284D01*
X142493750Y-94357843D01*
X142931250Y-94357843D01*
X143048615Y-94346284D01*
X143161470Y-94312049D01*
X143265477Y-94256456D01*
X143356640Y-94181640D01*
X143431456Y-94090477D01*
X143487049Y-93986470D01*
X143500000Y-93943777D01*
X143512951Y-93986470D01*
X143568544Y-94090477D01*
X143643360Y-94181640D01*
X143660799Y-94195952D01*
X143632671Y-94263860D01*
X143606500Y-94395427D01*
X143606500Y-94529573D01*
X143632671Y-94661140D01*
X143684006Y-94785074D01*
X143693311Y-94799000D01*
X143011727Y-94799000D01*
X142882294Y-94811748D01*
X142716225Y-94862125D01*
X142563175Y-94943932D01*
X142496074Y-94999000D01*
X140283926Y-94999000D01*
X140216825Y-94943932D01*
X140063775Y-94862125D01*
X139897706Y-94811748D01*
X139768273Y-94799000D01*
X139081727Y-94799000D01*
X138952294Y-94811748D01*
X138786225Y-94862125D01*
X138633175Y-94943932D01*
X138499025Y-95054025D01*
X138388932Y-95188175D01*
X138307125Y-95341225D01*
X138256748Y-95507294D01*
X138239738Y-95680000D01*
X137914810Y-95680000D01*
X137952550Y-95295096D01*
X138084664Y-94857511D01*
X138299252Y-94453931D01*
X138600928Y-94084039D01*
X139048166Y-93629773D01*
X139043000Y-93655744D01*
X139043000Y-93844256D01*
X139079777Y-94029147D01*
X139151917Y-94203310D01*
X139256649Y-94360052D01*
X139389948Y-94493351D01*
X139546690Y-94598083D01*
X139720853Y-94670223D01*
X139905744Y-94707000D01*
X140094256Y-94707000D01*
X140279147Y-94670223D01*
X140453310Y-94598083D01*
X140610052Y-94493351D01*
X140743351Y-94360052D01*
X140848083Y-94203310D01*
X140920223Y-94029147D01*
X140957000Y-93844256D01*
X140957000Y-93655744D01*
X140920223Y-93470853D01*
X140848083Y-93296690D01*
X140743351Y-93139948D01*
X140610052Y-93006649D01*
X140453310Y-92901917D01*
X140279147Y-92829777D01*
X140094256Y-92793000D01*
X139905744Y-92793000D01*
X139863774Y-92801348D01*
X149116263Y-83403458D01*
X150088708Y-82567173D01*
X151148243Y-81858013D01*
X152110382Y-81370000D01*
X154661928Y-81370000D01*
X154665000Y-81934250D01*
X154823750Y-82093000D01*
X156023000Y-82093000D01*
X156023000Y-80893750D01*
X156277000Y-80893750D01*
X156277000Y-82093000D01*
X158563000Y-82093000D01*
X158563000Y-80899186D01*
X158817000Y-80899186D01*
X158817000Y-82093000D01*
X160010155Y-82093000D01*
X160131476Y-81863110D01*
X160086825Y-81715901D01*
X159961641Y-81453080D01*
X159787588Y-81219731D01*
X159571355Y-81024822D01*
X159321252Y-80875843D01*
X159046891Y-80778519D01*
X158817000Y-80899186D01*
X158563000Y-80899186D01*
X158333109Y-80778519D01*
X158058748Y-80875843D01*
X157808645Y-81024822D01*
X157612498Y-81201626D01*
X157589502Y-81125820D01*
X157530537Y-81015506D01*
X157451185Y-80918815D01*
X157354494Y-80839463D01*
X157244180Y-80780498D01*
X157124482Y-80744188D01*
X157000000Y-80731928D01*
X156435750Y-80735000D01*
X156277000Y-80893750D01*
X156023000Y-80893750D01*
X155864250Y-80735000D01*
X155300000Y-80731928D01*
X155175518Y-80744188D01*
X155055820Y-80780498D01*
X154945506Y-80839463D01*
X154848815Y-80918815D01*
X154769463Y-81015506D01*
X154710498Y-81125820D01*
X154674188Y-81245518D01*
X154661928Y-81370000D01*
X152110382Y-81370000D01*
X152285286Y-81281286D01*
X153483399Y-80845329D01*
X154725190Y-80556472D01*
X156000026Y-80418096D01*
X156504882Y-80406000D01*
X160790579Y-80406000D01*
X160639948Y-80506649D01*
%TA.AperFunction,Conductor*%
D21*
G36*
X160639948Y-80506649D02*
G01*
X160506649Y-80639948D01*
X160401917Y-80796690D01*
X160329777Y-80970853D01*
X160293000Y-81155744D01*
X160293000Y-81344256D01*
X160329777Y-81529147D01*
X160401917Y-81703310D01*
X160506649Y-81860052D01*
X160639948Y-81993351D01*
X160796690Y-82098083D01*
X160970853Y-82170223D01*
X161155744Y-82207000D01*
X161344256Y-82207000D01*
X161529147Y-82170223D01*
X161703310Y-82098083D01*
X161860052Y-81993351D01*
X161993351Y-81860052D01*
X162094001Y-81709419D01*
X162094000Y-118290579D01*
X161993351Y-118139948D01*
X161860052Y-118006649D01*
X161703310Y-117901917D01*
X161529147Y-117829777D01*
X161344256Y-117793000D01*
X161155744Y-117793000D01*
X160970853Y-117829777D01*
X160796690Y-117901917D01*
X160639948Y-118006649D01*
X160506649Y-118139948D01*
X160401917Y-118296690D01*
X160329777Y-118470853D01*
X160293000Y-118655744D01*
X160293000Y-118844256D01*
X160329777Y-119029147D01*
X160401917Y-119203310D01*
X160506649Y-119360052D01*
X160639948Y-119493351D01*
X160790579Y-119594000D01*
X156512224Y-119594000D01*
X155227363Y-119516540D01*
X153973151Y-119287480D01*
X152755548Y-118909404D01*
X151592179Y-118387785D01*
X150499914Y-117730188D01*
X149488670Y-116941540D01*
X149127652Y-116607817D01*
X140440065Y-107775000D01*
X145136928Y-107775000D01*
X145140000Y-107939250D01*
X145298750Y-108098000D01*
X146123000Y-108098000D01*
X146123000Y-107298750D01*
X145964250Y-107140000D01*
X145775000Y-107136928D01*
X145650518Y-107149188D01*
X145530820Y-107185498D01*
X145420506Y-107244463D01*
X145323815Y-107323815D01*
X145244463Y-107420506D01*
X145185498Y-107530820D01*
X145149188Y-107650518D01*
X145136928Y-107775000D01*
X140440065Y-107775000D01*
X139875484Y-107200981D01*
X139905744Y-107207000D01*
X140094256Y-107207000D01*
X140279147Y-107170223D01*
X140453310Y-107098083D01*
X140610052Y-106993351D01*
X140743351Y-106860052D01*
X140848083Y-106703310D01*
X140920223Y-106529147D01*
X140957000Y-106344256D01*
X140957000Y-106155744D01*
X140920223Y-105970853D01*
X140848083Y-105796690D01*
X140743351Y-105639948D01*
X140610052Y-105506649D01*
X140453310Y-105401917D01*
X140279147Y-105329777D01*
X140094256Y-105293000D01*
X139905744Y-105293000D01*
X139720853Y-105329777D01*
X139546690Y-105401917D01*
X139389948Y-105506649D01*
X139256649Y-105639948D01*
X139151917Y-105796690D01*
X139079777Y-105970853D01*
X139043000Y-106155744D01*
X139043000Y-106344256D01*
X139045574Y-106357197D01*
X138731823Y-106038201D01*
X138394767Y-105679449D01*
X138152451Y-105291874D01*
X137990032Y-104864618D01*
X137911552Y-104401308D01*
X137906000Y-104242886D01*
X137906000Y-95769853D01*
X137914810Y-95680000D01*
X138239738Y-95680000D01*
X138256748Y-95852706D01*
X138307125Y-96018775D01*
X138388932Y-96171825D01*
X138499025Y-96305975D01*
X138633175Y-96416068D01*
X138786225Y-96497875D01*
X138952294Y-96548252D01*
X139081727Y-96561000D01*
X139768273Y-96561000D01*
X139897706Y-96548252D01*
X140063775Y-96497875D01*
X140216825Y-96416068D01*
X140283926Y-96361000D01*
X142496074Y-96361000D01*
X142563175Y-96416068D01*
X142716225Y-96497875D01*
X142739690Y-96504993D01*
X142654951Y-96561614D01*
X142556614Y-96659951D01*
X142479351Y-96775584D01*
X142426131Y-96904067D01*
X142399000Y-97040465D01*
X142399000Y-97179535D01*
X142417940Y-97274755D01*
X142405708Y-97275960D01*
X142315039Y-97303464D01*
X142231478Y-97348128D01*
X142158236Y-97408236D01*
X142143170Y-97426594D01*
X141926594Y-97643170D01*
X141908236Y-97658236D01*
X141848128Y-97731478D01*
X141803464Y-97815040D01*
X141786005Y-97872595D01*
X141775960Y-97905708D01*
X141766673Y-98000000D01*
X141769000Y-98023626D01*
X141769001Y-101976364D01*
X141766673Y-102000000D01*
X141775960Y-102094292D01*
X141799142Y-102170711D01*
X141803465Y-102184961D01*
X141848129Y-102268522D01*
X141908237Y-102341764D01*
X141926589Y-102356825D01*
X142143170Y-102573406D01*
X142158236Y-102591764D01*
X142231478Y-102651872D01*
X142315039Y-102696536D01*
X142405708Y-102724040D01*
X142417940Y-102725245D01*
X142399000Y-102820465D01*
X142399000Y-102959535D01*
X142426131Y-103095933D01*
X142479351Y-103224416D01*
X142556614Y-103340049D01*
X142654951Y-103438386D01*
X142739690Y-103495007D01*
X142716225Y-103502125D01*
X142563175Y-103583932D01*
X142496074Y-103639000D01*
X140283926Y-103639000D01*
X140216825Y-103583932D01*
X140063775Y-103502125D01*
X139897706Y-103451748D01*
X139768273Y-103439000D01*
X139081727Y-103439000D01*
X138952294Y-103451748D01*
X138786225Y-103502125D01*
X138633175Y-103583932D01*
X138499025Y-103694025D01*
X138388932Y-103828175D01*
X138307125Y-103981225D01*
X138256748Y-104147294D01*
X138239738Y-104320000D01*
X138256748Y-104492706D01*
X138307125Y-104658775D01*
X138388932Y-104811825D01*
X138499025Y-104945975D01*
X138633175Y-105056068D01*
X138786225Y-105137875D01*
X138952294Y-105188252D01*
X139081727Y-105201000D01*
X139768273Y-105201000D01*
X139897706Y-105188252D01*
X140063775Y-105137875D01*
X140216825Y-105056068D01*
X140283926Y-105001000D01*
X141144001Y-105001000D01*
X141144000Y-105746784D01*
X141140384Y-105751190D01*
X141086523Y-105851956D01*
X141053356Y-105961293D01*
X141042157Y-106075000D01*
X141042157Y-106625000D01*
X141053356Y-106738707D01*
X141086523Y-106848044D01*
X141140384Y-106948810D01*
X141212868Y-107037132D01*
X141301190Y-107109616D01*
X141401956Y-107163477D01*
X141511293Y-107196644D01*
X141625000Y-107207843D01*
X142025000Y-107207843D01*
X142138707Y-107196644D01*
X142248044Y-107163477D01*
X142348810Y-107109616D01*
X142437132Y-107037132D01*
X142492247Y-106969974D01*
X142515132Y-106982206D01*
X142547304Y-106991965D01*
X142578360Y-107004829D01*
X142611332Y-107011388D01*
X142643501Y-107021146D01*
X142676953Y-107024441D01*
X142709927Y-107031000D01*
X142857836Y-107031000D01*
X142862868Y-107037132D01*
X142951190Y-107109616D01*
X143051956Y-107163477D01*
X143161293Y-107196644D01*
X143275000Y-107207843D01*
X143675000Y-107207843D01*
X143788707Y-107196644D01*
X143898044Y-107163477D01*
X143998810Y-107109616D01*
X144087132Y-107037132D01*
X144092164Y-107031000D01*
X144241073Y-107031000D01*
X144274047Y-107024441D01*
X144307499Y-107021146D01*
X144339668Y-107011388D01*
X144372640Y-107004829D01*
X144403696Y-106991965D01*
X144435868Y-106982206D01*
X144465517Y-106966358D01*
X144496574Y-106953494D01*
X144524525Y-106934817D01*
X144554174Y-106918970D01*
X144580162Y-106897643D01*
X144608112Y-106878967D01*
X144631879Y-106855200D01*
X144657870Y-106833870D01*
X144679200Y-106807879D01*
X144702967Y-106784112D01*
X144721643Y-106756162D01*
X144742970Y-106730174D01*
X144758817Y-106700525D01*
X144777494Y-106672574D01*
X144790358Y-106641517D01*
X144806206Y-106611868D01*
X144815965Y-106579696D01*
X144828829Y-106548640D01*
X144835388Y-106515668D01*
X144845146Y-106483499D01*
X144848441Y-106450047D01*
X144855000Y-106417073D01*
X144855000Y-106383452D01*
X144858295Y-106350000D01*
X144855000Y-106316547D01*
X144855000Y-106282927D01*
X144848441Y-106249953D01*
X144845146Y-106216501D01*
X144835388Y-106184332D01*
X144828829Y-106151360D01*
X144815965Y-106120304D01*
X144806206Y-106088132D01*
X144790358Y-106058483D01*
X144777494Y-106027426D01*
X144758817Y-105999475D01*
X144742970Y-105969826D01*
X144721643Y-105943838D01*
X144702967Y-105915888D01*
X144679200Y-105892121D01*
X144657870Y-105866130D01*
X144631879Y-105844800D01*
X144608112Y-105821033D01*
X144580162Y-105802357D01*
X144554174Y-105781030D01*
X144524525Y-105765183D01*
X144496574Y-105746506D01*
X144465517Y-105733642D01*
X144435868Y-105717794D01*
X144403696Y-105708035D01*
X144372640Y-105695171D01*
X144339668Y-105688612D01*
X144307499Y-105678854D01*
X144274047Y-105675559D01*
X144241073Y-105669000D01*
X144092164Y-105669000D01*
X144087132Y-105662868D01*
X143998810Y-105590384D01*
X143898044Y-105536523D01*
X143788707Y-105503356D01*
X143675000Y-105492157D01*
X143275000Y-105492157D01*
X143161293Y-105503356D01*
X143051956Y-105536523D01*
X142951190Y-105590384D01*
X142862868Y-105662868D01*
X142857836Y-105669000D01*
X142709927Y-105669000D01*
X142676953Y-105675559D01*
X142643501Y-105678854D01*
X142611332Y-105688612D01*
X142578360Y-105695171D01*
X142547304Y-105708035D01*
X142515132Y-105717794D01*
X142506000Y-105722675D01*
X142506000Y-105009146D01*
X142563175Y-105056068D01*
X142716225Y-105137875D01*
X142882294Y-105188252D01*
X143011727Y-105201000D01*
X144198273Y-105201000D01*
X144327706Y-105188252D01*
X144493775Y-105137875D01*
X144646825Y-105056068D01*
X144780975Y-104945975D01*
X144891068Y-104811825D01*
X144972875Y-104658775D01*
X145023252Y-104492706D01*
X145040262Y-104320000D01*
X145023252Y-104147294D01*
X144972875Y-103981225D01*
X144901778Y-103848212D01*
X144923202Y-103836760D01*
X145019927Y-103856000D01*
X145066991Y-103856000D01*
X145066990Y-105299363D01*
X145064663Y-105322990D01*
X145073950Y-105417282D01*
X145079313Y-105434961D01*
X145101454Y-105507950D01*
X145146118Y-105591512D01*
X145206226Y-105664754D01*
X145224584Y-105679820D01*
X145392157Y-105847393D01*
X145392157Y-106250000D01*
X145403837Y-106368584D01*
X145438426Y-106482611D01*
X145494597Y-106587699D01*
X145570190Y-106679810D01*
X145662301Y-106755403D01*
X145767389Y-106811574D01*
X145881416Y-106846163D01*
X146000000Y-106857843D01*
X146500000Y-106857843D01*
X146618584Y-106846163D01*
X146732611Y-106811574D01*
X146837699Y-106755403D01*
X146929810Y-106679810D01*
X147005403Y-106587699D01*
X147022347Y-106556000D01*
X147217501Y-106556000D01*
X147240384Y-106598810D01*
X147312868Y-106687132D01*
X147401190Y-106759616D01*
X147501956Y-106813477D01*
X147611293Y-106846644D01*
X147725000Y-106857843D01*
X148275000Y-106857843D01*
X148388707Y-106846644D01*
X148498044Y-106813477D01*
X148598810Y-106759616D01*
X148687132Y-106687132D01*
X148759616Y-106598810D01*
X148813477Y-106498044D01*
X148846644Y-106388707D01*
X148857843Y-106275000D01*
X148857843Y-105875000D01*
X148846644Y-105761293D01*
X148813477Y-105651956D01*
X148759616Y-105551190D01*
X148687132Y-105462868D01*
X148598810Y-105390384D01*
X148498044Y-105336523D01*
X148388707Y-105303356D01*
X148275000Y-105292157D01*
X147725000Y-105292157D01*
X147611293Y-105303356D01*
X147501956Y-105336523D01*
X147401190Y-105390384D01*
X147312868Y-105462868D01*
X147240384Y-105551190D01*
X147217501Y-105594000D01*
X147069646Y-105594000D01*
X147061574Y-105567389D01*
X147005403Y-105462301D01*
X146929810Y-105370190D01*
X146837699Y-105294597D01*
X146754264Y-105250000D01*
X146837699Y-105205403D01*
X146929810Y-105129810D01*
X147005403Y-105037699D01*
X147061574Y-104932611D01*
X147096163Y-104818584D01*
X147107843Y-104700000D01*
X147107843Y-104250000D01*
X147096163Y-104131416D01*
X147061574Y-104017389D01*
X147005403Y-103912301D01*
X146997230Y-103902342D01*
X147029829Y-103823640D01*
X147056000Y-103692073D01*
X147056000Y-103668596D01*
X147072593Y-103613896D01*
X147081000Y-103528540D01*
X147083033Y-103507897D01*
X147087699Y-103505403D01*
X147090074Y-103503454D01*
X147098128Y-103518522D01*
X147158236Y-103591764D01*
X147176594Y-103606830D01*
X147351185Y-103781422D01*
X147312868Y-103812868D01*
X147240384Y-103901190D01*
X147186523Y-104001956D01*
X147153356Y-104111293D01*
X147142157Y-104225000D01*
X147142157Y-104625000D01*
X147153356Y-104738707D01*
X147186523Y-104848044D01*
X147240384Y-104948810D01*
X147312868Y-105037132D01*
X147401190Y-105109616D01*
X147501956Y-105163477D01*
X147611293Y-105196644D01*
X147725000Y-105207843D01*
X148275000Y-105207843D01*
X148388707Y-105196644D01*
X148498044Y-105163477D01*
X148598810Y-105109616D01*
X148687132Y-105037132D01*
X148759616Y-104948810D01*
X148813477Y-104848044D01*
X148846644Y-104738707D01*
X148857843Y-104625000D01*
X148857843Y-104225000D01*
X148846644Y-104111293D01*
X148813477Y-104001956D01*
X148759616Y-103901190D01*
X148687132Y-103812868D01*
X148598810Y-103740384D01*
X148498044Y-103686523D01*
X148476429Y-103679966D01*
X148474040Y-103655707D01*
X148462760Y-103618522D01*
X148446536Y-103565039D01*
X148401872Y-103481478D01*
X148341764Y-103408236D01*
X148323411Y-103393174D01*
X147981000Y-103050764D01*
X147981000Y-101872992D01*
X147999547Y-101887532D01*
X148000714Y-101899382D01*
X148026057Y-101982925D01*
X148067211Y-102059919D01*
X148122595Y-102127405D01*
X148190081Y-102182789D01*
X148267075Y-102223943D01*
X148269001Y-102224527D01*
X148269000Y-102976373D01*
X148266673Y-103000000D01*
X148274832Y-103082843D01*
X148275960Y-103094291D01*
X148303464Y-103184960D01*
X148348128Y-103268522D01*
X148408236Y-103341764D01*
X148426594Y-103356830D01*
X148983616Y-103913852D01*
X148936523Y-104001956D01*
X148903356Y-104111293D01*
X148892157Y-104225000D01*
X148892157Y-104625000D01*
X148903356Y-104738707D01*
X148936523Y-104848044D01*
X148990384Y-104948810D01*
X149062868Y-105037132D01*
X149151190Y-105109616D01*
X149251956Y-105163477D01*
X149361293Y-105196644D01*
X149475000Y-105207843D01*
X150019000Y-105207843D01*
X150019000Y-105256336D01*
X150016673Y-105279962D01*
X150017874Y-105292157D01*
X149475000Y-105292157D01*
X149361293Y-105303356D01*
X149251956Y-105336523D01*
X149151190Y-105390384D01*
X149062868Y-105462868D01*
X148990384Y-105551190D01*
X148936523Y-105651956D01*
X148903356Y-105761293D01*
X148892157Y-105875000D01*
X148892157Y-106275000D01*
X148903356Y-106388707D01*
X148936523Y-106498044D01*
X148990384Y-106598810D01*
X149062868Y-106687132D01*
X149122287Y-106735896D01*
X149095171Y-106801360D01*
X149069000Y-106932927D01*
X149069000Y-107067073D01*
X149095171Y-107198640D01*
X149096489Y-107201821D01*
X149019180Y-107160498D01*
X148899482Y-107124188D01*
X148775000Y-107111928D01*
X148398250Y-107115000D01*
X148239500Y-107273750D01*
X148239500Y-107923000D01*
X148259500Y-107923000D01*
X148259500Y-108177000D01*
X148239500Y-108177000D01*
X148239500Y-108197000D01*
X147985500Y-108197000D01*
X147985500Y-108177000D01*
X147965500Y-108177000D01*
X147965500Y-107923000D01*
X147985500Y-107923000D01*
X147985500Y-107273750D01*
X147826750Y-107115000D01*
X147450000Y-107111928D01*
X147325518Y-107124188D01*
X147205820Y-107160498D01*
X147095506Y-107219463D01*
X147070743Y-107239785D01*
X146969180Y-107185498D01*
X146849482Y-107149188D01*
X146725000Y-107136928D01*
X146535750Y-107140000D01*
X146377000Y-107298750D01*
X146377000Y-108098000D01*
X146397000Y-108098000D01*
X146397000Y-108352000D01*
X146377000Y-108352000D01*
X146377000Y-108372000D01*
X146123000Y-108372000D01*
X146123000Y-108352000D01*
X145298750Y-108352000D01*
X145140000Y-108510750D01*
X145136928Y-108675000D01*
X145149188Y-108799482D01*
X145185498Y-108919180D01*
X145244463Y-109029494D01*
X145323815Y-109126185D01*
X145420506Y-109205537D01*
X145480945Y-109237843D01*
X145438426Y-109317389D01*
X145403837Y-109431416D01*
X145392157Y-109550000D01*
X145392157Y-110000000D01*
X145403837Y-110118584D01*
X145438426Y-110232611D01*
X145494597Y-110337699D01*
X145570190Y-110429810D01*
X145626408Y-110475947D01*
X145595171Y-110551360D01*
X145569000Y-110682927D01*
X145569000Y-110817073D01*
X145595171Y-110948640D01*
X145646506Y-111072574D01*
X145721033Y-111184112D01*
X145815888Y-111278967D01*
X145927426Y-111353494D01*
X146051360Y-111404829D01*
X146182927Y-111431000D01*
X146317073Y-111431000D01*
X146448640Y-111404829D01*
X146572574Y-111353494D01*
X146684112Y-111278967D01*
X146778967Y-111184112D01*
X146853494Y-111072574D01*
X146904829Y-110948640D01*
X146931000Y-110817073D01*
X146931000Y-110682927D01*
X146912989Y-110592382D01*
X146919463Y-110604494D01*
X146998815Y-110701185D01*
X147095506Y-110780537D01*
X147205820Y-110839502D01*
X147325518Y-110875812D01*
X147450000Y-110888072D01*
X147826750Y-110885000D01*
X147985500Y-110726250D01*
X147985500Y-110077000D01*
X147965500Y-110077000D01*
X147965500Y-109823000D01*
X147985500Y-109823000D01*
X147985500Y-109803000D01*
X148239500Y-109803000D01*
X148239500Y-109823000D01*
X148259500Y-109823000D01*
X148259500Y-110077000D01*
X148239500Y-110077000D01*
X148239500Y-110726250D01*
X148398250Y-110885000D01*
X148775000Y-110888072D01*
X148899482Y-110875812D01*
X149019180Y-110839502D01*
X149129494Y-110780537D01*
X149226185Y-110701185D01*
X149305537Y-110604494D01*
X149364502Y-110494180D01*
X149400812Y-110374482D01*
X149403866Y-110343477D01*
X149431957Y-110396032D01*
X149498223Y-110476777D01*
X149578968Y-110543043D01*
X149671090Y-110592283D01*
X149771047Y-110622605D01*
X149875000Y-110632843D01*
X150900000Y-110632843D01*
X151003953Y-110622605D01*
X151103910Y-110592283D01*
X151196032Y-110543043D01*
X151276777Y-110476777D01*
X151343043Y-110396032D01*
X151392283Y-110303910D01*
X151422605Y-110203953D01*
X151424352Y-110186214D01*
X151438426Y-110232611D01*
X151494597Y-110337699D01*
X151570190Y-110429810D01*
X151626408Y-110475947D01*
X151595171Y-110551360D01*
X151569000Y-110682927D01*
X151569000Y-110817073D01*
X151595171Y-110948640D01*
X151646506Y-111072574D01*
X151721033Y-111184112D01*
X151815888Y-111278967D01*
X151927426Y-111353494D01*
X152051360Y-111404829D01*
X152182927Y-111431000D01*
X152317073Y-111431000D01*
X152448640Y-111404829D01*
X152572574Y-111353494D01*
X152684112Y-111278967D01*
X152769001Y-111194078D01*
X152769000Y-116726374D01*
X152766673Y-116750000D01*
X152775960Y-116844292D01*
X152778246Y-116851828D01*
X152803464Y-116934960D01*
X152848128Y-117018522D01*
X152908236Y-117091764D01*
X152926594Y-117106830D01*
X155143170Y-119323406D01*
X155158236Y-119341764D01*
X155231478Y-119401872D01*
X155266682Y-119420689D01*
X155315038Y-119446536D01*
X155405707Y-119474040D01*
X155500000Y-119483327D01*
X155523627Y-119481000D01*
X157446374Y-119481000D01*
X157470000Y-119483327D01*
X157493626Y-119481000D01*
X157564292Y-119474040D01*
X157654961Y-119446536D01*
X157738522Y-119401872D01*
X157811764Y-119341764D01*
X157826830Y-119323406D01*
X158228833Y-118921403D01*
X158330931Y-118963693D01*
X158568757Y-119011000D01*
X158811243Y-119011000D01*
X159049069Y-118963693D01*
X159273097Y-118870898D01*
X159474717Y-118736180D01*
X159646180Y-118564717D01*
X159780898Y-118363097D01*
X159873693Y-118139069D01*
X159921000Y-117901243D01*
X159921000Y-117658757D01*
X159873693Y-117420931D01*
X159780898Y-117196903D01*
X159646180Y-116995283D01*
X159474717Y-116823820D01*
X159273097Y-116689102D01*
X159049069Y-116596307D01*
X158811243Y-116549000D01*
X158568757Y-116549000D01*
X158330931Y-116596307D01*
X158106903Y-116689102D01*
X157905283Y-116823820D01*
X157733820Y-116995283D01*
X157599102Y-117196903D01*
X157506307Y-117420931D01*
X157459000Y-117658757D01*
X157459000Y-117901243D01*
X157506307Y-118139069D01*
X157548597Y-118241167D01*
X157270764Y-118519000D01*
X157136727Y-118519000D01*
X157240898Y-118363097D01*
X157333693Y-118139069D01*
X157381000Y-117901243D01*
X157381000Y-117658757D01*
X157333693Y-117420931D01*
X157291403Y-117318834D01*
X157823412Y-116786825D01*
X157841764Y-116771764D01*
X157901872Y-116698522D01*
X157946536Y-116614961D01*
X157974040Y-116524292D01*
X157981000Y-116453626D01*
X157981000Y-116453625D01*
X157983327Y-116430001D01*
X157981000Y-116406377D01*
X157981000Y-116246772D01*
X158106903Y-116330898D01*
X158330931Y-116423693D01*
X158568757Y-116471000D01*
X158811243Y-116471000D01*
X159049069Y-116423693D01*
X159273097Y-116330898D01*
X159474717Y-116196180D01*
X159646180Y-116024717D01*
X159780898Y-115823097D01*
X159873693Y-115599069D01*
X159921000Y-115361243D01*
X159921000Y-115118757D01*
X159873693Y-114880931D01*
X159780898Y-114656903D01*
X159646180Y-114455283D01*
X159474717Y-114283820D01*
X159273097Y-114149102D01*
X159049069Y-114056307D01*
X158811243Y-114009000D01*
X158568757Y-114009000D01*
X158330931Y-114056307D01*
X158106903Y-114149102D01*
X157981000Y-114233228D01*
X157981000Y-113706772D01*
X158106903Y-113790898D01*
X158330931Y-113883693D01*
X158568757Y-113931000D01*
X158811243Y-113931000D01*
X159049069Y-113883693D01*
X159273097Y-113790898D01*
X159474717Y-113656180D01*
X159646180Y-113484717D01*
X159780898Y-113283097D01*
X159873693Y-113059069D01*
X159921000Y-112821243D01*
X159921000Y-112578757D01*
X159873693Y-112340931D01*
X159780898Y-112116903D01*
X159646180Y-111915283D01*
X159474717Y-111743820D01*
X159273097Y-111609102D01*
X159049069Y-111516307D01*
X158811243Y-111469000D01*
X158568757Y-111469000D01*
X158330931Y-111516307D01*
X158106903Y-111609102D01*
X157981000Y-111693228D01*
X157981000Y-111166772D01*
X158106903Y-111250898D01*
X158330931Y-111343693D01*
X158568757Y-111391000D01*
X158811243Y-111391000D01*
X159049069Y-111343693D01*
X159273097Y-111250898D01*
X159474717Y-111116180D01*
X159646180Y-110944717D01*
X159780898Y-110743097D01*
X159873693Y-110519069D01*
X159921000Y-110281243D01*
X159921000Y-110038757D01*
X159873693Y-109800931D01*
X159780898Y-109576903D01*
X159646180Y-109375283D01*
X159474717Y-109203820D01*
X159273097Y-109069102D01*
X159049069Y-108976307D01*
X158811243Y-108929000D01*
X158568757Y-108929000D01*
X158330931Y-108976307D01*
X158106903Y-109069102D01*
X157981000Y-109153228D01*
X157981000Y-108626772D01*
X158106903Y-108710898D01*
X158330931Y-108803693D01*
X158568757Y-108851000D01*
X158811243Y-108851000D01*
X159049069Y-108803693D01*
X159273097Y-108710898D01*
X159474717Y-108576180D01*
X159646180Y-108404717D01*
X159780898Y-108203097D01*
X159873693Y-107979069D01*
X159921000Y-107741243D01*
X159921000Y-107498757D01*
X159873693Y-107260931D01*
X159780898Y-107036903D01*
X159646180Y-106835283D01*
X159474717Y-106663820D01*
X159273097Y-106529102D01*
X159158832Y-106481772D01*
X159321252Y-106424157D01*
X159571355Y-106275178D01*
X159787588Y-106080269D01*
X159961641Y-105846920D01*
X160086825Y-105584099D01*
X160131476Y-105436890D01*
X160010155Y-105207000D01*
X158817000Y-105207000D01*
X158817000Y-105227000D01*
X158563000Y-105227000D01*
X158563000Y-105207000D01*
X156277000Y-105207000D01*
X156277000Y-105227000D01*
X156023000Y-105227000D01*
X156023000Y-105207000D01*
X156003000Y-105207000D01*
X156003000Y-104953000D01*
X156023000Y-104953000D01*
X156023000Y-104933000D01*
X156277000Y-104933000D01*
X156277000Y-104953000D01*
X158563000Y-104953000D01*
X158563000Y-103759186D01*
X158817000Y-103759186D01*
X158817000Y-104953000D01*
X160010155Y-104953000D01*
X160131476Y-104723110D01*
X160086825Y-104575901D01*
X159961641Y-104313080D01*
X159787588Y-104079731D01*
X159571355Y-103884822D01*
X159321252Y-103735843D01*
X159046891Y-103638519D01*
X158817000Y-103759186D01*
X158563000Y-103759186D01*
X158333109Y-103638519D01*
X158058748Y-103735843D01*
X157808645Y-103884822D01*
X157612498Y-104061626D01*
X157589502Y-103985820D01*
X157530537Y-103875506D01*
X157451185Y-103778815D01*
X157354494Y-103699463D01*
X157244180Y-103640498D01*
X157124482Y-103604188D01*
X157000000Y-103591928D01*
X156435750Y-103595000D01*
X156277002Y-103753748D01*
X156277002Y-103595000D01*
X156174476Y-103595000D01*
X156368032Y-103401445D01*
X156386384Y-103386384D01*
X156446492Y-103313142D01*
X156491156Y-103229581D01*
X156518660Y-103138912D01*
X156521992Y-103105084D01*
X156550000Y-103107843D01*
X157000000Y-103107843D01*
X157118584Y-103096163D01*
X157232611Y-103061574D01*
X157337699Y-103005403D01*
X157429810Y-102929810D01*
X157475947Y-102873592D01*
X157551360Y-102904829D01*
X157682927Y-102931000D01*
X157817073Y-102931000D01*
X157948640Y-102904829D01*
X158072574Y-102853494D01*
X158184112Y-102778967D01*
X158278967Y-102684112D01*
X158353494Y-102572574D01*
X158404829Y-102448640D01*
X158431000Y-102317073D01*
X158431000Y-102182927D01*
X158404829Y-102051360D01*
X158353494Y-101927426D01*
X158278967Y-101815888D01*
X158184112Y-101721033D01*
X158072574Y-101646506D01*
X157948640Y-101595171D01*
X157817073Y-101569000D01*
X157682927Y-101569000D01*
X157551360Y-101595171D01*
X157475947Y-101626408D01*
X157429810Y-101570190D01*
X157337699Y-101494597D01*
X157232611Y-101438426D01*
X157118584Y-101403837D01*
X157000000Y-101392157D01*
X156550000Y-101392157D01*
X156502436Y-101396842D01*
X156491156Y-101359658D01*
X156459995Y-101301360D01*
X156446492Y-101276098D01*
X156386384Y-101202856D01*
X156368021Y-101187786D01*
X156180236Y-101000000D01*
X156473411Y-100706826D01*
X156491764Y-100691764D01*
X156551872Y-100618522D01*
X156596536Y-100534961D01*
X156624040Y-100444292D01*
X156631000Y-100373626D01*
X156631000Y-100373617D01*
X156633326Y-100350001D01*
X156631000Y-100326385D01*
X156631000Y-96053188D01*
X156733097Y-96010898D01*
X156934717Y-95876180D01*
X157106180Y-95704717D01*
X157240898Y-95503097D01*
X157333693Y-95279069D01*
X157381000Y-95041243D01*
X157381000Y-94798757D01*
X157459000Y-94798757D01*
X157459000Y-95041243D01*
X157506307Y-95279069D01*
X157599102Y-95503097D01*
X157733820Y-95704717D01*
X157905283Y-95876180D01*
X158106903Y-96010898D01*
X158330931Y-96103693D01*
X158568757Y-96151000D01*
X158811243Y-96151000D01*
X159049069Y-96103693D01*
X159273097Y-96010898D01*
X159474717Y-95876180D01*
X159646180Y-95704717D01*
X159780898Y-95503097D01*
X159873693Y-95279069D01*
X159921000Y-95041243D01*
X159921000Y-94798757D01*
X159873693Y-94560931D01*
X159780898Y-94336903D01*
X159646180Y-94135283D01*
X159474717Y-93963820D01*
X159273097Y-93829102D01*
X159049069Y-93736307D01*
X158811243Y-93689000D01*
X158568757Y-93689000D01*
X158330931Y-93736307D01*
X158106903Y-93829102D01*
X157905283Y-93963820D01*
X157733820Y-94135283D01*
X157599102Y-94336903D01*
X157506307Y-94560931D01*
X157459000Y-94798757D01*
X157381000Y-94798757D01*
X157333693Y-94560931D01*
X157240898Y-94336903D01*
X157106180Y-94135283D01*
X156934717Y-93963820D01*
X156733097Y-93829102D01*
X156509069Y-93736307D01*
X156271243Y-93689000D01*
X156028757Y-93689000D01*
X155790931Y-93736307D01*
X155566903Y-93829102D01*
X155481000Y-93886500D01*
X155481000Y-93413500D01*
X155566903Y-93470898D01*
X155790931Y-93563693D01*
X156028757Y-93611000D01*
X156271243Y-93611000D01*
X156509069Y-93563693D01*
X156733097Y-93470898D01*
X156934717Y-93336180D01*
X157106180Y-93164717D01*
X157240898Y-92963097D01*
X157333693Y-92739069D01*
X157381000Y-92501243D01*
X157381000Y-92258757D01*
X157459000Y-92258757D01*
X157459000Y-92501243D01*
X157506307Y-92739069D01*
X157599102Y-92963097D01*
X157733820Y-93164717D01*
X157905283Y-93336180D01*
X158106903Y-93470898D01*
X158330931Y-93563693D01*
X158568757Y-93611000D01*
X158811243Y-93611000D01*
X159049069Y-93563693D01*
X159273097Y-93470898D01*
X159474717Y-93336180D01*
X159646180Y-93164717D01*
X159780898Y-92963097D01*
X159873693Y-92739069D01*
X159921000Y-92501243D01*
X159921000Y-92258757D01*
X159873693Y-92020931D01*
X159780898Y-91796903D01*
X159646180Y-91595283D01*
X159474717Y-91423820D01*
X159273097Y-91289102D01*
X159049069Y-91196307D01*
X158811243Y-91149000D01*
X158568757Y-91149000D01*
X158330931Y-91196307D01*
X158106903Y-91289102D01*
X157905283Y-91423820D01*
X157733820Y-91595283D01*
X157599102Y-91796903D01*
X157506307Y-92020931D01*
X157459000Y-92258757D01*
X157381000Y-92258757D01*
X157333693Y-92020931D01*
X157240898Y-91796903D01*
X157106180Y-91595283D01*
X156934717Y-91423820D01*
X156733097Y-91289102D01*
X156509069Y-91196307D01*
X156271243Y-91149000D01*
X156028757Y-91149000D01*
X155790931Y-91196307D01*
X155566903Y-91289102D01*
X155365283Y-91423820D01*
X155193820Y-91595283D01*
X155059102Y-91796903D01*
X155012237Y-91910046D01*
X154999770Y-91913828D01*
X154999770Y-90321000D01*
X155016812Y-90321000D01*
X155059102Y-90423097D01*
X155193820Y-90624717D01*
X155365283Y-90796180D01*
X155566903Y-90930898D01*
X155790931Y-91023693D01*
X156028757Y-91071000D01*
X156271243Y-91071000D01*
X156509069Y-91023693D01*
X156733097Y-90930898D01*
X156934717Y-90796180D01*
X157106180Y-90624717D01*
X157240898Y-90423097D01*
X157333693Y-90199069D01*
X157381000Y-89961243D01*
X157381000Y-89718757D01*
X157459000Y-89718757D01*
X157459000Y-89961243D01*
X157506307Y-90199069D01*
X157599102Y-90423097D01*
X157733820Y-90624717D01*
X157905283Y-90796180D01*
X158106903Y-90930898D01*
X158330931Y-91023693D01*
X158568757Y-91071000D01*
X158811243Y-91071000D01*
X159049069Y-91023693D01*
X159273097Y-90930898D01*
X159474717Y-90796180D01*
X159646180Y-90624717D01*
X159780898Y-90423097D01*
X159873693Y-90199069D01*
X159921000Y-89961243D01*
X159921000Y-89718757D01*
X159873693Y-89480931D01*
X159780898Y-89256903D01*
X159646180Y-89055283D01*
X159474717Y-88883820D01*
X159273097Y-88749102D01*
X159049069Y-88656307D01*
X158811243Y-88609000D01*
X158568757Y-88609000D01*
X158330931Y-88656307D01*
X158106903Y-88749102D01*
X157905283Y-88883820D01*
X157733820Y-89055283D01*
X157599102Y-89256903D01*
X157506307Y-89480931D01*
X157459000Y-89718757D01*
X157381000Y-89718757D01*
X157333693Y-89480931D01*
X157240898Y-89256903D01*
X157106180Y-89055283D01*
X156934717Y-88883820D01*
X156733097Y-88749102D01*
X156509069Y-88656307D01*
X156271243Y-88609000D01*
X156028757Y-88609000D01*
X155790931Y-88656307D01*
X155566903Y-88749102D01*
X155365283Y-88883820D01*
X155193820Y-89055283D01*
X155059102Y-89256903D01*
X155016812Y-89359000D01*
X154683623Y-89359000D01*
X154659999Y-89356673D01*
X154636375Y-89359000D01*
X154636374Y-89359000D01*
X154565708Y-89365960D01*
X154481000Y-89391656D01*
X154481000Y-87731000D01*
X154996102Y-87731000D01*
X155059102Y-87883097D01*
X155193820Y-88084717D01*
X155365283Y-88256180D01*
X155566903Y-88390898D01*
X155790931Y-88483693D01*
X156028757Y-88531000D01*
X156271243Y-88531000D01*
X156509069Y-88483693D01*
X156733097Y-88390898D01*
X156934717Y-88256180D01*
X157106180Y-88084717D01*
X157240898Y-87883097D01*
X157333693Y-87659069D01*
X157381000Y-87421243D01*
X157381000Y-87178757D01*
X157333693Y-86940931D01*
X157240898Y-86716903D01*
X157106180Y-86515283D01*
X157071897Y-86481000D01*
X157190764Y-86481000D01*
X157548597Y-86838833D01*
X157506307Y-86940931D01*
X157459000Y-87178757D01*
X157459000Y-87421243D01*
X157506307Y-87659069D01*
X157599102Y-87883097D01*
X157733820Y-88084717D01*
X157905283Y-88256180D01*
X158106903Y-88390898D01*
X158330931Y-88483693D01*
X158568757Y-88531000D01*
X158811243Y-88531000D01*
X159049069Y-88483693D01*
X159273097Y-88390898D01*
X159474717Y-88256180D01*
X159646180Y-88084717D01*
X159780898Y-87883097D01*
X159873693Y-87659069D01*
X159921000Y-87421243D01*
X159921000Y-87178757D01*
X159873693Y-86940931D01*
X159780898Y-86716903D01*
X159646180Y-86515283D01*
X159474717Y-86343820D01*
X159273097Y-86209102D01*
X159049069Y-86116307D01*
X158811243Y-86069000D01*
X158568757Y-86069000D01*
X158330931Y-86116307D01*
X158228833Y-86158597D01*
X157746830Y-85676594D01*
X157731764Y-85658236D01*
X157658522Y-85598128D01*
X157574961Y-85553464D01*
X157484292Y-85525960D01*
X157413626Y-85519000D01*
X157390000Y-85516673D01*
X157366374Y-85519000D01*
X157123364Y-85519000D01*
X157240898Y-85343097D01*
X157333693Y-85119069D01*
X157381000Y-84881243D01*
X157381000Y-84638757D01*
X157333693Y-84400931D01*
X157240898Y-84176903D01*
X157106180Y-83975283D01*
X156934717Y-83803820D01*
X156789706Y-83706927D01*
X157000000Y-83708072D01*
X157124482Y-83695812D01*
X157244180Y-83659502D01*
X157354494Y-83600537D01*
X157451185Y-83521185D01*
X157530537Y-83424494D01*
X157589502Y-83314180D01*
X157612498Y-83238374D01*
X157808645Y-83415178D01*
X158058748Y-83564157D01*
X158221168Y-83621772D01*
X158106903Y-83669102D01*
X157905283Y-83803820D01*
X157733820Y-83975283D01*
X157599102Y-84176903D01*
X157506307Y-84400931D01*
X157459000Y-84638757D01*
X157459000Y-84881243D01*
X157506307Y-85119069D01*
X157599102Y-85343097D01*
X157733820Y-85544717D01*
X157905283Y-85716180D01*
X158106903Y-85850898D01*
X158330931Y-85943693D01*
X158568757Y-85991000D01*
X158811243Y-85991000D01*
X159049069Y-85943693D01*
X159273097Y-85850898D01*
X159474717Y-85716180D01*
X159646180Y-85544717D01*
X159780898Y-85343097D01*
X159873693Y-85119069D01*
X159921000Y-84881243D01*
X159921000Y-84638757D01*
X159873693Y-84400931D01*
X159780898Y-84176903D01*
X159646180Y-83975283D01*
X159474717Y-83803820D01*
X159273097Y-83669102D01*
X159158832Y-83621772D01*
X159321252Y-83564157D01*
X159571355Y-83415178D01*
X159787588Y-83220269D01*
X159961641Y-82986920D01*
X160086825Y-82724099D01*
X160131476Y-82576890D01*
X160010155Y-82347000D01*
X158817000Y-82347000D01*
X158817000Y-82367000D01*
X158563000Y-82367000D01*
X158563000Y-82347000D01*
X156277000Y-82347000D01*
X156277000Y-82367000D01*
X156023000Y-82367000D01*
X156023000Y-82347000D01*
X154823750Y-82347000D01*
X154665000Y-82505750D01*
X154661928Y-83070000D01*
X154674188Y-83194482D01*
X154710498Y-83314180D01*
X154769463Y-83424494D01*
X154848815Y-83521185D01*
X154945506Y-83600537D01*
X155055820Y-83659502D01*
X155175518Y-83695812D01*
X155300000Y-83708072D01*
X155510294Y-83706927D01*
X155365283Y-83803820D01*
X155193820Y-83975283D01*
X155059102Y-84176903D01*
X154966307Y-84400931D01*
X154919000Y-84638757D01*
X154919000Y-84881243D01*
X154966307Y-85119069D01*
X155059102Y-85343097D01*
X155176636Y-85519000D01*
X154561165Y-85519000D01*
X154537539Y-85516673D01*
X154443246Y-85525960D01*
X154352577Y-85553464D01*
X154307913Y-85577338D01*
X154269017Y-85598128D01*
X154195775Y-85658236D01*
X154180709Y-85676594D01*
X150676589Y-89180714D01*
X150658237Y-89195775D01*
X150643176Y-89214127D01*
X150598129Y-89269017D01*
X150553465Y-89352578D01*
X150525960Y-89443247D01*
X150516673Y-89537539D01*
X150519001Y-89561175D01*
X150519000Y-96629750D01*
X150500000Y-96648750D01*
X150341250Y-96490000D01*
X150236565Y-96502126D01*
X150117709Y-96541102D01*
X150008740Y-96602516D01*
X149913846Y-96684010D01*
X149862468Y-96749547D01*
X149850618Y-96750714D01*
X149767075Y-96776057D01*
X149750000Y-96785184D01*
X149732925Y-96776057D01*
X149649382Y-96750714D01*
X149562500Y-96742157D01*
X149437500Y-96742157D01*
X149350618Y-96750714D01*
X149267075Y-96776057D01*
X149190081Y-96817211D01*
X149122595Y-96872595D01*
X149067211Y-96940081D01*
X149026057Y-97017075D01*
X149000714Y-97100618D01*
X148992157Y-97187500D01*
X148992157Y-97742157D01*
X148437500Y-97742157D01*
X148350618Y-97750714D01*
X148267075Y-97776057D01*
X148190081Y-97817211D01*
X148122595Y-97872595D01*
X148067211Y-97940081D01*
X148026057Y-98017075D01*
X148000714Y-98100618D01*
X147992157Y-98187500D01*
X147992157Y-98269000D01*
X147523626Y-98269000D01*
X147500000Y-98266673D01*
X147405707Y-98275960D01*
X147315038Y-98303464D01*
X147289320Y-98317211D01*
X147231478Y-98348128D01*
X147158236Y-98408236D01*
X147143170Y-98426594D01*
X146300764Y-99269000D01*
X145891425Y-99269000D01*
X145875685Y-99231000D01*
X145976374Y-99231000D01*
X146000000Y-99233327D01*
X146023626Y-99231000D01*
X146094292Y-99224040D01*
X146184961Y-99196536D01*
X146268522Y-99151872D01*
X146341764Y-99091764D01*
X146356830Y-99073406D01*
X148323412Y-97106825D01*
X148341764Y-97091764D01*
X148401872Y-97018522D01*
X148446536Y-96934961D01*
X148474040Y-96844292D01*
X148475576Y-96828697D01*
X148483327Y-96750001D01*
X148481000Y-96726374D01*
X148481000Y-96568647D01*
X148498044Y-96563477D01*
X148598810Y-96509616D01*
X148687132Y-96437132D01*
X148759616Y-96348810D01*
X148813477Y-96248044D01*
X148846644Y-96138707D01*
X148857843Y-96025000D01*
X148857843Y-95625000D01*
X148846644Y-95511293D01*
X148813477Y-95401956D01*
X148759616Y-95301190D01*
X148687132Y-95212868D01*
X148598810Y-95140384D01*
X148498044Y-95086523D01*
X148388707Y-95053356D01*
X148275000Y-95042157D01*
X147725000Y-95042157D01*
X147611293Y-95053356D01*
X147501956Y-95086523D01*
X147401190Y-95140384D01*
X147312868Y-95212868D01*
X147240384Y-95301190D01*
X147186523Y-95401956D01*
X147153356Y-95511293D01*
X147142157Y-95625000D01*
X147142157Y-96025000D01*
X147153356Y-96138707D01*
X147186523Y-96248044D01*
X147240384Y-96348810D01*
X147312868Y-96437132D01*
X147401190Y-96509616D01*
X147501956Y-96563477D01*
X147505278Y-96564485D01*
X146723417Y-97346346D01*
X146724040Y-97344293D01*
X146733327Y-97250001D01*
X146731000Y-97226374D01*
X146731000Y-96568647D01*
X146748044Y-96563477D01*
X146848810Y-96509616D01*
X146937132Y-96437132D01*
X147009616Y-96348810D01*
X147063477Y-96248044D01*
X147096644Y-96138707D01*
X147107843Y-96025000D01*
X147107843Y-95625000D01*
X147096644Y-95511293D01*
X147063477Y-95401956D01*
X147009616Y-95301190D01*
X146937132Y-95212868D01*
X146848810Y-95140384D01*
X146748044Y-95086523D01*
X146638707Y-95053356D01*
X146525000Y-95042157D01*
X146008001Y-95042157D01*
X146008001Y-94957843D01*
X146525000Y-94957843D01*
X146638707Y-94946644D01*
X146748044Y-94913477D01*
X146848810Y-94859616D01*
X146937132Y-94787132D01*
X147009616Y-94698810D01*
X147063477Y-94598044D01*
X147096644Y-94488707D01*
X147107843Y-94375000D01*
X147107843Y-93975000D01*
X147142157Y-93975000D01*
X147142157Y-94375000D01*
X147153356Y-94488707D01*
X147186523Y-94598044D01*
X147240384Y-94698810D01*
X147312868Y-94787132D01*
X147401190Y-94859616D01*
X147501956Y-94913477D01*
X147611293Y-94946644D01*
X147725000Y-94957843D01*
X148275000Y-94957843D01*
X148388707Y-94946644D01*
X148498044Y-94913477D01*
X148598810Y-94859616D01*
X148687132Y-94787132D01*
X148759616Y-94698810D01*
X148813477Y-94598044D01*
X148846644Y-94488707D01*
X148857843Y-94375000D01*
X148857843Y-93975000D01*
X148846644Y-93861293D01*
X148813477Y-93751956D01*
X148759616Y-93651190D01*
X148687132Y-93562868D01*
X148627713Y-93514104D01*
X148654829Y-93448640D01*
X148681000Y-93317073D01*
X148681000Y-93182927D01*
X148654829Y-93051360D01*
X148603494Y-92927426D01*
X148528967Y-92815888D01*
X148434112Y-92721033D01*
X148322574Y-92646506D01*
X148198640Y-92595171D01*
X148067073Y-92569000D01*
X147932927Y-92569000D01*
X147801360Y-92595171D01*
X147677426Y-92646506D01*
X147565888Y-92721033D01*
X147471033Y-92815888D01*
X147396506Y-92927426D01*
X147345171Y-93051360D01*
X147319000Y-93182927D01*
X147319000Y-93317073D01*
X147345171Y-93448640D01*
X147372287Y-93514104D01*
X147312868Y-93562868D01*
X147240384Y-93651190D01*
X147186523Y-93751956D01*
X147153356Y-93861293D01*
X147142157Y-93975000D01*
X147107843Y-93975000D01*
X147096644Y-93861293D01*
X147063477Y-93751956D01*
X147009616Y-93651190D01*
X146937132Y-93562868D01*
X146877713Y-93514104D01*
X146904829Y-93448640D01*
X146931000Y-93317073D01*
X146931000Y-93182927D01*
X146904829Y-93051360D01*
X146853494Y-92927426D01*
X146778967Y-92815888D01*
X146684112Y-92721033D01*
X146572574Y-92646506D01*
X146448640Y-92595171D01*
X146317073Y-92569000D01*
X146182927Y-92569000D01*
X146051360Y-92595171D01*
X146008001Y-92613131D01*
X146008001Y-92050627D01*
X146010328Y-92027001D01*
X146001041Y-91932708D01*
X145973537Y-91842039D01*
X145938486Y-91776464D01*
X145928873Y-91758479D01*
X145868765Y-91685237D01*
X145850402Y-91670167D01*
X145606830Y-91426595D01*
X145591764Y-91408236D01*
X145518522Y-91348128D01*
X145434961Y-91303464D01*
X145344292Y-91275960D01*
X145273626Y-91269000D01*
X145250000Y-91266673D01*
X145226374Y-91269000D01*
X145068647Y-91269000D01*
X145063477Y-91251956D01*
X145009616Y-91151190D01*
X144937132Y-91062868D01*
X144848810Y-90990384D01*
X144748044Y-90936523D01*
X144638707Y-90903356D01*
X144525000Y-90892157D01*
X144125000Y-90892157D01*
X144011293Y-90903356D01*
X143901956Y-90936523D01*
X143801190Y-90990384D01*
X143712868Y-91062868D01*
X143640384Y-91151190D01*
X143586523Y-91251956D01*
X143553356Y-91361293D01*
X143542157Y-91475000D01*
X143542157Y-92025000D01*
X143553356Y-92138707D01*
X143586523Y-92248044D01*
X143640384Y-92348810D01*
X143712868Y-92437132D01*
X143801190Y-92509616D01*
X143901956Y-92563477D01*
X144011293Y-92596644D01*
X144125000Y-92607843D01*
X144525000Y-92607843D01*
X144638707Y-92596644D01*
X144748044Y-92563477D01*
X144848810Y-92509616D01*
X144937132Y-92437132D01*
X145009616Y-92348810D01*
X145046002Y-92280737D01*
X145046002Y-92983508D01*
X145006456Y-92909523D01*
X144931640Y-92818360D01*
X144840477Y-92743544D01*
X144736470Y-92687951D01*
X144623615Y-92653716D01*
X144506250Y-92642157D01*
X144068750Y-92642157D01*
X143951385Y-92653716D01*
X143838530Y-92687951D01*
X143734523Y-92743544D01*
X143643360Y-92818360D01*
X143568544Y-92909523D01*
X143512951Y-93013530D01*
X143500000Y-93056223D01*
X143487049Y-93013530D01*
X143431456Y-92909523D01*
X143356640Y-92818360D01*
X143265477Y-92743544D01*
X143193500Y-92705071D01*
X143193500Y-92512454D01*
X143198810Y-92509616D01*
X143287132Y-92437132D01*
X143359616Y-92348810D01*
X143413477Y-92248044D01*
X143446644Y-92138707D01*
X143457843Y-92025000D01*
X143457843Y-91475000D01*
X143446644Y-91361293D01*
X143413477Y-91251956D01*
X143359616Y-91151190D01*
X143287132Y-91062868D01*
X143198810Y-90990384D01*
X143098044Y-90936523D01*
X142988707Y-90903356D01*
X142875000Y-90892157D01*
X142475000Y-90892157D01*
X142361293Y-90903356D01*
X142251956Y-90936523D01*
X142151190Y-90990384D01*
X142062868Y-91062868D01*
X141990384Y-91151190D01*
X141936523Y-91251956D01*
X141903356Y-91361293D01*
X141892157Y-91475000D01*
X141892157Y-92025000D01*
X141903356Y-92138707D01*
X141936523Y-92248044D01*
X141990384Y-92348810D01*
X142062868Y-92437132D01*
X142151190Y-92509616D01*
X142231501Y-92552543D01*
X142231500Y-92705071D01*
X142159523Y-92743544D01*
X142068360Y-92818360D01*
X141993544Y-92909523D01*
X141937951Y-93013530D01*
X141903716Y-93126385D01*
X141892157Y-93243750D01*
X141892157Y-93756250D01*
X141903716Y-93873615D01*
X141937951Y-93986470D01*
X141993544Y-94090477D01*
X142068360Y-94181640D01*
X142159523Y-94256456D01*
X142263530Y-94312049D01*
X142376385Y-94346284D01*
X142493750Y-94357843D01*
X142931250Y-94357843D01*
X143048615Y-94346284D01*
X143161470Y-94312049D01*
X143265477Y-94256456D01*
X143356640Y-94181640D01*
X143431456Y-94090477D01*
X143487049Y-93986470D01*
X143500000Y-93943777D01*
X143512951Y-93986470D01*
X143568544Y-94090477D01*
X143643360Y-94181640D01*
X143660799Y-94195952D01*
X143632671Y-94263860D01*
X143606500Y-94395427D01*
X143606500Y-94529573D01*
X143632671Y-94661140D01*
X143684006Y-94785074D01*
X143693311Y-94799000D01*
X143011727Y-94799000D01*
X142882294Y-94811748D01*
X142716225Y-94862125D01*
X142563175Y-94943932D01*
X142496074Y-94999000D01*
X140283926Y-94999000D01*
X140216825Y-94943932D01*
X140063775Y-94862125D01*
X139897706Y-94811748D01*
X139768273Y-94799000D01*
X139081727Y-94799000D01*
X138952294Y-94811748D01*
X138786225Y-94862125D01*
X138633175Y-94943932D01*
X138499025Y-95054025D01*
X138388932Y-95188175D01*
X138307125Y-95341225D01*
X138256748Y-95507294D01*
X138239738Y-95680000D01*
X137914810Y-95680000D01*
X137952550Y-95295096D01*
X138084664Y-94857511D01*
X138299252Y-94453931D01*
X138600928Y-94084039D01*
X139048166Y-93629773D01*
X139043000Y-93655744D01*
X139043000Y-93844256D01*
X139079777Y-94029147D01*
X139151917Y-94203310D01*
X139256649Y-94360052D01*
X139389948Y-94493351D01*
X139546690Y-94598083D01*
X139720853Y-94670223D01*
X139905744Y-94707000D01*
X140094256Y-94707000D01*
X140279147Y-94670223D01*
X140453310Y-94598083D01*
X140610052Y-94493351D01*
X140743351Y-94360052D01*
X140848083Y-94203310D01*
X140920223Y-94029147D01*
X140957000Y-93844256D01*
X140957000Y-93655744D01*
X140920223Y-93470853D01*
X140848083Y-93296690D01*
X140743351Y-93139948D01*
X140610052Y-93006649D01*
X140453310Y-92901917D01*
X140279147Y-92829777D01*
X140094256Y-92793000D01*
X139905744Y-92793000D01*
X139863774Y-92801348D01*
X149116263Y-83403458D01*
X150088708Y-82567173D01*
X151148243Y-81858013D01*
X152110382Y-81370000D01*
X154661928Y-81370000D01*
X154665000Y-81934250D01*
X154823750Y-82093000D01*
X156023000Y-82093000D01*
X156023000Y-80893750D01*
X156277000Y-80893750D01*
X156277000Y-82093000D01*
X158563000Y-82093000D01*
X158563000Y-80899186D01*
X158817000Y-80899186D01*
X158817000Y-82093000D01*
X160010155Y-82093000D01*
X160131476Y-81863110D01*
X160086825Y-81715901D01*
X159961641Y-81453080D01*
X159787588Y-81219731D01*
X159571355Y-81024822D01*
X159321252Y-80875843D01*
X159046891Y-80778519D01*
X158817000Y-80899186D01*
X158563000Y-80899186D01*
X158333109Y-80778519D01*
X158058748Y-80875843D01*
X157808645Y-81024822D01*
X157612498Y-81201626D01*
X157589502Y-81125820D01*
X157530537Y-81015506D01*
X157451185Y-80918815D01*
X157354494Y-80839463D01*
X157244180Y-80780498D01*
X157124482Y-80744188D01*
X157000000Y-80731928D01*
X156435750Y-80735000D01*
X156277000Y-80893750D01*
X156023000Y-80893750D01*
X155864250Y-80735000D01*
X155300000Y-80731928D01*
X155175518Y-80744188D01*
X155055820Y-80780498D01*
X154945506Y-80839463D01*
X154848815Y-80918815D01*
X154769463Y-81015506D01*
X154710498Y-81125820D01*
X154674188Y-81245518D01*
X154661928Y-81370000D01*
X152110382Y-81370000D01*
X152285286Y-81281286D01*
X153483399Y-80845329D01*
X154725190Y-80556472D01*
X156000026Y-80418096D01*
X156504882Y-80406000D01*
X160790579Y-80406000D01*
X160639948Y-80506649D01*
G37*
%TD.AperFunction*%
D20*
X153814500Y-102351250D02*
X153973250Y-102510000D01*
X154110742Y-102512913D01*
X154167120Y-102508630D01*
X154140000Y-102535750D01*
X154136928Y-102725000D01*
X154143415Y-102790861D01*
X154094292Y-102775960D01*
X154081387Y-102774689D01*
X154000000Y-102766673D01*
X153976374Y-102769000D01*
X153760969Y-102769000D01*
X153760000Y-102723250D01*
X153601250Y-102564500D01*
X153007843Y-102564500D01*
X153007843Y-102464137D01*
X153019054Y-102469811D01*
X153139533Y-102503437D01*
X153264258Y-102512913D01*
X153401750Y-102510000D01*
X153560500Y-102351250D01*
X153560500Y-102310500D01*
X153601250Y-102310500D01*
X153760000Y-102151750D01*
X153762913Y-102014258D01*
X153753437Y-101889533D01*
X153719811Y-101769054D01*
X153714137Y-101757843D01*
X153814500Y-101757843D01*
X153814500Y-102351250D01*
%TA.AperFunction,Conductor*%
D21*
G36*
X153814500Y-102351250D02*
G01*
X153973250Y-102510000D01*
X154110742Y-102512913D01*
X154167120Y-102508630D01*
X154140000Y-102535750D01*
X154136928Y-102725000D01*
X154143415Y-102790861D01*
X154094292Y-102775960D01*
X154081387Y-102774689D01*
X154000000Y-102766673D01*
X153976374Y-102769000D01*
X153760969Y-102769000D01*
X153760000Y-102723250D01*
X153601250Y-102564500D01*
X153007843Y-102564500D01*
X153007843Y-102464137D01*
X153019054Y-102469811D01*
X153139533Y-102503437D01*
X153264258Y-102512913D01*
X153401750Y-102510000D01*
X153560500Y-102351250D01*
X153560500Y-102310500D01*
X153601250Y-102310500D01*
X153760000Y-102151750D01*
X153762913Y-102014258D01*
X153753437Y-101889533D01*
X153719811Y-101769054D01*
X153714137Y-101757843D01*
X153814500Y-101757843D01*
X153814500Y-102351250D01*
G37*
%TD.AperFunction*%
D20*
X155352000Y-102123000D02*
X155372000Y-102123000D01*
X155372000Y-102377000D01*
X155352000Y-102377000D01*
X155352000Y-102397000D01*
X155098000Y-102397000D01*
X155098000Y-102377000D01*
X155078000Y-102377000D01*
X155078000Y-102123000D01*
X155098000Y-102123000D01*
X155098000Y-102103000D01*
X155352000Y-102103000D01*
X155352000Y-102123000D01*
%TA.AperFunction,Conductor*%
D21*
G36*
X155352000Y-102123000D02*
G01*
X155372000Y-102123000D01*
X155372000Y-102377000D01*
X155352000Y-102377000D01*
X155352000Y-102397000D01*
X155098000Y-102397000D01*
X155098000Y-102377000D01*
X155078000Y-102377000D01*
X155078000Y-102123000D01*
X155098000Y-102123000D01*
X155098000Y-102103000D01*
X155352000Y-102103000D01*
X155352000Y-102123000D01*
G37*
%TD.AperFunction*%
D20*
X146627000Y-101098000D02*
X146647000Y-101098000D01*
X146647000Y-101352000D01*
X146627000Y-101352000D01*
X146627000Y-101372000D01*
X146373000Y-101372000D01*
X146373000Y-101352000D01*
X146353000Y-101352000D01*
X146353000Y-101098000D01*
X146373000Y-101098000D01*
X146373000Y-101078000D01*
X146627000Y-101078000D01*
X146627000Y-101098000D01*
%TA.AperFunction,Conductor*%
D21*
G36*
X146627000Y-101098000D02*
G01*
X146647000Y-101098000D01*
X146647000Y-101352000D01*
X146627000Y-101352000D01*
X146627000Y-101372000D01*
X146373000Y-101372000D01*
X146373000Y-101352000D01*
X146353000Y-101352000D01*
X146353000Y-101098000D01*
X146373000Y-101098000D01*
X146373000Y-101078000D01*
X146627000Y-101078000D01*
X146627000Y-101098000D01*
G37*
%TD.AperFunction*%
D20*
X147750570Y-100000000D02*
X147740000Y-100091250D01*
X147804095Y-100155345D01*
X147852516Y-100241260D01*
X147876339Y-100269000D01*
X147773623Y-100269000D01*
X147749999Y-100266673D01*
X147726375Y-100269000D01*
X147726374Y-100269000D01*
X147655708Y-100275960D01*
X147565039Y-100303464D01*
X147481478Y-100348128D01*
X147460361Y-100365458D01*
X147426185Y-100323815D01*
X147387867Y-100292369D01*
X147743269Y-99936967D01*
X147750570Y-100000000D01*
%TA.AperFunction,Conductor*%
D21*
G36*
X147750570Y-100000000D02*
G01*
X147740000Y-100091250D01*
X147804095Y-100155345D01*
X147852516Y-100241260D01*
X147876339Y-100269000D01*
X147773623Y-100269000D01*
X147749999Y-100266673D01*
X147726375Y-100269000D01*
X147726374Y-100269000D01*
X147655708Y-100275960D01*
X147565039Y-100303464D01*
X147481478Y-100348128D01*
X147460361Y-100365458D01*
X147426185Y-100323815D01*
X147387867Y-100292369D01*
X147743269Y-99936967D01*
X147750570Y-100000000D01*
G37*
%TD.AperFunction*%
D20*
X153565888Y-97028967D02*
X153677426Y-97103494D01*
X153801360Y-97154829D01*
X153932927Y-97181000D01*
X153941991Y-97181000D01*
X153941991Y-97521259D01*
X153814500Y-97648750D01*
X153814500Y-98242157D01*
X153560500Y-98242157D01*
X153560500Y-97648750D01*
X153507843Y-97596093D01*
X153507843Y-97187500D01*
X153499286Y-97100618D01*
X153481000Y-97040338D01*
X153481000Y-96944079D01*
X153565888Y-97028967D01*
%TA.AperFunction,Conductor*%
D21*
G36*
X153565888Y-97028967D02*
G01*
X153677426Y-97103494D01*
X153801360Y-97154829D01*
X153932927Y-97181000D01*
X153941991Y-97181000D01*
X153941991Y-97521259D01*
X153814500Y-97648750D01*
X153814500Y-98242157D01*
X153560500Y-98242157D01*
X153560500Y-97648750D01*
X153507843Y-97596093D01*
X153507843Y-97187500D01*
X153499286Y-97100618D01*
X153481000Y-97040338D01*
X153481000Y-96944079D01*
X153565888Y-97028967D01*
G37*
%TD.AperFunction*%
D20*
X153519000Y-90569000D02*
X153405927Y-90569000D01*
X153274360Y-90595171D01*
X153150426Y-90646506D01*
X153038888Y-90721033D01*
X152944033Y-90815888D01*
X152869506Y-90927426D01*
X152818171Y-91051360D01*
X152792000Y-91182927D01*
X152792000Y-91250763D01*
X152176589Y-91866175D01*
X152158237Y-91881236D01*
X152143176Y-91899588D01*
X152098129Y-91954478D01*
X152053465Y-92038039D01*
X152025960Y-92128708D01*
X152016673Y-92223000D01*
X152019001Y-92246636D01*
X152019000Y-96629750D01*
X152000000Y-96648750D01*
X151841250Y-96490000D01*
X151736565Y-96502126D01*
X151617709Y-96541102D01*
X151508740Y-96602516D01*
X151481000Y-96626339D01*
X151481000Y-89736775D01*
X153519000Y-87698775D01*
X153519000Y-90569000D01*
%TA.AperFunction,Conductor*%
D21*
G36*
X153519000Y-90569000D02*
G01*
X153405927Y-90569000D01*
X153274360Y-90595171D01*
X153150426Y-90646506D01*
X153038888Y-90721033D01*
X152944033Y-90815888D01*
X152869506Y-90927426D01*
X152818171Y-91051360D01*
X152792000Y-91182927D01*
X152792000Y-91250763D01*
X152176589Y-91866175D01*
X152158237Y-91881236D01*
X152143176Y-91899588D01*
X152098129Y-91954478D01*
X152053465Y-92038039D01*
X152025960Y-92128708D01*
X152016673Y-92223000D01*
X152019001Y-92246636D01*
X152019000Y-96629750D01*
X152000000Y-96648750D01*
X151841250Y-96490000D01*
X151736565Y-96502126D01*
X151617709Y-96541102D01*
X151508740Y-96602516D01*
X151481000Y-96626339D01*
X151481000Y-89736775D01*
X153519000Y-87698775D01*
X153519000Y-90569000D01*
G37*
%TD.AperFunction*%
%TD*%
M02*
