%TF.GenerationSoftware,KiCad,Pcbnew,(5.1.9-0-10_14)*%
%TF.CreationDate,2021-02-28T11:16:04+01:00*%
%TF.ProjectId,PmodUsbUlpi,506d6f64-5573-4625-956c-70692e6b6963,1*%
%TF.SameCoordinates,Original*%
%TF.FileFunction,Copper,L2,Bot*%
%TF.FilePolarity,Positive*%
%FSLAX46Y46*%
G04 Gerber Fmt 4.6, Leading zero omitted, Abs format (unit mm)*
G04 Created by KiCad (PCBNEW (5.1.9-0-10_14)) date 2021-02-28 11:16:04*
%MOMM*%
%LPD*%
G01*
G04 APERTURE LIST*
%TA.AperFunction,ComponentPad*%
%ADD10O,1.700000X1.700000*%
%TD*%
%TA.AperFunction,ComponentPad*%
%ADD11R,1.700000X1.700000*%
%TD*%
%TA.AperFunction,ComponentPad*%
%ADD12O,1.600000X1.000000*%
%TD*%
%TA.AperFunction,ComponentPad*%
%ADD13O,2.100000X1.000000*%
%TD*%
%TA.AperFunction,ViaPad*%
%ADD14C,0.600000*%
%TD*%
%TA.AperFunction,Conductor*%
%ADD15C,0.200000*%
%TD*%
%TA.AperFunction,Conductor*%
%ADD16C,0.600000*%
%TD*%
%TA.AperFunction,Conductor*%
%ADD17C,0.127000*%
%TD*%
%TA.AperFunction,Conductor*%
%ADD18C,0.100000*%
%TD*%
G04 APERTURE END LIST*
D10*
%TO.P,J3,12*%
%TO.N,/DATA4*%
X158690000Y-94920000D03*
%TO.P,J3,11*%
%TO.N,/DATA0*%
X156150000Y-94920000D03*
%TO.P,J3,10*%
%TO.N,/DATA5*%
X158690000Y-92380000D03*
%TO.P,J3,9*%
%TO.N,/DATA1*%
X156150000Y-92380000D03*
%TO.P,J3,8*%
%TO.N,/DATA6*%
X158690000Y-89840000D03*
%TO.P,J3,7*%
%TO.N,/DATA2*%
X156150000Y-89840000D03*
%TO.P,J3,6*%
%TO.N,/DATA7*%
X158690000Y-87300000D03*
%TO.P,J3,5*%
%TO.N,/DATA3*%
X156150000Y-87300000D03*
%TO.P,J3,4*%
%TO.N,GND*%
X158690000Y-84760000D03*
%TO.P,J3,3*%
X156150000Y-84760000D03*
%TO.P,J3,2*%
%TO.N,+3V3*%
X158690000Y-82220000D03*
D11*
%TO.P,J3,1*%
X156150000Y-82220000D03*
%TD*%
D10*
%TO.P,J2,12*%
%TO.N,/RESET*%
X158690000Y-117780000D03*
%TO.P,J2,11*%
%TO.N,/CLK*%
X156150000Y-117780000D03*
%TO.P,J2,10*%
%TO.N,Net-(J2-Pad10)*%
X158690000Y-115240000D03*
%TO.P,J2,9*%
%TO.N,/STP*%
X156150000Y-115240000D03*
%TO.P,J2,8*%
%TO.N,Net-(J2-Pad8)*%
X158690000Y-112700000D03*
%TO.P,J2,7*%
%TO.N,/DIR*%
X156150000Y-112700000D03*
%TO.P,J2,6*%
%TO.N,Net-(J2-Pad6)*%
X158690000Y-110160000D03*
%TO.P,J2,5*%
%TO.N,/NXT*%
X156150000Y-110160000D03*
%TO.P,J2,4*%
%TO.N,GND*%
X158690000Y-107620000D03*
%TO.P,J2,3*%
X156150000Y-107620000D03*
%TO.P,J2,2*%
%TO.N,+3V3*%
X158690000Y-105080000D03*
D11*
%TO.P,J2,1*%
X156150000Y-105080000D03*
%TD*%
D12*
%TO.P,J1,S1*%
%TO.N,Net-(J1-PadS1)*%
X139425000Y-104320000D03*
X139425000Y-95680000D03*
D13*
X143605000Y-104320000D03*
X143605000Y-95680000D03*
%TD*%
D14*
%TO.N,GND*%
X150250000Y-101000000D03*
X151250000Y-101000000D03*
X152250000Y-101000000D03*
X152250000Y-100000000D03*
X151250000Y-100000000D03*
X150250000Y-100000000D03*
X152250000Y-99000000D03*
X151250000Y-99000000D03*
X150250000Y-99000000D03*
X142777000Y-106350000D03*
X144174000Y-106350000D03*
X145087000Y-103175000D03*
X145000000Y-96250000D03*
X144287500Y-94462500D03*
X146250000Y-93250000D03*
X148000000Y-93250000D03*
X149750000Y-107000000D03*
X157750000Y-102250000D03*
X153000000Y-107000000D03*
X152250000Y-110750000D03*
X146250000Y-110750000D03*
X149250000Y-109000000D03*
X146375000Y-103625000D03*
%TO.N,/CC2*%
X143000000Y-101500000D03*
X145500000Y-98000000D03*
%TO.N,/D+*%
X145250000Y-99500000D03*
X145250000Y-100777000D03*
%TO.N,+3V3*%
X148027000Y-101277000D03*
X147500000Y-100250000D03*
X151750000Y-96500000D03*
X150250000Y-96500000D03*
X153687500Y-97562500D03*
X147500000Y-98000000D03*
X154500000Y-102250000D03*
X157000000Y-97562500D03*
%TO.N,/CLK*%
X149973000Y-103250000D03*
X155277000Y-106500000D03*
%TO.N,/DATA6*%
X153473000Y-91250000D03*
%TO.N,/DATA5*%
X153250000Y-93750000D03*
%TO.N,/DATA4*%
X154000000Y-96500000D03*
%TO.N,+1V8*%
X151500000Y-105000000D03*
X152262500Y-103737500D03*
X151250000Y-107250000D03*
%TD*%
D15*
%TO.N,/CC2*%
X143000000Y-100500000D02*
X145500000Y-98000000D01*
X143000000Y-101500000D02*
X143000000Y-100500000D01*
D16*
%TO.N,Net-(J1-PadS1)*%
X139425000Y-104320000D02*
X139425000Y-104225000D01*
X139425000Y-104225000D02*
X140475000Y-103175000D01*
X140475000Y-96730000D02*
X139425000Y-95680000D01*
X140475000Y-103175000D02*
X140475000Y-96730000D01*
D15*
%TO.N,/D+*%
X145250000Y-100777000D02*
X145250000Y-99500000D01*
D16*
%TO.N,+3V3*%
X155750000Y-102250000D02*
X156150000Y-102650000D01*
X154500000Y-102250000D02*
X155750000Y-102250000D01*
X156150000Y-105080000D02*
X156150000Y-102650000D01*
X156150000Y-105080000D02*
X158690000Y-105080000D01*
X150250000Y-96500000D02*
X151750000Y-96500000D01*
X151750000Y-96500000D02*
X152812500Y-97562500D01*
X153687500Y-97562500D02*
X152812500Y-97562500D01*
X147500000Y-98000000D02*
X147500000Y-100250000D01*
X147500000Y-100750000D02*
X148027000Y-101277000D01*
X147500000Y-100250000D02*
X147500000Y-100750000D01*
X153687500Y-97562500D02*
X157000000Y-97562500D01*
D15*
%TO.N,/CLK*%
X154750000Y-106500000D02*
X155277000Y-106500000D01*
X154500000Y-106250000D02*
X154750000Y-106500000D01*
X154500000Y-104500000D02*
X154500000Y-106250000D01*
X152950001Y-102950001D02*
X154500000Y-104500000D01*
X150272999Y-102950001D02*
X152950001Y-102950001D01*
X149973000Y-103250000D02*
X150272999Y-102950001D01*
%TO.N,/DATA6*%
X157280000Y-91250000D02*
X158690000Y-89840000D01*
X153473000Y-91250000D02*
X157280000Y-91250000D01*
%TO.N,/DATA5*%
X157320000Y-93750000D02*
X158690000Y-92380000D01*
X153250000Y-93750000D02*
X157320000Y-93750000D01*
%TO.N,/DATA4*%
X157110000Y-96500000D02*
X158690000Y-94920000D01*
X154000000Y-96500000D02*
X157110000Y-96500000D01*
D16*
%TO.N,+1V8*%
X151500000Y-104500000D02*
X152262500Y-103737500D01*
X151500000Y-105000000D02*
X151500000Y-104500000D01*
X151500000Y-107000000D02*
X151250000Y-107250000D01*
X151500000Y-105000000D02*
X151500000Y-107000000D01*
%TD*%
D17*
%TO.N,GND*%
X161627388Y-80356633D02*
X161749926Y-80393629D01*
X161862948Y-80453724D01*
X161962140Y-80534622D01*
X162043731Y-80633249D01*
X162104610Y-80745844D01*
X162142461Y-80868121D01*
X162157501Y-81011210D01*
X162157500Y-118983253D01*
X162143367Y-119127388D01*
X162106371Y-119249926D01*
X162046275Y-119362950D01*
X161965378Y-119462140D01*
X161866754Y-119543729D01*
X161754156Y-119604610D01*
X161631879Y-119642461D01*
X161488799Y-119657500D01*
X156510309Y-119657500D01*
X155219719Y-119579695D01*
X153957975Y-119349259D01*
X152733067Y-118968914D01*
X151562707Y-118444161D01*
X150463875Y-117782610D01*
X150313084Y-117665011D01*
X154982500Y-117665011D01*
X154982500Y-117894989D01*
X155027366Y-118120547D01*
X155115375Y-118333019D01*
X155243144Y-118524238D01*
X155405762Y-118686856D01*
X155596981Y-118814625D01*
X155809453Y-118902634D01*
X156035011Y-118947500D01*
X156264989Y-118947500D01*
X156490547Y-118902634D01*
X156703019Y-118814625D01*
X156894238Y-118686856D01*
X157056856Y-118524238D01*
X157184625Y-118333019D01*
X157272634Y-118120547D01*
X157317500Y-117894989D01*
X157317500Y-117665011D01*
X157522500Y-117665011D01*
X157522500Y-117894989D01*
X157567366Y-118120547D01*
X157655375Y-118333019D01*
X157783144Y-118524238D01*
X157945762Y-118686856D01*
X158136981Y-118814625D01*
X158349453Y-118902634D01*
X158575011Y-118947500D01*
X158804989Y-118947500D01*
X159030547Y-118902634D01*
X159243019Y-118814625D01*
X159434238Y-118686856D01*
X159459096Y-118661998D01*
X160356500Y-118661998D01*
X160356500Y-118838002D01*
X160390837Y-119010624D01*
X160458191Y-119173231D01*
X160555973Y-119319573D01*
X160680427Y-119444027D01*
X160826769Y-119541809D01*
X160989376Y-119609163D01*
X161161998Y-119643500D01*
X161338002Y-119643500D01*
X161510624Y-119609163D01*
X161673231Y-119541809D01*
X161819573Y-119444027D01*
X161944027Y-119319573D01*
X162041809Y-119173231D01*
X162109163Y-119010624D01*
X162143500Y-118838002D01*
X162143500Y-118661998D01*
X162109163Y-118489376D01*
X162041809Y-118326769D01*
X161944027Y-118180427D01*
X161819573Y-118055973D01*
X161673231Y-117958191D01*
X161510624Y-117890837D01*
X161338002Y-117856500D01*
X161161998Y-117856500D01*
X160989376Y-117890837D01*
X160826769Y-117958191D01*
X160680427Y-118055973D01*
X160555973Y-118180427D01*
X160458191Y-118326769D01*
X160390837Y-118489376D01*
X160356500Y-118661998D01*
X159459096Y-118661998D01*
X159596856Y-118524238D01*
X159724625Y-118333019D01*
X159812634Y-118120547D01*
X159857500Y-117894989D01*
X159857500Y-117665011D01*
X159812634Y-117439453D01*
X159724625Y-117226981D01*
X159596856Y-117035762D01*
X159434238Y-116873144D01*
X159243019Y-116745375D01*
X159030547Y-116657366D01*
X158804989Y-116612500D01*
X158575011Y-116612500D01*
X158349453Y-116657366D01*
X158136981Y-116745375D01*
X157945762Y-116873144D01*
X157783144Y-117035762D01*
X157655375Y-117226981D01*
X157567366Y-117439453D01*
X157522500Y-117665011D01*
X157317500Y-117665011D01*
X157272634Y-117439453D01*
X157184625Y-117226981D01*
X157056856Y-117035762D01*
X156894238Y-116873144D01*
X156703019Y-116745375D01*
X156490547Y-116657366D01*
X156264989Y-116612500D01*
X156035011Y-116612500D01*
X155809453Y-116657366D01*
X155596981Y-116745375D01*
X155405762Y-116873144D01*
X155243144Y-117035762D01*
X155115375Y-117226981D01*
X155027366Y-117439453D01*
X154982500Y-117665011D01*
X150313084Y-117665011D01*
X149447518Y-116989973D01*
X149083424Y-116653408D01*
X147580158Y-115125011D01*
X154982500Y-115125011D01*
X154982500Y-115354989D01*
X155027366Y-115580547D01*
X155115375Y-115793019D01*
X155243144Y-115984238D01*
X155405762Y-116146856D01*
X155596981Y-116274625D01*
X155809453Y-116362634D01*
X156035011Y-116407500D01*
X156264989Y-116407500D01*
X156490547Y-116362634D01*
X156703019Y-116274625D01*
X156894238Y-116146856D01*
X157056856Y-115984238D01*
X157184625Y-115793019D01*
X157272634Y-115580547D01*
X157317500Y-115354989D01*
X157317500Y-115125011D01*
X157522500Y-115125011D01*
X157522500Y-115354989D01*
X157567366Y-115580547D01*
X157655375Y-115793019D01*
X157783144Y-115984238D01*
X157945762Y-116146856D01*
X158136981Y-116274625D01*
X158349453Y-116362634D01*
X158575011Y-116407500D01*
X158804989Y-116407500D01*
X159030547Y-116362634D01*
X159243019Y-116274625D01*
X159434238Y-116146856D01*
X159596856Y-115984238D01*
X159724625Y-115793019D01*
X159812634Y-115580547D01*
X159857500Y-115354989D01*
X159857500Y-115125011D01*
X159812634Y-114899453D01*
X159724625Y-114686981D01*
X159596856Y-114495762D01*
X159434238Y-114333144D01*
X159243019Y-114205375D01*
X159030547Y-114117366D01*
X158804989Y-114072500D01*
X158575011Y-114072500D01*
X158349453Y-114117366D01*
X158136981Y-114205375D01*
X157945762Y-114333144D01*
X157783144Y-114495762D01*
X157655375Y-114686981D01*
X157567366Y-114899453D01*
X157522500Y-115125011D01*
X157317500Y-115125011D01*
X157272634Y-114899453D01*
X157184625Y-114686981D01*
X157056856Y-114495762D01*
X156894238Y-114333144D01*
X156703019Y-114205375D01*
X156490547Y-114117366D01*
X156264989Y-114072500D01*
X156035011Y-114072500D01*
X155809453Y-114117366D01*
X155596981Y-114205375D01*
X155405762Y-114333144D01*
X155243144Y-114495762D01*
X155115375Y-114686981D01*
X155027366Y-114899453D01*
X154982500Y-115125011D01*
X147580158Y-115125011D01*
X145081922Y-112585011D01*
X154982500Y-112585011D01*
X154982500Y-112814989D01*
X155027366Y-113040547D01*
X155115375Y-113253019D01*
X155243144Y-113444238D01*
X155405762Y-113606856D01*
X155596981Y-113734625D01*
X155809453Y-113822634D01*
X156035011Y-113867500D01*
X156264989Y-113867500D01*
X156490547Y-113822634D01*
X156703019Y-113734625D01*
X156894238Y-113606856D01*
X157056856Y-113444238D01*
X157184625Y-113253019D01*
X157272634Y-113040547D01*
X157317500Y-112814989D01*
X157317500Y-112585011D01*
X157522500Y-112585011D01*
X157522500Y-112814989D01*
X157567366Y-113040547D01*
X157655375Y-113253019D01*
X157783144Y-113444238D01*
X157945762Y-113606856D01*
X158136981Y-113734625D01*
X158349453Y-113822634D01*
X158575011Y-113867500D01*
X158804989Y-113867500D01*
X159030547Y-113822634D01*
X159243019Y-113734625D01*
X159434238Y-113606856D01*
X159596856Y-113444238D01*
X159724625Y-113253019D01*
X159812634Y-113040547D01*
X159857500Y-112814989D01*
X159857500Y-112585011D01*
X159812634Y-112359453D01*
X159724625Y-112146981D01*
X159596856Y-111955762D01*
X159434238Y-111793144D01*
X159243019Y-111665375D01*
X159030547Y-111577366D01*
X158804989Y-111532500D01*
X158575011Y-111532500D01*
X158349453Y-111577366D01*
X158136981Y-111665375D01*
X157945762Y-111793144D01*
X157783144Y-111955762D01*
X157655375Y-112146981D01*
X157567366Y-112359453D01*
X157522500Y-112585011D01*
X157317500Y-112585011D01*
X157272634Y-112359453D01*
X157184625Y-112146981D01*
X157056856Y-111955762D01*
X156894238Y-111793144D01*
X156703019Y-111665375D01*
X156490547Y-111577366D01*
X156264989Y-111532500D01*
X156035011Y-111532500D01*
X155809453Y-111577366D01*
X155596981Y-111665375D01*
X155405762Y-111793144D01*
X155243144Y-111955762D01*
X155115375Y-112146981D01*
X155027366Y-112359453D01*
X154982500Y-112585011D01*
X145081922Y-112585011D01*
X142583685Y-110045011D01*
X154982500Y-110045011D01*
X154982500Y-110274989D01*
X155027366Y-110500547D01*
X155115375Y-110713019D01*
X155243144Y-110904238D01*
X155405762Y-111066856D01*
X155596981Y-111194625D01*
X155809453Y-111282634D01*
X156035011Y-111327500D01*
X156264989Y-111327500D01*
X156490547Y-111282634D01*
X156703019Y-111194625D01*
X156894238Y-111066856D01*
X157056856Y-110904238D01*
X157184625Y-110713019D01*
X157272634Y-110500547D01*
X157317500Y-110274989D01*
X157317500Y-110045011D01*
X157522500Y-110045011D01*
X157522500Y-110274989D01*
X157567366Y-110500547D01*
X157655375Y-110713019D01*
X157783144Y-110904238D01*
X157945762Y-111066856D01*
X158136981Y-111194625D01*
X158349453Y-111282634D01*
X158575011Y-111327500D01*
X158804989Y-111327500D01*
X159030547Y-111282634D01*
X159243019Y-111194625D01*
X159434238Y-111066856D01*
X159596856Y-110904238D01*
X159724625Y-110713019D01*
X159812634Y-110500547D01*
X159857500Y-110274989D01*
X159857500Y-110045011D01*
X159812634Y-109819453D01*
X159724625Y-109606981D01*
X159596856Y-109415762D01*
X159434238Y-109253144D01*
X159243019Y-109125375D01*
X159030547Y-109037366D01*
X158804989Y-108992500D01*
X158575011Y-108992500D01*
X158349453Y-109037366D01*
X158136981Y-109125375D01*
X157945762Y-109253144D01*
X157783144Y-109415762D01*
X157655375Y-109606981D01*
X157567366Y-109819453D01*
X157522500Y-110045011D01*
X157317500Y-110045011D01*
X157272634Y-109819453D01*
X157184625Y-109606981D01*
X157056856Y-109415762D01*
X156894238Y-109253144D01*
X156703019Y-109125375D01*
X156490547Y-109037366D01*
X156264989Y-108992500D01*
X156035011Y-108992500D01*
X155809453Y-109037366D01*
X155596981Y-109125375D01*
X155405762Y-109253144D01*
X155243144Y-109415762D01*
X155115375Y-109606981D01*
X155027366Y-109819453D01*
X154982500Y-110045011D01*
X142583685Y-110045011D01*
X140560834Y-107988344D01*
X155042129Y-107988344D01*
X155106150Y-108142931D01*
X155228226Y-108336528D01*
X155385725Y-108502589D01*
X155572595Y-108634733D01*
X155781654Y-108727881D01*
X155959500Y-108692488D01*
X155959500Y-107810500D01*
X156340500Y-107810500D01*
X156340500Y-108692488D01*
X156518346Y-108727881D01*
X156727405Y-108634733D01*
X156914275Y-108502589D01*
X157071774Y-108336528D01*
X157193850Y-108142931D01*
X157257871Y-107988344D01*
X157582129Y-107988344D01*
X157646150Y-108142931D01*
X157768226Y-108336528D01*
X157925725Y-108502589D01*
X158112595Y-108634733D01*
X158321654Y-108727881D01*
X158499500Y-108692488D01*
X158499500Y-107810500D01*
X158880500Y-107810500D01*
X158880500Y-108692488D01*
X159058346Y-108727881D01*
X159267405Y-108634733D01*
X159454275Y-108502589D01*
X159611774Y-108336528D01*
X159733850Y-108142931D01*
X159797871Y-107988344D01*
X159761320Y-107810500D01*
X158880500Y-107810500D01*
X158499500Y-107810500D01*
X157618680Y-107810500D01*
X157582129Y-107988344D01*
X157257871Y-107988344D01*
X157221320Y-107810500D01*
X156340500Y-107810500D01*
X155959500Y-107810500D01*
X155078680Y-107810500D01*
X155042129Y-107988344D01*
X140560834Y-107988344D01*
X139666361Y-107078919D01*
X139739376Y-107109163D01*
X139911998Y-107143500D01*
X140088002Y-107143500D01*
X140260624Y-107109163D01*
X140423231Y-107041809D01*
X140569573Y-106944027D01*
X140694027Y-106819573D01*
X140791809Y-106673231D01*
X140859163Y-106510624D01*
X140893500Y-106338002D01*
X140893500Y-106161998D01*
X140859163Y-105989376D01*
X140791809Y-105826769D01*
X140694027Y-105680427D01*
X140569573Y-105555973D01*
X140423231Y-105458191D01*
X140260624Y-105390837D01*
X140088002Y-105356500D01*
X139911998Y-105356500D01*
X139739376Y-105390837D01*
X139576769Y-105458191D01*
X139430427Y-105555973D01*
X139305973Y-105680427D01*
X139208191Y-105826769D01*
X139140837Y-105989376D01*
X139106500Y-106161998D01*
X139106500Y-106338002D01*
X139140837Y-106510624D01*
X139165156Y-106569336D01*
X138686061Y-106082232D01*
X138344225Y-105718391D01*
X138095308Y-105320258D01*
X137928463Y-104881361D01*
X137848238Y-104407751D01*
X137842500Y-104243998D01*
X137842500Y-95766747D01*
X137851005Y-95680000D01*
X138303545Y-95680000D01*
X138319329Y-95840258D01*
X138366075Y-95994357D01*
X138441985Y-96136376D01*
X138544144Y-96260856D01*
X138668624Y-96363015D01*
X138810643Y-96438925D01*
X138964742Y-96485671D01*
X139084844Y-96497500D01*
X139369224Y-96497500D01*
X139857501Y-96985778D01*
X139857500Y-102919223D01*
X139274224Y-103502500D01*
X139084844Y-103502500D01*
X138964742Y-103514329D01*
X138810643Y-103561075D01*
X138668624Y-103636985D01*
X138544144Y-103739144D01*
X138441985Y-103863624D01*
X138366075Y-104005643D01*
X138319329Y-104159742D01*
X138303545Y-104320000D01*
X138319329Y-104480258D01*
X138366075Y-104634357D01*
X138441985Y-104776376D01*
X138544144Y-104900856D01*
X138668624Y-105003015D01*
X138810643Y-105078925D01*
X138964742Y-105125671D01*
X139084844Y-105137500D01*
X139765156Y-105137500D01*
X139885258Y-105125671D01*
X140039357Y-105078925D01*
X140181376Y-105003015D01*
X140305856Y-104900856D01*
X140408015Y-104776376D01*
X140483925Y-104634357D01*
X140530671Y-104480258D01*
X140546455Y-104320000D01*
X142233545Y-104320000D01*
X142249329Y-104480258D01*
X142296075Y-104634357D01*
X142371985Y-104776376D01*
X142474144Y-104900856D01*
X142598624Y-105003015D01*
X142740643Y-105078925D01*
X142894742Y-105125671D01*
X143014844Y-105137500D01*
X144195156Y-105137500D01*
X144315258Y-105125671D01*
X144469357Y-105078925D01*
X144611376Y-105003015D01*
X144735856Y-104900856D01*
X144838015Y-104776376D01*
X144913925Y-104634357D01*
X144960671Y-104480258D01*
X144976455Y-104320000D01*
X144960671Y-104159742D01*
X144913925Y-104005643D01*
X144838015Y-103863624D01*
X144735856Y-103739144D01*
X144611376Y-103636985D01*
X144469357Y-103561075D01*
X144315258Y-103514329D01*
X144195156Y-103502500D01*
X143305227Y-103502500D01*
X143409338Y-103459376D01*
X143514570Y-103389063D01*
X143604063Y-103299570D01*
X143674376Y-103194338D01*
X143676511Y-103189182D01*
X149355500Y-103189182D01*
X149355500Y-103310818D01*
X149379230Y-103430118D01*
X149425778Y-103542496D01*
X149493356Y-103643633D01*
X149579367Y-103729644D01*
X149680504Y-103797222D01*
X149792882Y-103843770D01*
X149912182Y-103867500D01*
X150033818Y-103867500D01*
X150153118Y-103843770D01*
X150265496Y-103797222D01*
X150366633Y-103729644D01*
X150452644Y-103643633D01*
X150520222Y-103542496D01*
X150566770Y-103430118D01*
X150579225Y-103367501D01*
X151759222Y-103367501D01*
X151084809Y-104041915D01*
X151061250Y-104061249D01*
X151041916Y-104084808D01*
X150984084Y-104155276D01*
X150963027Y-104194672D01*
X150926745Y-104262550D01*
X150891435Y-104378949D01*
X150882500Y-104469671D01*
X150879513Y-104500000D01*
X150882500Y-104530326D01*
X150882500Y-104969672D01*
X150882501Y-106744223D01*
X150856370Y-106770354D01*
X150856367Y-106770356D01*
X150770356Y-106856367D01*
X150753413Y-106881723D01*
X150734084Y-106905276D01*
X150719722Y-106932145D01*
X150702778Y-106957504D01*
X150691106Y-106985684D01*
X150676745Y-107012551D01*
X150667901Y-107041705D01*
X150656230Y-107069882D01*
X150650280Y-107099793D01*
X150641436Y-107128949D01*
X150638449Y-107159273D01*
X150632500Y-107189182D01*
X150632500Y-107219674D01*
X150629513Y-107250000D01*
X150632500Y-107280326D01*
X150632500Y-107310818D01*
X150638449Y-107340727D01*
X150641436Y-107371051D01*
X150650280Y-107400207D01*
X150656230Y-107430118D01*
X150667901Y-107458295D01*
X150676745Y-107487449D01*
X150691106Y-107514316D01*
X150702778Y-107542496D01*
X150719722Y-107567855D01*
X150734084Y-107594724D01*
X150753413Y-107618276D01*
X150770356Y-107643633D01*
X150791922Y-107665199D01*
X150811250Y-107688750D01*
X150834801Y-107708078D01*
X150856367Y-107729644D01*
X150881724Y-107746587D01*
X150905276Y-107765916D01*
X150932145Y-107780278D01*
X150957504Y-107797222D01*
X150985684Y-107808894D01*
X151012551Y-107823255D01*
X151041705Y-107832099D01*
X151069882Y-107843770D01*
X151099793Y-107849720D01*
X151128949Y-107858564D01*
X151159273Y-107861551D01*
X151189182Y-107867500D01*
X151219674Y-107867500D01*
X151250000Y-107870487D01*
X151280326Y-107867500D01*
X151310818Y-107867500D01*
X151340727Y-107861551D01*
X151371051Y-107858564D01*
X151400207Y-107849720D01*
X151430118Y-107843770D01*
X151458295Y-107832099D01*
X151487449Y-107823255D01*
X151514316Y-107808894D01*
X151542496Y-107797222D01*
X151567855Y-107780278D01*
X151594724Y-107765916D01*
X151618277Y-107746587D01*
X151643633Y-107729644D01*
X151729644Y-107643633D01*
X151729646Y-107643630D01*
X151915186Y-107458090D01*
X151938751Y-107438751D01*
X152015916Y-107344724D01*
X152073255Y-107237450D01*
X152108565Y-107121051D01*
X152117500Y-107030329D01*
X152117500Y-107030327D01*
X152120487Y-107000001D01*
X152117500Y-106969675D01*
X152117500Y-104755776D01*
X152720584Y-104152693D01*
X152742144Y-104131133D01*
X152759083Y-104105782D01*
X152778416Y-104082225D01*
X152792781Y-104055351D01*
X152809722Y-104029996D01*
X152821392Y-104001821D01*
X152835755Y-103974950D01*
X152844600Y-103945793D01*
X152856270Y-103917618D01*
X152862219Y-103887708D01*
X152871064Y-103858551D01*
X152874051Y-103828227D01*
X152880000Y-103798318D01*
X152880000Y-103767826D01*
X152882987Y-103737500D01*
X152880000Y-103707174D01*
X152880000Y-103676682D01*
X152874051Y-103646773D01*
X152871064Y-103616449D01*
X152862219Y-103587292D01*
X152856270Y-103557382D01*
X152844600Y-103529207D01*
X152835755Y-103500050D01*
X152821393Y-103473180D01*
X152809722Y-103445004D01*
X152792779Y-103419646D01*
X152778416Y-103392776D01*
X152759087Y-103369224D01*
X152757936Y-103367501D01*
X152777067Y-103367501D01*
X154082500Y-104672934D01*
X154082501Y-106229488D01*
X154080481Y-106250000D01*
X154088541Y-106331844D01*
X154112415Y-106410543D01*
X154151183Y-106483073D01*
X154190281Y-106530715D01*
X154190289Y-106530723D01*
X154203356Y-106546645D01*
X154219279Y-106559713D01*
X154440279Y-106780712D01*
X154453355Y-106796645D01*
X154516927Y-106848818D01*
X154589457Y-106887586D01*
X154668156Y-106911459D01*
X154729491Y-106917500D01*
X154729500Y-106917500D01*
X154749999Y-106919519D01*
X154770498Y-106917500D01*
X154821223Y-106917500D01*
X154883367Y-106979644D01*
X154984504Y-107047222D01*
X155096882Y-107093770D01*
X155106966Y-107095776D01*
X155106150Y-107097069D01*
X155042129Y-107251656D01*
X155078680Y-107429500D01*
X155959500Y-107429500D01*
X155959500Y-106547512D01*
X156340500Y-106547512D01*
X156340500Y-107429500D01*
X157221320Y-107429500D01*
X157257871Y-107251656D01*
X157582129Y-107251656D01*
X157618680Y-107429500D01*
X158499500Y-107429500D01*
X158499500Y-106547512D01*
X158880500Y-106547512D01*
X158880500Y-107429500D01*
X159761320Y-107429500D01*
X159797871Y-107251656D01*
X159733850Y-107097069D01*
X159611774Y-106903472D01*
X159454275Y-106737411D01*
X159267405Y-106605267D01*
X159058346Y-106512119D01*
X158880500Y-106547512D01*
X158499500Y-106547512D01*
X158321654Y-106512119D01*
X158112595Y-106605267D01*
X157925725Y-106737411D01*
X157768226Y-106903472D01*
X157646150Y-107097069D01*
X157582129Y-107251656D01*
X157257871Y-107251656D01*
X157193850Y-107097069D01*
X157071774Y-106903472D01*
X156914275Y-106737411D01*
X156727405Y-106605267D01*
X156518346Y-106512119D01*
X156340500Y-106547512D01*
X155959500Y-106547512D01*
X155894500Y-106534576D01*
X155894500Y-106439182D01*
X155870770Y-106319882D01*
X155841425Y-106249036D01*
X157000000Y-106249036D01*
X157062241Y-106242906D01*
X157122090Y-106224751D01*
X157177247Y-106195269D01*
X157225593Y-106155593D01*
X157265269Y-106107247D01*
X157294751Y-106052090D01*
X157312906Y-105992241D01*
X157319036Y-105930000D01*
X157319036Y-105697500D01*
X157698460Y-105697500D01*
X157783144Y-105824238D01*
X157945762Y-105986856D01*
X158136981Y-106114625D01*
X158349453Y-106202634D01*
X158575011Y-106247500D01*
X158804989Y-106247500D01*
X159030547Y-106202634D01*
X159243019Y-106114625D01*
X159434238Y-105986856D01*
X159596856Y-105824238D01*
X159724625Y-105633019D01*
X159812634Y-105420547D01*
X159857500Y-105194989D01*
X159857500Y-104965011D01*
X159812634Y-104739453D01*
X159724625Y-104526981D01*
X159596856Y-104335762D01*
X159434238Y-104173144D01*
X159243019Y-104045375D01*
X159030547Y-103957366D01*
X158804989Y-103912500D01*
X158575011Y-103912500D01*
X158349453Y-103957366D01*
X158136981Y-104045375D01*
X157945762Y-104173144D01*
X157783144Y-104335762D01*
X157698460Y-104462500D01*
X157319036Y-104462500D01*
X157319036Y-104230000D01*
X157312906Y-104167759D01*
X157294751Y-104107910D01*
X157265269Y-104052753D01*
X157225593Y-104004407D01*
X157177247Y-103964731D01*
X157122090Y-103935249D01*
X157062241Y-103917094D01*
X157000000Y-103910964D01*
X156767500Y-103910964D01*
X156767500Y-102680325D01*
X156770487Y-102649999D01*
X156767500Y-102619671D01*
X156758565Y-102528949D01*
X156723255Y-102412550D01*
X156674120Y-102320624D01*
X156665916Y-102305275D01*
X156638764Y-102272191D01*
X156588751Y-102211249D01*
X156565181Y-102191906D01*
X156208091Y-101834815D01*
X156188751Y-101811249D01*
X156094724Y-101734084D01*
X155987450Y-101676745D01*
X155871051Y-101641435D01*
X155780329Y-101632500D01*
X155780326Y-101632500D01*
X155750000Y-101629513D01*
X155719674Y-101632500D01*
X154439182Y-101632500D01*
X154409280Y-101638448D01*
X154378949Y-101641435D01*
X154349785Y-101650282D01*
X154319882Y-101656230D01*
X154291709Y-101667900D01*
X154262550Y-101676745D01*
X154235680Y-101691107D01*
X154207504Y-101702778D01*
X154182146Y-101719721D01*
X154155276Y-101734084D01*
X154131721Y-101753415D01*
X154106367Y-101770356D01*
X154084809Y-101791914D01*
X154061249Y-101811249D01*
X154041914Y-101834809D01*
X154020356Y-101856367D01*
X154003415Y-101881721D01*
X153984084Y-101905276D01*
X153969721Y-101932146D01*
X153952778Y-101957504D01*
X153941107Y-101985680D01*
X153926745Y-102012550D01*
X153917900Y-102041709D01*
X153906230Y-102069882D01*
X153900282Y-102099785D01*
X153891435Y-102128949D01*
X153888448Y-102159280D01*
X153882500Y-102189182D01*
X153882500Y-102219671D01*
X153879513Y-102250000D01*
X153882500Y-102280329D01*
X153882500Y-102310818D01*
X153888448Y-102340720D01*
X153891435Y-102371051D01*
X153900282Y-102400215D01*
X153906230Y-102430118D01*
X153917900Y-102458291D01*
X153926745Y-102487450D01*
X153941107Y-102514320D01*
X153952778Y-102542496D01*
X153969721Y-102567854D01*
X153984084Y-102594724D01*
X154003415Y-102618279D01*
X154020356Y-102643633D01*
X154041914Y-102665191D01*
X154061249Y-102688751D01*
X154084809Y-102708086D01*
X154106367Y-102729644D01*
X154131721Y-102746585D01*
X154155276Y-102765916D01*
X154182146Y-102780279D01*
X154207504Y-102797222D01*
X154235680Y-102808893D01*
X154262550Y-102823255D01*
X154291709Y-102832100D01*
X154319882Y-102843770D01*
X154349785Y-102849718D01*
X154378949Y-102858565D01*
X154409280Y-102861552D01*
X154439182Y-102867500D01*
X155494224Y-102867500D01*
X155532501Y-102905776D01*
X155532500Y-103910964D01*
X155300000Y-103910964D01*
X155237759Y-103917094D01*
X155177910Y-103935249D01*
X155122753Y-103964731D01*
X155074407Y-104004407D01*
X155034731Y-104052753D01*
X155005249Y-104107910D01*
X154987094Y-104167759D01*
X154980964Y-104230000D01*
X154980964Y-105930000D01*
X154983287Y-105953591D01*
X154917500Y-105997549D01*
X154917500Y-104520502D01*
X154919519Y-104500000D01*
X154917500Y-104479498D01*
X154917500Y-104479491D01*
X154911459Y-104418156D01*
X154899566Y-104378949D01*
X154887586Y-104339456D01*
X154848818Y-104266927D01*
X154809719Y-104219285D01*
X154809717Y-104219283D01*
X154796645Y-104203355D01*
X154780718Y-104190284D01*
X153259718Y-102669284D01*
X153246646Y-102653356D01*
X153183074Y-102601183D01*
X153110544Y-102562415D01*
X153031845Y-102538542D01*
X152970510Y-102532501D01*
X152970503Y-102532501D01*
X152950001Y-102530482D01*
X152929499Y-102532501D01*
X150293501Y-102532501D01*
X150272999Y-102530482D01*
X150252497Y-102532501D01*
X150252490Y-102532501D01*
X150191155Y-102538542D01*
X150112456Y-102562415D01*
X150068964Y-102585662D01*
X150039926Y-102601183D01*
X150001766Y-102632500D01*
X149912182Y-102632500D01*
X149792882Y-102656230D01*
X149680504Y-102702778D01*
X149579367Y-102770356D01*
X149493356Y-102856367D01*
X149425778Y-102957504D01*
X149379230Y-103069882D01*
X149355500Y-103189182D01*
X143676511Y-103189182D01*
X143722809Y-103077410D01*
X143747500Y-102953281D01*
X143747500Y-102826719D01*
X143722809Y-102702590D01*
X143674376Y-102585662D01*
X143604063Y-102480430D01*
X143514570Y-102390937D01*
X143409338Y-102320624D01*
X143292410Y-102272191D01*
X143168281Y-102247500D01*
X143041719Y-102247500D01*
X142917590Y-102272191D01*
X142800662Y-102320624D01*
X142695430Y-102390937D01*
X142605937Y-102480430D01*
X142535624Y-102585662D01*
X142487191Y-102702590D01*
X142462500Y-102826719D01*
X142462500Y-102953281D01*
X142487191Y-103077410D01*
X142535624Y-103194338D01*
X142605937Y-103299570D01*
X142695430Y-103389063D01*
X142800662Y-103459376D01*
X142917590Y-103507809D01*
X142931946Y-103510665D01*
X142894742Y-103514329D01*
X142740643Y-103561075D01*
X142598624Y-103636985D01*
X142474144Y-103739144D01*
X142371985Y-103863624D01*
X142296075Y-104005643D01*
X142249329Y-104159742D01*
X142233545Y-104320000D01*
X140546455Y-104320000D01*
X140530671Y-104159742D01*
X140491771Y-104031506D01*
X140890192Y-103633085D01*
X140913751Y-103613751D01*
X140956981Y-103561075D01*
X140990916Y-103519725D01*
X141023173Y-103459376D01*
X141048255Y-103412450D01*
X141083565Y-103296051D01*
X141092500Y-103205329D01*
X141092500Y-103205327D01*
X141095487Y-103175001D01*
X141092500Y-103144675D01*
X141092500Y-101439182D01*
X142382500Y-101439182D01*
X142382500Y-101560818D01*
X142406230Y-101680118D01*
X142452778Y-101792496D01*
X142520356Y-101893633D01*
X142606367Y-101979644D01*
X142707504Y-102047222D01*
X142819882Y-102093770D01*
X142939182Y-102117500D01*
X143060818Y-102117500D01*
X143180118Y-102093770D01*
X143292496Y-102047222D01*
X143393633Y-101979644D01*
X143479644Y-101893633D01*
X143547222Y-101792496D01*
X143593770Y-101680118D01*
X143617500Y-101560818D01*
X143617500Y-101439182D01*
X143593770Y-101319882D01*
X143547222Y-101207504D01*
X143479644Y-101106367D01*
X143417500Y-101044223D01*
X143417500Y-100672934D01*
X144632500Y-99457934D01*
X144632500Y-99560818D01*
X144656230Y-99680118D01*
X144702778Y-99792496D01*
X144770356Y-99893633D01*
X144832501Y-99955778D01*
X144832500Y-100321223D01*
X144770356Y-100383367D01*
X144702778Y-100484504D01*
X144656230Y-100596882D01*
X144632500Y-100716182D01*
X144632500Y-100837818D01*
X144656230Y-100957118D01*
X144702778Y-101069496D01*
X144770356Y-101170633D01*
X144856367Y-101256644D01*
X144957504Y-101324222D01*
X145069882Y-101370770D01*
X145189182Y-101394500D01*
X145310818Y-101394500D01*
X145430118Y-101370770D01*
X145542496Y-101324222D01*
X145643633Y-101256644D01*
X145729644Y-101170633D01*
X145797222Y-101069496D01*
X145843770Y-100957118D01*
X145867500Y-100837818D01*
X145867500Y-100750000D01*
X146879513Y-100750000D01*
X146882500Y-100780326D01*
X146882500Y-100780329D01*
X146891435Y-100871051D01*
X146926745Y-100987450D01*
X146944334Y-101020356D01*
X146984084Y-101094724D01*
X147034330Y-101155949D01*
X147061250Y-101188751D01*
X147084809Y-101208085D01*
X147547356Y-101670633D01*
X147633367Y-101756644D01*
X147658718Y-101773583D01*
X147682275Y-101792916D01*
X147709149Y-101807281D01*
X147734504Y-101824222D01*
X147762679Y-101835892D01*
X147789550Y-101850255D01*
X147818707Y-101859100D01*
X147846882Y-101870770D01*
X147876792Y-101876719D01*
X147905949Y-101885564D01*
X147936273Y-101888551D01*
X147966182Y-101894500D01*
X147996674Y-101894500D01*
X148027000Y-101897487D01*
X148057326Y-101894500D01*
X148087818Y-101894500D01*
X148117727Y-101888551D01*
X148148051Y-101885564D01*
X148177208Y-101876719D01*
X148207118Y-101870770D01*
X148235293Y-101859100D01*
X148264450Y-101850255D01*
X148291320Y-101835893D01*
X148319496Y-101824222D01*
X148344854Y-101807279D01*
X148371724Y-101792916D01*
X148395276Y-101773587D01*
X148420633Y-101756644D01*
X148442199Y-101735078D01*
X148465750Y-101715750D01*
X148485078Y-101692199D01*
X148506644Y-101670633D01*
X148523587Y-101645276D01*
X148542916Y-101621724D01*
X148557279Y-101594854D01*
X148574222Y-101569496D01*
X148585893Y-101541320D01*
X148600255Y-101514450D01*
X148609100Y-101485293D01*
X148620770Y-101457118D01*
X148626719Y-101427208D01*
X148635564Y-101398051D01*
X148638551Y-101367727D01*
X148644500Y-101337818D01*
X148644500Y-101307326D01*
X148647487Y-101277000D01*
X148644500Y-101246674D01*
X148644500Y-101216182D01*
X148638551Y-101186273D01*
X148635564Y-101155949D01*
X148626719Y-101126792D01*
X148620770Y-101096882D01*
X148609100Y-101068707D01*
X148600255Y-101039550D01*
X148585892Y-101012679D01*
X148574222Y-100984504D01*
X148557281Y-100959149D01*
X148542916Y-100932275D01*
X148523583Y-100908718D01*
X148506644Y-100883367D01*
X148420633Y-100797356D01*
X148117500Y-100494224D01*
X148117500Y-97939182D01*
X148111552Y-97909280D01*
X148108565Y-97878949D01*
X148099718Y-97849785D01*
X148093770Y-97819882D01*
X148082100Y-97791709D01*
X148073255Y-97762550D01*
X148058893Y-97735680D01*
X148047222Y-97707504D01*
X148030279Y-97682146D01*
X148015916Y-97655276D01*
X147996585Y-97631721D01*
X147979644Y-97606367D01*
X147958086Y-97584809D01*
X147938751Y-97561249D01*
X147915192Y-97541915D01*
X147893633Y-97520356D01*
X147868275Y-97503412D01*
X147844723Y-97484084D01*
X147817858Y-97469724D01*
X147792496Y-97452778D01*
X147764315Y-97441105D01*
X147737449Y-97426745D01*
X147708294Y-97417901D01*
X147680118Y-97406230D01*
X147650212Y-97400281D01*
X147621050Y-97391435D01*
X147590720Y-97388448D01*
X147560818Y-97382500D01*
X147530328Y-97382500D01*
X147500000Y-97379513D01*
X147469671Y-97382500D01*
X147439182Y-97382500D01*
X147409280Y-97388448D01*
X147378949Y-97391435D01*
X147349785Y-97400282D01*
X147319882Y-97406230D01*
X147291709Y-97417900D01*
X147262550Y-97426745D01*
X147235680Y-97441107D01*
X147207504Y-97452778D01*
X147182146Y-97469721D01*
X147155276Y-97484084D01*
X147131721Y-97503415D01*
X147106367Y-97520356D01*
X147084809Y-97541914D01*
X147061249Y-97561249D01*
X147041915Y-97584808D01*
X147020356Y-97606367D01*
X147003412Y-97631725D01*
X146984084Y-97655277D01*
X146969724Y-97682142D01*
X146952778Y-97707504D01*
X146941105Y-97735685D01*
X146926745Y-97762551D01*
X146917901Y-97791706D01*
X146906230Y-97819882D01*
X146900281Y-97849788D01*
X146891435Y-97878950D01*
X146888448Y-97909279D01*
X146882500Y-97939182D01*
X146882500Y-97969672D01*
X146882501Y-100189177D01*
X146882500Y-100189182D01*
X146882500Y-100719674D01*
X146879513Y-100750000D01*
X145867500Y-100750000D01*
X145867500Y-100716182D01*
X145843770Y-100596882D01*
X145797222Y-100484504D01*
X145729644Y-100383367D01*
X145667500Y-100321223D01*
X145667500Y-99955777D01*
X145729644Y-99893633D01*
X145797222Y-99792496D01*
X145843770Y-99680118D01*
X145867500Y-99560818D01*
X145867500Y-99439182D01*
X145843770Y-99319882D01*
X145797222Y-99207504D01*
X145729644Y-99106367D01*
X145643633Y-99020356D01*
X145542496Y-98952778D01*
X145430118Y-98906230D01*
X145310818Y-98882500D01*
X145207934Y-98882500D01*
X145472934Y-98617500D01*
X145560818Y-98617500D01*
X145680118Y-98593770D01*
X145792496Y-98547222D01*
X145893633Y-98479644D01*
X145979644Y-98393633D01*
X146047222Y-98292496D01*
X146093770Y-98180118D01*
X146117500Y-98060818D01*
X146117500Y-97939182D01*
X146093770Y-97819882D01*
X146047222Y-97707504D01*
X145979644Y-97606367D01*
X145893633Y-97520356D01*
X145792496Y-97452778D01*
X145680118Y-97406230D01*
X145560818Y-97382500D01*
X145439182Y-97382500D01*
X145319882Y-97406230D01*
X145207504Y-97452778D01*
X145106367Y-97520356D01*
X145020356Y-97606367D01*
X144952778Y-97707504D01*
X144906230Y-97819882D01*
X144882500Y-97939182D01*
X144882500Y-98027066D01*
X142719278Y-100190288D01*
X142703356Y-100203355D01*
X142690289Y-100219277D01*
X142690281Y-100219285D01*
X142651183Y-100266927D01*
X142612415Y-100339457D01*
X142588541Y-100418156D01*
X142580481Y-100500000D01*
X142582501Y-100520511D01*
X142582500Y-101044223D01*
X142520356Y-101106367D01*
X142452778Y-101207504D01*
X142406230Y-101319882D01*
X142382500Y-101439182D01*
X141092500Y-101439182D01*
X141092500Y-96760325D01*
X141095487Y-96729999D01*
X141088646Y-96660543D01*
X141083565Y-96608949D01*
X141048255Y-96492550D01*
X141008491Y-96418156D01*
X140990916Y-96385275D01*
X140933084Y-96314807D01*
X140913751Y-96291249D01*
X140890191Y-96271914D01*
X140513881Y-95895605D01*
X140530671Y-95840258D01*
X140546455Y-95680000D01*
X142233545Y-95680000D01*
X142249329Y-95840258D01*
X142296075Y-95994357D01*
X142371985Y-96136376D01*
X142474144Y-96260856D01*
X142598624Y-96363015D01*
X142740643Y-96438925D01*
X142894742Y-96485671D01*
X142931946Y-96489335D01*
X142917590Y-96492191D01*
X142800662Y-96540624D01*
X142695430Y-96610937D01*
X142605937Y-96700430D01*
X142535624Y-96805662D01*
X142487191Y-96922590D01*
X142462500Y-97046719D01*
X142462500Y-97173281D01*
X142487191Y-97297410D01*
X142535624Y-97414338D01*
X142605937Y-97519570D01*
X142695430Y-97609063D01*
X142800662Y-97679376D01*
X142917590Y-97727809D01*
X143041719Y-97752500D01*
X143168281Y-97752500D01*
X143292410Y-97727809D01*
X143409338Y-97679376D01*
X143514570Y-97609063D01*
X143604063Y-97519570D01*
X143674376Y-97414338D01*
X143722809Y-97297410D01*
X143747500Y-97173281D01*
X143747500Y-97046719D01*
X143722809Y-96922590D01*
X143674376Y-96805662D01*
X143604063Y-96700430D01*
X143514570Y-96610937D01*
X143409338Y-96540624D01*
X143311263Y-96500000D01*
X149629513Y-96500000D01*
X149632500Y-96530329D01*
X149632500Y-96560818D01*
X149638448Y-96590720D01*
X149641435Y-96621051D01*
X149650282Y-96650215D01*
X149656230Y-96680118D01*
X149667900Y-96708291D01*
X149676745Y-96737450D01*
X149691107Y-96764320D01*
X149702778Y-96792496D01*
X149719721Y-96817854D01*
X149734084Y-96844724D01*
X149753415Y-96868279D01*
X149770356Y-96893633D01*
X149791914Y-96915191D01*
X149811249Y-96938751D01*
X149834809Y-96958086D01*
X149856367Y-96979644D01*
X149881721Y-96996585D01*
X149905276Y-97015916D01*
X149932146Y-97030279D01*
X149957504Y-97047222D01*
X149985680Y-97058893D01*
X150012550Y-97073255D01*
X150041709Y-97082100D01*
X150069882Y-97093770D01*
X150099785Y-97099718D01*
X150128949Y-97108565D01*
X150159280Y-97111552D01*
X150189182Y-97117500D01*
X151494224Y-97117500D01*
X152354414Y-97977691D01*
X152373749Y-98001251D01*
X152397307Y-98020584D01*
X152467775Y-98078416D01*
X152575050Y-98135755D01*
X152691449Y-98171065D01*
X152782171Y-98180000D01*
X152782174Y-98180000D01*
X152812500Y-98182987D01*
X152842826Y-98180000D01*
X157060818Y-98180000D01*
X157090720Y-98174052D01*
X157121051Y-98171065D01*
X157150215Y-98162218D01*
X157180118Y-98156270D01*
X157208291Y-98144600D01*
X157237450Y-98135755D01*
X157264320Y-98121393D01*
X157292496Y-98109722D01*
X157317854Y-98092779D01*
X157344724Y-98078416D01*
X157368279Y-98059085D01*
X157393633Y-98042144D01*
X157415193Y-98020584D01*
X157438751Y-98001251D01*
X157458086Y-97977691D01*
X157479644Y-97956133D01*
X157496585Y-97930779D01*
X157515916Y-97907224D01*
X157530279Y-97880354D01*
X157547222Y-97854996D01*
X157558893Y-97826820D01*
X157573255Y-97799950D01*
X157582100Y-97770791D01*
X157593770Y-97742618D01*
X157599718Y-97712715D01*
X157608565Y-97683551D01*
X157611552Y-97653220D01*
X157617500Y-97623318D01*
X157617500Y-97592829D01*
X157620487Y-97562500D01*
X157617500Y-97532171D01*
X157617500Y-97501682D01*
X157611552Y-97471780D01*
X157608565Y-97441449D01*
X157599718Y-97412285D01*
X157593770Y-97382382D01*
X157582100Y-97354209D01*
X157573255Y-97325050D01*
X157558893Y-97298180D01*
X157547222Y-97270004D01*
X157530279Y-97244646D01*
X157515916Y-97217776D01*
X157496585Y-97194221D01*
X157479644Y-97168867D01*
X157458084Y-97147307D01*
X157438751Y-97123749D01*
X157415191Y-97104414D01*
X157393633Y-97082856D01*
X157368279Y-97065915D01*
X157344724Y-97046584D01*
X157317854Y-97032221D01*
X157292496Y-97015278D01*
X157264320Y-97003607D01*
X157237450Y-96989245D01*
X157208291Y-96980400D01*
X157180118Y-96968730D01*
X157150215Y-96962782D01*
X157121051Y-96953935D01*
X157090720Y-96950948D01*
X157060818Y-96945000D01*
X154428277Y-96945000D01*
X154455777Y-96917500D01*
X157089498Y-96917500D01*
X157110000Y-96919519D01*
X157130502Y-96917500D01*
X157130509Y-96917500D01*
X157191844Y-96911459D01*
X157270543Y-96887586D01*
X157343073Y-96848818D01*
X157406645Y-96796645D01*
X157419717Y-96780717D01*
X158213934Y-95986500D01*
X158349453Y-96042634D01*
X158575011Y-96087500D01*
X158804989Y-96087500D01*
X159030547Y-96042634D01*
X159243019Y-95954625D01*
X159434238Y-95826856D01*
X159596856Y-95664238D01*
X159724625Y-95473019D01*
X159812634Y-95260547D01*
X159857500Y-95034989D01*
X159857500Y-94805011D01*
X159812634Y-94579453D01*
X159724625Y-94366981D01*
X159596856Y-94175762D01*
X159434238Y-94013144D01*
X159243019Y-93885375D01*
X159030547Y-93797366D01*
X158804989Y-93752500D01*
X158575011Y-93752500D01*
X158349453Y-93797366D01*
X158136981Y-93885375D01*
X157945762Y-94013144D01*
X157783144Y-94175762D01*
X157655375Y-94366981D01*
X157567366Y-94579453D01*
X157522500Y-94805011D01*
X157522500Y-95034989D01*
X157567366Y-95260547D01*
X157623500Y-95396066D01*
X156937066Y-96082500D01*
X156290126Y-96082500D01*
X156490547Y-96042634D01*
X156703019Y-95954625D01*
X156894238Y-95826856D01*
X157056856Y-95664238D01*
X157184625Y-95473019D01*
X157272634Y-95260547D01*
X157317500Y-95034989D01*
X157317500Y-94805011D01*
X157272634Y-94579453D01*
X157184625Y-94366981D01*
X157056856Y-94175762D01*
X157048594Y-94167500D01*
X157299498Y-94167500D01*
X157320000Y-94169519D01*
X157340502Y-94167500D01*
X157340509Y-94167500D01*
X157401844Y-94161459D01*
X157480543Y-94137586D01*
X157553073Y-94098818D01*
X157616645Y-94046645D01*
X157629717Y-94030717D01*
X158213934Y-93446500D01*
X158349453Y-93502634D01*
X158575011Y-93547500D01*
X158804989Y-93547500D01*
X159030547Y-93502634D01*
X159243019Y-93414625D01*
X159434238Y-93286856D01*
X159596856Y-93124238D01*
X159724625Y-92933019D01*
X159812634Y-92720547D01*
X159857500Y-92494989D01*
X159857500Y-92265011D01*
X159812634Y-92039453D01*
X159724625Y-91826981D01*
X159596856Y-91635762D01*
X159434238Y-91473144D01*
X159243019Y-91345375D01*
X159030547Y-91257366D01*
X158804989Y-91212500D01*
X158575011Y-91212500D01*
X158349453Y-91257366D01*
X158136981Y-91345375D01*
X157945762Y-91473144D01*
X157783144Y-91635762D01*
X157655375Y-91826981D01*
X157567366Y-92039453D01*
X157522500Y-92265011D01*
X157522500Y-92494989D01*
X157567366Y-92720547D01*
X157623500Y-92856066D01*
X157147066Y-93332500D01*
X156825927Y-93332500D01*
X156894238Y-93286856D01*
X157056856Y-93124238D01*
X157184625Y-92933019D01*
X157272634Y-92720547D01*
X157317500Y-92494989D01*
X157317500Y-92265011D01*
X157272634Y-92039453D01*
X157184625Y-91826981D01*
X157078063Y-91667500D01*
X157259498Y-91667500D01*
X157280000Y-91669519D01*
X157300502Y-91667500D01*
X157300509Y-91667500D01*
X157361844Y-91661459D01*
X157440543Y-91637586D01*
X157513073Y-91598818D01*
X157576645Y-91546645D01*
X157589717Y-91530717D01*
X158213934Y-90906500D01*
X158349453Y-90962634D01*
X158575011Y-91007500D01*
X158804989Y-91007500D01*
X159030547Y-90962634D01*
X159243019Y-90874625D01*
X159434238Y-90746856D01*
X159596856Y-90584238D01*
X159724625Y-90393019D01*
X159812634Y-90180547D01*
X159857500Y-89954989D01*
X159857500Y-89725011D01*
X159812634Y-89499453D01*
X159724625Y-89286981D01*
X159596856Y-89095762D01*
X159434238Y-88933144D01*
X159243019Y-88805375D01*
X159030547Y-88717366D01*
X158804989Y-88672500D01*
X158575011Y-88672500D01*
X158349453Y-88717366D01*
X158136981Y-88805375D01*
X157945762Y-88933144D01*
X157783144Y-89095762D01*
X157655375Y-89286981D01*
X157567366Y-89499453D01*
X157522500Y-89725011D01*
X157522500Y-89954989D01*
X157567366Y-90180547D01*
X157623500Y-90316066D01*
X157107066Y-90832500D01*
X156766063Y-90832500D01*
X156894238Y-90746856D01*
X157056856Y-90584238D01*
X157184625Y-90393019D01*
X157272634Y-90180547D01*
X157317500Y-89954989D01*
X157317500Y-89725011D01*
X157272634Y-89499453D01*
X157184625Y-89286981D01*
X157056856Y-89095762D01*
X156894238Y-88933144D01*
X156703019Y-88805375D01*
X156490547Y-88717366D01*
X156264989Y-88672500D01*
X156035011Y-88672500D01*
X155809453Y-88717366D01*
X155596981Y-88805375D01*
X155405762Y-88933144D01*
X155243144Y-89095762D01*
X155115375Y-89286981D01*
X155027366Y-89499453D01*
X154982500Y-89725011D01*
X154982500Y-89954989D01*
X155027366Y-90180547D01*
X155115375Y-90393019D01*
X155243144Y-90584238D01*
X155405762Y-90746856D01*
X155533937Y-90832500D01*
X153928777Y-90832500D01*
X153866633Y-90770356D01*
X153765496Y-90702778D01*
X153653118Y-90656230D01*
X153533818Y-90632500D01*
X153412182Y-90632500D01*
X153292882Y-90656230D01*
X153180504Y-90702778D01*
X153079367Y-90770356D01*
X152993356Y-90856367D01*
X152925778Y-90957504D01*
X152879230Y-91069882D01*
X152855500Y-91189182D01*
X152855500Y-91310818D01*
X152879230Y-91430118D01*
X152925778Y-91542496D01*
X152993356Y-91643633D01*
X153079367Y-91729644D01*
X153180504Y-91797222D01*
X153292882Y-91843770D01*
X153412182Y-91867500D01*
X153533818Y-91867500D01*
X153653118Y-91843770D01*
X153765496Y-91797222D01*
X153866633Y-91729644D01*
X153928777Y-91667500D01*
X155221937Y-91667500D01*
X155115375Y-91826981D01*
X155027366Y-92039453D01*
X154982500Y-92265011D01*
X154982500Y-92494989D01*
X155027366Y-92720547D01*
X155115375Y-92933019D01*
X155243144Y-93124238D01*
X155405762Y-93286856D01*
X155474073Y-93332500D01*
X153705777Y-93332500D01*
X153643633Y-93270356D01*
X153542496Y-93202778D01*
X153430118Y-93156230D01*
X153310818Y-93132500D01*
X153189182Y-93132500D01*
X153069882Y-93156230D01*
X152957504Y-93202778D01*
X152856367Y-93270356D01*
X152770356Y-93356367D01*
X152702778Y-93457504D01*
X152656230Y-93569882D01*
X152632500Y-93689182D01*
X152632500Y-93810818D01*
X152656230Y-93930118D01*
X152702778Y-94042496D01*
X152770356Y-94143633D01*
X152856367Y-94229644D01*
X152957504Y-94297222D01*
X153069882Y-94343770D01*
X153189182Y-94367500D01*
X153310818Y-94367500D01*
X153430118Y-94343770D01*
X153542496Y-94297222D01*
X153643633Y-94229644D01*
X153705777Y-94167500D01*
X155251406Y-94167500D01*
X155243144Y-94175762D01*
X155115375Y-94366981D01*
X155027366Y-94579453D01*
X154982500Y-94805011D01*
X154982500Y-95034989D01*
X155027366Y-95260547D01*
X155115375Y-95473019D01*
X155243144Y-95664238D01*
X155405762Y-95826856D01*
X155596981Y-95954625D01*
X155809453Y-96042634D01*
X156009874Y-96082500D01*
X154455777Y-96082500D01*
X154393633Y-96020356D01*
X154292496Y-95952778D01*
X154180118Y-95906230D01*
X154060818Y-95882500D01*
X153939182Y-95882500D01*
X153819882Y-95906230D01*
X153707504Y-95952778D01*
X153606367Y-96020356D01*
X153520356Y-96106367D01*
X153452778Y-96207504D01*
X153406230Y-96319882D01*
X153382500Y-96439182D01*
X153382500Y-96560818D01*
X153406230Y-96680118D01*
X153452778Y-96792496D01*
X153520356Y-96893633D01*
X153571723Y-96945000D01*
X153068277Y-96945000D01*
X152229646Y-96106370D01*
X152229644Y-96106367D01*
X152208086Y-96084809D01*
X152188751Y-96061249D01*
X152165191Y-96041914D01*
X152143633Y-96020356D01*
X152118279Y-96003415D01*
X152094724Y-95984084D01*
X152067854Y-95969721D01*
X152042496Y-95952778D01*
X152014320Y-95941107D01*
X151987450Y-95926745D01*
X151958291Y-95917900D01*
X151930118Y-95906230D01*
X151900215Y-95900282D01*
X151871051Y-95891435D01*
X151840720Y-95888448D01*
X151810818Y-95882500D01*
X151780326Y-95882500D01*
X151750000Y-95879513D01*
X151719674Y-95882500D01*
X150189182Y-95882500D01*
X150159280Y-95888448D01*
X150128949Y-95891435D01*
X150099785Y-95900282D01*
X150069882Y-95906230D01*
X150041709Y-95917900D01*
X150012550Y-95926745D01*
X149985680Y-95941107D01*
X149957504Y-95952778D01*
X149932146Y-95969721D01*
X149905276Y-95984084D01*
X149881721Y-96003415D01*
X149856367Y-96020356D01*
X149834809Y-96041914D01*
X149811249Y-96061249D01*
X149791914Y-96084809D01*
X149770356Y-96106367D01*
X149753415Y-96131721D01*
X149734084Y-96155276D01*
X149719721Y-96182146D01*
X149702778Y-96207504D01*
X149691107Y-96235680D01*
X149676745Y-96262550D01*
X149667900Y-96291709D01*
X149656230Y-96319882D01*
X149650282Y-96349785D01*
X149641435Y-96378949D01*
X149638448Y-96409280D01*
X149632500Y-96439182D01*
X149632500Y-96469671D01*
X149629513Y-96500000D01*
X143311263Y-96500000D01*
X143305227Y-96497500D01*
X144195156Y-96497500D01*
X144315258Y-96485671D01*
X144469357Y-96438925D01*
X144611376Y-96363015D01*
X144735856Y-96260856D01*
X144838015Y-96136376D01*
X144913925Y-95994357D01*
X144960671Y-95840258D01*
X144976455Y-95680000D01*
X144960671Y-95519742D01*
X144913925Y-95365643D01*
X144838015Y-95223624D01*
X144735856Y-95099144D01*
X144611376Y-94996985D01*
X144469357Y-94921075D01*
X144315258Y-94874329D01*
X144195156Y-94862500D01*
X143014844Y-94862500D01*
X142894742Y-94874329D01*
X142740643Y-94921075D01*
X142598624Y-94996985D01*
X142474144Y-95099144D01*
X142371985Y-95223624D01*
X142296075Y-95365643D01*
X142249329Y-95519742D01*
X142233545Y-95680000D01*
X140546455Y-95680000D01*
X140530671Y-95519742D01*
X140483925Y-95365643D01*
X140408015Y-95223624D01*
X140305856Y-95099144D01*
X140181376Y-94996985D01*
X140039357Y-94921075D01*
X139885258Y-94874329D01*
X139765156Y-94862500D01*
X139084844Y-94862500D01*
X138964742Y-94874329D01*
X138810643Y-94921075D01*
X138668624Y-94996985D01*
X138544144Y-95099144D01*
X138441985Y-95223624D01*
X138366075Y-95365643D01*
X138319329Y-95519742D01*
X138303545Y-95680000D01*
X137851005Y-95680000D01*
X137889961Y-95282702D01*
X138025674Y-94833197D01*
X138246109Y-94418620D01*
X138553594Y-94041607D01*
X139172472Y-93413004D01*
X139140837Y-93489376D01*
X139106500Y-93661998D01*
X139106500Y-93838002D01*
X139140837Y-94010624D01*
X139208191Y-94173231D01*
X139305973Y-94319573D01*
X139430427Y-94444027D01*
X139576769Y-94541809D01*
X139739376Y-94609163D01*
X139911998Y-94643500D01*
X140088002Y-94643500D01*
X140260624Y-94609163D01*
X140423231Y-94541809D01*
X140569573Y-94444027D01*
X140694027Y-94319573D01*
X140791809Y-94173231D01*
X140859163Y-94010624D01*
X140893500Y-93838002D01*
X140893500Y-93661998D01*
X140859163Y-93489376D01*
X140791809Y-93326769D01*
X140694027Y-93180427D01*
X140569573Y-93055973D01*
X140423231Y-92958191D01*
X140260624Y-92890837D01*
X140088002Y-92856500D01*
X139911998Y-92856500D01*
X139739376Y-92890837D01*
X139650188Y-92927780D01*
X145304107Y-87185011D01*
X154982500Y-87185011D01*
X154982500Y-87414989D01*
X155027366Y-87640547D01*
X155115375Y-87853019D01*
X155243144Y-88044238D01*
X155405762Y-88206856D01*
X155596981Y-88334625D01*
X155809453Y-88422634D01*
X156035011Y-88467500D01*
X156264989Y-88467500D01*
X156490547Y-88422634D01*
X156703019Y-88334625D01*
X156894238Y-88206856D01*
X157056856Y-88044238D01*
X157184625Y-87853019D01*
X157272634Y-87640547D01*
X157317500Y-87414989D01*
X157317500Y-87185011D01*
X157522500Y-87185011D01*
X157522500Y-87414989D01*
X157567366Y-87640547D01*
X157655375Y-87853019D01*
X157783144Y-88044238D01*
X157945762Y-88206856D01*
X158136981Y-88334625D01*
X158349453Y-88422634D01*
X158575011Y-88467500D01*
X158804989Y-88467500D01*
X159030547Y-88422634D01*
X159243019Y-88334625D01*
X159434238Y-88206856D01*
X159596856Y-88044238D01*
X159724625Y-87853019D01*
X159812634Y-87640547D01*
X159857500Y-87414989D01*
X159857500Y-87185011D01*
X159812634Y-86959453D01*
X159724625Y-86746981D01*
X159596856Y-86555762D01*
X159434238Y-86393144D01*
X159243019Y-86265375D01*
X159030547Y-86177366D01*
X158804989Y-86132500D01*
X158575011Y-86132500D01*
X158349453Y-86177366D01*
X158136981Y-86265375D01*
X157945762Y-86393144D01*
X157783144Y-86555762D01*
X157655375Y-86746981D01*
X157567366Y-86959453D01*
X157522500Y-87185011D01*
X157317500Y-87185011D01*
X157272634Y-86959453D01*
X157184625Y-86746981D01*
X157056856Y-86555762D01*
X156894238Y-86393144D01*
X156703019Y-86265375D01*
X156490547Y-86177366D01*
X156264989Y-86132500D01*
X156035011Y-86132500D01*
X155809453Y-86177366D01*
X155596981Y-86265375D01*
X155405762Y-86393144D01*
X155243144Y-86555762D01*
X155115375Y-86746981D01*
X155027366Y-86959453D01*
X154982500Y-87185011D01*
X145304107Y-87185011D01*
X147328954Y-85128344D01*
X155042129Y-85128344D01*
X155106150Y-85282931D01*
X155228226Y-85476528D01*
X155385725Y-85642589D01*
X155572595Y-85774733D01*
X155781654Y-85867881D01*
X155959500Y-85832488D01*
X155959500Y-84950500D01*
X156340500Y-84950500D01*
X156340500Y-85832488D01*
X156518346Y-85867881D01*
X156727405Y-85774733D01*
X156914275Y-85642589D01*
X157071774Y-85476528D01*
X157193850Y-85282931D01*
X157257871Y-85128344D01*
X157582129Y-85128344D01*
X157646150Y-85282931D01*
X157768226Y-85476528D01*
X157925725Y-85642589D01*
X158112595Y-85774733D01*
X158321654Y-85867881D01*
X158499500Y-85832488D01*
X158499500Y-84950500D01*
X158880500Y-84950500D01*
X158880500Y-85832488D01*
X159058346Y-85867881D01*
X159267405Y-85774733D01*
X159454275Y-85642589D01*
X159611774Y-85476528D01*
X159733850Y-85282931D01*
X159797871Y-85128344D01*
X159761320Y-84950500D01*
X158880500Y-84950500D01*
X158499500Y-84950500D01*
X157618680Y-84950500D01*
X157582129Y-85128344D01*
X157257871Y-85128344D01*
X157221320Y-84950500D01*
X156340500Y-84950500D01*
X155959500Y-84950500D01*
X155078680Y-84950500D01*
X155042129Y-85128344D01*
X147328954Y-85128344D01*
X148054244Y-84391656D01*
X155042129Y-84391656D01*
X155078680Y-84569500D01*
X155959500Y-84569500D01*
X155959500Y-83687512D01*
X156340500Y-83687512D01*
X156340500Y-84569500D01*
X157221320Y-84569500D01*
X157257871Y-84391656D01*
X157582129Y-84391656D01*
X157618680Y-84569500D01*
X158499500Y-84569500D01*
X158499500Y-83687512D01*
X158880500Y-83687512D01*
X158880500Y-84569500D01*
X159761320Y-84569500D01*
X159797871Y-84391656D01*
X159733850Y-84237069D01*
X159611774Y-84043472D01*
X159454275Y-83877411D01*
X159267405Y-83745267D01*
X159058346Y-83652119D01*
X158880500Y-83687512D01*
X158499500Y-83687512D01*
X158321654Y-83652119D01*
X158112595Y-83745267D01*
X157925725Y-83877411D01*
X157768226Y-84043472D01*
X157646150Y-84237069D01*
X157582129Y-84391656D01*
X157257871Y-84391656D01*
X157193850Y-84237069D01*
X157071774Y-84043472D01*
X156914275Y-83877411D01*
X156727405Y-83745267D01*
X156518346Y-83652119D01*
X156340500Y-83687512D01*
X155959500Y-83687512D01*
X155781654Y-83652119D01*
X155572595Y-83745267D01*
X155385725Y-83877411D01*
X155228226Y-84043472D01*
X155106150Y-84237069D01*
X155042129Y-84391656D01*
X148054244Y-84391656D01*
X149072863Y-83357030D01*
X150050209Y-82516530D01*
X151116103Y-81803114D01*
X151970006Y-81370000D01*
X154980964Y-81370000D01*
X154980964Y-83070000D01*
X154987094Y-83132241D01*
X155005249Y-83192090D01*
X155034731Y-83247247D01*
X155074407Y-83295593D01*
X155122753Y-83335269D01*
X155177910Y-83364751D01*
X155237759Y-83382906D01*
X155300000Y-83389036D01*
X157000000Y-83389036D01*
X157062241Y-83382906D01*
X157122090Y-83364751D01*
X157177247Y-83335269D01*
X157225593Y-83295593D01*
X157265269Y-83247247D01*
X157294751Y-83192090D01*
X157312906Y-83132241D01*
X157319036Y-83070000D01*
X157319036Y-82105011D01*
X157522500Y-82105011D01*
X157522500Y-82334989D01*
X157567366Y-82560547D01*
X157655375Y-82773019D01*
X157783144Y-82964238D01*
X157945762Y-83126856D01*
X158136981Y-83254625D01*
X158349453Y-83342634D01*
X158575011Y-83387500D01*
X158804989Y-83387500D01*
X159030547Y-83342634D01*
X159243019Y-83254625D01*
X159434238Y-83126856D01*
X159596856Y-82964238D01*
X159724625Y-82773019D01*
X159812634Y-82560547D01*
X159857500Y-82334989D01*
X159857500Y-82105011D01*
X159812634Y-81879453D01*
X159724625Y-81666981D01*
X159596856Y-81475762D01*
X159434238Y-81313144D01*
X159243019Y-81185375D01*
X159186583Y-81161998D01*
X160356500Y-81161998D01*
X160356500Y-81338002D01*
X160390837Y-81510624D01*
X160458191Y-81673231D01*
X160555973Y-81819573D01*
X160680427Y-81944027D01*
X160826769Y-82041809D01*
X160989376Y-82109163D01*
X161161998Y-82143500D01*
X161338002Y-82143500D01*
X161510624Y-82109163D01*
X161673231Y-82041809D01*
X161819573Y-81944027D01*
X161944027Y-81819573D01*
X162041809Y-81673231D01*
X162109163Y-81510624D01*
X162143500Y-81338002D01*
X162143500Y-81161998D01*
X162109163Y-80989376D01*
X162041809Y-80826769D01*
X161944027Y-80680427D01*
X161819573Y-80555973D01*
X161673231Y-80458191D01*
X161510624Y-80390837D01*
X161338002Y-80356500D01*
X161161998Y-80356500D01*
X160989376Y-80390837D01*
X160826769Y-80458191D01*
X160680427Y-80555973D01*
X160555973Y-80680427D01*
X160458191Y-80826769D01*
X160390837Y-80989376D01*
X160356500Y-81161998D01*
X159186583Y-81161998D01*
X159030547Y-81097366D01*
X158804989Y-81052500D01*
X158575011Y-81052500D01*
X158349453Y-81097366D01*
X158136981Y-81185375D01*
X157945762Y-81313144D01*
X157783144Y-81475762D01*
X157655375Y-81666981D01*
X157567366Y-81879453D01*
X157522500Y-82105011D01*
X157319036Y-82105011D01*
X157319036Y-81370000D01*
X157312906Y-81307759D01*
X157294751Y-81247910D01*
X157265269Y-81192753D01*
X157225593Y-81144407D01*
X157177247Y-81104731D01*
X157122090Y-81075249D01*
X157062241Y-81057094D01*
X157000000Y-81050964D01*
X155300000Y-81050964D01*
X155237759Y-81057094D01*
X155177910Y-81075249D01*
X155122753Y-81104731D01*
X155074407Y-81144407D01*
X155034731Y-81192753D01*
X155005249Y-81247910D01*
X154987094Y-81307759D01*
X154980964Y-81370000D01*
X151970006Y-81370000D01*
X152259983Y-81222919D01*
X153465273Y-80784351D01*
X154714536Y-80493755D01*
X155995837Y-80354678D01*
X156504113Y-80342500D01*
X161483253Y-80342500D01*
X161627388Y-80356633D01*
%TA.AperFunction,Conductor*%
D18*
G36*
X161627388Y-80356633D02*
G01*
X161749926Y-80393629D01*
X161862948Y-80453724D01*
X161962140Y-80534622D01*
X162043731Y-80633249D01*
X162104610Y-80745844D01*
X162142461Y-80868121D01*
X162157501Y-81011210D01*
X162157500Y-118983253D01*
X162143367Y-119127388D01*
X162106371Y-119249926D01*
X162046275Y-119362950D01*
X161965378Y-119462140D01*
X161866754Y-119543729D01*
X161754156Y-119604610D01*
X161631879Y-119642461D01*
X161488799Y-119657500D01*
X156510309Y-119657500D01*
X155219719Y-119579695D01*
X153957975Y-119349259D01*
X152733067Y-118968914D01*
X151562707Y-118444161D01*
X150463875Y-117782610D01*
X150313084Y-117665011D01*
X154982500Y-117665011D01*
X154982500Y-117894989D01*
X155027366Y-118120547D01*
X155115375Y-118333019D01*
X155243144Y-118524238D01*
X155405762Y-118686856D01*
X155596981Y-118814625D01*
X155809453Y-118902634D01*
X156035011Y-118947500D01*
X156264989Y-118947500D01*
X156490547Y-118902634D01*
X156703019Y-118814625D01*
X156894238Y-118686856D01*
X157056856Y-118524238D01*
X157184625Y-118333019D01*
X157272634Y-118120547D01*
X157317500Y-117894989D01*
X157317500Y-117665011D01*
X157522500Y-117665011D01*
X157522500Y-117894989D01*
X157567366Y-118120547D01*
X157655375Y-118333019D01*
X157783144Y-118524238D01*
X157945762Y-118686856D01*
X158136981Y-118814625D01*
X158349453Y-118902634D01*
X158575011Y-118947500D01*
X158804989Y-118947500D01*
X159030547Y-118902634D01*
X159243019Y-118814625D01*
X159434238Y-118686856D01*
X159459096Y-118661998D01*
X160356500Y-118661998D01*
X160356500Y-118838002D01*
X160390837Y-119010624D01*
X160458191Y-119173231D01*
X160555973Y-119319573D01*
X160680427Y-119444027D01*
X160826769Y-119541809D01*
X160989376Y-119609163D01*
X161161998Y-119643500D01*
X161338002Y-119643500D01*
X161510624Y-119609163D01*
X161673231Y-119541809D01*
X161819573Y-119444027D01*
X161944027Y-119319573D01*
X162041809Y-119173231D01*
X162109163Y-119010624D01*
X162143500Y-118838002D01*
X162143500Y-118661998D01*
X162109163Y-118489376D01*
X162041809Y-118326769D01*
X161944027Y-118180427D01*
X161819573Y-118055973D01*
X161673231Y-117958191D01*
X161510624Y-117890837D01*
X161338002Y-117856500D01*
X161161998Y-117856500D01*
X160989376Y-117890837D01*
X160826769Y-117958191D01*
X160680427Y-118055973D01*
X160555973Y-118180427D01*
X160458191Y-118326769D01*
X160390837Y-118489376D01*
X160356500Y-118661998D01*
X159459096Y-118661998D01*
X159596856Y-118524238D01*
X159724625Y-118333019D01*
X159812634Y-118120547D01*
X159857500Y-117894989D01*
X159857500Y-117665011D01*
X159812634Y-117439453D01*
X159724625Y-117226981D01*
X159596856Y-117035762D01*
X159434238Y-116873144D01*
X159243019Y-116745375D01*
X159030547Y-116657366D01*
X158804989Y-116612500D01*
X158575011Y-116612500D01*
X158349453Y-116657366D01*
X158136981Y-116745375D01*
X157945762Y-116873144D01*
X157783144Y-117035762D01*
X157655375Y-117226981D01*
X157567366Y-117439453D01*
X157522500Y-117665011D01*
X157317500Y-117665011D01*
X157272634Y-117439453D01*
X157184625Y-117226981D01*
X157056856Y-117035762D01*
X156894238Y-116873144D01*
X156703019Y-116745375D01*
X156490547Y-116657366D01*
X156264989Y-116612500D01*
X156035011Y-116612500D01*
X155809453Y-116657366D01*
X155596981Y-116745375D01*
X155405762Y-116873144D01*
X155243144Y-117035762D01*
X155115375Y-117226981D01*
X155027366Y-117439453D01*
X154982500Y-117665011D01*
X150313084Y-117665011D01*
X149447518Y-116989973D01*
X149083424Y-116653408D01*
X147580158Y-115125011D01*
X154982500Y-115125011D01*
X154982500Y-115354989D01*
X155027366Y-115580547D01*
X155115375Y-115793019D01*
X155243144Y-115984238D01*
X155405762Y-116146856D01*
X155596981Y-116274625D01*
X155809453Y-116362634D01*
X156035011Y-116407500D01*
X156264989Y-116407500D01*
X156490547Y-116362634D01*
X156703019Y-116274625D01*
X156894238Y-116146856D01*
X157056856Y-115984238D01*
X157184625Y-115793019D01*
X157272634Y-115580547D01*
X157317500Y-115354989D01*
X157317500Y-115125011D01*
X157522500Y-115125011D01*
X157522500Y-115354989D01*
X157567366Y-115580547D01*
X157655375Y-115793019D01*
X157783144Y-115984238D01*
X157945762Y-116146856D01*
X158136981Y-116274625D01*
X158349453Y-116362634D01*
X158575011Y-116407500D01*
X158804989Y-116407500D01*
X159030547Y-116362634D01*
X159243019Y-116274625D01*
X159434238Y-116146856D01*
X159596856Y-115984238D01*
X159724625Y-115793019D01*
X159812634Y-115580547D01*
X159857500Y-115354989D01*
X159857500Y-115125011D01*
X159812634Y-114899453D01*
X159724625Y-114686981D01*
X159596856Y-114495762D01*
X159434238Y-114333144D01*
X159243019Y-114205375D01*
X159030547Y-114117366D01*
X158804989Y-114072500D01*
X158575011Y-114072500D01*
X158349453Y-114117366D01*
X158136981Y-114205375D01*
X157945762Y-114333144D01*
X157783144Y-114495762D01*
X157655375Y-114686981D01*
X157567366Y-114899453D01*
X157522500Y-115125011D01*
X157317500Y-115125011D01*
X157272634Y-114899453D01*
X157184625Y-114686981D01*
X157056856Y-114495762D01*
X156894238Y-114333144D01*
X156703019Y-114205375D01*
X156490547Y-114117366D01*
X156264989Y-114072500D01*
X156035011Y-114072500D01*
X155809453Y-114117366D01*
X155596981Y-114205375D01*
X155405762Y-114333144D01*
X155243144Y-114495762D01*
X155115375Y-114686981D01*
X155027366Y-114899453D01*
X154982500Y-115125011D01*
X147580158Y-115125011D01*
X145081922Y-112585011D01*
X154982500Y-112585011D01*
X154982500Y-112814989D01*
X155027366Y-113040547D01*
X155115375Y-113253019D01*
X155243144Y-113444238D01*
X155405762Y-113606856D01*
X155596981Y-113734625D01*
X155809453Y-113822634D01*
X156035011Y-113867500D01*
X156264989Y-113867500D01*
X156490547Y-113822634D01*
X156703019Y-113734625D01*
X156894238Y-113606856D01*
X157056856Y-113444238D01*
X157184625Y-113253019D01*
X157272634Y-113040547D01*
X157317500Y-112814989D01*
X157317500Y-112585011D01*
X157522500Y-112585011D01*
X157522500Y-112814989D01*
X157567366Y-113040547D01*
X157655375Y-113253019D01*
X157783144Y-113444238D01*
X157945762Y-113606856D01*
X158136981Y-113734625D01*
X158349453Y-113822634D01*
X158575011Y-113867500D01*
X158804989Y-113867500D01*
X159030547Y-113822634D01*
X159243019Y-113734625D01*
X159434238Y-113606856D01*
X159596856Y-113444238D01*
X159724625Y-113253019D01*
X159812634Y-113040547D01*
X159857500Y-112814989D01*
X159857500Y-112585011D01*
X159812634Y-112359453D01*
X159724625Y-112146981D01*
X159596856Y-111955762D01*
X159434238Y-111793144D01*
X159243019Y-111665375D01*
X159030547Y-111577366D01*
X158804989Y-111532500D01*
X158575011Y-111532500D01*
X158349453Y-111577366D01*
X158136981Y-111665375D01*
X157945762Y-111793144D01*
X157783144Y-111955762D01*
X157655375Y-112146981D01*
X157567366Y-112359453D01*
X157522500Y-112585011D01*
X157317500Y-112585011D01*
X157272634Y-112359453D01*
X157184625Y-112146981D01*
X157056856Y-111955762D01*
X156894238Y-111793144D01*
X156703019Y-111665375D01*
X156490547Y-111577366D01*
X156264989Y-111532500D01*
X156035011Y-111532500D01*
X155809453Y-111577366D01*
X155596981Y-111665375D01*
X155405762Y-111793144D01*
X155243144Y-111955762D01*
X155115375Y-112146981D01*
X155027366Y-112359453D01*
X154982500Y-112585011D01*
X145081922Y-112585011D01*
X142583685Y-110045011D01*
X154982500Y-110045011D01*
X154982500Y-110274989D01*
X155027366Y-110500547D01*
X155115375Y-110713019D01*
X155243144Y-110904238D01*
X155405762Y-111066856D01*
X155596981Y-111194625D01*
X155809453Y-111282634D01*
X156035011Y-111327500D01*
X156264989Y-111327500D01*
X156490547Y-111282634D01*
X156703019Y-111194625D01*
X156894238Y-111066856D01*
X157056856Y-110904238D01*
X157184625Y-110713019D01*
X157272634Y-110500547D01*
X157317500Y-110274989D01*
X157317500Y-110045011D01*
X157522500Y-110045011D01*
X157522500Y-110274989D01*
X157567366Y-110500547D01*
X157655375Y-110713019D01*
X157783144Y-110904238D01*
X157945762Y-111066856D01*
X158136981Y-111194625D01*
X158349453Y-111282634D01*
X158575011Y-111327500D01*
X158804989Y-111327500D01*
X159030547Y-111282634D01*
X159243019Y-111194625D01*
X159434238Y-111066856D01*
X159596856Y-110904238D01*
X159724625Y-110713019D01*
X159812634Y-110500547D01*
X159857500Y-110274989D01*
X159857500Y-110045011D01*
X159812634Y-109819453D01*
X159724625Y-109606981D01*
X159596856Y-109415762D01*
X159434238Y-109253144D01*
X159243019Y-109125375D01*
X159030547Y-109037366D01*
X158804989Y-108992500D01*
X158575011Y-108992500D01*
X158349453Y-109037366D01*
X158136981Y-109125375D01*
X157945762Y-109253144D01*
X157783144Y-109415762D01*
X157655375Y-109606981D01*
X157567366Y-109819453D01*
X157522500Y-110045011D01*
X157317500Y-110045011D01*
X157272634Y-109819453D01*
X157184625Y-109606981D01*
X157056856Y-109415762D01*
X156894238Y-109253144D01*
X156703019Y-109125375D01*
X156490547Y-109037366D01*
X156264989Y-108992500D01*
X156035011Y-108992500D01*
X155809453Y-109037366D01*
X155596981Y-109125375D01*
X155405762Y-109253144D01*
X155243144Y-109415762D01*
X155115375Y-109606981D01*
X155027366Y-109819453D01*
X154982500Y-110045011D01*
X142583685Y-110045011D01*
X140560834Y-107988344D01*
X155042129Y-107988344D01*
X155106150Y-108142931D01*
X155228226Y-108336528D01*
X155385725Y-108502589D01*
X155572595Y-108634733D01*
X155781654Y-108727881D01*
X155959500Y-108692488D01*
X155959500Y-107810500D01*
X156340500Y-107810500D01*
X156340500Y-108692488D01*
X156518346Y-108727881D01*
X156727405Y-108634733D01*
X156914275Y-108502589D01*
X157071774Y-108336528D01*
X157193850Y-108142931D01*
X157257871Y-107988344D01*
X157582129Y-107988344D01*
X157646150Y-108142931D01*
X157768226Y-108336528D01*
X157925725Y-108502589D01*
X158112595Y-108634733D01*
X158321654Y-108727881D01*
X158499500Y-108692488D01*
X158499500Y-107810500D01*
X158880500Y-107810500D01*
X158880500Y-108692488D01*
X159058346Y-108727881D01*
X159267405Y-108634733D01*
X159454275Y-108502589D01*
X159611774Y-108336528D01*
X159733850Y-108142931D01*
X159797871Y-107988344D01*
X159761320Y-107810500D01*
X158880500Y-107810500D01*
X158499500Y-107810500D01*
X157618680Y-107810500D01*
X157582129Y-107988344D01*
X157257871Y-107988344D01*
X157221320Y-107810500D01*
X156340500Y-107810500D01*
X155959500Y-107810500D01*
X155078680Y-107810500D01*
X155042129Y-107988344D01*
X140560834Y-107988344D01*
X139666361Y-107078919D01*
X139739376Y-107109163D01*
X139911998Y-107143500D01*
X140088002Y-107143500D01*
X140260624Y-107109163D01*
X140423231Y-107041809D01*
X140569573Y-106944027D01*
X140694027Y-106819573D01*
X140791809Y-106673231D01*
X140859163Y-106510624D01*
X140893500Y-106338002D01*
X140893500Y-106161998D01*
X140859163Y-105989376D01*
X140791809Y-105826769D01*
X140694027Y-105680427D01*
X140569573Y-105555973D01*
X140423231Y-105458191D01*
X140260624Y-105390837D01*
X140088002Y-105356500D01*
X139911998Y-105356500D01*
X139739376Y-105390837D01*
X139576769Y-105458191D01*
X139430427Y-105555973D01*
X139305973Y-105680427D01*
X139208191Y-105826769D01*
X139140837Y-105989376D01*
X139106500Y-106161998D01*
X139106500Y-106338002D01*
X139140837Y-106510624D01*
X139165156Y-106569336D01*
X138686061Y-106082232D01*
X138344225Y-105718391D01*
X138095308Y-105320258D01*
X137928463Y-104881361D01*
X137848238Y-104407751D01*
X137842500Y-104243998D01*
X137842500Y-95766747D01*
X137851005Y-95680000D01*
X138303545Y-95680000D01*
X138319329Y-95840258D01*
X138366075Y-95994357D01*
X138441985Y-96136376D01*
X138544144Y-96260856D01*
X138668624Y-96363015D01*
X138810643Y-96438925D01*
X138964742Y-96485671D01*
X139084844Y-96497500D01*
X139369224Y-96497500D01*
X139857501Y-96985778D01*
X139857500Y-102919223D01*
X139274224Y-103502500D01*
X139084844Y-103502500D01*
X138964742Y-103514329D01*
X138810643Y-103561075D01*
X138668624Y-103636985D01*
X138544144Y-103739144D01*
X138441985Y-103863624D01*
X138366075Y-104005643D01*
X138319329Y-104159742D01*
X138303545Y-104320000D01*
X138319329Y-104480258D01*
X138366075Y-104634357D01*
X138441985Y-104776376D01*
X138544144Y-104900856D01*
X138668624Y-105003015D01*
X138810643Y-105078925D01*
X138964742Y-105125671D01*
X139084844Y-105137500D01*
X139765156Y-105137500D01*
X139885258Y-105125671D01*
X140039357Y-105078925D01*
X140181376Y-105003015D01*
X140305856Y-104900856D01*
X140408015Y-104776376D01*
X140483925Y-104634357D01*
X140530671Y-104480258D01*
X140546455Y-104320000D01*
X142233545Y-104320000D01*
X142249329Y-104480258D01*
X142296075Y-104634357D01*
X142371985Y-104776376D01*
X142474144Y-104900856D01*
X142598624Y-105003015D01*
X142740643Y-105078925D01*
X142894742Y-105125671D01*
X143014844Y-105137500D01*
X144195156Y-105137500D01*
X144315258Y-105125671D01*
X144469357Y-105078925D01*
X144611376Y-105003015D01*
X144735856Y-104900856D01*
X144838015Y-104776376D01*
X144913925Y-104634357D01*
X144960671Y-104480258D01*
X144976455Y-104320000D01*
X144960671Y-104159742D01*
X144913925Y-104005643D01*
X144838015Y-103863624D01*
X144735856Y-103739144D01*
X144611376Y-103636985D01*
X144469357Y-103561075D01*
X144315258Y-103514329D01*
X144195156Y-103502500D01*
X143305227Y-103502500D01*
X143409338Y-103459376D01*
X143514570Y-103389063D01*
X143604063Y-103299570D01*
X143674376Y-103194338D01*
X143676511Y-103189182D01*
X149355500Y-103189182D01*
X149355500Y-103310818D01*
X149379230Y-103430118D01*
X149425778Y-103542496D01*
X149493356Y-103643633D01*
X149579367Y-103729644D01*
X149680504Y-103797222D01*
X149792882Y-103843770D01*
X149912182Y-103867500D01*
X150033818Y-103867500D01*
X150153118Y-103843770D01*
X150265496Y-103797222D01*
X150366633Y-103729644D01*
X150452644Y-103643633D01*
X150520222Y-103542496D01*
X150566770Y-103430118D01*
X150579225Y-103367501D01*
X151759222Y-103367501D01*
X151084809Y-104041915D01*
X151061250Y-104061249D01*
X151041916Y-104084808D01*
X150984084Y-104155276D01*
X150963027Y-104194672D01*
X150926745Y-104262550D01*
X150891435Y-104378949D01*
X150882500Y-104469671D01*
X150879513Y-104500000D01*
X150882500Y-104530326D01*
X150882500Y-104969672D01*
X150882501Y-106744223D01*
X150856370Y-106770354D01*
X150856367Y-106770356D01*
X150770356Y-106856367D01*
X150753413Y-106881723D01*
X150734084Y-106905276D01*
X150719722Y-106932145D01*
X150702778Y-106957504D01*
X150691106Y-106985684D01*
X150676745Y-107012551D01*
X150667901Y-107041705D01*
X150656230Y-107069882D01*
X150650280Y-107099793D01*
X150641436Y-107128949D01*
X150638449Y-107159273D01*
X150632500Y-107189182D01*
X150632500Y-107219674D01*
X150629513Y-107250000D01*
X150632500Y-107280326D01*
X150632500Y-107310818D01*
X150638449Y-107340727D01*
X150641436Y-107371051D01*
X150650280Y-107400207D01*
X150656230Y-107430118D01*
X150667901Y-107458295D01*
X150676745Y-107487449D01*
X150691106Y-107514316D01*
X150702778Y-107542496D01*
X150719722Y-107567855D01*
X150734084Y-107594724D01*
X150753413Y-107618276D01*
X150770356Y-107643633D01*
X150791922Y-107665199D01*
X150811250Y-107688750D01*
X150834801Y-107708078D01*
X150856367Y-107729644D01*
X150881724Y-107746587D01*
X150905276Y-107765916D01*
X150932145Y-107780278D01*
X150957504Y-107797222D01*
X150985684Y-107808894D01*
X151012551Y-107823255D01*
X151041705Y-107832099D01*
X151069882Y-107843770D01*
X151099793Y-107849720D01*
X151128949Y-107858564D01*
X151159273Y-107861551D01*
X151189182Y-107867500D01*
X151219674Y-107867500D01*
X151250000Y-107870487D01*
X151280326Y-107867500D01*
X151310818Y-107867500D01*
X151340727Y-107861551D01*
X151371051Y-107858564D01*
X151400207Y-107849720D01*
X151430118Y-107843770D01*
X151458295Y-107832099D01*
X151487449Y-107823255D01*
X151514316Y-107808894D01*
X151542496Y-107797222D01*
X151567855Y-107780278D01*
X151594724Y-107765916D01*
X151618277Y-107746587D01*
X151643633Y-107729644D01*
X151729644Y-107643633D01*
X151729646Y-107643630D01*
X151915186Y-107458090D01*
X151938751Y-107438751D01*
X152015916Y-107344724D01*
X152073255Y-107237450D01*
X152108565Y-107121051D01*
X152117500Y-107030329D01*
X152117500Y-107030327D01*
X152120487Y-107000001D01*
X152117500Y-106969675D01*
X152117500Y-104755776D01*
X152720584Y-104152693D01*
X152742144Y-104131133D01*
X152759083Y-104105782D01*
X152778416Y-104082225D01*
X152792781Y-104055351D01*
X152809722Y-104029996D01*
X152821392Y-104001821D01*
X152835755Y-103974950D01*
X152844600Y-103945793D01*
X152856270Y-103917618D01*
X152862219Y-103887708D01*
X152871064Y-103858551D01*
X152874051Y-103828227D01*
X152880000Y-103798318D01*
X152880000Y-103767826D01*
X152882987Y-103737500D01*
X152880000Y-103707174D01*
X152880000Y-103676682D01*
X152874051Y-103646773D01*
X152871064Y-103616449D01*
X152862219Y-103587292D01*
X152856270Y-103557382D01*
X152844600Y-103529207D01*
X152835755Y-103500050D01*
X152821393Y-103473180D01*
X152809722Y-103445004D01*
X152792779Y-103419646D01*
X152778416Y-103392776D01*
X152759087Y-103369224D01*
X152757936Y-103367501D01*
X152777067Y-103367501D01*
X154082500Y-104672934D01*
X154082501Y-106229488D01*
X154080481Y-106250000D01*
X154088541Y-106331844D01*
X154112415Y-106410543D01*
X154151183Y-106483073D01*
X154190281Y-106530715D01*
X154190289Y-106530723D01*
X154203356Y-106546645D01*
X154219279Y-106559713D01*
X154440279Y-106780712D01*
X154453355Y-106796645D01*
X154516927Y-106848818D01*
X154589457Y-106887586D01*
X154668156Y-106911459D01*
X154729491Y-106917500D01*
X154729500Y-106917500D01*
X154749999Y-106919519D01*
X154770498Y-106917500D01*
X154821223Y-106917500D01*
X154883367Y-106979644D01*
X154984504Y-107047222D01*
X155096882Y-107093770D01*
X155106966Y-107095776D01*
X155106150Y-107097069D01*
X155042129Y-107251656D01*
X155078680Y-107429500D01*
X155959500Y-107429500D01*
X155959500Y-106547512D01*
X156340500Y-106547512D01*
X156340500Y-107429500D01*
X157221320Y-107429500D01*
X157257871Y-107251656D01*
X157582129Y-107251656D01*
X157618680Y-107429500D01*
X158499500Y-107429500D01*
X158499500Y-106547512D01*
X158880500Y-106547512D01*
X158880500Y-107429500D01*
X159761320Y-107429500D01*
X159797871Y-107251656D01*
X159733850Y-107097069D01*
X159611774Y-106903472D01*
X159454275Y-106737411D01*
X159267405Y-106605267D01*
X159058346Y-106512119D01*
X158880500Y-106547512D01*
X158499500Y-106547512D01*
X158321654Y-106512119D01*
X158112595Y-106605267D01*
X157925725Y-106737411D01*
X157768226Y-106903472D01*
X157646150Y-107097069D01*
X157582129Y-107251656D01*
X157257871Y-107251656D01*
X157193850Y-107097069D01*
X157071774Y-106903472D01*
X156914275Y-106737411D01*
X156727405Y-106605267D01*
X156518346Y-106512119D01*
X156340500Y-106547512D01*
X155959500Y-106547512D01*
X155894500Y-106534576D01*
X155894500Y-106439182D01*
X155870770Y-106319882D01*
X155841425Y-106249036D01*
X157000000Y-106249036D01*
X157062241Y-106242906D01*
X157122090Y-106224751D01*
X157177247Y-106195269D01*
X157225593Y-106155593D01*
X157265269Y-106107247D01*
X157294751Y-106052090D01*
X157312906Y-105992241D01*
X157319036Y-105930000D01*
X157319036Y-105697500D01*
X157698460Y-105697500D01*
X157783144Y-105824238D01*
X157945762Y-105986856D01*
X158136981Y-106114625D01*
X158349453Y-106202634D01*
X158575011Y-106247500D01*
X158804989Y-106247500D01*
X159030547Y-106202634D01*
X159243019Y-106114625D01*
X159434238Y-105986856D01*
X159596856Y-105824238D01*
X159724625Y-105633019D01*
X159812634Y-105420547D01*
X159857500Y-105194989D01*
X159857500Y-104965011D01*
X159812634Y-104739453D01*
X159724625Y-104526981D01*
X159596856Y-104335762D01*
X159434238Y-104173144D01*
X159243019Y-104045375D01*
X159030547Y-103957366D01*
X158804989Y-103912500D01*
X158575011Y-103912500D01*
X158349453Y-103957366D01*
X158136981Y-104045375D01*
X157945762Y-104173144D01*
X157783144Y-104335762D01*
X157698460Y-104462500D01*
X157319036Y-104462500D01*
X157319036Y-104230000D01*
X157312906Y-104167759D01*
X157294751Y-104107910D01*
X157265269Y-104052753D01*
X157225593Y-104004407D01*
X157177247Y-103964731D01*
X157122090Y-103935249D01*
X157062241Y-103917094D01*
X157000000Y-103910964D01*
X156767500Y-103910964D01*
X156767500Y-102680325D01*
X156770487Y-102649999D01*
X156767500Y-102619671D01*
X156758565Y-102528949D01*
X156723255Y-102412550D01*
X156674120Y-102320624D01*
X156665916Y-102305275D01*
X156638764Y-102272191D01*
X156588751Y-102211249D01*
X156565181Y-102191906D01*
X156208091Y-101834815D01*
X156188751Y-101811249D01*
X156094724Y-101734084D01*
X155987450Y-101676745D01*
X155871051Y-101641435D01*
X155780329Y-101632500D01*
X155780326Y-101632500D01*
X155750000Y-101629513D01*
X155719674Y-101632500D01*
X154439182Y-101632500D01*
X154409280Y-101638448D01*
X154378949Y-101641435D01*
X154349785Y-101650282D01*
X154319882Y-101656230D01*
X154291709Y-101667900D01*
X154262550Y-101676745D01*
X154235680Y-101691107D01*
X154207504Y-101702778D01*
X154182146Y-101719721D01*
X154155276Y-101734084D01*
X154131721Y-101753415D01*
X154106367Y-101770356D01*
X154084809Y-101791914D01*
X154061249Y-101811249D01*
X154041914Y-101834809D01*
X154020356Y-101856367D01*
X154003415Y-101881721D01*
X153984084Y-101905276D01*
X153969721Y-101932146D01*
X153952778Y-101957504D01*
X153941107Y-101985680D01*
X153926745Y-102012550D01*
X153917900Y-102041709D01*
X153906230Y-102069882D01*
X153900282Y-102099785D01*
X153891435Y-102128949D01*
X153888448Y-102159280D01*
X153882500Y-102189182D01*
X153882500Y-102219671D01*
X153879513Y-102250000D01*
X153882500Y-102280329D01*
X153882500Y-102310818D01*
X153888448Y-102340720D01*
X153891435Y-102371051D01*
X153900282Y-102400215D01*
X153906230Y-102430118D01*
X153917900Y-102458291D01*
X153926745Y-102487450D01*
X153941107Y-102514320D01*
X153952778Y-102542496D01*
X153969721Y-102567854D01*
X153984084Y-102594724D01*
X154003415Y-102618279D01*
X154020356Y-102643633D01*
X154041914Y-102665191D01*
X154061249Y-102688751D01*
X154084809Y-102708086D01*
X154106367Y-102729644D01*
X154131721Y-102746585D01*
X154155276Y-102765916D01*
X154182146Y-102780279D01*
X154207504Y-102797222D01*
X154235680Y-102808893D01*
X154262550Y-102823255D01*
X154291709Y-102832100D01*
X154319882Y-102843770D01*
X154349785Y-102849718D01*
X154378949Y-102858565D01*
X154409280Y-102861552D01*
X154439182Y-102867500D01*
X155494224Y-102867500D01*
X155532501Y-102905776D01*
X155532500Y-103910964D01*
X155300000Y-103910964D01*
X155237759Y-103917094D01*
X155177910Y-103935249D01*
X155122753Y-103964731D01*
X155074407Y-104004407D01*
X155034731Y-104052753D01*
X155005249Y-104107910D01*
X154987094Y-104167759D01*
X154980964Y-104230000D01*
X154980964Y-105930000D01*
X154983287Y-105953591D01*
X154917500Y-105997549D01*
X154917500Y-104520502D01*
X154919519Y-104500000D01*
X154917500Y-104479498D01*
X154917500Y-104479491D01*
X154911459Y-104418156D01*
X154899566Y-104378949D01*
X154887586Y-104339456D01*
X154848818Y-104266927D01*
X154809719Y-104219285D01*
X154809717Y-104219283D01*
X154796645Y-104203355D01*
X154780718Y-104190284D01*
X153259718Y-102669284D01*
X153246646Y-102653356D01*
X153183074Y-102601183D01*
X153110544Y-102562415D01*
X153031845Y-102538542D01*
X152970510Y-102532501D01*
X152970503Y-102532501D01*
X152950001Y-102530482D01*
X152929499Y-102532501D01*
X150293501Y-102532501D01*
X150272999Y-102530482D01*
X150252497Y-102532501D01*
X150252490Y-102532501D01*
X150191155Y-102538542D01*
X150112456Y-102562415D01*
X150068964Y-102585662D01*
X150039926Y-102601183D01*
X150001766Y-102632500D01*
X149912182Y-102632500D01*
X149792882Y-102656230D01*
X149680504Y-102702778D01*
X149579367Y-102770356D01*
X149493356Y-102856367D01*
X149425778Y-102957504D01*
X149379230Y-103069882D01*
X149355500Y-103189182D01*
X143676511Y-103189182D01*
X143722809Y-103077410D01*
X143747500Y-102953281D01*
X143747500Y-102826719D01*
X143722809Y-102702590D01*
X143674376Y-102585662D01*
X143604063Y-102480430D01*
X143514570Y-102390937D01*
X143409338Y-102320624D01*
X143292410Y-102272191D01*
X143168281Y-102247500D01*
X143041719Y-102247500D01*
X142917590Y-102272191D01*
X142800662Y-102320624D01*
X142695430Y-102390937D01*
X142605937Y-102480430D01*
X142535624Y-102585662D01*
X142487191Y-102702590D01*
X142462500Y-102826719D01*
X142462500Y-102953281D01*
X142487191Y-103077410D01*
X142535624Y-103194338D01*
X142605937Y-103299570D01*
X142695430Y-103389063D01*
X142800662Y-103459376D01*
X142917590Y-103507809D01*
X142931946Y-103510665D01*
X142894742Y-103514329D01*
X142740643Y-103561075D01*
X142598624Y-103636985D01*
X142474144Y-103739144D01*
X142371985Y-103863624D01*
X142296075Y-104005643D01*
X142249329Y-104159742D01*
X142233545Y-104320000D01*
X140546455Y-104320000D01*
X140530671Y-104159742D01*
X140491771Y-104031506D01*
X140890192Y-103633085D01*
X140913751Y-103613751D01*
X140956981Y-103561075D01*
X140990916Y-103519725D01*
X141023173Y-103459376D01*
X141048255Y-103412450D01*
X141083565Y-103296051D01*
X141092500Y-103205329D01*
X141092500Y-103205327D01*
X141095487Y-103175001D01*
X141092500Y-103144675D01*
X141092500Y-101439182D01*
X142382500Y-101439182D01*
X142382500Y-101560818D01*
X142406230Y-101680118D01*
X142452778Y-101792496D01*
X142520356Y-101893633D01*
X142606367Y-101979644D01*
X142707504Y-102047222D01*
X142819882Y-102093770D01*
X142939182Y-102117500D01*
X143060818Y-102117500D01*
X143180118Y-102093770D01*
X143292496Y-102047222D01*
X143393633Y-101979644D01*
X143479644Y-101893633D01*
X143547222Y-101792496D01*
X143593770Y-101680118D01*
X143617500Y-101560818D01*
X143617500Y-101439182D01*
X143593770Y-101319882D01*
X143547222Y-101207504D01*
X143479644Y-101106367D01*
X143417500Y-101044223D01*
X143417500Y-100672934D01*
X144632500Y-99457934D01*
X144632500Y-99560818D01*
X144656230Y-99680118D01*
X144702778Y-99792496D01*
X144770356Y-99893633D01*
X144832501Y-99955778D01*
X144832500Y-100321223D01*
X144770356Y-100383367D01*
X144702778Y-100484504D01*
X144656230Y-100596882D01*
X144632500Y-100716182D01*
X144632500Y-100837818D01*
X144656230Y-100957118D01*
X144702778Y-101069496D01*
X144770356Y-101170633D01*
X144856367Y-101256644D01*
X144957504Y-101324222D01*
X145069882Y-101370770D01*
X145189182Y-101394500D01*
X145310818Y-101394500D01*
X145430118Y-101370770D01*
X145542496Y-101324222D01*
X145643633Y-101256644D01*
X145729644Y-101170633D01*
X145797222Y-101069496D01*
X145843770Y-100957118D01*
X145867500Y-100837818D01*
X145867500Y-100750000D01*
X146879513Y-100750000D01*
X146882500Y-100780326D01*
X146882500Y-100780329D01*
X146891435Y-100871051D01*
X146926745Y-100987450D01*
X146944334Y-101020356D01*
X146984084Y-101094724D01*
X147034330Y-101155949D01*
X147061250Y-101188751D01*
X147084809Y-101208085D01*
X147547356Y-101670633D01*
X147633367Y-101756644D01*
X147658718Y-101773583D01*
X147682275Y-101792916D01*
X147709149Y-101807281D01*
X147734504Y-101824222D01*
X147762679Y-101835892D01*
X147789550Y-101850255D01*
X147818707Y-101859100D01*
X147846882Y-101870770D01*
X147876792Y-101876719D01*
X147905949Y-101885564D01*
X147936273Y-101888551D01*
X147966182Y-101894500D01*
X147996674Y-101894500D01*
X148027000Y-101897487D01*
X148057326Y-101894500D01*
X148087818Y-101894500D01*
X148117727Y-101888551D01*
X148148051Y-101885564D01*
X148177208Y-101876719D01*
X148207118Y-101870770D01*
X148235293Y-101859100D01*
X148264450Y-101850255D01*
X148291320Y-101835893D01*
X148319496Y-101824222D01*
X148344854Y-101807279D01*
X148371724Y-101792916D01*
X148395276Y-101773587D01*
X148420633Y-101756644D01*
X148442199Y-101735078D01*
X148465750Y-101715750D01*
X148485078Y-101692199D01*
X148506644Y-101670633D01*
X148523587Y-101645276D01*
X148542916Y-101621724D01*
X148557279Y-101594854D01*
X148574222Y-101569496D01*
X148585893Y-101541320D01*
X148600255Y-101514450D01*
X148609100Y-101485293D01*
X148620770Y-101457118D01*
X148626719Y-101427208D01*
X148635564Y-101398051D01*
X148638551Y-101367727D01*
X148644500Y-101337818D01*
X148644500Y-101307326D01*
X148647487Y-101277000D01*
X148644500Y-101246674D01*
X148644500Y-101216182D01*
X148638551Y-101186273D01*
X148635564Y-101155949D01*
X148626719Y-101126792D01*
X148620770Y-101096882D01*
X148609100Y-101068707D01*
X148600255Y-101039550D01*
X148585892Y-101012679D01*
X148574222Y-100984504D01*
X148557281Y-100959149D01*
X148542916Y-100932275D01*
X148523583Y-100908718D01*
X148506644Y-100883367D01*
X148420633Y-100797356D01*
X148117500Y-100494224D01*
X148117500Y-97939182D01*
X148111552Y-97909280D01*
X148108565Y-97878949D01*
X148099718Y-97849785D01*
X148093770Y-97819882D01*
X148082100Y-97791709D01*
X148073255Y-97762550D01*
X148058893Y-97735680D01*
X148047222Y-97707504D01*
X148030279Y-97682146D01*
X148015916Y-97655276D01*
X147996585Y-97631721D01*
X147979644Y-97606367D01*
X147958086Y-97584809D01*
X147938751Y-97561249D01*
X147915192Y-97541915D01*
X147893633Y-97520356D01*
X147868275Y-97503412D01*
X147844723Y-97484084D01*
X147817858Y-97469724D01*
X147792496Y-97452778D01*
X147764315Y-97441105D01*
X147737449Y-97426745D01*
X147708294Y-97417901D01*
X147680118Y-97406230D01*
X147650212Y-97400281D01*
X147621050Y-97391435D01*
X147590720Y-97388448D01*
X147560818Y-97382500D01*
X147530328Y-97382500D01*
X147500000Y-97379513D01*
X147469671Y-97382500D01*
X147439182Y-97382500D01*
X147409280Y-97388448D01*
X147378949Y-97391435D01*
X147349785Y-97400282D01*
X147319882Y-97406230D01*
X147291709Y-97417900D01*
X147262550Y-97426745D01*
X147235680Y-97441107D01*
X147207504Y-97452778D01*
X147182146Y-97469721D01*
X147155276Y-97484084D01*
X147131721Y-97503415D01*
X147106367Y-97520356D01*
X147084809Y-97541914D01*
X147061249Y-97561249D01*
X147041915Y-97584808D01*
X147020356Y-97606367D01*
X147003412Y-97631725D01*
X146984084Y-97655277D01*
X146969724Y-97682142D01*
X146952778Y-97707504D01*
X146941105Y-97735685D01*
X146926745Y-97762551D01*
X146917901Y-97791706D01*
X146906230Y-97819882D01*
X146900281Y-97849788D01*
X146891435Y-97878950D01*
X146888448Y-97909279D01*
X146882500Y-97939182D01*
X146882500Y-97969672D01*
X146882501Y-100189177D01*
X146882500Y-100189182D01*
X146882500Y-100719674D01*
X146879513Y-100750000D01*
X145867500Y-100750000D01*
X145867500Y-100716182D01*
X145843770Y-100596882D01*
X145797222Y-100484504D01*
X145729644Y-100383367D01*
X145667500Y-100321223D01*
X145667500Y-99955777D01*
X145729644Y-99893633D01*
X145797222Y-99792496D01*
X145843770Y-99680118D01*
X145867500Y-99560818D01*
X145867500Y-99439182D01*
X145843770Y-99319882D01*
X145797222Y-99207504D01*
X145729644Y-99106367D01*
X145643633Y-99020356D01*
X145542496Y-98952778D01*
X145430118Y-98906230D01*
X145310818Y-98882500D01*
X145207934Y-98882500D01*
X145472934Y-98617500D01*
X145560818Y-98617500D01*
X145680118Y-98593770D01*
X145792496Y-98547222D01*
X145893633Y-98479644D01*
X145979644Y-98393633D01*
X146047222Y-98292496D01*
X146093770Y-98180118D01*
X146117500Y-98060818D01*
X146117500Y-97939182D01*
X146093770Y-97819882D01*
X146047222Y-97707504D01*
X145979644Y-97606367D01*
X145893633Y-97520356D01*
X145792496Y-97452778D01*
X145680118Y-97406230D01*
X145560818Y-97382500D01*
X145439182Y-97382500D01*
X145319882Y-97406230D01*
X145207504Y-97452778D01*
X145106367Y-97520356D01*
X145020356Y-97606367D01*
X144952778Y-97707504D01*
X144906230Y-97819882D01*
X144882500Y-97939182D01*
X144882500Y-98027066D01*
X142719278Y-100190288D01*
X142703356Y-100203355D01*
X142690289Y-100219277D01*
X142690281Y-100219285D01*
X142651183Y-100266927D01*
X142612415Y-100339457D01*
X142588541Y-100418156D01*
X142580481Y-100500000D01*
X142582501Y-100520511D01*
X142582500Y-101044223D01*
X142520356Y-101106367D01*
X142452778Y-101207504D01*
X142406230Y-101319882D01*
X142382500Y-101439182D01*
X141092500Y-101439182D01*
X141092500Y-96760325D01*
X141095487Y-96729999D01*
X141088646Y-96660543D01*
X141083565Y-96608949D01*
X141048255Y-96492550D01*
X141008491Y-96418156D01*
X140990916Y-96385275D01*
X140933084Y-96314807D01*
X140913751Y-96291249D01*
X140890191Y-96271914D01*
X140513881Y-95895605D01*
X140530671Y-95840258D01*
X140546455Y-95680000D01*
X142233545Y-95680000D01*
X142249329Y-95840258D01*
X142296075Y-95994357D01*
X142371985Y-96136376D01*
X142474144Y-96260856D01*
X142598624Y-96363015D01*
X142740643Y-96438925D01*
X142894742Y-96485671D01*
X142931946Y-96489335D01*
X142917590Y-96492191D01*
X142800662Y-96540624D01*
X142695430Y-96610937D01*
X142605937Y-96700430D01*
X142535624Y-96805662D01*
X142487191Y-96922590D01*
X142462500Y-97046719D01*
X142462500Y-97173281D01*
X142487191Y-97297410D01*
X142535624Y-97414338D01*
X142605937Y-97519570D01*
X142695430Y-97609063D01*
X142800662Y-97679376D01*
X142917590Y-97727809D01*
X143041719Y-97752500D01*
X143168281Y-97752500D01*
X143292410Y-97727809D01*
X143409338Y-97679376D01*
X143514570Y-97609063D01*
X143604063Y-97519570D01*
X143674376Y-97414338D01*
X143722809Y-97297410D01*
X143747500Y-97173281D01*
X143747500Y-97046719D01*
X143722809Y-96922590D01*
X143674376Y-96805662D01*
X143604063Y-96700430D01*
X143514570Y-96610937D01*
X143409338Y-96540624D01*
X143311263Y-96500000D01*
X149629513Y-96500000D01*
X149632500Y-96530329D01*
X149632500Y-96560818D01*
X149638448Y-96590720D01*
X149641435Y-96621051D01*
X149650282Y-96650215D01*
X149656230Y-96680118D01*
X149667900Y-96708291D01*
X149676745Y-96737450D01*
X149691107Y-96764320D01*
X149702778Y-96792496D01*
X149719721Y-96817854D01*
X149734084Y-96844724D01*
X149753415Y-96868279D01*
X149770356Y-96893633D01*
X149791914Y-96915191D01*
X149811249Y-96938751D01*
X149834809Y-96958086D01*
X149856367Y-96979644D01*
X149881721Y-96996585D01*
X149905276Y-97015916D01*
X149932146Y-97030279D01*
X149957504Y-97047222D01*
X149985680Y-97058893D01*
X150012550Y-97073255D01*
X150041709Y-97082100D01*
X150069882Y-97093770D01*
X150099785Y-97099718D01*
X150128949Y-97108565D01*
X150159280Y-97111552D01*
X150189182Y-97117500D01*
X151494224Y-97117500D01*
X152354414Y-97977691D01*
X152373749Y-98001251D01*
X152397307Y-98020584D01*
X152467775Y-98078416D01*
X152575050Y-98135755D01*
X152691449Y-98171065D01*
X152782171Y-98180000D01*
X152782174Y-98180000D01*
X152812500Y-98182987D01*
X152842826Y-98180000D01*
X157060818Y-98180000D01*
X157090720Y-98174052D01*
X157121051Y-98171065D01*
X157150215Y-98162218D01*
X157180118Y-98156270D01*
X157208291Y-98144600D01*
X157237450Y-98135755D01*
X157264320Y-98121393D01*
X157292496Y-98109722D01*
X157317854Y-98092779D01*
X157344724Y-98078416D01*
X157368279Y-98059085D01*
X157393633Y-98042144D01*
X157415193Y-98020584D01*
X157438751Y-98001251D01*
X157458086Y-97977691D01*
X157479644Y-97956133D01*
X157496585Y-97930779D01*
X157515916Y-97907224D01*
X157530279Y-97880354D01*
X157547222Y-97854996D01*
X157558893Y-97826820D01*
X157573255Y-97799950D01*
X157582100Y-97770791D01*
X157593770Y-97742618D01*
X157599718Y-97712715D01*
X157608565Y-97683551D01*
X157611552Y-97653220D01*
X157617500Y-97623318D01*
X157617500Y-97592829D01*
X157620487Y-97562500D01*
X157617500Y-97532171D01*
X157617500Y-97501682D01*
X157611552Y-97471780D01*
X157608565Y-97441449D01*
X157599718Y-97412285D01*
X157593770Y-97382382D01*
X157582100Y-97354209D01*
X157573255Y-97325050D01*
X157558893Y-97298180D01*
X157547222Y-97270004D01*
X157530279Y-97244646D01*
X157515916Y-97217776D01*
X157496585Y-97194221D01*
X157479644Y-97168867D01*
X157458084Y-97147307D01*
X157438751Y-97123749D01*
X157415191Y-97104414D01*
X157393633Y-97082856D01*
X157368279Y-97065915D01*
X157344724Y-97046584D01*
X157317854Y-97032221D01*
X157292496Y-97015278D01*
X157264320Y-97003607D01*
X157237450Y-96989245D01*
X157208291Y-96980400D01*
X157180118Y-96968730D01*
X157150215Y-96962782D01*
X157121051Y-96953935D01*
X157090720Y-96950948D01*
X157060818Y-96945000D01*
X154428277Y-96945000D01*
X154455777Y-96917500D01*
X157089498Y-96917500D01*
X157110000Y-96919519D01*
X157130502Y-96917500D01*
X157130509Y-96917500D01*
X157191844Y-96911459D01*
X157270543Y-96887586D01*
X157343073Y-96848818D01*
X157406645Y-96796645D01*
X157419717Y-96780717D01*
X158213934Y-95986500D01*
X158349453Y-96042634D01*
X158575011Y-96087500D01*
X158804989Y-96087500D01*
X159030547Y-96042634D01*
X159243019Y-95954625D01*
X159434238Y-95826856D01*
X159596856Y-95664238D01*
X159724625Y-95473019D01*
X159812634Y-95260547D01*
X159857500Y-95034989D01*
X159857500Y-94805011D01*
X159812634Y-94579453D01*
X159724625Y-94366981D01*
X159596856Y-94175762D01*
X159434238Y-94013144D01*
X159243019Y-93885375D01*
X159030547Y-93797366D01*
X158804989Y-93752500D01*
X158575011Y-93752500D01*
X158349453Y-93797366D01*
X158136981Y-93885375D01*
X157945762Y-94013144D01*
X157783144Y-94175762D01*
X157655375Y-94366981D01*
X157567366Y-94579453D01*
X157522500Y-94805011D01*
X157522500Y-95034989D01*
X157567366Y-95260547D01*
X157623500Y-95396066D01*
X156937066Y-96082500D01*
X156290126Y-96082500D01*
X156490547Y-96042634D01*
X156703019Y-95954625D01*
X156894238Y-95826856D01*
X157056856Y-95664238D01*
X157184625Y-95473019D01*
X157272634Y-95260547D01*
X157317500Y-95034989D01*
X157317500Y-94805011D01*
X157272634Y-94579453D01*
X157184625Y-94366981D01*
X157056856Y-94175762D01*
X157048594Y-94167500D01*
X157299498Y-94167500D01*
X157320000Y-94169519D01*
X157340502Y-94167500D01*
X157340509Y-94167500D01*
X157401844Y-94161459D01*
X157480543Y-94137586D01*
X157553073Y-94098818D01*
X157616645Y-94046645D01*
X157629717Y-94030717D01*
X158213934Y-93446500D01*
X158349453Y-93502634D01*
X158575011Y-93547500D01*
X158804989Y-93547500D01*
X159030547Y-93502634D01*
X159243019Y-93414625D01*
X159434238Y-93286856D01*
X159596856Y-93124238D01*
X159724625Y-92933019D01*
X159812634Y-92720547D01*
X159857500Y-92494989D01*
X159857500Y-92265011D01*
X159812634Y-92039453D01*
X159724625Y-91826981D01*
X159596856Y-91635762D01*
X159434238Y-91473144D01*
X159243019Y-91345375D01*
X159030547Y-91257366D01*
X158804989Y-91212500D01*
X158575011Y-91212500D01*
X158349453Y-91257366D01*
X158136981Y-91345375D01*
X157945762Y-91473144D01*
X157783144Y-91635762D01*
X157655375Y-91826981D01*
X157567366Y-92039453D01*
X157522500Y-92265011D01*
X157522500Y-92494989D01*
X157567366Y-92720547D01*
X157623500Y-92856066D01*
X157147066Y-93332500D01*
X156825927Y-93332500D01*
X156894238Y-93286856D01*
X157056856Y-93124238D01*
X157184625Y-92933019D01*
X157272634Y-92720547D01*
X157317500Y-92494989D01*
X157317500Y-92265011D01*
X157272634Y-92039453D01*
X157184625Y-91826981D01*
X157078063Y-91667500D01*
X157259498Y-91667500D01*
X157280000Y-91669519D01*
X157300502Y-91667500D01*
X157300509Y-91667500D01*
X157361844Y-91661459D01*
X157440543Y-91637586D01*
X157513073Y-91598818D01*
X157576645Y-91546645D01*
X157589717Y-91530717D01*
X158213934Y-90906500D01*
X158349453Y-90962634D01*
X158575011Y-91007500D01*
X158804989Y-91007500D01*
X159030547Y-90962634D01*
X159243019Y-90874625D01*
X159434238Y-90746856D01*
X159596856Y-90584238D01*
X159724625Y-90393019D01*
X159812634Y-90180547D01*
X159857500Y-89954989D01*
X159857500Y-89725011D01*
X159812634Y-89499453D01*
X159724625Y-89286981D01*
X159596856Y-89095762D01*
X159434238Y-88933144D01*
X159243019Y-88805375D01*
X159030547Y-88717366D01*
X158804989Y-88672500D01*
X158575011Y-88672500D01*
X158349453Y-88717366D01*
X158136981Y-88805375D01*
X157945762Y-88933144D01*
X157783144Y-89095762D01*
X157655375Y-89286981D01*
X157567366Y-89499453D01*
X157522500Y-89725011D01*
X157522500Y-89954989D01*
X157567366Y-90180547D01*
X157623500Y-90316066D01*
X157107066Y-90832500D01*
X156766063Y-90832500D01*
X156894238Y-90746856D01*
X157056856Y-90584238D01*
X157184625Y-90393019D01*
X157272634Y-90180547D01*
X157317500Y-89954989D01*
X157317500Y-89725011D01*
X157272634Y-89499453D01*
X157184625Y-89286981D01*
X157056856Y-89095762D01*
X156894238Y-88933144D01*
X156703019Y-88805375D01*
X156490547Y-88717366D01*
X156264989Y-88672500D01*
X156035011Y-88672500D01*
X155809453Y-88717366D01*
X155596981Y-88805375D01*
X155405762Y-88933144D01*
X155243144Y-89095762D01*
X155115375Y-89286981D01*
X155027366Y-89499453D01*
X154982500Y-89725011D01*
X154982500Y-89954989D01*
X155027366Y-90180547D01*
X155115375Y-90393019D01*
X155243144Y-90584238D01*
X155405762Y-90746856D01*
X155533937Y-90832500D01*
X153928777Y-90832500D01*
X153866633Y-90770356D01*
X153765496Y-90702778D01*
X153653118Y-90656230D01*
X153533818Y-90632500D01*
X153412182Y-90632500D01*
X153292882Y-90656230D01*
X153180504Y-90702778D01*
X153079367Y-90770356D01*
X152993356Y-90856367D01*
X152925778Y-90957504D01*
X152879230Y-91069882D01*
X152855500Y-91189182D01*
X152855500Y-91310818D01*
X152879230Y-91430118D01*
X152925778Y-91542496D01*
X152993356Y-91643633D01*
X153079367Y-91729644D01*
X153180504Y-91797222D01*
X153292882Y-91843770D01*
X153412182Y-91867500D01*
X153533818Y-91867500D01*
X153653118Y-91843770D01*
X153765496Y-91797222D01*
X153866633Y-91729644D01*
X153928777Y-91667500D01*
X155221937Y-91667500D01*
X155115375Y-91826981D01*
X155027366Y-92039453D01*
X154982500Y-92265011D01*
X154982500Y-92494989D01*
X155027366Y-92720547D01*
X155115375Y-92933019D01*
X155243144Y-93124238D01*
X155405762Y-93286856D01*
X155474073Y-93332500D01*
X153705777Y-93332500D01*
X153643633Y-93270356D01*
X153542496Y-93202778D01*
X153430118Y-93156230D01*
X153310818Y-93132500D01*
X153189182Y-93132500D01*
X153069882Y-93156230D01*
X152957504Y-93202778D01*
X152856367Y-93270356D01*
X152770356Y-93356367D01*
X152702778Y-93457504D01*
X152656230Y-93569882D01*
X152632500Y-93689182D01*
X152632500Y-93810818D01*
X152656230Y-93930118D01*
X152702778Y-94042496D01*
X152770356Y-94143633D01*
X152856367Y-94229644D01*
X152957504Y-94297222D01*
X153069882Y-94343770D01*
X153189182Y-94367500D01*
X153310818Y-94367500D01*
X153430118Y-94343770D01*
X153542496Y-94297222D01*
X153643633Y-94229644D01*
X153705777Y-94167500D01*
X155251406Y-94167500D01*
X155243144Y-94175762D01*
X155115375Y-94366981D01*
X155027366Y-94579453D01*
X154982500Y-94805011D01*
X154982500Y-95034989D01*
X155027366Y-95260547D01*
X155115375Y-95473019D01*
X155243144Y-95664238D01*
X155405762Y-95826856D01*
X155596981Y-95954625D01*
X155809453Y-96042634D01*
X156009874Y-96082500D01*
X154455777Y-96082500D01*
X154393633Y-96020356D01*
X154292496Y-95952778D01*
X154180118Y-95906230D01*
X154060818Y-95882500D01*
X153939182Y-95882500D01*
X153819882Y-95906230D01*
X153707504Y-95952778D01*
X153606367Y-96020356D01*
X153520356Y-96106367D01*
X153452778Y-96207504D01*
X153406230Y-96319882D01*
X153382500Y-96439182D01*
X153382500Y-96560818D01*
X153406230Y-96680118D01*
X153452778Y-96792496D01*
X153520356Y-96893633D01*
X153571723Y-96945000D01*
X153068277Y-96945000D01*
X152229646Y-96106370D01*
X152229644Y-96106367D01*
X152208086Y-96084809D01*
X152188751Y-96061249D01*
X152165191Y-96041914D01*
X152143633Y-96020356D01*
X152118279Y-96003415D01*
X152094724Y-95984084D01*
X152067854Y-95969721D01*
X152042496Y-95952778D01*
X152014320Y-95941107D01*
X151987450Y-95926745D01*
X151958291Y-95917900D01*
X151930118Y-95906230D01*
X151900215Y-95900282D01*
X151871051Y-95891435D01*
X151840720Y-95888448D01*
X151810818Y-95882500D01*
X151780326Y-95882500D01*
X151750000Y-95879513D01*
X151719674Y-95882500D01*
X150189182Y-95882500D01*
X150159280Y-95888448D01*
X150128949Y-95891435D01*
X150099785Y-95900282D01*
X150069882Y-95906230D01*
X150041709Y-95917900D01*
X150012550Y-95926745D01*
X149985680Y-95941107D01*
X149957504Y-95952778D01*
X149932146Y-95969721D01*
X149905276Y-95984084D01*
X149881721Y-96003415D01*
X149856367Y-96020356D01*
X149834809Y-96041914D01*
X149811249Y-96061249D01*
X149791914Y-96084809D01*
X149770356Y-96106367D01*
X149753415Y-96131721D01*
X149734084Y-96155276D01*
X149719721Y-96182146D01*
X149702778Y-96207504D01*
X149691107Y-96235680D01*
X149676745Y-96262550D01*
X149667900Y-96291709D01*
X149656230Y-96319882D01*
X149650282Y-96349785D01*
X149641435Y-96378949D01*
X149638448Y-96409280D01*
X149632500Y-96439182D01*
X149632500Y-96469671D01*
X149629513Y-96500000D01*
X143311263Y-96500000D01*
X143305227Y-96497500D01*
X144195156Y-96497500D01*
X144315258Y-96485671D01*
X144469357Y-96438925D01*
X144611376Y-96363015D01*
X144735856Y-96260856D01*
X144838015Y-96136376D01*
X144913925Y-95994357D01*
X144960671Y-95840258D01*
X144976455Y-95680000D01*
X144960671Y-95519742D01*
X144913925Y-95365643D01*
X144838015Y-95223624D01*
X144735856Y-95099144D01*
X144611376Y-94996985D01*
X144469357Y-94921075D01*
X144315258Y-94874329D01*
X144195156Y-94862500D01*
X143014844Y-94862500D01*
X142894742Y-94874329D01*
X142740643Y-94921075D01*
X142598624Y-94996985D01*
X142474144Y-95099144D01*
X142371985Y-95223624D01*
X142296075Y-95365643D01*
X142249329Y-95519742D01*
X142233545Y-95680000D01*
X140546455Y-95680000D01*
X140530671Y-95519742D01*
X140483925Y-95365643D01*
X140408015Y-95223624D01*
X140305856Y-95099144D01*
X140181376Y-94996985D01*
X140039357Y-94921075D01*
X139885258Y-94874329D01*
X139765156Y-94862500D01*
X139084844Y-94862500D01*
X138964742Y-94874329D01*
X138810643Y-94921075D01*
X138668624Y-94996985D01*
X138544144Y-95099144D01*
X138441985Y-95223624D01*
X138366075Y-95365643D01*
X138319329Y-95519742D01*
X138303545Y-95680000D01*
X137851005Y-95680000D01*
X137889961Y-95282702D01*
X138025674Y-94833197D01*
X138246109Y-94418620D01*
X138553594Y-94041607D01*
X139172472Y-93413004D01*
X139140837Y-93489376D01*
X139106500Y-93661998D01*
X139106500Y-93838002D01*
X139140837Y-94010624D01*
X139208191Y-94173231D01*
X139305973Y-94319573D01*
X139430427Y-94444027D01*
X139576769Y-94541809D01*
X139739376Y-94609163D01*
X139911998Y-94643500D01*
X140088002Y-94643500D01*
X140260624Y-94609163D01*
X140423231Y-94541809D01*
X140569573Y-94444027D01*
X140694027Y-94319573D01*
X140791809Y-94173231D01*
X140859163Y-94010624D01*
X140893500Y-93838002D01*
X140893500Y-93661998D01*
X140859163Y-93489376D01*
X140791809Y-93326769D01*
X140694027Y-93180427D01*
X140569573Y-93055973D01*
X140423231Y-92958191D01*
X140260624Y-92890837D01*
X140088002Y-92856500D01*
X139911998Y-92856500D01*
X139739376Y-92890837D01*
X139650188Y-92927780D01*
X145304107Y-87185011D01*
X154982500Y-87185011D01*
X154982500Y-87414989D01*
X155027366Y-87640547D01*
X155115375Y-87853019D01*
X155243144Y-88044238D01*
X155405762Y-88206856D01*
X155596981Y-88334625D01*
X155809453Y-88422634D01*
X156035011Y-88467500D01*
X156264989Y-88467500D01*
X156490547Y-88422634D01*
X156703019Y-88334625D01*
X156894238Y-88206856D01*
X157056856Y-88044238D01*
X157184625Y-87853019D01*
X157272634Y-87640547D01*
X157317500Y-87414989D01*
X157317500Y-87185011D01*
X157522500Y-87185011D01*
X157522500Y-87414989D01*
X157567366Y-87640547D01*
X157655375Y-87853019D01*
X157783144Y-88044238D01*
X157945762Y-88206856D01*
X158136981Y-88334625D01*
X158349453Y-88422634D01*
X158575011Y-88467500D01*
X158804989Y-88467500D01*
X159030547Y-88422634D01*
X159243019Y-88334625D01*
X159434238Y-88206856D01*
X159596856Y-88044238D01*
X159724625Y-87853019D01*
X159812634Y-87640547D01*
X159857500Y-87414989D01*
X159857500Y-87185011D01*
X159812634Y-86959453D01*
X159724625Y-86746981D01*
X159596856Y-86555762D01*
X159434238Y-86393144D01*
X159243019Y-86265375D01*
X159030547Y-86177366D01*
X158804989Y-86132500D01*
X158575011Y-86132500D01*
X158349453Y-86177366D01*
X158136981Y-86265375D01*
X157945762Y-86393144D01*
X157783144Y-86555762D01*
X157655375Y-86746981D01*
X157567366Y-86959453D01*
X157522500Y-87185011D01*
X157317500Y-87185011D01*
X157272634Y-86959453D01*
X157184625Y-86746981D01*
X157056856Y-86555762D01*
X156894238Y-86393144D01*
X156703019Y-86265375D01*
X156490547Y-86177366D01*
X156264989Y-86132500D01*
X156035011Y-86132500D01*
X155809453Y-86177366D01*
X155596981Y-86265375D01*
X155405762Y-86393144D01*
X155243144Y-86555762D01*
X155115375Y-86746981D01*
X155027366Y-86959453D01*
X154982500Y-87185011D01*
X145304107Y-87185011D01*
X147328954Y-85128344D01*
X155042129Y-85128344D01*
X155106150Y-85282931D01*
X155228226Y-85476528D01*
X155385725Y-85642589D01*
X155572595Y-85774733D01*
X155781654Y-85867881D01*
X155959500Y-85832488D01*
X155959500Y-84950500D01*
X156340500Y-84950500D01*
X156340500Y-85832488D01*
X156518346Y-85867881D01*
X156727405Y-85774733D01*
X156914275Y-85642589D01*
X157071774Y-85476528D01*
X157193850Y-85282931D01*
X157257871Y-85128344D01*
X157582129Y-85128344D01*
X157646150Y-85282931D01*
X157768226Y-85476528D01*
X157925725Y-85642589D01*
X158112595Y-85774733D01*
X158321654Y-85867881D01*
X158499500Y-85832488D01*
X158499500Y-84950500D01*
X158880500Y-84950500D01*
X158880500Y-85832488D01*
X159058346Y-85867881D01*
X159267405Y-85774733D01*
X159454275Y-85642589D01*
X159611774Y-85476528D01*
X159733850Y-85282931D01*
X159797871Y-85128344D01*
X159761320Y-84950500D01*
X158880500Y-84950500D01*
X158499500Y-84950500D01*
X157618680Y-84950500D01*
X157582129Y-85128344D01*
X157257871Y-85128344D01*
X157221320Y-84950500D01*
X156340500Y-84950500D01*
X155959500Y-84950500D01*
X155078680Y-84950500D01*
X155042129Y-85128344D01*
X147328954Y-85128344D01*
X148054244Y-84391656D01*
X155042129Y-84391656D01*
X155078680Y-84569500D01*
X155959500Y-84569500D01*
X155959500Y-83687512D01*
X156340500Y-83687512D01*
X156340500Y-84569500D01*
X157221320Y-84569500D01*
X157257871Y-84391656D01*
X157582129Y-84391656D01*
X157618680Y-84569500D01*
X158499500Y-84569500D01*
X158499500Y-83687512D01*
X158880500Y-83687512D01*
X158880500Y-84569500D01*
X159761320Y-84569500D01*
X159797871Y-84391656D01*
X159733850Y-84237069D01*
X159611774Y-84043472D01*
X159454275Y-83877411D01*
X159267405Y-83745267D01*
X159058346Y-83652119D01*
X158880500Y-83687512D01*
X158499500Y-83687512D01*
X158321654Y-83652119D01*
X158112595Y-83745267D01*
X157925725Y-83877411D01*
X157768226Y-84043472D01*
X157646150Y-84237069D01*
X157582129Y-84391656D01*
X157257871Y-84391656D01*
X157193850Y-84237069D01*
X157071774Y-84043472D01*
X156914275Y-83877411D01*
X156727405Y-83745267D01*
X156518346Y-83652119D01*
X156340500Y-83687512D01*
X155959500Y-83687512D01*
X155781654Y-83652119D01*
X155572595Y-83745267D01*
X155385725Y-83877411D01*
X155228226Y-84043472D01*
X155106150Y-84237069D01*
X155042129Y-84391656D01*
X148054244Y-84391656D01*
X149072863Y-83357030D01*
X150050209Y-82516530D01*
X151116103Y-81803114D01*
X151970006Y-81370000D01*
X154980964Y-81370000D01*
X154980964Y-83070000D01*
X154987094Y-83132241D01*
X155005249Y-83192090D01*
X155034731Y-83247247D01*
X155074407Y-83295593D01*
X155122753Y-83335269D01*
X155177910Y-83364751D01*
X155237759Y-83382906D01*
X155300000Y-83389036D01*
X157000000Y-83389036D01*
X157062241Y-83382906D01*
X157122090Y-83364751D01*
X157177247Y-83335269D01*
X157225593Y-83295593D01*
X157265269Y-83247247D01*
X157294751Y-83192090D01*
X157312906Y-83132241D01*
X157319036Y-83070000D01*
X157319036Y-82105011D01*
X157522500Y-82105011D01*
X157522500Y-82334989D01*
X157567366Y-82560547D01*
X157655375Y-82773019D01*
X157783144Y-82964238D01*
X157945762Y-83126856D01*
X158136981Y-83254625D01*
X158349453Y-83342634D01*
X158575011Y-83387500D01*
X158804989Y-83387500D01*
X159030547Y-83342634D01*
X159243019Y-83254625D01*
X159434238Y-83126856D01*
X159596856Y-82964238D01*
X159724625Y-82773019D01*
X159812634Y-82560547D01*
X159857500Y-82334989D01*
X159857500Y-82105011D01*
X159812634Y-81879453D01*
X159724625Y-81666981D01*
X159596856Y-81475762D01*
X159434238Y-81313144D01*
X159243019Y-81185375D01*
X159186583Y-81161998D01*
X160356500Y-81161998D01*
X160356500Y-81338002D01*
X160390837Y-81510624D01*
X160458191Y-81673231D01*
X160555973Y-81819573D01*
X160680427Y-81944027D01*
X160826769Y-82041809D01*
X160989376Y-82109163D01*
X161161998Y-82143500D01*
X161338002Y-82143500D01*
X161510624Y-82109163D01*
X161673231Y-82041809D01*
X161819573Y-81944027D01*
X161944027Y-81819573D01*
X162041809Y-81673231D01*
X162109163Y-81510624D01*
X162143500Y-81338002D01*
X162143500Y-81161998D01*
X162109163Y-80989376D01*
X162041809Y-80826769D01*
X161944027Y-80680427D01*
X161819573Y-80555973D01*
X161673231Y-80458191D01*
X161510624Y-80390837D01*
X161338002Y-80356500D01*
X161161998Y-80356500D01*
X160989376Y-80390837D01*
X160826769Y-80458191D01*
X160680427Y-80555973D01*
X160555973Y-80680427D01*
X160458191Y-80826769D01*
X160390837Y-80989376D01*
X160356500Y-81161998D01*
X159186583Y-81161998D01*
X159030547Y-81097366D01*
X158804989Y-81052500D01*
X158575011Y-81052500D01*
X158349453Y-81097366D01*
X158136981Y-81185375D01*
X157945762Y-81313144D01*
X157783144Y-81475762D01*
X157655375Y-81666981D01*
X157567366Y-81879453D01*
X157522500Y-82105011D01*
X157319036Y-82105011D01*
X157319036Y-81370000D01*
X157312906Y-81307759D01*
X157294751Y-81247910D01*
X157265269Y-81192753D01*
X157225593Y-81144407D01*
X157177247Y-81104731D01*
X157122090Y-81075249D01*
X157062241Y-81057094D01*
X157000000Y-81050964D01*
X155300000Y-81050964D01*
X155237759Y-81057094D01*
X155177910Y-81075249D01*
X155122753Y-81104731D01*
X155074407Y-81144407D01*
X155034731Y-81192753D01*
X155005249Y-81247910D01*
X154987094Y-81307759D01*
X154980964Y-81370000D01*
X151970006Y-81370000D01*
X152259983Y-81222919D01*
X153465273Y-80784351D01*
X154714536Y-80493755D01*
X155995837Y-80354678D01*
X156504113Y-80342500D01*
X161483253Y-80342500D01*
X161627388Y-80356633D01*
G37*
%TD.AperFunction*%
%TD*%
M02*
