M48
; DRILL file {KiCad (5.1.9-0-10_14)} date Sunday, February 28, 2021 at 11:16:05 AM
; FORMAT={-:-/ absolute / inch / decimal}
; #@! TF.CreationDate,2021-02-28T11:16:05+01:00
; #@! TF.GenerationSoftware,Kicad,Pcbnew,(5.1.9-0-10_14)
FMAT,2
INCH
T1C0.0118
T2C0.0236
T3C0.0394
T4C0.0256
T5C0.0454
%
G90
G05
T1
X5.6211Y-4.187
X5.6299Y-3.9961
X5.6761Y-4.187
X5.6806Y-3.719
X5.7087Y-3.7894
X5.7121Y-4.062
X5.7185Y-3.9173
X5.7185Y-3.9676
X5.7283Y-3.8583
X5.7579Y-3.6713
X5.7579Y-4.3602
X5.7628Y-4.0797
X5.8071Y-3.8583
X5.8071Y-3.9469
X5.8268Y-3.6713
X5.8278Y-3.9873
X5.876Y-4.2913
X5.8957Y-4.2126
X5.9044Y-4.065
X5.9154Y-3.7992
X5.9154Y-3.8976
X5.9154Y-3.937
X5.9154Y-3.9764
X5.9547Y-3.8976
X5.9547Y-3.937
X5.9547Y-3.9764
X5.9547Y-4.2224
X5.9646Y-4.1339
X5.9744Y-3.7992
X5.9941Y-3.8976
X5.9941Y-3.937
X5.9941Y-3.9764
X5.9941Y-4.3602
X5.9946Y-4.0842
X6.0236Y-4.2126
X6.0335Y-3.6909
X6.0422Y-3.5925
X6.0507Y-3.841
X6.063Y-3.7992
X6.0827Y-4.0256
X6.1133Y-4.1929
X6.1811Y-3.841
X6.2106Y-4.0256
T3
X6.1476Y-3.237
X6.1476Y-3.337
X6.1476Y-3.437
X6.1476Y-3.537
X6.1476Y-3.637
X6.1476Y-3.737
X6.1476Y-4.137
X6.1476Y-4.237
X6.1476Y-4.337
X6.1476Y-4.437
X6.1476Y-4.537
X6.1476Y-4.637
X6.2476Y-3.237
X6.2476Y-3.337
X6.2476Y-3.437
X6.2476Y-3.537
X6.2476Y-3.637
X6.2476Y-3.737
X6.2476Y-4.137
X6.2476Y-4.237
X6.2476Y-4.337
X6.2476Y-4.437
X6.2476Y-4.537
X6.2476Y-4.637
T4
X5.6341Y-3.8232
X5.6341Y-4.0508
T5
X5.5118Y-3.6909
X5.5118Y-4.1831
X6.3484Y-3.1988
X6.3484Y-4.6752
T2
G00X5.501Y-3.7669
M15
G01X5.4774Y-3.7669
M16
G05
G00X5.501Y-4.1071
M15
G01X5.4774Y-4.1071
M16
G05
G00X5.6754Y-3.7669
M15
G01X5.6321Y-3.7669
M16
G05
G00X5.6754Y-4.1071
M15
G01X5.6321Y-4.1071
M16
G05
T0
M30
